<?xml version="1.0" standalone="no"?>
<!DOCTYPE svg PUBLIC "-//W3C//DTD SVG 20010904//EN"
 "http://www.w3.org/TR/2001/REC-SVG-20010904/DTD/svg10.dtd">
<svg version="1.0" xmlns="http://www.w3.org/2000/svg"
 width="600.000000pt" height="900.000000pt" viewBox="0 0 600.000000 900.000000"
 preserveAspectRatio="xMidYMid meet">

<g transform="translate(0.000000,900.000000) scale(0.100000,-0.100000)"
fill="#000000" stroke="none">
<path d="M0 6769 l0 -2231 30 6 c17 3 30 1 30 -4 0 -6 -13 -10 -30 -10 -25 0
-30 -4 -30 -24 0 -22 4 -23 88 -29 48 -3 152 -4 231 -2 129 4 147 6 165 25
l20 20 -21 0 c-12 0 -25 -4 -28 -10 -3 -5 -21 -10 -39 -10 -30 0 -33 2 -28 25
4 23 6 24 17 9 9 -13 16 -14 33 -5 31 17 60 13 72 -8 13 -26 13 -29 -7 -35
-10 -2 16 -2 58 1 63 4 77 2 82 -11 3 -8 2 -18 -4 -22 -5 -3 -72 -3 -149 1
-119 6 -141 5 -161 -9 -15 -10 -42 -16 -74 -15 -51 1 -122 15 -95 19 31 4 -41
18 -99 19 l-61 1 0 -2235 0 -2235 3000 0 3000 0 0 4500 0 4500 -3000 0 -3000
0 0 -2231z m3170 1416 c7 -8 9 -15 6 -15 -4 0 -14 7 -22 15 -9 8 -11 15 -6 15
5 0 15 -7 22 -15z m-556 -7 c-7 -11 -64 -10 -64 1 0 5 15 9 34 8 19 0 33 -5
30 -9z m3222 -18 c2 -30 -16 -57 -26 -40 -5 8 -30 7 -86 -3 -43 -8 -68 -15
-54 -16 51 -2 1 -19 -90 -30 -154 -18 -307 -37 -630 -80 -168 -22 -334 -43
-370 -46 -84 -9 -108 -12 -118 -19 -12 -7 -2 -67 16 -94 14 -21 16 -22 25 -7
6 12 5 20 -3 25 -7 4 -9 16 -6 28 7 21 8 21 221 41 50 4 169 17 265 29 329 40
677 79 782 89 l66 6 11 -39 c13 -51 37 -1749 24 -1766 -13 -19 -17 -118 -4
-118 14 0 15 -1846 1 -1855 -5 -3 -210 -6 -456 -5 -246 0 -446 -2 -443 -4 4
-4 167 -15 236 -16 32 0 41 -3 37 -14 -8 -21 77 -32 92 -11 14 18 30 20 37 3
4 -10 8 -9 16 2 8 12 38 16 137 18 112 3 126 2 121 -12 -5 -13 2 -16 38 -16
25 0 45 -4 45 -9 0 -5 10 -12 23 -15 21 -7 21 -7 2 -15 -18 -7 -17 -9 10 -19
22 -8 -88 -11 -435 -13 -554 -2 -517 -14 75 -24 226 -4 412 -9 414 -11 2 -2
-6 -7 -19 -12 -21 -8 -21 -9 -6 -25 26 -26 12 -34 -46 -28 -75 8 -707 -2 -683
-11 15 -6 525 -26 690 -28 17 0 17 -2 5 -10 -13 -8 -12 -10 3 -10 9 0 17 -7
17 -16 0 -9 -5 -12 -12 -8 -6 4 -8 3 -4 -4 3 -5 0 -13 -6 -16 -9 -4 -8 -5 2
-5 8 1 22 1 30 0 25 -2 -10 -21 -40 -21 -20 0 -22 -2 -10 -10 8 -5 54 -10 103
-10 51 0 87 -4 87 -10 0 -7 -85 -9 -246 -6 -186 4 -244 2 -241 -7 5 -15 70
-25 162 -26 62 -1 72 -4 92 -28 26 -30 29 -43 10 -43 -8 0 -34 -14 -58 -32
-24 -17 -45 -31 -46 -30 -2 1 -8 0 -15 -3 -7 -2 -29 -8 -48 -13 -21 -5 -40
-18 -47 -32 -10 -20 -8 -26 10 -41 16 -12 26 -14 35 -7 9 8 12 6 13 -8 0 -14
4 -11 14 11 14 30 14 29 15 -29 l0 -59 -97 6 c-54 4 -133 7 -175 7 l-77 0 6
36 c5 31 2 39 -23 60 -28 23 -32 23 -174 18 -80 -3 -154 -8 -164 -11 -15 -4
-18 -2 -11 13 14 33 26 117 25 174 -1 91 -51 173 -139 230 l-23 16 35 24 c40
27 54 52 62 108 5 34 2 41 -47 92 -29 30 -65 62 -79 70 -15 8 -44 27 -65 41
-22 14 -84 43 -139 64 -116 44 -146 68 -163 129 -6 25 -24 56 -42 72 -23 22
-30 38 -30 67 0 70 -20 123 -61 163 -23 23 -39 47 -39 62 0 13 -4 20 -10 17
-5 -3 -10 -14 -10 -25 0 -23 -32 -16 -76 17 -28 21 -32 30 -36 88 -3 36 -11
71 -17 79 -11 13 -97 58 -133 70 -10 3 -18 14 -18 24 0 11 -2 35 -5 53 -5 27
-4 30 4 13 5 -12 14 -25 19 -28 12 -7 27 48 18 63 -3 5 -9 76 -12 158 -3 81
-10 152 -15 158 -5 5 -9 38 -10 75 0 36 -5 74 -10 85 -6 13 -8 -21 -6 -100 1
-66 -2 -126 -7 -133 -4 -7 -5 -16 -2 -19 3 -4 6 -1 6 6 0 7 5 9 10 6 7 -4 7
-13 0 -26 -8 -13 -7 -25 0 -40 7 -11 9 -23 6 -27 -3 -3 -6 0 -6 7 0 7 -4 10
-9 7 -4 -3 -6 -18 -4 -33 l4 -28 -16 28 c-9 15 -17 40 -18 56 -1 22 -5 27 -14
19 -7 -6 -10 -14 -7 -19 3 -5 -2 -9 -10 -9 -8 0 -18 5 -21 10 -4 6 -10 8 -15
5 -5 -3 -13 3 -19 12 -5 10 -13 15 -17 11 -11 -11 -34 11 -34 33 0 10 -5 21
-12 25 -7 5 -9 1 -6 -13 3 -12 2 -27 -3 -34 -5 -9 -10 -5 -14 14 -4 15 -11 24
-16 21 -5 -3 -6 -11 -2 -17 8 -14 10 -23 18 -92 3 -27 13 -75 21 -105 27 -94
27 -100 13 -100 -7 0 -56 14 -109 31 -52 17 -101 33 -107 35 -7 2 -13 14 -13
27 0 13 -11 45 -25 71 -30 56 -36 165 -10 186 8 7 15 27 15 44 0 18 7 58 15
91 9 32 13 72 9 88 -3 16 -3 44 1 64 5 28 9 32 20 23 8 -6 17 -25 20 -41 9
-40 24 -46 35 -12 8 21 27 36 83 62 114 53 196 52 217 -4 5 -14 14 -25 20 -25
19 0 24 33 12 88 -6 30 -8 61 -3 69 11 20 -8 73 -36 101 -17 16 -23 34 -23 65
0 70 -31 221 -48 234 -13 11 -16 42 -18 185 -2 207 -15 298 -51 353 -36 55
-118 135 -139 135 -25 0 -54 30 -54 55 0 13 -20 85 -45 161 -34 104 -45 155
-46 208 -3 114 -37 256 -84 343 -19 36 -22 50 -13 60 8 10 8 17 0 25 -7 7 -12
19 -12 28 0 9 3 11 8 4 4 -6 15 -13 25 -17 10 -4 15 -11 12 -17 -3 -5 1 -10
10 -10 9 0 13 5 10 10 -7 12 34 30 53 23 19 -8 14 -21 -10 -26 -25 -5 131 -10
329 -12 117 0 155 -7 119 -21 -14 -5 -16 -32 -15 -248 1 -139 4 -227 9 -208
12 53 20 50 20 -8 0 -64 13 -58 17 7 2 26 8 53 15 60 6 8 8 31 5 58 -6 44 14
133 33 145 4 3 9 14 11 24 4 19 5 19 22 1 15 -14 20 -16 27 -5 9 14 29 -44 31
-90 l1 -25 8 25 c4 14 9 50 10 80 l3 55 7 -50 c5 -27 9 -79 9 -115 2 -117 18
-100 26 26 7 129 13 167 14 92 1 -26 6 -59 12 -75 10 -26 12 -27 23 -10 7 9
18 17 25 17 6 0 11 -8 11 -17 0 -14 2 -15 9 -5 7 11 16 10 51 -8 35 -18 44
-19 51 -8 5 7 9 75 9 150 0 111 -3 140 -16 152 -20 21 -8 39 21 32 13 -3 45
-2 72 4 26 5 84 14 128 19 44 5 208 26 365 46 157 19 357 45 445 56 88 11 236
24 329 29 93 6 171 11 173 13 2 3 14 4 26 3 16 -1 22 -8 23 -26z m-3296 16 c0
-9 -30 -14 -35 -6 -4 6 3 10 14 10 12 0 21 -2 21 -4z m-2120 -41 c270 -24 990
-105 1114 -125 34 -5 85 -10 114 -10 28 0 52 -4 52 -10 0 -5 -6 -10 -14 -10
-20 0 -22 -25 -16 -265 4 -184 6 -204 11 -120 l5 100 2 -104 c1 -57 5 -102 8
-99 3 3 8 50 10 104 6 101 14 141 14 66 0 -23 5 -42 10 -42 6 0 10 25 10 56 0
45 3 55 14 51 9 -4 17 2 21 14 9 26 24 24 35 -7 6 -14 14 -23 19 -19 5 3 12
-3 14 -12 3 -10 5 10 6 44 1 75 21 97 21 24 0 -52 8 -65 34 -55 11 4 16 20 17
48 2 33 3 35 6 11 7 -46 23 -55 23 -12 0 30 4 37 19 37 10 0 21 7 25 15 7 19
33 19 66 0 19 -11 21 -14 8 -15 -14 0 -18 -9 -18 -43 0 -24 6 -51 13 -62 13
-17 15 -17 30 6 11 15 17 44 17 81 0 32 4 58 10 58 17 0 12 96 -6 111 -28 23
11 31 149 30 82 -1 138 3 147 10 12 9 11 10 -5 4 -15 -5 -17 -3 -9 5 7 7 30
13 53 13 49 2 55 16 9 19 l-33 1 33 4 c19 3 32 10 32 19 0 8 3 14 8 14 4 0 7
-52 7 -115 0 -63 3 -115 7 -115 4 0 4 -39 1 -87 -6 -96 5 -148 52 -261 22 -52
25 -73 21 -120 -4 -39 -3 -51 3 -37 5 11 10 30 10 43 1 32 17 20 25 -18 4 -21
10 -29 17 -24 13 8 8 -42 -7 -80 -6 -15 -4 -17 6 -11 8 5 11 4 6 -3 -4 -6 -13
-9 -20 -6 -9 4 -15 -9 -20 -43 l-6 -48 -124 -67 c-68 -37 -129 -74 -135 -82
-6 -8 -14 -38 -17 -67 -3 -30 -12 -86 -21 -126 -12 -57 -12 -82 -3 -126 14
-71 22 -36 -104 -449 -20 -64 -46 -161 -57 -215 -22 -106 -46 -170 -72 -192
-32 -26 -18 -68 40 -132 l25 -27 -17 -67 -17 -67 28 -29 c27 -28 28 -32 25
-127 -3 -93 -4 -98 -32 -122 -19 -17 -33 -42 -42 -78 -8 -33 -23 -62 -39 -75
-14 -12 -37 -43 -52 -69 -33 -59 -49 -68 -128 -68 -53 -1 -60 -3 -43 -12 39
-22 42 -31 28 -66 -17 -41 -55 -59 -65 -31 -4 11 -14 19 -23 19 -8 0 -15 5
-15 11 0 6 -9 8 -21 4 -14 -5 -19 -3 -15 3 3 6 2 13 -4 17 -12 7 -38 -6 -39
-20 -1 -5 -7 -10 -14 -10 -17 -1 -45 -18 -47 -30 -2 -5 -6 -20 -11 -33 -12
-31 -11 -55 1 -47 5 3 10 17 10 31 0 13 4 24 9 24 15 0 19 -23 9 -49 -5 -15
-4 -28 3 -37 7 -8 9 -18 5 -21 -4 -4 -11 -1 -16 7 -5 8 -11 12 -14 9 -10 -10
-19 -70 -10 -68 27 5 55 -2 51 -13 -2 -7 -11 -12 -21 -10 -11 2 -16 -4 -16
-20 0 -27 -35 -88 -50 -88 -13 0 -13 27 0 35 9 5 8 66 -1 100 -1 6 1 18 5 28
11 23 0 63 -19 71 -21 8 -67 -42 -60 -65 3 -9 -7 -37 -22 -63 l-28 -45 -50 6
c-27 3 -51 7 -53 8 -1 1 2 23 7 48 12 64 -1 59 -24 -9 -10 -30 -22 -57 -27
-60 -5 -3 -59 -6 -120 -7 -104 0 -112 1 -129 22 -25 31 -24 44 4 38 18 -5 27
3 55 49 17 31 32 61 32 69 0 14 -62 65 -79 65 -5 0 -27 -21 -48 -47 -21 -26
-46 -56 -55 -67 -20 -21 -17 -25 -42 65 -9 31 -22 61 -29 67 -8 7 -74 13 -168
14 -146 3 -154 4 -155 23 -1 11 -3 99 -5 195 l-3 175 -6 -195 -5 -195 -78 -3
c-69 -3 -79 -5 -93 -28 -13 -19 -19 -22 -31 -13 -7 7 -16 9 -19 6 -8 -8 37
-137 47 -137 5 0 9 -7 9 -15 0 -8 7 -15 15 -15 19 0 19 -26 0 -34 -11 -4 -15
-20 -15 -55 l0 -49 -87 5 c-49 3 -92 9 -97 14 -6 6 -3 9 7 9 10 0 17 8 17 20
0 14 -7 20 -21 20 -19 0 -20 4 -15 48 9 69 26 551 26 741 0 155 1 166 24 205
18 31 41 50 90 76 36 18 66 38 66 42 0 5 -39 -12 -86 -37 -93 -49 -106 -52
-123 -31 -16 19 -2 27 100 65 94 34 115 37 122 19 3 -10 8 -10 21 1 19 16 31
8 39 -24 3 -15 5 -13 6 8 1 25 4 27 24 21 12 -4 31 -13 42 -20 27 -19 35 -18
35 6 0 11 -7 20 -15 20 -8 0 -15 8 -15 18 0 10 -21 40 -48 65 -38 39 -64 53
-134 78 -48 16 -124 45 -170 63 l-83 33 -3 58 c-2 32 1 62 5 66 5 5 87 4 183
-1 631 -35 883 -43 875 -30 -4 6 -12 7 -18 4 -7 -4 -5 1 5 11 24 26 34 13 53
-70 9 -41 24 -83 33 -94 9 -11 39 -24 67 -30 28 -5 70 -15 95 -21 52 -13 99
-8 190 22 62 20 152 75 164 101 4 7 4 2 2 -10 -5 -28 10 -30 19 -3 9 29 -12
86 -38 103 -61 39 -243 46 -325 11 -37 -15 -70 -18 -96 -8 -26 10 -18 22 10
16 17 -3 25 -1 21 5 -4 6 8 16 26 23 17 6 47 18 65 26 20 8 67 14 120 14 60 0
82 3 72 10 -28 18 -176 12 -217 -9 -45 -22 -158 -37 -168 -21 -3 6 -43 10 -93
9 -48 0 -136 4 -197 10 -60 6 -272 20 -470 31 -198 12 -366 23 -372 25 -10 3
-13 183 -13 854 0 521 4 852 9 856 9 5 105 -3 461 -40 383 -39 674 -66 693
-63 12 2 -70 14 -183 26 -256 30 -552 66 -737 92 -79 11 -161 20 -183 20 -29
0 -40 4 -40 15 0 11 7 14 23 11 65 -14 166 -28 287 -41 213 -22 494 -54 625
-70 66 -8 152 -17 190 -20 39 -3 86 -8 105 -11 19 -2 29 -1 23 2 -7 3 -13 9
-13 14 0 9 91 1 103 -10 15 -14 -5 -40 -32 -40 -18 0 -22 -3 -13 -9 10 -6 13
-58 12 -240 0 -140 3 -230 9 -227 5 3 11 -1 15 -9 3 -8 1 -15 -4 -15 -4 0 -1
-15 8 -32 16 -32 17 -23 22 242 4 194 9 281 18 297 6 12 12 37 12 55 l0 33
-147 19 c-82 10 -186 22 -233 27 -185 19 -450 50 -550 64 -58 8 -123 15 -145
16 -38 1 -39 2 -10 9 20 4 1 7 -54 7 -52 0 -86 4 -88 10 -3 7 -20 9 -45 5 -27
-3 -39 -2 -35 5 4 6 -2 13 -13 16 -11 3 -18 1 -14 -4 3 -5 -2 -9 -11 -9 -9 0
-13 5 -10 10 3 6 1 10 -4 10 -6 0 -11 -4 -11 -10 0 -5 -4 -10 -10 -10 -11 0
-25 64 -16 78 3 5 35 5 73 1 37 -4 151 -15 253 -24z m2475 -6 c57 -10 128 -47
152 -78 7 -9 13 -37 13 -63 0 -46 -1 -48 -27 -49 l-28 0 23 -16 c33 -23 27
-38 -18 -39 -45 -2 -90 -27 -90 -50 0 -13 3 -14 14 -5 9 8 16 8 20 2 11 -17
97 -7 108 13 8 13 13 15 24 5 23 -19 16 -55 -27 -142 -26 -52 -39 -90 -36
-106 18 -92 -99 -195 -199 -176 -70 13 -156 119 -141 176 3 10 -3 41 -14 69
-19 50 -25 114 -13 144 5 12 9 13 25 3 15 -9 21 -8 33 8 9 11 16 14 16 8 0
-15 46 -18 55 -3 12 19 -43 43 -85 36 l-40 -6 6 47 c14 131 14 131 52 169 31
30 76 55 113 63 3 0 32 -4 64 -10z m-355 -18 c0 -16 -28 -33 -35 -21 -4 6 -15
8 -26 5 -10 -4 -24 -3 -31 2 -9 5 -3 10 17 14 45 10 75 10 75 0z m700 -1 c0
-5 -4 -10 -9 -10 -6 0 -13 5 -16 10 -3 6 1 10 9 10 9 0 16 -4 16 -10z m260 4
c-83 -8 -250 -8 -250 -1 0 4 64 6 143 5 78 -1 126 -3 107 -4z m2287 -10 c-3
-3 -12 -4 -19 -1 -8 3 -5 6 6 6 11 1 17 -2 13 -5z m-4007 -149 c0 -12 -19 -12
-23 0 -4 9 -1 12 9 8 7 -3 14 -7 14 -8z m-807 -42 c-7 -2 -21 -2 -30 0 -10 3
-4 5 12 5 17 0 24 -2 18 -5z m467 -224 c0 -5 -4 -9 -10 -9 -5 0 -10 7 -10 16
0 8 5 12 10 9 6 -3 10 -10 10 -16z m1462 -369 c37 -7 79 -9 93 -6 14 4 25 2
25 -4 0 -15 26 -12 40 5 7 8 17 15 23 15 16 0 0 -126 -20 -157 -10 -15 -12
-24 -5 -19 10 6 13 -7 11 -61 -1 -37 -1 -113 0 -169 2 -80 -3 -121 -24 -205
-45 -180 -63 -253 -69 -281 -6 -25 -33 -47 -78 -64 -10 -3 -18 -10 -18 -15 0
-5 -5 -9 -11 -9 -21 0 -84 -73 -96 -109 -6 -20 -19 -58 -30 -86 -15 -41 -17
-67 -12 -145 3 -52 9 -103 13 -112 6 -14 4 -18 -10 -19 -11 0 -14 -3 -6 -6 6
-2 12 -11 12 -18 0 -7 7 -15 15 -19 8 -3 15 -14 15 -25 0 -22 16 -37 18 -18 1
7 4 55 5 108 5 123 30 218 69 258 27 27 35 30 134 36 58 4 115 7 127 7 34 0
116 -41 127 -62 6 -11 11 -65 11 -120 0 -55 4 -102 10 -105 5 -4 9 -11 9 -17
0 -7 -5 -6 -15 2 -11 9 -22 9 -46 1 -18 -6 -42 -11 -55 -11 -13 0 -35 -10 -50
-23 -26 -22 -27 -28 -27 -111 0 -76 -2 -88 -20 -97 -13 -8 -22 -8 -30 0 -16
16 -47 13 -47 -4 0 -10 10 -15 28 -15 23 -1 25 -2 9 -11 -9 -6 -14 -15 -11
-21 4 -6 3 -8 -3 -5 -13 8 -51 -19 -41 -29 4 -4 14 -2 22 5 15 13 96 4 96 -10
0 -5 -29 -9 -65 -9 -51 0 -65 3 -65 15 0 8 -6 15 -13 15 -19 0 -37 -21 -37
-43 0 -18 5 -19 48 -14 58 7 172 -3 172 -14 0 -5 -25 -9 -55 -9 -56 0 -65 -8
-45 -40 6 -9 26 -15 57 -15 48 0 67 -17 26 -23 -13 -2 -23 -9 -23 -17 0 -15
-77 -29 -103 -19 -10 3 -24 1 -32 -6 -12 -10 -16 -9 -22 6 -4 11 -14 25 -22
31 -14 11 -14 14 -1 23 13 8 12 10 -4 10 -12 0 -16 5 -12 16 3 8 2 12 -4 9 -6
-3 -15 6 -20 20 -9 25 -14 27 -47 20 -32 -6 -85 -35 -103 -55 -3 -3 -30 -23
-60 -45 -30 -21 -66 -50 -80 -64 -24 -26 -84 -71 -92 -71 -11 0 4 421 17 485
16 85 31 125 45 125 5 0 21 18 35 39 22 35 23 43 13 73 -6 18 -31 62 -55 97
-23 36 -61 110 -83 166 l-40 102 3 144 c4 164 0 154 105 327 91 148 95 152
125 123 28 -26 47 -27 45 -3 -5 63 4 114 23 133 37 37 69 132 69 206 l0 66 23
-20 c13 -12 50 -26 89 -33z m-1786 -1207 c-7 -7 -26 7 -26 19 0 6 6 6 15 -2 9
-7 13 -15 11 -17z m545 -30 c16 -3 34 -12 40 -19 28 -34 -31 -116 -94 -129
-17 -4 -37 -11 -42 -15 -6 -5 -35 -9 -65 -9 -127 -2 -150 13 -38 24 40 3 94
15 121 25 48 18 97 55 97 72 0 17 -41 48 -64 48 -14 0 -28 5 -32 11 -5 9 1 10
21 5 15 -4 40 -10 56 -13z m-33 -27 c3 -3 -3 -15 -12 -25 -23 -26 -104 -45
-136 -33 -14 5 -39 7 -56 5 -19 -3 -35 1 -43 11 -11 13 -6 18 30 35 24 12 53
21 65 21 13 0 25 4 28 9 5 8 112 -12 124 -23z m-1378 -170 c126 -47 147 -58
162 -85 17 -30 17 -31 -3 -42 -15 -7 -24 -7 -33 0 -8 6 -20 9 -27 6 -8 -3 -71
17 -139 43 l-125 49 -3 42 c-2 29 1 41 10 41 7 -1 78 -25 158 -54z m2981 -76
c21 0 22 -1 4 -20 -15 -16 -15 -20 -3 -20 8 0 23 -9 33 -19 16 -19 16 -21 -2
-48 -11 -15 -23 -41 -27 -58 -10 -39 -24 -55 -42 -48 -19 7 -57 78 -65 123 -4
19 -10 45 -14 57 -6 17 -3 24 11 29 11 3 26 9 34 14 8 4 23 4 32 -1 9 -5 27
-9 39 -9z m-3032 -26 c55 -20 98 -40 95 -45 -3 -5 -45 -27 -95 -50 l-89 -42 0
-52 c0 -116 -14 -299 -21 -275 -11 38 -11 500 0 500 5 0 55 -16 110 -36z m-33
-186 c10 -22 7 -98 -11 -418 -4 -63 -10 -200 -15 -303 -6 -155 -11 -192 -24
-205 -28 -28 -31 -3 -24 155 3 81 11 270 18 418 6 149 13 294 16 323 6 56 24
69 40 30z m2669 -125 c41 -99 155 -233 197 -233 10 0 18 -4 18 -10 0 -5 8 -10
18 -10 13 0 10 -6 -13 -25 -37 -30 -95 -34 -95 -7 0 11 -34 71 -75 135 -58 89
-75 124 -75 151 0 46 6 45 25 -1z m1025 -83 c0 -5 -2 -10 -4 -10 -3 0 -8 5
-11 10 -3 6 -1 10 4 10 6 0 11 -4 11 -10z m-20 -150 c0 -5 -2 -10 -4 -10 -3 0
-8 5 -11 10 -3 6 -1 10 4 10 6 0 11 -4 11 -10z m-161 -223 c14 -18 4 -27 -30
-27 -22 0 -26 4 -22 20 6 23 35 27 52 7z m-492 -107 c-7 -46 -18 -85 -25 -88
-7 -2 -12 5 -12 15 0 11 -10 39 -21 63 l-21 44 23 18 c13 10 33 25 44 33 11 9
21 12 23 7 1 -4 -4 -46 -11 -92z m-309 -9 c12 -14 26 -35 31 -46 10 -25 12
-235 2 -235 -4 0 -18 11 -31 24 -16 18 -29 56 -46 138 -30 148 -31 161 -1 153
12 -4 32 -19 45 -34z m-1174 -157 c3 -8 2 -12 -4 -9 -6 3 -10 10 -10 16 0 14
7 11 14 -7z m-167 -26 c-3 -7 -5 -2 -5 12 0 14 2 19 5 13 2 -7 2 -19 0 -25z
m-1104 -105 c2 -5 7 -20 11 -35 5 -23 3 -28 -13 -28 -16 0 -19 6 -18 35 2 33
10 45 20 28z m1094 -9 c-3 -3 -12 -4 -19 -1 -8 3 -5 6 6 6 11 1 17 -2 13 -5z
m-1380 -60 c-11 -11 -77 -14 -77 -4 0 6 19 10 42 10 23 0 38 -3 35 -6z m473
-23 c0 -18 -18 -21 -30 -6 -10 13 -9 15 9 15 11 0 21 -4 21 -9z m1800 -60 c0
-5 -7 -11 -15 -15 -15 -5 -20 5 -8 17 9 10 23 9 23 -2z m-1450 -31 c20 -6 16
-8 -23 -9 -30 -1 -46 3 -42 9 7 11 29 11 65 0z m-457 -7 c-7 -2 -19 -2 -25 0
-7 3 -2 5 12 5 14 0 19 -2 13 -5z m81 -3 c-7 -7 -19 -7 -35 -1 -23 9 -22 10
11 10 23 1 31 -2 24 -9z m641 0 c-3 -5 -14 -10 -23 -10 -15 0 -15 2 -2 10 20
13 33 13 25 0z m1222 -56 c-9 -9 -28 6 -21 18 4 6 10 6 17 -1 6 -6 8 -13 4
-17z m-1074 -72 c29 -27 37 -55 13 -46 -10 4 -22 -9 -38 -38 -20 -37 -23 -57
-23 -151 0 -109 -6 -126 -41 -127 -7 0 -14 -9 -17 -20 -9 -34 -33 -22 -58 30
-13 27 -27 49 -31 50 -13 0 -9 -18 12 -52 36 -59 22 -75 -30 -36 -17 12 -30
30 -30 40 0 10 -2 18 -4 18 -2 0 -11 3 -20 6 -11 4 -16 1 -16 -10 0 -13 -4
-14 -24 -5 -22 10 -25 20 -31 83 -4 39 -2 82 3 96 5 14 40 58 77 97 53 58 77
76 113 87 60 17 110 10 145 -22z m3191 14 c37 -15 38 -17 20 -31 -16 -12 -19
-12 -22 1 -6 24 -29 15 -35 -13 -3 -16 -10 -44 -15 -63 -6 -19 -17 -58 -25
-87 -8 -28 -24 -62 -36 -74 -12 -13 -19 -30 -16 -39 3 -10 -7 -28 -25 -45 -25
-24 -30 -26 -36 -11 -8 20 3 95 22 148 8 22 14 64 13 92 l-1 51 -34 -100 c-38
-112 -65 -175 -76 -175 -5 0 -8 -12 -8 -26 0 -21 -4 -25 -22 -22 -19 2 -24 11
-28 47 l-5 43 -19 -21 c-11 -11 -28 -21 -38 -21 -10 0 -21 -8 -25 -17 -3 -10
-12 -25 -19 -34 -19 -22 -52 -122 -60 -181 -4 -30 -10 -46 -16 -40 -5 5 -5 26
1 53 5 24 13 60 16 80 5 33 59 130 77 137 5 2 8 10 8 18 0 8 8 27 18 42 29 44
41 65 57 102 9 19 26 46 39 60 13 14 26 40 30 59 8 44 40 71 85 71 20 0 43 5
51 11 19 13 74 6 124 -15z m-979 -16 c-3 -5 -10 -10 -16 -10 -5 0 -9 5 -9 10
0 6 7 10 16 10 8 0 12 -4 9 -10z m1024 -100 c-10 -18 -39 -140 -39 -163 0 -9
-6 -17 -13 -17 -8 0 -19 -11 -25 -25 -9 -18 -9 -25 0 -25 6 0 0 -10 -14 -23
-14 -13 -27 -30 -30 -37 -2 -8 -11 -11 -21 -7 -16 6 -16 9 -1 44 9 21 27 76
40 123 13 47 33 106 45 132 21 46 22 46 44 30 15 -11 20 -21 14 -32z m-3141
-9 c15 -26 22 -56 22 -89 0 -28 5 -54 10 -57 16 -10 12 -55 -5 -55 -31 0 -65
24 -74 54 -25 79 -17 186 13 186 7 0 22 -17 34 -39z m-1319 -118 c-1 -88 -4
-125 -9 -103 -5 22 -8 28 -10 15 -4 -34 -18 76 -19 153 -1 66 1 72 19 72 19 0
20 -6 19 -137z m274 117 c-3 -11 -7 -20 -9 -20 -2 0 -4 9 -4 20 0 11 4 20 9
20 5 0 7 -9 4 -20z m495 13 c-10 -2 -26 -2 -35 0 -10 3 -2 5 17 5 19 0 27 -2
18 -5z m3740 -18 c30 -65 5 -208 -46 -262 -14 -15 -26 -35 -27 -43 0 -8 -10
-16 -22 -18 -32 -5 -30 19 6 82 16 28 32 71 35 96 13 92 30 170 36 170 4 0 12
-11 18 -25z m62 5 c-19 -13 -30 -13 -30 0 0 6 10 10 23 10 18 0 19 -2 7 -10z
m-583 -208 c-9 -10 -30 -45 -47 -77 -30 -60 -40 -57 -18 6 12 34 67 103 76 94
3 -3 -2 -13 -11 -23z m-3111 3 c-3 -8 -1 -15 5 -15 6 0 8 -16 3 -45 -4 -28 -2
-45 4 -45 6 0 7 -13 2 -37 -5 -20 -7 -41 -4 -45 3 -4 1 -8 -5 -8 -6 0 -8 -7
-5 -15 4 -8 12 -15 19 -15 8 0 12 -12 11 -32 -1 -24 -7 -34 -24 -38 -24 -6
-24 -4 33 -92 23 -34 41 -50 75 -62 25 -9 52 -16 61 -16 9 0 22 -6 28 -14 9
-11 2 -14 -35 -20 -97 -13 -134 -8 -157 20 -54 66 -113 126 -132 137 -11 6
-40 14 -64 17 -92 15 -181 -47 -181 -126 l0 -34 -255 0 -255 0 0 95 0 96 33 0
c17 0 55 1 82 1 502 3 746 11 741 24 -3 8 -1 14 5 14 6 0 4 7 -4 15 -14 14
-27 65 -32 129 l-2 29 -162 28 c-89 15 -168 30 -174 32 -7 2 65 9 158 16 94 7
172 15 174 17 2 2 18 4 34 4 22 0 28 -4 23 -15z m4817 -2 c-11 -29 -53 -56
-53 -34 0 5 9 11 20 14 11 3 20 12 20 21 0 9 4 16 10 16 5 0 6 -8 3 -17z
m-5080 -69 c48 -9 85 -19 83 -22 -5 -4 -135 12 -193 24 -13 2 -23 9 -23 15 0
6 10 9 23 6 12 -3 61 -13 110 -23z m347 10 c0 -8 -4 -12 -10 -9 -5 3 -10 10
-10 16 0 5 5 9 10 9 6 0 10 -7 10 -16z m3105 6 c-27 -12 -35 -12 -35 0 0 6 12
10 28 9 24 0 25 -1 7 -9z m35 -55 c-6 -7 -20 -11 -30 -8 -14 4 -20 0 -20 -11
0 -9 -7 -16 -15 -16 -18 0 -19 21 -2 42 17 21 38 27 60 16 14 -7 16 -13 7 -23z
m-3700 5 c0 -12 -98 -12 -155 -1 -32 7 -21 9 58 10 59 1 97 -3 97 -9z m780
-40 c0 -5 -7 -10 -16 -10 -8 0 -12 5 -9 10 3 6 10 10 16 10 5 0 9 -4 9 -10z
m2885 -59 c-6 -11 -64 -25 -72 -18 -12 13 11 27 43 27 19 0 33 -4 29 -9z m6
-76 c1 -16 1 -36 0 -42 -1 -8 5 -10 14 -7 8 4 15 1 15 -7 0 -7 -3 -9 -7 -6 -3
4 -17 0 -30 -8 -22 -15 -24 -14 -35 11 -9 19 -10 28 -2 31 16 5 5 53 -12 53
-8 0 -14 -10 -14 -22 -1 -22 -1 -23 -15 -4 -19 25 -5 35 47 33 35 -1 38 -4 39
-32z m-3117 -19 c-3 -8 0 -17 6 -21 9 -6 9 -10 -1 -16 -10 -6 -8 -9 8 -9 12 0
25 -5 29 -11 3 -6 15 -9 25 -6 22 6 25 -3 7 -21 -17 -17 -48 -15 -48 3 0 18
-12 19 -27 4 -8 -8 -18 -1 -37 24 -14 18 -26 38 -26 43 0 5 5 1 11 -9 12 -21
29 -13 29 14 0 10 7 19 15 19 8 0 12 -6 9 -14z m2956 -55 c0 -20 -13 -35 -23
-25 -7 8 4 44 14 44 5 0 9 -9 9 -19z m155 -39 c-30 -26 -69 -52 -80 -52 -3 0
-5 7 -5 15 0 8 5 15 11 15 5 0 27 11 47 25 49 33 65 32 27 -3z m41 -37 c1 -14
-2 -25 -7 -25 -5 0 -9 11 -9 25 0 33 15 33 16 0z m-3056 11 c0 -3 -4 -8 -10
-11 -5 -3 -10 -1 -10 4 0 6 5 11 10 11 6 0 10 -2 10 -4z m3420 -6 c-19 -13
-30 -13 -30 0 0 6 10 10 23 10 18 0 19 -2 7 -10z m137 -15 c-10 -7 -16 -19
-15 -26 2 -10 -6 -14 -27 -12 -16 0 -24 -1 -17 -4 19 -7 -15 -43 -42 -43 -14
0 -17 -3 -9 -11 12 -12 6 -49 -8 -49 -5 0 -9 -10 -9 -22 0 -13 -5 -30 -10 -38
-7 -10 -10 8 -10 61 0 66 3 78 23 97 12 11 36 24 52 28 17 4 41 15 55 25 14 9
27 15 30 12 3 -2 -3 -11 -13 -18z m-537 -5 c0 -5 -6 -13 -14 -17 -8 -4 -19
-24 -24 -43 l-10 -35 -1 41 c-1 22 4 45 11 52 14 14 38 16 38 2z m135 -50 c3
-5 1 -10 -4 -10 -6 0 -11 5 -11 10 0 6 2 10 4 10 3 0 8 -4 11 -10z m-95 -21
c0 -11 -4 -17 -10 -14 -5 3 -10 13 -10 21 0 8 5 14 10 14 6 0 10 -9 10 -21z
m289 -59 c0 -9 -4 -8 -9 5 -5 11 -9 27 -9 35 0 9 4 8 9 -5 5 -11 9 -27 9 -35z
m-189 30 c0 -5 -4 -10 -10 -10 -5 0 -10 5 -10 10 0 6 5 10 10 10 6 0 10 -4 10
-10z m-3688 -10 c0 -5 1 -15 2 -21 1 -10 -78 -12 -421 -10 -96 1 -103 2 -103
21 0 19 7 20 260 20 166 0 261 -4 262 -10z m5150 -45 c15 -4 32 -12 37 -19 15
-18 -45 -53 -109 -65 -82 -15 -151 -36 -144 -44 4 -4 0 -7 -10 -7 -9 0 -14 5
-11 10 4 6 -17 2 -46 -9 -29 -11 -57 -17 -62 -14 -17 10 -131 18 -273 18 -110
0 -128 2 -115 13 14 11 9 13 -33 8 -27 -3 -56 -6 -66 -6 -9 0 -27 -9 -40 -20
-27 -23 -32 -24 -47 -9 -8 8 -13 8 -18 0 -7 -12 5 -18 44 -23 14 -2 26 -9 29
-16 3 -11 0 -12 -18 -2 -12 6 -32 9 -44 6 -13 -3 -26 -3 -29 1 -4 3 -19 8 -34
9 -14 2 -33 10 -42 19 -14 14 -14 18 -1 43 9 15 32 35 53 45 37 18 215 48 419
70 109 12 505 6 560 -8z m-1552 -34 c-1 -13 -4 -12 -15 3 -8 11 -15 27 -15 35
1 13 4 12 15 -3 8 -11 15 -27 15 -35z m-88 17 c-7 -7 -12 -8 -12 -2 0 6 3 14
7 17 3 4 9 5 12 2 2 -3 -1 -11 -7 -17z m486 -26 c2 -15 -2 -22 -12 -22 -11 0
-16 9 -16 26 0 31 23 28 28 -4z m-51 -44 c-3 -8 -6 -5 -6 6 -1 11 2 17 5 13 3
-3 4 -12 1 -19z m-895 -70 c-12 -15 -4 -68 10 -68 5 0 8 -12 6 -27 -2 -22 -9
-28 -32 -30 -15 -1 -31 -4 -34 -7 -3 -3 -11 2 -18 12 -12 16 -14 16 -28 -3
-17 -24 -31 -15 -21 15 4 11 14 20 23 19 36 -3 43 1 37 21 -4 12 -2 20 5 20 6
0 8 -4 5 -10 -3 -5 -2 -10 4 -10 20 0 21 20 1 40 -12 12 -35 21 -57 22 -28 1
-23 3 22 8 33 4 66 7 74 8 10 2 11 -2 3 -10z m192 -13 c-5 -11 5 -14 53 -13
96 3 156 -16 197 -61 18 -20 19 -23 3 -38 -9 -9 -20 -13 -24 -9 -4 4 -2 10 5
15 23 14 -27 43 -63 37 -19 -4 -35 -2 -37 4 -2 6 -16 6 -41 -1 -45 -12 -62 -4
-23 10 39 15 32 24 -14 18 -22 -3 -40 -1 -40 4 0 5 -12 9 -26 9 -14 0 -23 -4
-20 -9 4 -5 0 -11 -6 -13 -8 -3 -4 -10 11 -17 l24 -13 -38 -17 c-31 -13 -47
-15 -82 -7 -44 11 -60 36 -22 36 11 0 27 7 36 15 21 22 -1 48 -37 43 -17 -3
-27 1 -27 9 0 10 23 13 88 13 73 0 87 -2 83 -15z m-350 -4 c4 -5 -3 -7 -14 -4
-23 6 -26 13 -6 13 8 0 17 -4 20 -9z m1867 -11 c11 0 19 -6 19 -14 0 -11 -25
-13 -130 -12 -81 1 -134 6 -141 13 -9 9 7 11 60 8 40 -2 82 0 94 5 12 5 35 7
51 5 16 -3 37 -5 47 -5z m239 0 c0 -5 -7 -10 -16 -10 -8 0 -12 5 -9 10 3 6 10
10 16 10 5 0 9 -4 9 -10z m107 4 c-3 -3 -12 -4 -19 -1 -8 3 -5 6 6 6 11 1 17
-2 13 -5z m-1517 -14 c0 -5 -4 -10 -10 -10 -5 0 -10 5 -10 10 0 6 5 10 10 10
6 0 10 -4 10 -10z m880 0 c20 -7 16 -8 -22 -9 -26 -1 -50 4 -53 9 -7 12 38 12
75 0z m-3085 -20 c-11 -5 -27 -9 -35 -9 -13 -1 -13 0 0 9 8 5 24 9 35 9 l20 0
-20 -9z m2180 0 c3 -5 1 -10 -4 -10 -6 0 -11 5 -11 10 0 6 2 10 4 10 3 0 8 -4
11 -10z m-2079 -37 c-11 -11 -17 4 -9 23 7 18 8 18 11 1 2 -10 1 -21 -2 -24z
m1304 27 c0 -5 -2 -10 -4 -10 -3 0 -8 5 -11 10 -3 6 -1 10 4 10 6 0 11 -4 11
-10z m890 -20 c0 -5 -4 -10 -10 -10 -5 0 -10 5 -10 10 0 6 5 10 10 10 6 0 10
-4 10 -10z m-2230 -10 c0 -13 -11 -13 -30 0 -12 8 -11 10 8 10 12 0 22 -4 22
-10z m-340 -9 c0 -5 -9 -13 -20 -16 -11 -3 -20 -13 -20 -20 0 -11 6 -12 26 -5
33 13 32 13 43 -8 9 -17 4 -19 -67 -19 -42 0 -65 2 -49 4 16 3 27 11 27 20 0
9 7 25 17 35 17 19 43 24 43 9z m2355 -30 c7 -18 -13 -31 -45 -30 -17 1 -19 3
-7 6 18 5 24 23 7 23 -5 0 -14 8 -19 18 -9 17 -7 18 24 8 19 -6 37 -17 40 -25z
m-645 19 c0 -5 -2 -10 -4 -10 -3 0 -8 5 -11 10 -3 6 -1 10 4 10 6 0 11 -4 11
-10z m-155 -9 c3 -5 1 -12 -5 -16 -5 -3 -10 1 -10 9 0 18 6 21 15 7z m485 -11
c13 -8 13 -10 -2 -10 -9 0 -20 5 -23 10 -8 13 5 13 25 0z m-1940 -10 c0 -5 7
-10 15 -10 23 0 18 -17 -7 -24 -39 -10 -45 -7 -40 19 4 24 32 36 32 15z m2157
4 c-3 -3 -12 -4 -19 -1 -8 3 -5 6 6 6 11 1 17 -2 13 -5z m-465 -28 c9 -9 20
-11 34 -5 28 10 181 15 190 6 4 -4 2 -7 -4 -7 -7 0 -12 -6 -12 -14 0 -16 -6
-17 -88 -17 -31 0 -50 -4 -47 -9 4 -6 -18 -10 -54 -10 -37 0 -61 4 -61 11 0 6
-15 10 -32 8 -18 -1 -44 -1 -58 0 -23 3 -22 4 8 12 17 5 32 16 32 24 0 20 74
20 92 1z m268 4 c0 -5 15 -14 33 -19 l32 -9 -36 -1 c-35 -1 -66 19 -52 32 10
10 23 8 23 -3z m-483 -26 l27 -25 -49 3 c-54 3 -67 17 -33 34 13 7 24 12 25
13 1 0 14 -11 30 -25z m638 16 c-44 -11 -93 -12 -76 -1 7 5 34 8 60 8 40 0 42
-1 16 -7z m-1925 -17 c27 -11 45 -8 57 7 10 12 12 9 13 -19 0 -29 -3 -33 -22
-28 -13 3 -41 8 -63 12 -120 18 -166 28 -156 34 12 8 149 3 171 -6z m-318 -35
c-20 -20 -14 -28 18 -21 23 4 30 2 30 -11 0 -9 7 -16 15 -16 8 0 15 5 15 10 0
6 -5 10 -11 10 -8 0 -8 4 1 14 10 13 16 12 43 -5 18 -10 44 -19 60 -19 18 0
27 -5 27 -16 0 -11 -6 -13 -19 -9 -13 4 -27 -3 -45 -22 -27 -29 -48 -24 -28 7
7 11 8 20 3 20 -5 0 -11 -6 -14 -12 -3 -10 -13 -8 -41 6 -20 11 -39 16 -42 13
-11 -10 -44 12 -44 30 0 13 -3 13 -15 3 -9 -8 -13 -21 -9 -36 3 -13 2 -24 -4
-24 -18 0 -21 42 -5 66 11 17 25 24 46 24 24 0 28 -3 19 -12z m2870 3 c2 -5
30 -11 63 -13 70 -5 65 7 89 -200 9 -69 21 -146 27 -171 11 -41 11 -46 -9 -67
-12 -13 -22 -29 -22 -36 0 -6 -12 -19 -26 -29 -21 -13 -24 -22 -19 -45 6 -25
3 -29 -24 -35 -17 -4 -29 -11 -26 -15 3 -5 12 -7 20 -3 10 3 15 -1 15 -12 0
-13 -6 -16 -23 -11 -14 3 -33 -1 -45 -10 -25 -18 -29 -34 -7 -34 8 0 15 7 15
15 0 17 16 20 25 5 3 -6 -2 -18 -11 -28 -17 -16 -17 -17 0 -20 30 -6 11 -26
-26 -27 -27 -1 -36 2 -36 14 0 9 -3 138 -7 286 -8 264 -1 445 15 445 5 0 10
-4 12 -9z m837 -33 c0 -24 -3 -38 -5 -31 -4 8 -13 9 -29 3 -16 -6 -27 -6 -31
1 -9 15 17 41 38 36 13 -4 18 0 18 14 0 10 2 19 5 19 3 0 5 -19 4 -42z m-1109
22 c0 -5 -4 -10 -10 -10 -5 0 -10 5 -10 10 0 6 5 10 10 10 6 0 10 -4 10 -10z
m-453 -6 c-3 -3 -12 -4 -19 -1 -8 3 -5 6 6 6 11 1 17 -2 13 -5z m46 -14 c-3
-11 -8 -20 -12 -20 -4 0 -7 9 -8 20 -1 11 4 20 12 20 8 0 11 -7 8 -20z m-137
-5 c-11 -8 -16 -15 -10 -16 5 -1 -2 -4 -16 -8 -14 -4 -24 -13 -22 -20 2 -8 -4
-10 -17 -6 -11 3 -22 1 -26 -5 -12 -19 -33 -11 -28 10 3 11 11 20 19 20 7 0
17 6 21 14 9 15 33 23 73 25 24 0 24 0 6 -14z m-445 -51 c-11 -15 -21 -40 -21
-57 0 -23 -3 -27 -13 -18 -8 6 -17 8 -21 4 -4 -4 -5 -1 -2 7 2 8 7 27 10 42 3
14 14 29 24 31 10 3 5 5 -11 6 -21 1 -30 -5 -34 -19 -3 -11 -16 -23 -29 -26
-13 -3 -24 -12 -24 -20 0 -10 -12 -14 -40 -14 -22 0 -40 -5 -40 -11 0 -6 -6
-9 -12 -6 -7 2 -12 10 -10 17 2 9 -5 10 -23 6 -23 -6 -26 -4 -20 12 3 13 0 22
-10 26 -12 4 -22 34 -12 37 1 0 22 3 46 5 34 4 47 2 53 -10 11 -20 38 -21 38
-1 0 8 10 17 23 20 37 8 131 10 141 3 5 -4 -1 -19 -13 -34z m132 31 c13 -13
16 -13 21 0 4 10 20 15 52 15 43 0 46 -1 40 -22 -4 -13 -9 -35 -12 -50 -4 -16
-12 -28 -19 -28 -8 0 -10 -9 -7 -25 3 -18 0 -25 -11 -25 -9 0 -19 5 -22 10
-11 18 -25 10 -25 -15 0 -14 5 -25 10 -25 6 0 10 -4 10 -9 0 -6 -16 -7 -35 -4
-29 5 -35 3 -35 -13 0 -17 -1 -17 -17 -1 -15 15 -16 19 -4 26 8 5 20 7 28 4 7
-3 13 -2 13 1 0 4 -11 11 -24 16 -19 7 -23 14 -19 31 5 19 4 20 -15 10 -11 -6
-27 -11 -34 -11 -20 0 -17 45 5 70 9 11 17 26 17 33 0 8 3 17 7 20 12 12 61 7
76 -8z m179 -1 c-24 -17 -39 -14 -27 5 3 6 16 11 28 11 l21 0 -22 -16z m162
-19 c-4 -8 -13 -15 -22 -15 -13 0 -12 3 4 15 24 18 25 18 18 0z m288 -13 c-2
-12 2 -22 7 -22 6 0 11 7 11 15 0 8 4 15 9 15 19 0 21 -20 5 -45 -10 -15 -12
-25 -5 -25 6 0 11 5 11 11 0 5 5 7 11 3 8 -4 8 -9 0 -17 -6 -6 -11 -20 -11
-31 -1 -19 -1 -19 -11 -3 -5 9 -21 17 -33 17 -29 0 -43 30 -23 45 10 7 13 21
10 39 -4 22 -2 27 8 24 8 -3 13 -15 11 -26z m-3209 11 c-25 -5 -32 -33 -9 -33
8 0 21 -8 28 -19 10 -15 55 -29 108 -35 3 -1 23 -21 45 -45 55 -62 97 -99 118
-106 33 -12 17 -23 -25 -18 -48 6 -76 23 -38 23 13 0 21 2 18 5 -2 3 -130 8
-284 11 -153 4 -289 10 -301 15 -14 5 -23 5 -23 -1 0 -6 -9 -10 -20 -10 -22 0
-27 15 -7 23 6 3 3 6 -8 6 -17 1 -18 3 -5 12 12 8 7 9 -17 6 -33 -4 -33 -3
-33 40 0 24 4 43 8 43 5 0 17 8 28 18 38 33 64 43 98 36 19 -3 43 -1 56 6 11
6 57 13 101 14 44 2 83 6 86 10 4 3 27 5 52 5 25 -1 36 -4 24 -6z m867 -8 c16
-9 19 -14 9 -15 -8 0 -24 7 -35 15 -24 18 -7 19 26 0z m1090 3 c0 -5 -7 -16
-15 -24 -9 -10 -15 -11 -15 -4 0 7 -8 9 -19 5 -19 -6 -36 8 -28 23 7 10 77 10
77 0z m60 -10 c0 -12 -1 -19 -3 -17 -1 2 -9 12 -16 22 -12 14 -11 17 3 17 10
0 16 -8 16 -22z m90 13 c0 -17 -34 -22 -49 -6 -14 13 -12 15 17 15 18 0 32 -4
32 -9z m-1103 -23 c-3 -8 -6 -5 -6 6 -1 11 2 17 5 13 3 -3 4 -12 1 -19z m1134
-11 c-8 -8 -11 -7 -11 4 0 20 13 34 18 19 3 -7 -1 -17 -7 -23z m619 18 c0 -8
-9 -15 -20 -15 -20 0 -26 11 -13 23 12 13 33 7 33 -8z m330 -15 c0 -5 -5 -10
-11 -10 -5 0 -7 5 -4 10 3 6 8 10 11 10 2 0 4 -4 4 -10z m-980 -10 c0 -5 -5
-10 -11 -10 -5 0 -7 5 -4 10 3 6 8 10 11 10 2 0 4 -4 4 -10z m760 -20 c-8 -15
-6 -24 11 -41 11 -11 19 -22 17 -24 -1 -1 -23 0 -48 4 -39 6 -42 8 -20 14 22
7 23 8 8 18 -10 5 -18 17 -18 25 0 8 4 13 9 10 5 -3 14 1 21 9 17 20 32 8 20
-15z m-973 -2 c-3 -8 -6 -5 -6 6 -1 11 2 17 5 13 3 -3 4 -12 1 -19z m1263 13
c0 -14 -18 -23 -30 -16 -6 4 -8 11 -5 16 8 12 35 12 35 0z m-2333 -17 c-3 -3
-12 -4 -19 -1 -8 3 -5 6 6 6 11 1 17 -2 13 -5z m1923 2 c0 -11 -19 -15 -25 -6
-3 5 1 10 9 10 9 0 16 -2 16 -4z m295 -6 c7 -12 -2 -12 -30 0 -19 8 -19 9 2 9
12 1 25 -3 28 -9z m-2105 -35 c-6 -8 -26 -17 -43 -21 -18 -3 -37 -10 -43 -15
-6 -5 -18 -3 -30 6 -20 15 -12 20 29 16 9 -1 17 3 17 9 0 8 9 10 25 6 18 -5
27 -2 31 9 3 8 10 12 16 9 5 -3 5 -11 -2 -19z m64 -11 c3 -8 2 -12 -4 -9 -6 3
-10 10 -10 16 0 14 7 11 14 -7z m2222 -11 c-10 -10 -19 5 -10 18 6 11 8 11 12
0 2 -7 1 -15 -2 -18z m-2071 -3 c3 -5 2 -10 -4 -10 -5 0 -13 5 -16 10 -3 6 -2
10 4 10 5 0 13 -4 16 -10z m-1665 -14 c0 -15 -14 -35 -21 -30 -15 9 -10 34 6
34 8 0 15 -2 15 -4z m1490 -12 c0 -8 -5 -12 -10 -9 -6 4 -8 11 -5 16 9 14 15
11 15 -7z m1880 3 c-14 -7 -26 -23 -28 -35 -5 -32 -22 -27 -22 7 0 30 11 37
55 40 17 1 16 -1 -5 -12z m-1793 -34 c-7 -6 -77 10 -77 18 0 5 6 6 14 3 8 -3
17 -1 20 5 4 6 14 4 26 -6 11 -9 18 -18 17 -20z m1368 17 c3 -5 1 -10 -4 -10
-6 0 -11 5 -11 10 0 6 2 10 4 10 3 0 8 -4 11 -10z m-1595 -10 c0 -5 -2 -10 -4
-10 -3 0 -8 5 -11 10 -3 6 -1 10 4 10 6 0 11 -4 11 -10z m170 -17 c0 -5 -5
-15 -10 -23 -9 -13 -11 -13 -19 0 -5 8 -7 18 -5 22 6 10 34 11 34 1z m2190
-30 c0 -7 -9 -13 -20 -13 -15 0 -20 7 -20 25 0 23 2 24 20 13 11 -7 20 -18 20
-25z m-765 17 c-3 -5 -11 -10 -16 -10 -6 0 -7 5 -4 10 3 6 11 10 16 10 6 0 7
-4 4 -10z m-1455 -31 c0 -5 -6 -9 -14 -9 -15 0 -28 24 -19 34 7 7 33 -13 33
-25z m156 13 c-10 -2 -22 0 -28 6 -6 6 0 7 19 4 21 -5 23 -7 9 -10z m1324 8
c0 -5 -5 -10 -11 -10 -5 0 -7 5 -4 10 3 6 8 10 11 10 2 0 4 -4 4 -10z m-1380
-12 c0 -5 -10 -12 -22 -17 -21 -8 -21 -8 3 -15 24 -8 24 -8 -6 -15 -38 -8 -87
-2 -79 10 3 5 13 8 22 7 11 -2 18 5 20 19 3 17 10 21 33 21 16 -1 29 -5 29
-10z m101 -15 c2 -36 -3 -68 -13 -74 -14 -9 -90 1 -102 12 -6 6 -4 9 6 9 9 0
18 6 21 13 3 9 16 12 35 9 29 -4 50 18 36 39 -3 5 0 9 5 9 6 0 11 -8 12 -17z
m1599 -3 c0 -5 -5 -10 -11 -10 -5 0 -7 5 -4 10 3 6 8 10 11 10 2 0 4 -4 4 -10z
m41 -23 c-8 -8 -11 -7 -11 4 0 20 13 34 18 19 3 -7 -1 -17 -7 -23z m-3163 -4
c-21 -2 -55 -2 -75 0 -21 2 -4 4 37 4 41 0 58 -2 38 -4z m130 0 c-10 -2 -28
-2 -40 0 -13 2 -5 4 17 4 22 1 32 -1 23 -4z m219 1 c-3 -3 -12 -4 -19 -1 -8 3
-5 6 6 6 11 1 17 -2 13 -5z m350 -9 c2 -6 -37 -9 -107 -7 -60 2 -110 7 -110
12 0 13 213 7 217 -5z m2843 5 c0 -5 -4 -10 -10 -10 -5 0 -10 5 -10 10 0 6 5
10 10 10 6 0 10 -4 10 -10z m-2283 -22 c-3 -8 -6 -5 -6 6 -1 11 2 17 5 13 3
-3 4 -12 1 -19z m-87 -12 c0 -3 -4 -8 -10 -11 -5 -3 -10 -1 -10 4 0 6 5 11 10
11 6 0 10 -2 10 -4z m-461 -67 c7 -34 9 -64 6 -67 -8 -8 -290 -2 -375 8 l-65
7 62 2 c61 1 85 12 61 27 -7 5 -28 7 -46 5 -23 -2 -32 1 -27 8 8 14 -17 10
-27 -3 -7 -10 -167 -10 -177 0 -3 3 2 10 12 15 9 6 17 15 17 21 0 6 -3 8 -7 5
-3 -4 -11 -3 -17 2 -16 13 -68 15 -96 4 -21 -9 -44 -10 -84 -4 -5 0 -3 8 4 16
10 12 69 14 379 15 l367 0 13 -61z m718 29 c-3 -8 -6 -5 -6 6 -1 11 2 17 5 13
3 -3 4 -12 1 -19z m53 12 c0 -5 -4 -10 -10 -10 -5 0 -10 5 -10 10 0 6 5 10 10
10 6 0 10 -4 10 -10z m-165 -20 c-3 -5 -10 -10 -16 -10 -5 0 -9 5 -9 10 0 6 7
10 16 10 8 0 12 -4 9 -10z m-1215 -14 c0 -9 -9 -14 -20 -13 -11 1 -20 7 -20
14 0 7 9 13 20 13 11 0 20 -6 20 -14z m1140 4 c0 -5 -4 -10 -10 -10 -5 0 -10
5 -10 10 0 6 5 10 10 10 6 0 10 -4 10 -10z m-1220 -20 c0 -5 -9 -10 -21 -10
-11 0 -17 5 -14 10 3 6 13 10 21 10 8 0 14 -4 14 -10z m1365 -19 c3 -5 1 -12
-5 -16 -5 -3 -10 1 -10 9 0 18 6 21 15 7z m112 -23 c-3 -8 -6 -5 -6 6 -1 11 2
17 5 13 3 -3 4 -12 1 -19z m-1254 -5 c-7 -2 -21 -2 -30 0 -10 3 -4 5 12 5 17
0 24 -2 18 -5z m472 -62 c-2 -5 -24 -8 -47 -7 -24 1 -106 4 -183 6 l-140 4
180 6 c184 5 199 4 190 -9z m-527 2 c-21 -2 -55 -2 -75 0 -21 2 -4 4 37 4 41
0 58 -2 38 -4z m809 -105 c-3 -7 -5 -2 -5 12 0 14 2 19 5 13 2 -7 2 -19 0 -25z
m3173 -32 c0 -2 -9 -6 -20 -9 -11 -3 -20 -1 -20 4 0 5 9 9 20 9 11 0 20 -2 20
-4z m-123 -56 c-3 -10 0 -21 6 -23 18 -6 67 5 61 14 -3 5 7 14 21 21 23 10 28
10 36 -5 6 -9 19 -17 29 -17 11 0 20 -4 20 -10 0 -5 -11 -10 -25 -10 -14 0
-25 -4 -25 -10 0 -16 36 -30 77 -30 49 0 185 -28 198 -41 7 -7 2 -10 -15 -8
-39 3 -60 0 -60 -10 0 -6 14 -11 32 -13 17 -2 33 -9 36 -16 3 -10 -14 -11 -79
-7 -53 3 -87 1 -96 -6 -7 -6 -22 -9 -33 -6 -11 3 -18 2 -15 -2 2 -5 57 -7 122
-6 174 3 185 4 179 14 -8 12 117 9 126 -3 4 -6 12 -5 21 3 11 9 17 9 22 1 11
-18 1 -21 -64 -22 -44 -1 -61 -5 -61 -14 0 -17 62 -19 91 -3 15 7 24 7 34 -1
11 -9 14 -6 18 17 4 27 5 27 12 6 8 -26 35 -31 35 -8 0 8 4 15 10 15 5 0 7 -6
4 -14 -3 -8 -1 -17 5 -21 7 -3 11 2 11 14 0 24 39 38 66 23 11 -6 27 -7 41 -1
14 5 25 4 29 -2 8 -13 5 -15 -28 -23 -17 -4 -28 -2 -28 4 0 6 -11 8 -27 4 -44
-10 -47 -21 -11 -34 l33 -13 -58 -7 c-32 -4 -60 -10 -64 -13 -3 -4 18 -4 47 0
43 5 52 3 48 -8 -3 -9 -16 -13 -36 -11 -28 3 -32 1 -32 -21 0 -27 33 -42 67
-31 16 6 15 4 -2 -8 -11 -9 -30 -18 -42 -22 -13 -4 -23 -15 -23 -24 0 -12 -3
-13 -12 -4 -7 7 -20 12 -29 12 -10 0 -19 3 -22 8 -2 4 -2 1 -1 -5 2 -8 -6 -13
-19 -13 -12 0 -32 -3 -44 -6 -13 -4 -23 -2 -23 4 0 14 52 46 72 45 10 -1 17 1
17 5 -1 4 -1 16 0 27 1 15 4 16 13 7 17 -17 39 -15 32 3 -4 9 -19 15 -40 15
-30 0 -34 -3 -34 -25 0 -27 -9 -32 -28 -13 -17 17 -15 26 6 32 9 3 5 4 -11 2
-15 -2 -30 0 -32 5 -7 10 -65 8 -65 -3 0 -4 5 -8 10 -8 6 0 6 -7 -1 -19 -12
-17 -13 -17 -32 2 -18 18 -21 18 -29 3 -5 -9 -16 -16 -24 -16 -8 0 -12 -5 -9
-10 3 -6 39 -9 80 -8 69 2 96 -4 82 -18 -5 -5 -178 -9 -202 -4 -5 1 -34 2 -63
2 -37 -1 -55 4 -59 14 -3 8 -12 14 -20 14 -8 0 -12 -4 -8 -9 9 -16 -15 -24
-30 -11 -11 9 -15 9 -15 1 0 -6 -7 -11 -15 -11 -25 0 -17 -20 12 -31 22 -8 24
-12 13 -19 -12 -8 -10 -10 8 -10 12 0 22 4 22 9 0 14 38 20 45 7 3 -8 7 -8 11
2 7 16 27 16 22 0 -3 -7 -15 -15 -29 -19 -21 -6 -20 -7 9 -8 26 -1 35 4 39 18
3 12 11 17 19 14 8 -3 11 -9 8 -14 -3 -5 15 -6 39 -3 41 6 46 4 52 -17 5 -14
3 -25 -4 -27 -6 -2 -11 -7 -11 -11 0 -9 84 -10 90 0 5 7 55 12 93 10 9 -1 17
-8 17 -17 0 -13 3 -14 13 -5 16 13 28 5 20 -15 -3 -8 1 -14 11 -14 9 0 19 7
22 15 9 24 23 17 16 -7 -6 -28 -20 -38 -49 -38 -16 0 -23 6 -23 20 0 11 -4 20
-9 20 -5 0 -11 -9 -14 -20 -3 -11 -10 -20 -16 -20 -7 0 -9 9 -6 23 6 22 3 23
-42 25 -44 2 -46 1 -24 -10 36 -19 40 -41 6 -32 -15 4 -44 7 -66 8 -28 0 -39
5 -39 16 0 9 -7 25 -15 36 -13 17 -14 17 -15 2 0 -10 5 -18 10 -18 6 0 10 -10
10 -22 -1 -21 -2 -22 -14 -6 -15 20 -56 13 -56 -10 0 -8 -8 -21 -17 -28 -16
-12 -15 -13 11 -14 20 0 27 4 23 14 -4 11 3 14 31 12 38 -3 42 -6 42 -30 0
-12 -20 -14 -106 -13 l-107 2 -3 28 c-2 18 2 27 12 27 8 0 14 -6 14 -14 0 -10
7 -11 35 -2 19 6 35 15 35 20 0 4 -7 6 -15 3 -8 -4 -17 -2 -20 3 -3 5 -12 7
-20 3 -18 -6 -19 10 -4 40 9 18 9 20 -2 10 -18 -17 -29 -16 -29 2 0 8 -4 15
-10 15 -14 0 -13 -13 2 -28 9 -9 9 -15 -1 -24 -10 -11 -15 -10 -24 2 -7 9 -24
14 -44 12 -19 -2 -33 1 -33 7 0 6 13 11 29 11 16 0 34 7 41 15 15 18 -1 21
-30 5 -23 -12 -59 -2 -38 11 11 7 10 9 -1 9 -8 0 -22 -6 -30 -14 -21 -18 -88
-30 -95 -17 -4 6 -24 9 -46 8 -21 -1 -42 2 -46 5 -11 12 28 42 55 44 80 4 79
3 74 24 -4 14 0 20 11 20 12 0 15 -6 10 -24 -4 -16 -1 -25 12 -30 19 -7 44 10
44 30 0 8 7 14 15 14 12 0 13 3 3 19 -8 13 -17 17 -27 12 -9 -4 -40 -6 -70 -4
-50 4 -53 2 -48 -17 3 -11 2 -22 -3 -25 -13 -8 -33 23 -24 37 5 7 9 19 10 28
8 67 34 328 34 338 0 6 5 12 11 12 6 0 9 -9 6 -20z m320 -46 c-3 -3 -12 -4
-19 -1 -8 3 -5 6 6 6 11 1 17 -2 13 -5z m-3467 -44 c0 -5 -4 -10 -10 -10 -5 0
-10 5 -10 10 0 6 5 10 10 10 6 0 10 -4 10 -10z m3603 -20 c8 0 8 -3 0 -11 -13
-13 -43 -5 -43 12 0 6 7 8 16 5 9 -3 21 -6 27 -6z m57 -10 c0 -5 -7 -10 -16
-10 -8 0 -12 5 -9 10 3 6 10 10 16 10 5 0 9 -4 9 -10z m45 -1 c11 -17 0 -20
-21 -4 -17 13 -17 14 -2 15 9 0 20 -5 23 -11z m-840 -109 c-3 -5 -11 -10 -16
-10 -6 0 -7 5 -4 10 3 6 11 10 16 10 6 0 7 -4 4 -10z m1175 -9 c0 -11 -25 -21
-56 -21 -15 0 -24 6 -24 15 0 11 11 15 40 15 22 0 40 -4 40 -9z m-330 -71 c0
-5 -9 -10 -20 -10 -11 0 -20 5 -20 10 0 6 9 10 20 10 11 0 20 -4 20 -10z m285
0 c-27 -12 -35 -12 -35 0 0 6 12 10 28 9 24 0 25 -1 7 -9z m90 0 c3 -5 -1 -10
-9 -10 -9 0 -16 5 -16 10 0 6 4 10 9 10 6 0 13 -4 16 -10z m-4010 -10 c3 -5 1
-10 -4 -10 -6 0 -11 5 -11 10 0 6 2 10 4 10 3 0 8 -4 11 -10z m3905 -30 c0 -5
-4 -10 -10 -10 -5 0 -10 5 -10 10 0 6 5 10 10 10 6 0 10 -4 10 -10z m-395 -50
c-3 -5 -10 -10 -16 -10 -5 0 -9 5 -9 10 0 6 7 10 16 10 8 0 12 -4 9 -10z m105
-5 c0 -8 -7 -15 -15 -15 -8 0 -15 7 -15 15 0 8 7 15 15 15 8 0 15 -7 15 -15z
m-475 -5 c3 -5 1 -10 -4 -10 -6 0 -11 5 -11 10 0 6 2 10 4 10 3 0 8 -4 11 -10z
m625 -19 c0 -5 -9 -11 -20 -14 -11 -3 -20 -1 -20 3 0 5 8 11 18 13 9 3 18 5
20 6 1 0 2 -3 2 -8z m40 -1 c0 -5 -5 -10 -11 -10 -5 0 -7 5 -4 10 3 6 8 10 11
10 2 0 4 -4 4 -10z m-193 -16 c-3 -3 -12 -4 -19 -1 -8 3 -5 6 6 6 11 1 17 -2
13 -5z m-597 -52 c0 -4 30 -8 66 -8 39 -1 60 2 52 7 -26 17 27 5 98 -21 19 -8
40 -59 25 -61 -60 -7 -83 -7 -67 0 26 10 4 25 -24 16 -11 -3 -25 -3 -31 0 -16
11 -113 13 -126 3 -7 -5 -14 -5 -18 2 -8 13 4 32 16 25 15 -10 10 12 -7 29
-14 15 -14 16 0 16 9 0 16 -3 16 -8z m797 -24 c-3 -8 -6 -5 -6 6 -1 11 2 17 5
13 3 -3 4 -12 1 -19z m63 -38 c-19 -12 -30 -12 -30 -1 0 10 31 20 40 14 2 -2
-2 -8 -10 -13z m-953 -12 c-3 -8 -6 -5 -6 6 -1 11 2 17 5 13 3 -3 4 -12 1 -19z
m1009 -5 c-10 -10 -19 5 -10 18 6 11 8 11 12 0 2 -7 1 -15 -2 -18z m-372 -9
c9 -35 4 -38 -22 -14 -27 25 -28 40 -3 40 12 0 21 -9 25 -26z m39 9 c-7 -2
-19 -2 -25 0 -7 3 -2 5 12 5 14 0 19 -2 13 -5z m14 -49 c-3 -3 -12 -4 -19 -1
-8 3 -5 6 6 6 11 1 17 -2 13 -5z m-367 -24 c0 -5 -4 -10 -10 -10 -5 0 -10 5
-10 10 0 6 5 10 10 10 6 0 10 -4 10 -10z m107 -86 c-3 -3 -12 -4 -19 -1 -8 3
-5 6 6 6 11 1 17 -2 13 -5z m133 -4 c0 -4 -25 -7 -54 -6 -30 0 -50 4 -43 8 14
10 97 7 97 -2z m245 -1 c-4 -6 1 -17 11 -24 17 -13 17 -14 2 -15 -9 0 -20 9
-23 20 -3 11 -11 20 -16 20 -6 0 -7 -4 -4 -10 3 -5 1 -10 -4 -10 -6 0 -11 7
-11 15 0 9 10 15 26 15 15 0 23 -4 19 -11z m-82 -6 c3 -5 -8 -9 -24 -10 -16
-1 -29 2 -29 7 0 12 47 13 53 3z m-4083 -232 l-1 -211 28 0 c15 0 52 3 81 6
51 7 52 7 52 40 0 33 1 34 40 34 l40 0 0 -65 0 -65 -164 0 -164 0 -1 150 c0
96 3 149 9 145 6 -3 10 -26 10 -50 0 -33 5 -47 19 -54 17 -9 20 -6 26 36 6 45
5 48 -30 77 -36 30 -36 32 -33 95 3 74 23 95 23 26 0 -42 13 -64 38 -65 4 0 7
24 7 53 0 49 7 73 17 63 3 -2 4 -99 3 -215z m3440 153 c-12 -26 -19 -56 -17
-66 3 -10 0 -18 -8 -18 -7 0 -15 -11 -17 -25 -3 -14 -1 -25 6 -25 6 0 5 -4 -2
-9 -14 -9 -33 -38 -52 -80 -8 -17 -7 -28 2 -40 12 -14 11 -14 -4 -2 -14 10
-18 10 -18 1 0 -7 -11 -34 -25 -62 -28 -56 -31 -74 -12 -81 6 -3 0 -6 -15 -6
-29 -1 -35 7 -19 25 5 5 23 47 41 94 18 47 38 99 45 115 6 17 31 78 55 138 24
59 47 104 52 99 5 -5 -1 -31 -12 -58z m459 -180 c0 -139 -4 -234 -10 -234 -5
0 -10 54 -10 123 -5 371 -5 362 12 352 5 -4 9 -106 8 -241z m-4527 94 c4 -109
9 -140 22 -153 15 -15 16 -15 16 9 0 14 4 27 9 30 5 3 9 -29 10 -71 1 -42 3
-78 5 -81 2 -2 58 -4 124 -4 l120 -1 5 -26 c3 -14 5 -27 4 -28 -1 -1 -76 -3
-167 -4 l-165 -3 2 139 c1 77 2 185 3 239 0 55 2 97 4 95 2 -2 6 -66 8 -141z
m298 134 c0 -11 -41 -55 -46 -49 -8 7 21 57 34 57 6 0 12 -4 12 -8z m1076 1
c-5 -6 -85 -10 -218 -13 -19 0 -28 -5 -28 -16 0 -11 4 -14 13 -7 18 13 124 16
132 4 4 -7 -14 -11 -54 -11 -33 0 -62 -4 -65 -9 -3 -4 -17 -7 -31 -6 -24 3
-25 1 -25 -55 0 -53 2 -58 20 -53 15 4 20 15 22 42 1 27 3 23 7 -19 l6 -55 98
0 97 0 0 -27 0 -28 -77 -2 c-43 0 -85 -1 -93 -2 -12 -1 -15 -17 -15 -81 0 -59
3 -79 13 -77 6 1 12 -2 12 -8 0 -12 -16 -13 -58 -1 -28 9 -32 7 -32 -10 0 -11
-4 -17 -10 -14 -6 4 -10 92 -10 231 l0 224 152 0 c83 0 148 -3 144 -7z m295
-7 c1 16 2 17 6 2 2 -10 9 -18 15 -18 5 0 8 7 4 15 -10 27 13 15 29 -15 18
-35 19 -41 3 -37 -8 1 -14 -10 -16 -28 -2 -22 5 -38 26 -60 16 -17 32 -39 35
-50 5 -13 -4 -8 -23 15 -17 19 -30 38 -30 42 0 4 -4 8 -10 8 -6 0 -10 -62 -10
-165 l0 -165 -28 0 c-16 0 -30 6 -31 13 -5 32 -8 339 -3 396 4 58 6 63 18 46
14 -18 14 -18 15 1z m349 12 c1 -2 3 -108 7 -235 l6 -233 -37 0 -36 0 1 103 2
102 10 -97 c5 -54 12 -98 16 -98 8 0 11 250 3 250 -9 0 -16 186 -7 200 5 8 34
15 35 8z m312 -76 c24 -11 27 -18 27 -65 1 -78 5 -90 37 -103 l29 -12 -35 -4
c-33 -3 -35 -5 -36 -38 0 -68 -4 -90 -15 -90 -5 0 -7 5 -4 10 3 6 -1 10 -9 10
-9 0 -13 -6 -11 -15 3 -8 7 -22 10 -31 3 -11 10 -13 18 -8 6 5 57 7 112 4 95
-5 100 -6 101 -27 1 -23 -1 -23 -139 -23 l-140 0 7 77 c3 42 7 148 7 237 1 89
4 145 8 126 4 -25 14 -39 33 -48z m203 68 c-3 -5 -13 -10 -21 -10 -8 0 -14 5
-14 10 0 6 9 10 21 10 11 0 17 -4 14 -10z m23 -19 c-10 -16 -22 -21 -53 -20
l-40 1 44 12 c25 6 46 17 49 24 2 7 6 11 9 9 2 -3 -2 -14 -9 -26z m272 19 c0
-5 -4 -10 -10 -10 -5 0 -10 5 -10 10 0 6 5 10 10 10 6 0 10 -4 10 -10z m310 1
c0 -5 -6 -11 -12 -14 -10 -3 -10 -7 -1 -19 7 -8 10 -18 6 -21 -15 -15 -23 -5
-23 28 0 24 5 35 15 35 8 0 15 -4 15 -9z m30 -20 c0 -17 -4 -33 -10 -36 -6 -4
-10 8 -10 29 0 20 5 36 10 36 6 0 10 -13 10 -29z m327 23 c-3 -3 -12 -4 -19
-1 -8 3 -5 6 6 6 11 1 17 -2 13 -5z m1099 -106 c2 -51 5 -92 8 -90 4 1 29 2
56 2 46 0 52 3 69 31 14 23 17 38 11 60 -9 30 3 41 14 13 11 -28 6 -64 -10
-89 -13 -20 -13 -25 -3 -25 8 0 5 -6 -8 -15 -33 -23 -35 -64 -5 -102 16 -22
29 -30 35 -24 5 5 16 7 24 4 13 -5 13 -3 2 16 -14 22 -24 26 -32 14 -2 -5 -2
-2 0 6 2 7 -2 20 -8 28 -7 7 -10 16 -7 19 5 4 62 -64 143 -171 24 -31 18 -43
-17 -40 -18 2 -40 3 -49 4 -9 1 -40 36 -68 79 -74 110 -92 130 -126 134 -26 3
-31 -1 -37 -27 -6 -26 -7 -26 -2 5 6 50 6 51 -4 93 -6 21 -18 47 -27 57 -9 10
-15 29 -12 42 3 20 5 19 12 -11 6 -26 10 -30 17 -17 5 9 8 22 7 28 -3 29 1 81
7 75 4 -4 8 -48 10 -99z m-1716 78 c8 -11 9 -20 1 -33 -10 -17 -10 -17 -11 0
0 9 -4 17 -10 17 -5 0 -10 7 -10 15 0 19 14 19 30 1z m-1520 -6 c0 -5 -5 -10
-11 -10 -5 0 -7 5 -4 10 3 6 8 10 11 10 2 0 4 -4 4 -10z m3295 0 c17 -7 14 -9
-13 -9 -20 -1 -31 3 -27 9 7 12 13 12 40 0z m-2198 -6 c-3 -3 -12 -4 -19 -1
-8 3 -5 6 6 6 11 1 17 -2 13 -5z m950 0 c-3 -3 -12 -4 -19 -1 -8 3 -5 6 6 6
11 1 17 -2 13 -5z m-1442 -67 c4 -24 5 -55 2 -68 -3 -19 -5 -18 -6 9 -1 38
-12 41 -35 10 -8 -13 -14 -16 -11 -8 2 8 9 34 15 58 14 54 27 54 35 -1z m-199
-23 c-15 -16 -30 -6 -16 11 6 7 8 21 4 31 -3 12 0 10 9 -5 11 -18 12 -28 3
-37z m2324 40 c0 -8 -4 -12 -10 -9 -5 3 -10 10 -10 16 0 5 5 9 10 9 6 0 10 -7
10 -16z m-2190 -28 c0 -3 -4 -8 -10 -11 -5 -3 -10 -1 -10 4 0 6 5 11 10 11 6
0 10 -2 10 -4z m2815 -27 c0 -8 -12 -15 -27 -17 -16 -2 -28 1 -28 7 0 6 12 12
28 12 l27 2 -27 4 c-16 2 -28 8 -28 13 0 4 12 5 28 1 15 -4 27 -14 27 -22z
m-4655 -19 c0 -22 -2 -40 -4 -40 -2 0 -6 18 -8 40 -2 22 0 40 4 40 5 0 8 -18
8 -40z m4100 -50 c0 -8 7 -24 15 -34 17 -22 19 -36 6 -36 -9 0 -62 133 -60
153 1 15 37 -63 39 -83z m-1180 60 c0 -5 -4 -10 -10 -10 -5 0 -10 -8 -10 -19
0 -14 7 -18 28 -18 15 0 21 2 15 4 -7 3 -13 9 -13 14 0 21 22 5 62 -46 23 -30
46 -55 50 -55 5 0 8 27 8 60 0 33 4 60 9 60 16 0 24 -21 12 -33 -16 -16 -14
-27 4 -21 8 4 15 19 15 34 0 16 5 32 10 35 6 4 10 -15 10 -49 0 -43 -3 -54
-14 -50 -16 6 -28 -19 -19 -42 5 -14 8 -12 19 7 12 21 13 11 13 -81 0 -86 -2
-102 -12 -89 -7 9 -29 36 -49 60 -21 24 -61 73 -90 109 -29 36 -58 70 -63 75
-6 6 -18 19 -25 29 -14 18 -13 19 3 13 11 -4 20 -1 23 8 7 17 24 20 24 5z
m1970 6 c0 -3 -4 -8 -10 -11 -5 -3 -10 -1 -10 4 0 6 5 11 10 11 6 0 10 -2 10
-4z m-3086 -21 c-4 -8 -11 -15 -16 -15 -6 0 -5 6 2 15 7 8 14 15 16 15 2 0 1
-7 -2 -15z m2351 -25 c5 -17 4 -22 -3 -15 -5 6 -13 21 -17 35 -5 17 -4 22 3
15 5 -5 13 -21 17 -35z m-1391 -12 c-10 -15 7 -46 24 -44 15 1 17 -11 18 -106
l0 -108 -31 0 -32 0 2 68 c1 37 2 103 3 147 2 53 5 75 11 65 6 -8 7 -18 5 -22z
m723 10 c-3 -8 -6 -5 -6 6 -1 11 2 17 5 13 3 -3 4 -12 1 -19z m63 -127 c0
-149 0 -150 -52 -143 -25 4 -29 8 -24 26 3 11 6 47 6 79 0 36 4 56 10 52 5 -3
15 7 21 22 6 15 15 35 19 44 5 9 6 26 3 38 -3 12 -1 21 6 21 8 0 11 -43 11
-139z m460 129 c0 -5 -4 -10 -10 -10 -5 0 -10 5 -10 10 0 6 5 10 10 10 6 0 10
-4 10 -10z m345 0 c3 -5 1 -10 -4 -10 -6 0 -11 5 -11 10 0 6 2 10 4 10 3 0 8
-4 11 -10z m385 -15 c-7 -9 -15 -13 -17 -11 -7 7 7 26 19 26 6 0 6 -6 -2 -15z
m-4680 1 c0 -3 -4 -8 -10 -11 -5 -3 -10 -1 -10 4 0 6 5 11 10 11 6 0 10 -2 10
-4z m150 -21 c0 -24 -2 -25 -77 -25 -42 0 -73 3 -70 7 4 3 34 5 68 4 57 -2 60
0 54 19 -5 14 -2 20 9 20 10 0 16 -9 16 -25z m317 -7 c-3 -7 -5 -2 -5 12 0 14
2 19 5 13 2 -7 2 -19 0 -25z m1380 10 c-3 -8 -6 -5 -6 6 -1 11 2 17 5 13 3 -3
4 -12 1 -19z m893 12 c0 -5 -4 -10 -10 -10 -5 0 -10 5 -10 10 0 6 5 10 10 10
6 0 10 -4 10 -10z m-1055 -30 c3 -5 1 -10 -4 -10 -6 0 -11 5 -11 10 0 6 2 10
4 10 3 0 8 -4 11 -10z m710 0 c3 -5 -3 -10 -15 -10 -12 0 -18 5 -15 10 3 6 10
10 15 10 5 0 12 -4 15 -10z m1032 -37 c-3 -10 -5 -2 -5 17 0 19 2 27 5 18 2
-10 2 -26 0 -35z m727 -49 c9 -23 7 -36 -3 -30 -12 8 -21 46 -11 46 4 0 11 -7
14 -16z m313 -26 c-3 -7 -5 -2 -5 12 0 14 2 19 5 13 2 -7 2 -19 0 -25z m-357
2 c6 -11 8 -25 5 -31 -4 -5 3 -26 14 -45 12 -20 16 -34 9 -32 -14 5 -61 128
-48 128 5 0 14 -9 20 -20z m-248 -42 c-8 -8 -9 -4 -5 13 4 13 8 18 11 10 2 -7
-1 -18 -6 -23z m-2582 -38 l0 -30 -147 2 -148 1 110 7 c137 9 128 7 122 24 -5
14 8 20 51 25 7 0 12 -11 12 -29z m-137 13 c-13 -2 -33 -2 -45 0 -13 2 -3 4
22 4 25 0 35 -2 23 -4z m1327 -3 c0 -5 -2 -10 -4 -10 -3 0 -8 5 -11 10 -3 6
-1 10 4 10 6 0 11 -4 11 -10z m0 -30 c0 -5 -5 -10 -11 -10 -5 0 -7 5 -4 10 3
6 8 10 11 10 2 0 4 -4 4 -10z m-2105 -151 c13 -5 0 -8 -39 -8 -67 -1 -69 -8
-5 -20 44 -9 44 -9 -21 -10 -44 0 -60 2 -50 9 13 8 13 10 0 14 -21 8 -54 3
-62 -9 -5 -6 -8 -6 -8 2 0 14 -53 11 -93 -5 -25 -11 -31 -9 -49 10 l-20 23 5
-22 c4 -20 1 -23 -24 -23 -16 0 -41 7 -54 16 -13 8 -34 14 -47 12 l-23 -5 25
-11 c25 -11 25 -11 -7 -11 -29 -1 -32 2 -29 22 3 12 5 23 5 23 3 6 480 -1 496
-7z m211 -2 c3 -2 -5 -5 -18 -5 -13 0 -27 -1 -33 -2 -25 -6 -75 1 -75 10 0 9
116 7 126 -3z m690 1 c3 -4 -9 -8 -26 -8 -25 0 -31 -3 -26 -16 5 -13 -13 -15
-154 -13 -88 1 -160 4 -160 8 1 20 22 30 70 34 95 7 291 4 296 -5z m688 3 c3
-5 -13 -9 -36 -9 -26 -1 -47 -7 -54 -16 -15 -21 -56 -22 -48 -1 5 12 -2 15
-32 14 -22 -1 -30 -3 -19 -6 49 -12 35 -23 -29 -23 -56 0 -67 3 -62 15 3 8 1
15 -4 15 -6 0 -10 -7 -10 -16 0 -13 -18 -15 -145 -12 -92 2 -148 7 -153 14 -4
6 -14 14 -22 17 -12 4 -11 6 3 6 10 1 25 -6 34 -14 15 -16 38 -11 28 6 -4 5 1
9 10 9 9 0 14 -4 10 -9 -11 -19 12 -19 28 0 16 18 31 19 256 19 132 0 242 -4
245 -9z m1031 -2 c4 -6 -2 -13 -14 -16 -12 -3 -21 -9 -21 -14 0 -5 -30 -9 -67
-9 -61 0 -65 1 -47 15 16 12 16 14 3 15 -9 0 -22 -7 -29 -15 -7 -8 -21 -15
-32 -15 -17 0 -18 3 -8 15 18 22 -8 20 -32 -2 -10 -9 -18 -11 -18 -5 0 6 -3
17 -6 26 -5 14 10 16 129 16 86 0 138 -4 142 -11z m648 4 c-9 -3 -10 -10 -3
-24 8 -15 7 -19 -4 -19 -8 0 -18 9 -21 20 -3 11 -11 20 -16 20 -13 0 -11 -14
3 -28 9 -9 8 -12 -4 -12 -9 0 -20 5 -23 10 -3 6 -11 10 -16 10 -6 0 -7 -4 -4
-10 4 -6 -19 -10 -63 -10 -62 0 -70 2 -80 23 l-11 22 0 -22 c-1 -29 -17 -30
-24 -2 -4 13 -10 18 -18 13 -8 -4 -10 -3 -5 4 5 8 53 12 154 11 81 0 141 -3
135 -6z m472 -11 c-3 -3 -11 0 -18 7 -9 10 -8 11 6 5 10 -3 15 -9 12 -12z
m515 1 c1 -17 1 -17 11 0 16 27 37 21 31 -8 -4 -22 -9 -25 -47 -25 -23 0 -56
3 -73 6 -28 6 -29 7 -13 24 22 25 91 27 91 3z m115 8 c3 -5 0 -13 -7 -17 -6
-4 -14 -2 -16 4 -2 6 -10 8 -18 5 -8 -3 -14 0 -14 6 0 13 46 15 55 2z m80 -1
c3 -5 -1 -10 -9 -10 -9 0 -16 -7 -16 -15 0 -8 -8 -15 -17 -15 -13 0 -14 3 -5
12 17 17 15 29 -3 22 -8 -4 -15 -1 -15 5 0 14 57 15 65 1z m28 -15 c-10 -13
-22 -25 -27 -25 -5 0 1 11 14 25 30 32 36 32 13 0z m-4416 9 c-3 -3 -12 -4
-19 -1 -8 3 -5 6 6 6 11 1 17 -2 13 -5z m1800 0 c-3 -3 -12 -4 -19 -1 -8 3 -5
6 6 6 11 1 17 -2 13 -5z m416 -1 c-7 -2 -19 -2 -25 0 -7 3 -2 5 12 5 14 0 19
-2 13 -5z m1043 -13 c0 -11 -4 -20 -8 -20 -4 0 -8 2 -8 4 0 2 -3 11 -6 20 -4
10 -1 16 8 16 7 0 14 -9 14 -20z m1199 10 c-3 -5 -11 -10 -16 -10 -6 0 -7 5
-4 10 3 6 11 10 16 10 6 0 7 -4 4 -10z m-4475 -20 c0 -5 -4 -10 -10 -10 -5 0
-10 5 -10 10 0 6 5 10 10 10 6 0 10 -4 10 -10z m1525 0 c3 -5 -1 -10 -10 -10
-9 0 -13 5 -10 10 3 6 8 10 10 10 2 0 7 -4 10 -10z m2780 0 c3 -5 -1 -10 -10
-10 -9 0 -13 5 -10 10 3 6 8 10 10 10 2 0 7 -4 10 -10z m35 0 c0 -5 -5 -10
-11 -10 -5 0 -7 5 -4 10 3 6 8 10 11 10 2 0 4 -4 4 -10z m-4183 -6 c-3 -3 -12
-4 -19 -1 -8 3 -5 6 6 6 11 1 17 -2 13 -5z"/>
<path d="M3755 7870 c3 -5 8 -10 11 -10 2 0 4 5 4 10 0 6 -5 10 -11 10 -5 0
-7 -4 -4 -10z"/>
<path d="M4212 7628 c6 -18 28 -21 28 -4 0 9 -7 16 -16 16 -9 0 -14 -5 -12
-12z"/>
<path d="M4492 7480 c0 -14 2 -19 5 -12 2 6 2 18 0 25 -3 6 -5 1 -5 -13z"/>
<path d="M5276 6193 c-7 -8 -258 -24 -349 -23 -63 1 -100 -7 -92 -20 3 -4 -13
-11 -35 -15 -26 -4 -40 -12 -40 -22 0 -12 -8 -14 -37 -10 l-38 6 40 -13 c37
-12 38 -14 15 -18 -60 -12 132 -6 422 12 282 18 374 27 311 29 -12 1 -25 6
-29 13 -4 6 -3 8 4 4 17 -10 23 10 7 24 -8 7 -15 9 -15 5 0 -4 -6 -3 -13 3 -7
6 -23 9 -35 5 -15 -3 -24 0 -28 11 -6 16 -73 23 -88 9z"/>
<path d="M4778 6153 c7 -3 16 -2 19 1 4 3 -2 6 -13 5 -11 0 -14 -3 -6 -6z"/>
<path d="M5620 6130 c0 -5 5 -10 10 -10 6 0 10 5 10 10 0 6 -4 10 -10 10 -5 0
-10 -4 -10 -10z"/>
<path d="M4640 6117 c0 -10 8 -17 18 -17 9 0 13 4 7 8 -5 4 -13 11 -17 16 -5
5 -8 2 -8 -7z"/>
<path d="M4480 6083 c0 -21 5 -45 10 -53 7 -11 10 0 10 38 0 28 -4 52 -10 52
-5 0 -10 -17 -10 -37z"/>
<path d="M4645 6070 c-4 -6 6 -10 24 -10 16 0 33 5 36 10 4 6 -6 10 -24 10
-16 0 -33 -4 -36 -10z"/>
<path d="M4488 5985 c-9 -27 -8 -829 1 -930 6 -64 9 -28 15 185 8 265 -3 783
-16 745z"/>
<path d="M3820 5860 c0 -5 5 -10 11 -10 5 0 7 5 4 10 -3 6 -8 10 -11 10 -2 0
-4 -4 -4 -10z"/>
<path d="M4053 5550 c0 -234 1 -244 8 -124 5 72 5 187 0 255 -7 111 -8 98 -8
-131z"/>
<path d="M3635 5630 c3 -5 8 -10 11 -10 2 0 4 5 4 10 0 6 -5 10 -11 10 -5 0
-7 -4 -4 -10z"/>
<path d="M3678 5595 c3 -21 10 -35 18 -35 11 0 11 5 2 28 -18 43 -24 45 -20 7z"/>
<path d="M3724 5572 c1 -22 25 -47 34 -37 4 4 1 10 -5 12 -7 3 -13 11 -13 18
0 8 -4 16 -9 19 -5 3 -8 -2 -7 -12z"/>
<path d="M3770 5570 c-13 -8 -12 -10 3 -10 9 0 17 5 17 10 0 12 -1 12 -20 0z"/>
<path d="M4103 5520 c0 -36 2 -50 4 -32 2 17 2 47 0 65 -2 17 -4 3 -4 -33z"/>
<path d="M4240 5537 c0 -41 -3 -50 -20 -54 -20 -5 -20 -7 -4 -24 9 -11 14 -25
10 -35 -4 -10 -2 -21 5 -24 6 -5 -3 -16 -24 -29 -19 -12 -40 -28 -47 -36 -11
-13 -5 -15 47 -15 l59 0 -3 116 c-1 63 -7 123 -13 132 -7 13 -9 5 -10 -31z"/>
<path d="M4102 5420 c0 -14 2 -19 5 -12 2 6 2 18 0 25 -3 6 -5 1 -5 -13z"/>
<path d="M3875 5230 c3 -5 8 -10 11 -10 2 0 4 5 4 10 0 6 -5 10 -11 10 -5 0
-7 -4 -4 -10z"/>
<path d="M4070 5008 c0 -19 18 -43 25 -36 9 9 -4 48 -16 48 -5 0 -9 -6 -9 -12z"/>
<path d="M5168 4223 c6 -2 18 -2 25 0 6 3 1 5 -13 5 -14 0 -19 -2 -12 -5z"/>
<path d="M5633 4080 c1 -23 42 -29 50 -7 3 10 9 10 26 0 25 -16 51 -17 51 -3
0 15 -45 30 -90 30 -33 0 -39 -3 -37 -20z"/>
<path d="M2186 7872 c-2 -4 -1 -14 3 -21 6 -10 10 -9 14 3 6 16 -8 32 -17 18z"/>
<path d="M1720 7530 c0 -5 5 -10 11 -10 5 0 7 5 4 10 -3 6 -8 10 -11 10 -2 0
-4 -4 -4 -10z"/>
<path d="M1692 5920 c-26 -22 -30 -29 -18 -33 10 -4 22 3 33 19 12 19 18 22
24 12 5 -7 9 -8 9 -3 0 30 -17 32 -48 5z"/>
<path d="M809 5895 c-24 -7 -57 -17 -74 -23 -16 -6 -45 -15 -63 -19 -19 -4
-32 -10 -30 -13 2 -4 -14 -26 -35 -50 -28 -33 -37 -52 -35 -73 2 -18 -7 -39
-26 -63 -28 -35 -29 -39 -22 -113 13 -146 14 -135 -19 -142 -26 -5 -27 -7 -11
-14 10 -4 31 -8 47 -9 22 -1 46 -17 93 -62 55 -54 62 -66 58 -92 -3 -23 1 -34
17 -44 12 -7 21 -18 21 -25 0 -20 61 -16 76 5 7 9 14 27 14 40 0 20 4 22 63
22 139 0 246 63 299 177 34 72 50 179 35 228 -33 103 -44 123 -96 176 -85 86
-207 122 -312 94z m171 -170 c48 -25 83 -87 88 -156 3 -34 -1 -72 -8 -89 -27
-66 -125 -119 -190 -105 -47 10 -110 63 -131 108 -44 98 -6 197 96 252 35 19
98 14 145 -10z m-321 8 c0 -5 -11 -30 -24 -58 -17 -37 -24 -44 -24 -27 -1 29
25 92 38 92 6 0 11 -3 10 -7z m49 -39 c5 -3 -26 -74 -32 -74 -2 0 -11 3 -19 6
-14 5 -14 11 0 50 13 39 17 43 32 32 9 -7 17 -13 19 -14z m402 -208 c0 -8 -9
-24 -21 -37 -11 -13 -18 -19 -15 -13 3 6 10 23 15 38 11 28 21 34 21 12z"/>
<path d="M1030 5591 c0 -12 5 -21 10 -21 6 0 10 6 10 14 0 8 -4 18 -10 21 -5
3 -10 -3 -10 -14z"/>
<path d="M1448 5733 c4 -102 -4 -175 -17 -154 -5 7 -11 -34 -13 -91 -6 -104 2
-152 13 -88 5 28 6 23 7 -25 0 -37 -2 -53 -7 -41 -4 11 -10 15 -14 10 -8 -14
3 -55 14 -48 8 5 14 -49 10 -83 -1 -7 3 -13 9 -13 12 0 15 616 2 624 -4 2 -6
-38 -4 -91z m-11 -260 c-2 -16 -4 -5 -4 22 0 28 2 40 4 28 2 -13 2 -35 0 -50z"/>
<path d="M565 5809 c-11 -17 0 -20 21 -4 17 13 17 14 2 15 -9 0 -20 -5 -23
-11z"/>
<path d="M510 5790 c0 -5 7 -10 15 -10 8 0 15 5 15 10 0 6 -7 10 -15 10 -8 0
-15 -4 -15 -10z"/>
<path d="M440 5395 c0 -8 5 -15 10 -15 6 0 10 7 10 15 0 8 -4 15 -10 15 -5 0
-10 -7 -10 -15z"/>
<path d="M1590 5135 c0 -14 2 -25 4 -25 2 0 6 11 8 25 3 14 1 25 -3 25 -5 0
-9 -11 -9 -25z"/>
<path d="M1622 5135 c0 -16 2 -22 5 -12 2 9 2 23 0 30 -3 6 -5 -1 -5 -18z"/>
<path d="M1593 5055 c1 -11 -2 -26 -7 -33 -13 -21 -18 -160 -6 -167 11 -7 13
2 11 60 0 22 3 46 8 54 12 19 34 3 27 -21 -2 -12 1 -27 9 -34 11 -11 14 -9 19
11 5 18 -1 31 -19 49 -26 26 -32 46 -15 46 6 0 10 7 10 15 0 8 -6 12 -14 9 -8
-3 -16 2 -19 13 -5 15 -5 15 -4 -2z"/>
<path d="M2930 7918 c-14 -6 -20 -12 -13 -15 6 -2 24 3 40 11 32 17 11 20 -27
4z"/>
<path d="M2740 7900 c20 -13 43 -13 35 0 -3 6 -16 10 -28 10 -18 0 -19 -2 -7
-10z"/>
<path d="M2856 7688 c-9 -5 -24 -8 -34 -7 -33 3 -46 -1 -36 -10 19 -18 148
-17 142 1 -6 17 -52 27 -72 16z"/>
<path d="M2690 7596 c0 -9 5 -16 10 -16 6 0 10 4 10 9 0 6 -4 13 -10 16 -5 3
-10 -1 -10 -9z"/>
<path d="M2774 7577 c-30 -17 -1 -25 86 -23 91 3 116 10 90 26 -17 11 -155 8
-176 -3z"/>
<path d="M3051 7094 c0 -11 3 -14 6 -6 3 7 2 16 -1 19 -3 4 -6 -2 -5 -13z"/>
<path d="M2597 6523 c-3 -5 -8 -28 -11 -53 -8 -54 8 -34 18 23 6 34 3 47 -7
30z"/>
<path d="M2571 6388 c0 -28 2 -30 9 -13 12 28 12 45 0 45 -5 0 -10 -15 -9 -32z"/>
<path d="M2600 6319 c0 -5 5 -7 10 -4 6 3 10 8 10 11 0 2 -4 4 -10 4 -5 0 -10
-5 -10 -11z"/>
<path d="M2851 5886 c-9 -11 -6 -12 16 -8 27 5 27 4 11 -15 -28 -31 -27 -31
57 -32 11 0 37 0 58 -1 45 -1 49 19 11 49 -32 25 -134 30 -153 7z"/>
<path d="M2791 5704 c0 -11 3 -14 6 -6 3 7 2 16 -1 19 -3 4 -6 -2 -5 -13z"/>
<path d="M5412 3345 c6 -14 13 -23 16 -21 7 7 -9 46 -18 46 -5 0 -4 -11 2 -25z"/>
<path d="M5145 3339 c-5 -7 123 -39 154 -39 9 1 0 8 -19 17 -40 18 -129 33
-135 22z"/>
<path d="M5478 3303 c6 -2 18 -2 25 0 6 3 1 5 -13 5 -14 0 -19 -2 -12 -5z"/>
<path d="M5520 3300 c0 -5 6 -10 14 -10 8 0 18 5 21 10 3 6 -3 10 -14 10 -12
0 -21 -4 -21 -10z"/>
<path d="M4085 3160 c4 -6 11 -8 16 -5 14 9 11 15 -7 15 -8 0 -12 -5 -9 -10z"/>
<path d="M3218 2873 c7 -3 16 -2 19 1 4 3 -2 6 -13 5 -11 0 -14 -3 -6 -6z"/>
<path d="M3485 2820 c-3 -6 1 -7 9 -4 18 7 21 14 7 14 -6 0 -13 -4 -16 -10z"/>
<path d="M487 2803 c-4 -3 -7 -15 -7 -25 0 -18 1 -18 26 -2 19 13 22 19 12 25
-16 11 -23 11 -31 2z"/>
<path d="M1062 2780 c7 -11 16 -20 20 -20 5 0 3 9 -4 20 -7 11 -16 20 -20 20
-5 0 -3 -9 4 -20z"/>
<path d="M750 2540 c0 -5 5 -10 11 -10 5 0 7 5 4 10 -3 6 -8 10 -11 10 -2 0
-4 -4 -4 -10z"/>
<path d="M848 2523 c7 -3 16 -2 19 1 4 3 -2 6 -13 5 -11 0 -14 -3 -6 -6z"/>
<path d="M1006 2519 c3 -5 55 -9 116 -9 61 0 109 2 106 5 -8 9 -228 13 -222 4z"/>
<path d="M1240 2520 c0 -5 7 -10 16 -10 8 0 12 5 9 10 -3 6 -10 10 -16 10 -5
0 -9 -4 -9 -10z"/>
<path d="M4728 2143 c7 -3 16 -2 19 1 4 3 -2 6 -13 5 -11 0 -14 -3 -6 -6z"/>
<path d="M4808 2128 c8 -8 20 -8 44 -1 l33 11 -44 1 c-34 1 -42 -2 -33 -11z"/>
<path d="M4615 2070 c3 -5 8 -10 11 -10 2 0 4 5 4 10 0 6 -5 10 -11 10 -5 0
-7 -4 -4 -10z"/>
<path d="M4748 2063 c7 -3 16 -2 19 1 4 3 -2 6 -13 5 -11 0 -14 -3 -6 -6z"/>
<path d="M4803 2063 c9 -2 23 -2 30 0 6 3 -1 5 -18 5 -16 0 -22 -2 -12 -5z"/>
<path d="M5018 1923 c7 -3 16 -2 19 1 4 3 -2 6 -13 5 -11 0 -14 -3 -6 -6z"/>
<path d="M4900 1882 c0 -11 96 -10 106 1 4 4 -18 7 -49 7 -31 0 -57 -4 -57 -8z"/>
<path d="M4730 1815 c0 -8 7 -15 15 -15 8 0 15 7 15 15 0 8 -7 15 -15 15 -8 0
-15 -7 -15 -15z"/>
<path d="M4550 1790 c-13 -8 -12 -10 3 -10 9 0 17 5 17 10 0 12 -1 12 -20 0z"/>
<path d="M5003 1778 c2 -7 10 -13 17 -13 7 0 15 6 18 13 2 7 -5 12 -18 12 -13
0 -20 -5 -17 -12z"/>
<path d="M4614 1771 c7 -10 31 -9 42 2 4 4 -5 7 -20 7 -15 0 -25 -4 -22 -9z"/>
<path d="M4928 1728 c9 -9 15 -9 24 0 9 9 7 12 -12 12 -19 0 -21 -3 -12 -12z"/>
<path d="M4880 1719 c0 -5 5 -7 10 -4 6 3 10 8 10 11 0 2 -4 4 -10 4 -5 0 -10
-5 -10 -11z"/>
<path d="M1050 1130 c0 -19 3 -21 12 -12 9 9 9 15 0 24 -9 9 -12 7 -12 -12z"/>
<path d="M1080 1091 c0 -8 -6 -11 -16 -7 -11 4 -14 1 -12 -12 2 -9 11 -16 20
-14 12 2 15 -3 11 -17 -3 -11 -10 -19 -17 -18 -6 1 -11 -5 -11 -13 0 -17 59
-25 112 -15 50 9 39 25 -17 25 -45 0 -50 2 -52 23 -2 41 -3 46 -11 53 -4 4 -7
2 -7 -5z"/>
<path d="M1590 1421 c0 -6 5 -13 10 -16 6 -3 10 1 10 9 0 9 -4 16 -10 16 -5 0
-10 -4 -10 -9z"/>
<path d="M1723 1223 c-18 -2 -33 -9 -33 -14 0 -15 133 -7 138 9 4 12 -32 14
-105 5z"/>
<path d="M2182 1398 c-14 -14 -16 -28 -3 -28 5 0 11 9 14 20 6 23 5 24 -11 8z"/>
<path d="M2150 1030 c-12 -22 -5 -43 13 -37 12 4 17 57 5 57 -4 0 -12 -9 -18
-20z"/>
<path d="M2790 1293 c0 -15 4 -23 8 -17 4 6 14 13 22 16 12 4 10 7 -8 17 -20
11 -22 10 -22 -16z"/>
<path d="M2790 1220 c0 -17 3 -18 25 -8 27 12 24 28 -6 28 -12 0 -19 -7 -19
-20z"/>
<path d="M2803 1183 c-18 -6 -16 -23 1 -23 17 0 30 16 19 23 -5 2 -14 2 -20 0z"/>
<path d="M2791 1134 c0 -11 3 -14 6 -6 3 7 2 16 -1 19 -3 4 -6 -2 -5 -13z"/>
<path d="M3493 1218 c2 -7 10 -12 17 -10 7 2 9 -5 5 -17 -3 -11 -1 -22 4 -25
12 -8 11 35 -2 52 -5 6 -14 12 -19 12 -5 0 -8 -6 -5 -12z"/>
<path d="M3540 1176 c0 -9 5 -16 10 -16 6 0 10 4 10 9 0 6 -4 13 -10 16 -5 3
-10 -1 -10 -9z"/>
<path d="M3630 1090 c0 -19 3 -21 12 -12 9 9 9 15 0 24 -9 9 -12 7 -12 -12z"/>
<path d="M4081 1144 c0 -11 3 -14 6 -6 3 7 2 16 -1 19 -3 4 -6 -2 -5 -13z"/>
<path d="M585 820 c3 -5 8 -10 11 -10 2 0 4 5 4 10 0 6 -5 10 -11 10 -5 0 -7
-4 -4 -10z"/>
</g>
</svg>
