<?xml version="1.0" standalone="no"?>
<!DOCTYPE svg PUBLIC "-//W3C//DTD SVG 20010904//EN"
 "http://www.w3.org/TR/2001/REC-SVG-20010904/DTD/svg10.dtd">
<svg version="1.0" xmlns="http://www.w3.org/2000/svg"
 width="600.000000pt" height="900.000000pt" viewBox="0 0 600.000000 900.000000"
 preserveAspectRatio="xMidYMid meet">

<g transform="translate(0.000000,900.000000) scale(0.100000,-0.100000)"
fill="#000000" stroke="none">
<path d="M0 8079 l0 -921 58 59 c32 32 63 72 70 88 8 19 24 35 42 42 21 8 30
18 30 34 0 12 3 19 7 16 3 -4 12 2 20 13 7 10 20 17 27 14 7 -3 16 2 19 10 9
22 20 20 33 -7 6 -14 7 -33 2 -46 -4 -12 -4 -30 1 -39 4 -9 6 -23 4 -29 -3 -7
2 -34 11 -60 8 -27 27 -111 41 -188 14 -77 39 -205 55 -285 17 -80 43 -242 60
-360 25 -175 30 -233 24 -310 -4 -71 -2 -112 10 -163 28 -119 18 -182 -31
-192 -72 -15 -192 -99 -249 -177 -16 -20 -34 -108 -23 -108 13 0 11 -28 -3
-36 -7 -4 -8 -3 -4 4 4 7 2 12 -3 12 -6 0 -11 11 -11 25 0 14 -5 25 -11 25 -5
0 -8 -4 -4 -10 3 -5 2 -21 -1 -37 -7 -25 -8 -25 -15 -8 -4 11 -8 14 -8 7 -1
-7 7 -25 16 -39 10 -15 12 -24 6 -20 -18 11 -16 -9 3 -38 9 -14 12 -25 6 -25
-5 0 -15 14 -22 30 -15 36 -35 53 -25 21 4 -12 2 -21 -4 -21 -6 0 -11 -9 -11
-20 0 -20 7 -20 1054 -20 l1055 0 -60 96 c-115 182 -142 241 -142 303 1 75 26
190 58 259 25 54 26 55 41 34 8 -12 21 -19 30 -15 12 5 12 7 -3 19 -10 7 -13
13 -8 14 19 0 32 -15 39 -44 6 -26 5 -28 -9 -16 -8 7 -19 10 -23 6 -4 -4 0
-13 10 -20 10 -7 13 -17 8 -26 -4 -8 -11 -32 -14 -54 -6 -29 -3 -42 10 -57 9
-10 21 -19 27 -19 5 0 24 -7 43 -16 37 -18 154 -149 154 -173 0 -8 12 -28 28
-44 25 -26 27 -35 28 -120 1 -51 2 -100 3 -110 1 -16 23 -17 353 -15 l352 3
18 73 c21 88 66 171 111 204 17 14 59 40 92 58 75 41 113 75 132 119 8 19 39
59 69 88 49 49 54 58 54 99 0 45 -18 93 -48 127 -8 9 -12 20 -9 24 4 3 8 4 10
2 18 -24 76 -120 85 -141 6 -15 27 -95 46 -179 l36 -151 -14 -91 c-8 -51 -18
-125 -21 -164 l-7 -73 931 0 c880 0 931 1 931 18 0 39 -22 91 -40 97 -40 13
-125 1 -160 -22 -47 -31 -56 -29 -28 6 13 15 29 26 35 23 17 -5 29 28 14 37
-6 4 -10 18 -10 32 1 13 -2 32 -6 42 -6 15 -1 17 46 17 30 0 61 4 69 10 26 16
-19 24 -67 12 -64 -17 -114 -16 -107 3 4 8 1 15 -6 15 -10 0 -10 3 0 15 16 20
5 32 -14 16 -15 -13 -29 -1 -18 15 4 5 23 17 42 26 38 18 59 6 37 -21 -7 -9
-8 -12 -1 -8 6 3 20 0 30 -8 22 -16 54 -20 54 -6 0 25 -21 61 -36 61 -13 0
-14 3 -4 15 10 13 9 15 -12 15 -13 0 -32 -6 -43 -13 -11 -7 -42 -21 -69 -31
-52 -20 -66 -14 -66 28 0 14 -5 17 -25 12 -15 -4 -25 -2 -25 4 0 6 4 8 10 5 6
-3 10 5 10 19 0 17 9 30 28 40 15 8 23 15 17 16 -5 0 13 11 40 25 28 14 56 33
63 43 7 9 20 26 30 38 22 26 39 53 54 83 10 19 10 25 0 29 -6 2 -12 16 -12 31
0 30 -22 55 -58 66 -25 7 -21 25 6 25 9 0 25 11 34 25 17 23 17 24 -2 30 -11
3 -24 3 -30 0 -14 -9 -13 1 5 38 13 25 13 28 1 14 -10 -13 -15 -15 -18 -5 -5
13 -11 5 -122 -156 -33 -47 -61 -86 -63 -86 -11 0 0 30 18 48 29 32 37 91 14
108 -17 13 -17 15 8 53 16 24 32 38 40 35 20 -7 40 22 34 47 -6 21 0 33 88
169 23 36 80 127 126 202 46 76 88 138 92 138 4 0 10 -7 13 -15 6 -15 0 -27
-121 -220 -41 -66 -82 -133 -90 -148 -15 -26 -15 -27 2 -16 21 13 90 115 186
274 7 11 22 35 35 53 13 17 18 32 13 32 -6 0 -11 5 -11 10 0 6 8 10 18 10 9 0
23 11 30 25 6 14 18 36 25 50 10 21 17 24 45 20 18 -3 32 -1 32 5 0 6 -6 10
-14 10 -8 0 -18 9 -21 20 -3 11 -10 20 -15 20 -5 0 -28 -32 -51 -70 -23 -39
-45 -70 -50 -70 -15 0 -10 29 12 72 14 27 17 44 11 50 -15 15 -30 2 -37 -31
-3 -16 -27 -56 -53 -89 -26 -33 -65 -89 -87 -126 -22 -37 -64 -101 -93 -144
-135 -199 -268 -401 -360 -547 -145 -230 -182 -283 -182 -262 0 10 -7 49 -16
87 -11 52 -20 71 -35 75 -12 4 -22 19 -26 36 -6 29 -17 37 -28 19 -3 -5 -27
-20 -53 -33 -26 -13 -76 -40 -110 -60 -35 -20 -68 -37 -73 -37 -18 0 -8 -17
16 -28 24 -11 25 -16 25 -89 0 -56 6 -90 20 -122 21 -44 27 -125 10 -119 -5 2
-59 86 -121 188 -61 102 -126 210 -145 240 -18 30 -36 67 -39 82 -6 24 -4 28
22 33 15 4 48 13 73 20 38 12 56 12 120 -1 41 -8 95 -14 120 -13 40 0 42 2 23
11 -31 15 -29 31 7 46 16 7 44 27 61 43 17 16 34 29 39 29 4 0 15 9 25 20 18
20 17 20 -8 20 -15 0 -27 -6 -27 -12 0 -19 -72 -66 -78 -50 -2 6 -8 9 -13 6
-6 -3 -20 -7 -32 -9 -12 -2 -32 -7 -44 -10 -15 -5 -23 -3 -23 4 0 6 -11 11
-25 11 -14 0 -25 4 -25 9 0 4 -12 20 -26 34 -21 22 -30 25 -46 16 -16 -9 -24
-7 -39 10 -11 12 -16 21 -12 21 4 0 1 5 -7 10 -13 9 -12 12 4 25 20 15 20 15
0 29 -14 11 -21 11 -26 3 -5 -8 -8 -7 -8 3 -1 12 -3 12 -14 -2 -16 -22 -26
-23 -26 -3 0 8 -3 14 -7 14 -20 -3 -34 2 -28 11 8 13 76 13 112 -1 48 -18 113
-27 119 -17 4 6 10 5 15 -3 12 -19 52 21 44 43 -6 15 -53 39 -105 54 -40 11
-70 35 -70 55 0 25 25 25 125 -1 46 -12 111 -20 157 -20 66 0 80 -3 90 -19 12
-20 38 -18 38 4 0 18 -34 45 -57 45 -11 0 -50 14 -86 30 -37 17 -80 30 -96 30
-17 0 -56 10 -87 21 l-56 21 41 39 c22 22 49 39 59 39 10 0 23 5 30 12 9 9 12
1 12 -35 0 -34 4 -49 16 -54 22 -8 38 11 27 32 -5 9 -7 29 -5 46 4 29 5 30 64
28 66 -2 93 12 58 31 -12 7 -36 9 -54 6 -26 -5 -37 -1 -65 24 -30 28 -32 34
-26 68 4 20 9 54 11 75 1 21 7 44 12 50 16 22 51 151 57 215 6 58 4 66 -18 88
-13 13 -40 29 -58 36 -19 6 -60 29 -91 50 -31 21 -64 38 -72 38 -9 0 -16 5
-16 11 0 6 -6 9 -12 6 -7 -2 -12 -10 -11 -16 2 -6 -2 -11 -7 -11 -6 0 -10 7
-10 15 0 8 -5 15 -11 15 -6 0 -8 9 -4 21 4 13 2 25 -5 29 -7 5 -2 9 15 12 17
4 32 0 43 -11 23 -23 116 -81 130 -81 5 0 13 -6 15 -12 4 -8 6 -7 6 4 1 9 -4
18 -9 20 -6 2 -13 30 -16 63 -3 33 -11 66 -17 73 -8 10 -8 15 0 20 8 5 6 19
-7 45 -18 37 -11 52 10 20 9 -15 10 -12 5 13 -13 67 -8 137 11 151 12 9 13 13
4 13 -7 0 -11 2 -8 5 10 10 38 -7 38 -23 0 -13 3 -13 20 3 20 18 34 18 132 -4
61 -13 178 -8 214 11 22 10 34 11 51 3 19 -10 46 -11 140 -7 17 1 38 8 45 15
34 32 98 5 129 -55 41 -79 49 -127 48 -266 -1 -123 -3 -138 -29 -195 -25 -58
-46 -143 -57 -230 -2 -21 -8 -50 -14 -63 -13 -35 -11 -84 2 -84 7 0 22 12 35
28 13 15 24 21 24 13 0 -8 6 -11 15 -7 18 6 20 -5 3 -22 -16 -16 48 2 70 20
40 33 83 84 88 105 4 13 11 20 17 16 6 -4 8 0 5 9 -3 8 7 34 23 58 16 24 29
48 29 55 0 19 29 72 47 86 16 13 16 12 0 -11 -20 -28 -22 -44 -5 -34 7 4 8 3
4 -4 -4 -6 -2 -21 5 -33 8 -15 8 -23 0 -28 -6 -4 10 -7 35 -7 40 -1 50 -6 81
-39 26 -29 31 -40 21 -46 -11 -7 -11 -9 0 -9 8 0 12 -6 9 -12 -2 -7 -10 -12
-16 -11 -14 4 -15 -14 -1 -22 6 -3 10 -1 10 4 0 19 36 12 58 -12 26 -27 28
-50 7 -67 -8 -7 -15 -20 -15 -28 0 -13 3 -12 15 4 21 27 18 10 -5 -36 -11 -22
-16 -40 -10 -40 6 0 15 10 20 23 8 17 9 14 5 -18 -2 -22 -2 -32 1 -22 11 34
34 19 34 -23 0 -22 5 -40 10 -40 6 0 10 -19 10 -41 0 -36 3 -41 19 -36 14 3
18 1 14 -9 -3 -7 8 -24 23 -37 24 -21 28 -31 25 -71 -2 -36 1 -46 13 -46 12 0
16 -10 16 -40 0 -27 4 -40 14 -40 9 0 17 -32 26 -120 9 -88 17 -120 26 -120
12 0 14 238 14 1440 l0 1440 -3000 0 -3000 0 0 -921z m2675 691 c6 -4 28 -8
49 -8 22 -1 42 -5 45 -9 9 -12 31 -14 31 -3 0 6 12 10 28 9 24 0 25 -1 7 -9
-11 -5 -14 -9 -7 -9 8 -1 10 -6 6 -13 -6 -10 -4 -10 7 0 7 6 24 12 39 12 17 0
21 3 12 9 -22 13 97 3 163 -15 33 -8 74 -17 90 -19 l30 -4 -30 8 c-16 5 -43
14 -60 20 -26 9 -23 10 22 5 31 -3 60 -1 74 6 18 10 21 10 17 -1 -4 -11 6 -14
41 -15 25 0 63 -6 83 -11 26 -8 38 -8 41 0 2 7 8 7 18 1 8 -5 28 -10 44 -10
62 -3 201 -27 233 -40 18 -8 37 -12 42 -9 5 3 20 1 32 -6 12 -7 36 -13 53 -14
164 -8 271 -29 243 -46 -19 -13 11 -31 31 -19 9 5 34 1 65 -12 33 -12 52 -16
54 -9 5 14 32 15 32 1 0 -14 39 -32 79 -37 20 -2 55 -13 78 -24 24 -10 50 -19
58 -19 8 0 15 -3 15 -7 0 -10 49 -33 70 -33 9 0 25 -8 36 -19 12 -10 35 -22
52 -26 18 -3 32 -11 32 -16 0 -5 6 -9 14 -9 8 0 18 -9 21 -20 6 -20 45 -29 45
-10 0 6 5 10 11 10 5 0 7 -5 4 -11 -4 -6 1 -16 11 -23 16 -12 15 -14 -12 -20
-20 -5 -31 -3 -40 8 -14 20 -24 20 -24 2 0 -11 -9 -13 -36 -9 -25 4 -50 -1
-87 -18 -29 -13 -54 -26 -57 -29 -3 -3 -25 -12 -50 -19 -129 -37 -202 -76
-238 -123 -7 -10 -22 -18 -33 -18 -10 0 -19 -3 -19 -8 0 -4 -16 -16 -35 -26
-22 -12 -39 -31 -47 -53 -7 -18 -18 -33 -25 -33 -7 0 -13 -6 -13 -13 0 -7 -13
-23 -30 -35 -16 -13 -30 -29 -30 -37 0 -7 -10 -17 -21 -20 -17 -6 -18 -9 -8
-15 11 -7 10 -12 -3 -27 -19 -22 -50 -92 -44 -102 3 -4 -3 -17 -13 -30 l-18
-23 -21 53 c-12 28 -21 53 -19 55 6 6 23 -12 34 -36 10 -24 11 -23 25 25 9 28
14 55 11 60 -2 6 -20 19 -39 30 -20 11 -31 21 -25 23 7 2 19 -2 28 -10 13 -10
12 -3 -5 25 -13 22 -22 55 -22 78 0 33 -4 41 -25 49 -14 5 -25 15 -24 22 0 10
2 10 6 1 5 -15 23 -17 23 -4 0 5 -6 16 -12 23 -7 7 -13 18 -13 23 0 21 -50
132 -77 169 -15 21 -28 48 -28 59 0 11 -3 17 -7 14 -3 -4 -17 2 -29 14 l-22
21 -16 -29 c-15 -30 -43 -59 -51 -52 -2 2 12 22 31 44 36 42 44 79 18 89 -30
11 -44 6 -59 -24 -9 -16 -12 -30 -9 -30 4 0 -3 -9 -16 -20 -34 -29 -35 -25 -6
26 33 59 33 68 0 27 -13 -18 -39 -42 -57 -54 l-32 -22 28 29 c15 17 27 40 27
51 0 12 5 25 11 29 8 4 9 -1 4 -17 -7 -22 -5 -21 21 7 16 17 36 33 44 36 31
11 -7 30 -54 27 -48 -4 -61 5 -25 16 18 6 11 11 -37 31 -33 13 -66 24 -76 24
-9 0 -18 4 -20 10 -7 22 -63 -6 -80 -41 l-18 -34 0 33 c0 29 5 35 43 53 l42
19 -45 -2 c-39 -3 -48 -8 -77 -46 -18 -24 -33 -37 -33 -28 0 8 14 31 31 51 43
49 15 44 -33 -5 -21 -23 -38 -40 -39 -38 -1 2 -2 18 -4 36 -2 26 1 32 14 30
20 -3 81 21 81 33 0 5 8 9 18 10 10 0 5 5 -13 12 -16 7 -42 20 -57 30 -21 14
-41 18 -83 15 -30 -1 -56 0 -58 3 -1 4 -17 4 -35 2 -21 -4 -49 -21 -80 -52
-26 -25 -51 -44 -56 -43 -9 3 -19 -9 -68 -81 -35 -50 -36 -32 -3 33 29 58 27
66 -4 14 -12 -20 -24 -35 -26 -32 -7 7 27 88 37 88 4 0 8 5 8 10 0 24 -43 7
-82 -32 -23 -24 -37 -34 -31 -24 6 10 8 27 6 37 -3 11 0 26 7 34 18 22 1 18
-18 -4 -15 -17 -23 -18 -79 -8 -54 9 -67 8 -102 -8 -45 -20 -53 -35 -18 -35
18 0 19 2 7 10 -10 6 4 8 45 5 33 -2 66 -4 74 -4 11 -1 10 -5 -5 -15 -17 -13
-18 -17 -5 -38 37 -60 45 -77 38 -84 -4 -4 -21 9 -38 30 -37 44 -46 42 -25 -8
l15 -36 -30 22 c-16 12 -29 25 -29 29 0 15 -59 69 -75 69 -14 0 -15 -3 -5 -15
11 -13 8 -13 -19 -4 -17 6 -28 16 -24 22 3 6 1 7 -5 3 -7 -4 -12 -13 -12 -19
0 -7 -14 -12 -30 -13 -31 -1 -48 -10 -38 -19 2 -3 23 -6 46 -7 23 -1 47 -7 53
-15 6 -7 17 -13 23 -13 6 0 -2 12 -17 25 -15 14 -23 25 -18 25 17 0 69 -53 76
-79 5 -18 4 -22 -6 -16 -9 6 -10 3 -5 -11 4 -10 -11 1 -33 24 -23 24 -41 40
-41 36 0 -4 -5 -3 -12 4 -7 7 -21 12 -32 12 -14 -1 -6 -8 22 -21 34 -16 48
-30 64 -66 11 -24 17 -47 14 -50 -3 -4 -6 -2 -6 4 0 14 -58 86 -78 97 -48 27
-138 25 -162 -3 -10 -12 -90 -51 -104 -51 -11 0 -16 -10 -17 -27 l-1 -28 -8
25 c-4 14 -8 19 -9 11 -1 -8 -8 -22 -17 -32 -8 -9 -16 -31 -16 -48 -1 -20 -7
-33 -19 -36 -19 -6 -34 -39 -24 -54 3 -6 -2 -14 -11 -19 -18 -10 -26 -78 -24
-204 1 -36 -3 -84 -9 -105 -18 -73 -33 -173 -36 -245 -2 -58 2 -83 20 -123 33
-73 57 -179 62 -270 3 -44 9 -85 15 -92 14 -17 58 32 59 66 0 14 2 37 4 51 2
14 7 77 10 140 3 63 7 139 10 168 3 50 3 53 -18 46 -19 -6 -20 -5 -5 10 17 16
22 35 33 119 15 113 96 327 124 327 4 0 14 11 21 25 7 14 19 25 25 25 7 0 18
7 25 15 7 9 21 13 31 10 9 -3 20 -1 23 4 4 6 13 8 21 4 8 -3 15 0 15 6 0 9 5
9 20 1 11 -6 20 -16 20 -23 0 -14 38 -16 58 -3 7 4 12 2 12 -5 0 -8 5 -8 16 2
14 11 18 11 28 -1 11 -15 82 -20 103 -7 13 8 27 -8 20 -21 -7 -9 23 -11 238
-15 197 -4 239 -14 271 -62 10 -15 28 -31 42 -36 19 -7 22 -12 13 -23 -6 -7
-8 -16 -4 -20 4 -4 8 -21 9 -37 1 -22 -3 -29 -17 -29 -28 0 -23 -13 11 -33 17
-10 30 -21 30 -25 -1 -16 -40 -52 -57 -53 -25 -1 33 -19 74 -22 34 -3 58 -17
30 -17 -22 0 -86 -40 -67 -41 8 -1 27 -2 42 -3 45 -3 43 -13 -9 -40 -80 -42
-84 -48 -28 -42 28 3 43 3 35 -1 -8 -3 -23 -12 -32 -21 -10 -8 -26 -12 -38 -9
-11 3 -18 2 -15 -3 6 -10 -68 -88 -112 -119 -40 -27 -93 -80 -93 -91 0 -5 -8
-11 -19 -15 -10 -3 -33 -35 -50 -70 -30 -61 -32 -72 -32 -168 1 -56 5 -129 11
-162 15 -91 12 -185 -8 -224 -13 -27 -27 -37 -64 -48 -42 -12 -52 -12 -77 2
-58 29 -113 9 -81 -30 9 -11 26 -13 69 -9 47 5 59 3 72 -12 24 -28 30 -64 13
-71 -8 -3 -14 -14 -14 -24 0 -10 -4 -19 -10 -19 -5 0 -10 5 -10 12 0 6 -13 -1
-29 -16 -25 -24 -29 -25 -25 -9 7 24 -21 39 -30 17 -3 -9 -10 -13 -15 -10 -5
3 -11 0 -14 -8 -10 -26 -58 -98 -63 -94 -2 3 7 26 21 51 13 26 20 47 15 47 -6
0 -10 -4 -10 -8 0 -5 -18 -16 -39 -25 -24 -11 -48 -32 -60 -52 -44 -74 -119
-27 -112 70 2 29 2 29 -13 10 -21 -27 -20 -93 3 -135 40 -76 241 -115 337 -66
37 19 142 15 155 -6 13 -19 11 -25 -8 -32 -29 -11 -77 -38 -92 -54 -12 -12
-12 -15 0 -22 12 -8 99 -18 158 -19 16 0 40 -17 68 -47 46 -48 52 -77 18 -82
-11 -2 -30 -17 -41 -35 -12 -18 -37 -39 -55 -48 -93 -45 -115 -50 -224 -52
-98 -2 -114 0 -145 20 -19 12 -54 31 -77 42 -42 19 -212 181 -268 255 -17 21
-46 69 -66 106 -34 66 -47 124 -74 332 -6 45 -7 46 -58 63 -62 20 -92 46 -108
93 -6 19 -13 111 -14 206 -4 257 -10 311 -37 346 -13 16 -28 29 -35 29 -6 1
-25 26 -42 56 -17 30 -54 78 -82 107 -47 49 -95 112 -113 148 -4 8 4 2 19 -15
86 -97 141 -150 154 -147 11 2 12 0 4 -5 -17 -12 1 -38 18 -28 8 5 11 5 7 1
-3 -4 2 -16 13 -27 11 -11 17 -23 15 -28 -3 -5 9 -24 27 -43 17 -19 26 -27 19
-17 -8 9 -14 24 -16 32 -1 8 -7 21 -13 28 -19 24 -45 81 -34 74 20 -12 25 28
8 57 -9 16 -12 26 -7 23 6 -3 10 -1 10 5 0 6 -6 13 -14 16 -8 3 -17 17 -21 32
-3 14 -22 47 -41 73 -19 26 -34 50 -34 55 0 4 6 -1 14 -12 8 -10 18 -16 22
-11 4 4 -12 25 -36 47 -24 22 -40 40 -36 40 17 0 64 -31 70 -46 4 -9 9 -14 12
-11 9 9 -27 57 -44 57 -15 0 -41 27 -42 44 0 4 7 5 15 2 25 -9 -49 123 -111
198 -58 71 -126 126 -154 126 -9 0 -32 7 -50 17 -44 21 -190 22 -190 1 0 -7
-17 -6 -50 2 -3 0 11 8 30 16 21 9 62 15 100 15 77 -1 122 7 114 20 -3 5 7 14
23 20 22 8 25 12 13 20 -11 8 -10 9 7 4 17 -5 34 3 65 27 24 18 45 36 46 41 2
4 15 7 28 7 13 0 24 3 24 8 0 4 18 18 40 32 22 14 40 28 40 32 0 5 6 8 13 8 6
0 30 8 52 19 50 24 132 52 167 58 14 3 38 18 52 34 15 17 32 26 40 23 15 -6
76 24 76 38 0 4 7 5 15 2 8 -4 15 -2 15 4 0 11 108 35 121 26 5 -3 9 0 9 6 0
6 5 8 10 5 6 -4 22 0 35 9 15 10 46 16 79 16 62 0 89 7 80 22 -8 12 215 1 231
-12z m365 -10 c0 -5 -9 -6 -20 -3 -11 3 -17 9 -15 14 7 10 35 1 35 -11z m-37
-112 c-11 -13 -30 -41 -42 -63 -21 -38 -22 -39 -18 -10 2 17 8 39 12 50 7 16
4 15 -14 -5 l-21 -25 11 28 c12 26 20 31 46 28 6 -1 14 3 18 9 3 5 11 10 17
10 6 0 2 -10 -9 -22z m67 -28 c0 -4 -7 -14 -16 -21 -15 -12 -16 -11 -10 11 l7
25 -21 -25 c-20 -23 -18 -10 2 17 10 12 38 7 38 -7z m50 -13 c0 -2 -12 -14
-26 -28 -25 -22 -26 -23 -15 -2 9 18 19 26 39 32 1 1 2 0 2 -2z m-10 -58 c-7
-11 -14 -18 -17 -15 -3 3 0 12 7 21 18 21 23 19 10 -6z m-600 -64 c0 -5 -9 1
-20 15 -11 14 -20 30 -20 35 0 6 9 -1 20 -15 11 -14 20 -29 20 -35z m830 2 c0
-2 -10 -12 -21 -23 -22 -19 -22 -19 -10 4 10 18 31 31 31 19z m55 -57 c-27
-27 -50 -48 -52 -46 -9 9 21 53 50 74 53 37 54 25 2 -28z m36 -3 c-10 -9 -11
-8 -5 6 3 10 9 15 12 12 3 -3 0 -11 -7 -18z m-141 -17 c-6 -11 -13 -20 -16
-20 -2 0 0 9 6 20 6 11 13 20 16 20 2 0 0 -9 -6 -20z m-1100 -30 c8 -5 11 -10
5 -10 -5 0 -17 5 -25 10 -8 5 -10 10 -5 10 6 0 17 -5 25 -10z m-5 -71 c5 -5
-1 -9 -15 -9 l-25 -1 23 -12 c17 -10 20 -15 10 -25 -21 -21 -45 -13 -72 23
-17 22 -21 32 -11 29 9 -4 15 0 15 9 0 14 5 14 33 5 17 -6 36 -15 42 -19z
m2630 1 c-3 -5 -14 -10 -23 -10 -15 0 -15 2 -2 10 20 13 33 13 25 0z m-3680
-70 c13 -5 14 -9 5 -9 -8 0 -24 4 -35 9 -13 5 -14 9 -5 9 8 0 24 -4 35 -9z
m4020 -40 c3 -5 1 -10 -4 -10 -6 0 -11 5 -11 10 0 6 2 10 4 10 3 0 8 -4 11
-10z m44 -69 c-3 -7 -13 3 -23 21 l-19 33 23 -21 c12 -12 21 -27 19 -33z
m-218 -98 c19 -17 25 -31 21 -48 -5 -28 -22 -24 -22 6 0 10 -4 19 -9 19 -5 0
-21 16 -36 36 -27 35 -27 36 -4 24 13 -7 36 -23 50 -37z m9 22 c7 -9 8 -15 2
-15 -5 0 -12 7 -16 15 -3 8 -4 15 -2 15 2 0 9 -7 16 -15z m290 -4 c0 -5 -9 -7
-20 -4 -11 3 -20 7 -20 9 0 2 9 4 20 4 11 0 20 -4 20 -9z m-4374 -12 c3 -5
-11 -9 -31 -9 -20 0 -34 4 -31 9 3 5 17 9 31 9 14 0 28 -4 31 -9z m4301 -86
c5 -45 3 -49 -17 -50 -20 -2 -22 1 -16 35 3 20 6 48 6 62 0 43 22 5 27 -47z
m-57 28 c10 -21 10 -23 -3 -18 -11 4 -13 0 -9 -15 3 -14 1 -19 -6 -14 -13 8
-16 35 -6 61 7 18 7 18 24 -14z m277 -43 c17 -19 17 -19 -12 -12 -17 3 -34 7
-40 8 -5 0 -13 5 -17 11 -21 30 41 24 69 -7z m-77 -13 c0 -8 5 -15 11 -15 5 0
7 -5 4 -11 -4 -6 0 -9 11 -7 10 2 19 -3 19 -10 0 -7 6 -16 13 -21 9 -6 8 -12
-7 -25 -21 -19 -76 -13 -68 8 19 50 18 56 -5 57 -13 0 -17 3 -10 6 6 2 12 11
12 19 0 8 5 14 10 14 6 0 10 -7 10 -15z m-4103 -21 c-3 -3 -12 -4 -19 -1 -8 3
-5 6 6 6 11 1 17 -2 13 -5z m4273 -70 c0 -2 -9 0 -20 6 -11 6 -20 13 -20 16 0
2 9 0 20 -6 11 -6 20 -13 20 -16z m-4555 -3 c11 -4 34 -5 52 0 18 4 33 3 33
-1 0 -7 20 -13 82 -26 38 -8 128 -127 128 -170 1 -22 17 -44 45 -60 11 -6 19
-14 18 -18 -2 -3 -3 -32 -3 -64 l0 -59 -40 -18 c-22 -10 -46 -25 -52 -33 -7
-8 -37 -30 -68 -49 -30 -20 -58 -41 -62 -47 -13 -18 -9 -36 7 -36 8 0 15 -4
15 -10 0 -5 -4 -10 -10 -10 -14 0 -12 -11 6 -35 12 -16 18 -18 34 -7 18 11 20
10 20 -9 0 -21 1 -22 20 -4 11 10 20 24 20 30 0 29 25 34 49 9 25 -26 41 -29
74 -13 18 8 17 6 -5 -15 -22 -20 -24 -25 -12 -30 41 -16 109 10 164 61 22 20
37 28 41 21 4 -6 12 -7 19 -3 10 6 11 -5 5 -51 -5 -32 -9 -69 -9 -81 -1 -13
-3 -23 -7 -23 -3 0 -11 -34 -18 -77 -7 -42 -17 -83 -22 -92 -14 -27 -28 -225
-16 -233 7 -4 7 -27 -1 -75 -6 -37 -14 -90 -17 -118 -6 -52 -40 -109 -99 -170
-43 -44 -61 -52 -136 -60 -60 -6 -68 -4 -107 21 -25 16 -49 43 -59 66 -9 21
-21 38 -26 38 -4 0 -8 5 -8 10 0 6 -17 29 -39 51 -21 22 -44 52 -52 67 -7 15
-42 71 -77 125 -102 157 -153 288 -132 343 5 12 24 27 42 34 30 11 31 13 13
20 -11 5 -17 9 -13 9 4 1 -4 13 -17 27 -19 21 -22 30 -14 45 12 22 29 25 29 5
0 -21 38 -45 61 -39 12 3 26 16 31 29 9 19 14 21 25 13 10 -9 13 -8 13 5 0 9
5 16 12 16 18 0 3 10 -23 16 -13 3 -61 8 -106 12 -57 5 -88 13 -100 25 -27 26
-9 31 69 18 141 -23 138 -23 138 -8 0 8 -12 20 -27 26 -41 16 -144 41 -170 41
-32 0 -42 27 -42 116 0 137 57 280 131 334 22 17 50 30 61 30 31 0 86 39 93
66 7 26 9 27 39 15z m4570 -84 c4 -17 9 -40 12 -50 4 -16 1 -15 -21 4 -27 23
-35 49 -15 49 6 0 9 9 6 20 -3 11 -1 18 3 15 5 -3 11 -20 15 -38z m41 -2 c7
-19 14 -47 13 -62 0 -20 -5 -11 -19 32 -23 69 -22 65 -14 65 3 0 12 -16 20
-35z m-1776 -28 c0 -5 9 -22 20 -38 12 -15 24 -51 27 -80 6 -48 5 -51 -13 -41
-11 6 -28 21 -39 33 l-20 23 29 -18 c27 -17 29 -17 23 -1 -4 9 -7 21 -7 26 0
6 -6 7 -12 3 -9 -6 -9 -3 0 9 12 14 11 21 -7 45 -11 16 -25 42 -31 58 -11 28
-11 28 9 9 12 -10 21 -22 21 -28z m1614 36 c4 -5 11 -8 14 -8 4 -1 18 -5 32
-9 23 -8 24 -9 5 -16 -26 -9 -75 8 -75 26 0 15 12 18 24 7z m56 -68 c10 -12 9
-15 -7 -15 -10 0 -28 7 -39 15 -18 14 -18 14 7 15 15 0 32 -7 39 -15z m-1958
-105 c5 -33 -6 -28 -17 8 -3 12 -2 22 3 22 5 0 12 -14 14 -30z m276 -67 c5
-24 6 -43 1 -43 -5 0 -9 7 -9 15 0 8 -3 15 -7 15 -5 0 -8 16 -8 35 0 42 9 33
23 -22z m26 41 c16 -6 42 -81 32 -92 -3 -3 -6 0 -6 7 0 7 -9 26 -21 42 -11 16
-17 29 -12 29 4 0 1 5 -7 10 -17 11 -10 13 14 4z m-101 -35 c4 -16 3 -18 -9
-8 -7 6 -11 15 -8 20 8 13 11 11 17 -12z m-157 -26 c-10 -10 -19 5 -10 18 6
11 8 11 12 0 2 -7 1 -15 -2 -18z m50 -28 c17 -26 64 -273 64 -341 0 -29 4 -41
15 -41 8 0 15 5 15 11 0 19 20 -18 20 -38 0 -11 -5 -16 -14 -13 -16 6 -32 -23
-40 -73 -6 -40 5 -66 24 -55 10 6 12 0 6 -25 -3 -19 -13 -92 -21 -164 -31
-266 -54 -346 -121 -421 -36 -41 -37 -33 -1 18 16 24 18 40 14 100 -7 94 -11
112 -27 112 -15 0 -24 -25 -45 -125 -8 -36 -22 -89 -31 -118 -9 -29 -14 -56
-10 -59 3 -3 0 -15 -5 -27 -9 -17 -6 -15 15 6 14 15 26 32 26 38 0 5 5 10 10
10 6 0 10 -2 10 -5 0 -11 -93 -105 -103 -105 -5 0 -3 7 4 16 7 9 14 23 15 32
2 8 9 19 16 23 9 6 10 9 1 9 -7 0 -19 -13 -28 -30 -9 -16 -20 -30 -26 -30 -6
0 -9 -6 -6 -13 3 -7 -4 -24 -14 -38 -10 -13 -19 -21 -19 -18 0 15 25 76 40 99
19 27 56 147 48 155 -3 3 -13 -12 -24 -32 -10 -21 -22 -39 -26 -41 -5 -2 -8
-12 -8 -22 0 -9 -6 -22 -12 -28 -10 -8 -13 13 -12 101 2 148 2 147 18 147 14
0 46 -67 46 -96 0 -32 23 -7 38 41 9 28 19 52 22 55 10 7 30 70 30 93 0 16 -3
17 -15 7 -13 -11 -15 -8 -15 19 0 17 4 31 8 31 5 0 16 33 26 73 10 39 27 97
38 127 36 105 55 226 46 293 -5 34 -10 71 -12 82 -1 11 -5 27 -8 35 -3 8 -10
47 -16 86 -6 39 -15 79 -18 89 -5 13 -4 16 4 11 8 -4 10 -2 6 8 -6 16 12 56
26 56 5 0 17 -11 26 -25z m169 -5 c3 -5 -1 -10 -9 -10 -9 0 -16 5 -16 10 0 6
4 10 9 10 6 0 13 -4 16 -10z m65 -20 c0 -5 -9 -10 -21 -10 -11 0 -17 5 -14 10
3 6 13 10 21 10 8 0 14 -4 14 -10z m-93 -31 c-1 -19 -2 -19 -14 -3 -17 23 -16
35 1 28 8 -3 14 -15 13 -25z m1627 -5 c8 -21 8 -21 -6 -27 -8 -3 -14 5 -14 19
-2 27 11 32 20 8z m-1484 -68 c0 -16 -2 -18 -9 -7 -5 8 -16 11 -30 6 -26 -8
-27 3 -3 21 14 11 14 13 2 14 -13 0 -13 1 0 10 18 12 40 -13 40 -44z m-105
-64 c-4 -4 -13 2 -21 12 -22 30 -17 43 7 17 12 -12 18 -25 14 -29z m-2505 31
c-8 -3 -31 -12 -50 -19 l-35 -14 24 20 c13 11 35 20 50 19 15 0 20 -3 11 -6z
m4282 -25 c-8 -8 -9 -4 -5 13 4 13 8 18 11 10 2 -7 -1 -18 -6 -23z m-257 10
c3 -7 1 -26 -4 -43 -8 -30 -8 -29 -12 13 -4 39 6 58 16 30z m-2161 -43 c-4
-25 -1 -43 10 -60 14 -21 25 -25 69 -26 49 -1 50 -2 17 -9 -19 -4 -46 -12 -60
-18 -24 -9 -24 -10 -5 -17 40 -13 48 -21 51 -50 2 -16 8 -31 14 -33 6 -2 17
-10 25 -19 8 -8 15 -10 15 -4 0 6 5 11 11 11 5 0 7 -4 4 -10 -8 -14 1 -13 69
9 32 10 63 25 68 34 13 25 43 21 58 -8 12 -23 11 -32 -9 -78 -21 -48 -25 -65
-29 -124 -1 -12 -9 -28 -17 -37 -8 -8 -11 -17 -6 -20 13 -9 -27 -86 -44 -86
-8 0 -15 -7 -15 -15 0 -9 -20 -28 -44 -42 -25 -15 -51 -39 -58 -53 -7 -14 -13
-27 -15 -29 -1 -2 -9 4 -18 13 -9 9 -26 16 -37 16 -14 0 -18 5 -14 16 4 9 2
22 -3 28 -4 6 -14 29 -21 50 -7 22 -21 54 -32 72 -14 24 -20 51 -19 95 0 37
-7 80 -19 109 -10 26 -17 50 -14 53 3 3 -2 19 -10 36 -15 28 -15 31 2 40 16 9
15 11 -5 26 -34 24 -29 45 9 45 25 0 29 3 20 12 -7 7 -12 25 -12 40 0 21 8 33
33 48 17 11 33 20 35 20 2 0 0 -16 -4 -35z m41 -5 c-3 -5 -11 -10 -16 -10 -6
0 -7 5 -4 10 3 6 11 10 16 10 6 0 7 -4 4 -10z m-2035 -40 c0 -5 -4 -10 -10
-10 -5 0 -10 5 -10 10 0 6 5 10 10 10 6 0 10 -4 10 -10z m2600 0 c0 -5 -4 -10
-10 -10 -5 0 -10 5 -10 10 0 6 5 10 10 10 6 0 10 -4 10 -10z m658 -84 c-3 -18
3 -21 33 -24 l36 -3 -13 -48 c-12 -47 -40 -111 -53 -121 -4 -3 -17 -18 -30
-35 -12 -16 -28 -30 -34 -30 -7 0 -13 -9 -15 -20 -1 -11 -16 -29 -32 -40 -17
-11 -30 -26 -30 -32 0 -7 -9 -13 -20 -13 -11 0 -23 -6 -26 -14 -3 -8 -12 -12
-20 -9 -8 3 -14 -1 -14 -8 -1 -33 -30 28 -30 62 0 21 -6 40 -12 42 -10 4 -9 8
2 16 13 10 12 14 -8 30 -27 24 -53 92 -54 145 0 27 -3 34 -10 25 -8 -11 -9
-11 -5 1 2 8 17 22 33 30 16 8 32 20 36 25 4 6 8 6 8 1 0 -5 7 -3 15 4 8 7 23
9 36 5 13 -4 43 -9 68 -11 44 -2 45 -2 21 11 l-25 14 28 1 c15 0 35 9 43 19
23 26 76 10 72 -23z m-678 30 c0 -3 -4 -8 -10 -11 -5 -3 -10 -1 -10 4 0 6 5
11 10 11 6 0 10 -2 10 -4z m132 -106 c-2 -16 -9 -33 -14 -36 -7 -4 -7 2 -2 17
4 13 7 47 7 74 -1 47 0 48 6 13 4 -20 6 -51 3 -68z m-2026 -11 c-8 -12 -12
-28 -9 -37 4 -10 2 -13 -5 -8 -15 9 -15 39 0 54 20 20 30 13 14 -9z m2011
-169 l-14 -45 -1 43 c0 23 3 42 9 42 5 0 10 10 10 23 2 19 2 20 6 2 2 -11 -3
-40 -10 -65z m-40 48 c-3 -8 -6 -5 -6 6 -1 11 2 17 5 13 3 -3 4 -12 1 -19z
m-914 -368 c3 -11 2 -18 -3 -15 -13 8 -22 -27 -10 -39 8 -8 9 -6 5 7 -10 23 2
22 15 -3 24 -46 -19 -97 -68 -79 l-23 9 27 42 c15 23 27 55 26 70 -1 33 23 39
31 8z m-96 -42 c-3 -8 -6 -5 -6 6 -1 11 2 17 5 13 3 -3 4 -12 1 -19z m1703
-62 c0 -3 -4 -8 -10 -11 -5 -3 -10 -1 -10 4 0 6 5 11 10 11 6 0 10 -2 10 -4z
m-2563 -148 c-3 -7 -5 -2 -5 12 0 14 2 19 5 13 2 -7 2 -19 0 -25z m40 10 c-3
-8 -6 -5 -6 6 -1 11 2 17 5 13 3 -3 4 -12 1 -19z m-29 -128 l0 -35 -9 40 c-4
22 -8 51 -7 65 0 23 1 22 8 -5 4 -16 8 -46 8 -65z m39 68 c-3 -8 -6 -5 -6 6
-1 11 2 17 5 13 3 -3 4 -12 1 -19z m11 -103 c0 -29 0 -29 -8 -5 -4 14 -8 39
-8 55 0 29 0 29 8 5 4 -14 8 -38 8 -55z m3177 15 c4 -14 -3 -32 -23 -58 -43
-54 -72 -78 -72 -61 0 12 -2 12 -9 0 -5 -8 -7 -21 -4 -29 4 -10 0 -13 -13 -10
-29 5 -29 36 0 49 14 7 26 16 26 21 0 5 10 23 22 41 52 74 62 81 73 47z m153
-46 c27 -18 29 -60 4 -73 -19 -10 -52 3 -52 20 0 21 -26 39 -39 26 -14 -14
-14 -2 -1 24 13 23 57 25 88 3z m-3963 -93 c-4 -13 0 -20 16 -24 19 -5 21 -11
16 -41 -4 -24 -1 -39 9 -47 8 -7 13 -18 10 -26 -3 -8 -1 -11 4 -8 6 3 10 -5
10 -18 0 -14 7 -44 15 -67 21 -60 19 -116 -7 -158 -16 -26 -41 -44 -102 -72
-75 -35 -205 -75 -214 -66 -4 5 27 57 43 71 14 13 65 115 65 131 0 6 12 17 28
23 15 6 38 21 52 32 l25 19 -25 -8 c-14 -5 -31 -7 -37 -5 -21 8 -15 65 12 108
13 22 25 56 25 75 0 19 9 50 20 68 21 35 45 44 35 13z m3736 -33 c-11 -18 -21
-29 -21 -25 0 13 33 67 38 62 3 -2 -5 -19 -17 -37z m79 8 c-7 -19 -7 -31 2
-40 16 -17 56 -8 69 15 5 11 16 19 24 19 19 0 19 1 -6 -65 -22 -58 -45 -66
-35 -11 l6 31 -20 -25 c-11 -14 -20 -20 -20 -14 0 6 -12 12 -26 12 -22 0 -25
-4 -19 -27 3 -14 15 -34 27 -43 15 -14 17 -18 5 -18 -9 0 -23 -7 -31 -16 -14
-14 -18 -12 -36 18 -11 18 -23 48 -26 67 -6 31 -3 38 42 80 27 26 50 46 52 45
1 -1 -2 -13 -8 -28z m-2960 -70 c0 -11 -19 -15 -25 -6 -3 5 1 10 9 10 9 0 16
-2 16 -4z m498 -86 c137 -15 190 -48 179 -112 -2 -10 -6 -21 -10 -24 -4 -4 -2
-13 3 -19 12 -15 -28 -45 -59 -45 -36 0 -220 104 -221 124 0 5 -8 14 -17 21
-14 11 -15 16 -5 28 15 18 0 32 -23 23 -8 -3 -15 -2 -15 3 0 16 16 22 45 17
16 -3 72 -10 123 -16z m2386 -42 c7 -12 6 -21 -3 -32 -18 -22 -31 -20 -31 3 0
11 -6 22 -12 24 -10 4 -9 8 2 16 18 13 30 10 44 -11z m-521 -39 c-1 -23 4 -54
11 -68 21 -40 28 -130 16 -189 -7 -28 -16 -52 -21 -52 -5 0 -6 12 -2 28 14 48
9 157 -8 183 -9 13 -19 50 -23 82 -7 51 -6 57 11 57 15 0 18 -7 16 -41z
m-4199 -118 c-9 -18 -18 -30 -21 -27 -3 2 3 18 13 35 23 39 29 34 8 -8z m101
9 c-10 -11 -22 -17 -26 -14 -12 7 12 33 30 34 11 0 10 -5 -4 -20z m-60 -45
c-31 -25 -45 -31 -45 -17 0 6 57 40 70 41 3 0 -8 -11 -25 -24z m4230 -65 c3
-30 8 -67 10 -82 3 -22 0 -28 -13 -28 -15 0 -17 11 -17 94 0 100 10 108 20 16z
m209 -169 c-8 -9 -17 9 -24 51 -12 64 3 71 17 8 6 -30 10 -56 7 -59z m-2304
31 c0 -13 -3 -12 -15 4 -19 25 -19 40 0 24 8 -7 15 -20 15 -28z m135 -32 c-3
-5 -14 -10 -23 -9 -14 0 -13 2 3 9 27 11 27 11 20 0z m-140 -9 c3 -5 1 -12 -5
-16 -5 -3 -10 1 -10 9 0 18 6 21 15 7z"/>
<path d="M2987 8725 c3 -8 9 -12 14 -9 12 7 11 11 -5 17 -10 4 -13 1 -9 -8z"/>
<path d="M2848 8683 c-21 -2 -38 -8 -38 -12 0 -13 58 -7 72 7 6 6 10 11 8 10
-3 -1 -22 -3 -42 -5z"/>
<path d="M2865 8619 c-4 -6 -5 -12 -2 -15 2 -3 7 2 10 11 7 17 1 20 -8 4z"/>
<path d="M4636 8345 c4 -8 8 -15 10 -15 2 0 4 7 4 15 0 8 -4 15 -10 15 -5 0
-7 -7 -4 -15z"/>
<path d="M4690 8316 c0 -2 7 -6 15 -10 8 -3 15 -1 15 4 0 6 -7 10 -15 10 -8 0
-15 -2 -15 -4z"/>
<path d="M1840 7541 c0 -5 7 -15 17 -22 15 -13 15 -12 4 9 -12 23 -21 28 -21
13z"/>
<path d="M1880 7486 c0 -2 8 -10 18 -17 15 -13 16 -12 3 4 -13 16 -21 21 -21
13z"/>
<path d="M2273 7473 c-26 -5 -33 -43 -8 -43 8 0 15 -3 15 -7 0 -5 18 -9 39 -9
22 -1 64 -10 93 -20 59 -20 55 -19 118 -34 24 -6 47 -15 50 -20 3 -4 16 -10
29 -11 21 -3 25 0 25 23 0 67 -116 120 -251 115 -40 -2 -73 1 -73 5 0 4 -3 7
-7 7 -5 -1 -18 -4 -30 -6z"/>
<path d="M2190 7434 c0 -7 27 -34 33 -34 3 0 3 9 0 20 -5 17 -33 30 -33 14z"/>
<path d="M2185 7380 c-3 -5 -1 -10 4 -10 6 0 11 5 11 10 0 6 -2 10 -4 10 -3 0
-8 -4 -11 -10z"/>
<path d="M2430 7342 c-49 -6 -131 -45 -155 -74 -31 -37 -31 -40 2 -55 32 -15
53 -17 53 -3 0 13 38 47 60 53 16 4 17 1 9 -21 -7 -18 -6 -34 2 -53 16 -40 54
-46 142 -22 10 3 17 -1 17 -10 0 -11 -20 -16 -80 -21 -91 -8 -111 -28 -22 -22
69 5 112 20 112 41 0 14 22 20 63 17 10 -1 17 5 17 16 0 10 4 22 9 28 17 18
21 72 6 84 -8 7 -12 16 -9 21 6 10 -9 12 -19 2 -11 -10 -60 -11 -87 0 -37 14
-91 23 -120 19z m20 -101 c0 -14 -18 -23 -30 -16 -6 4 -8 11 -5 16 8 12 35 12
35 0z"/>
<path d="M1931 7283 c1 -31 5 -68 9 -82 l7 -26 12 28 c22 56 10 137 -21 137
-4 0 -7 -26 -7 -57z"/>
<path d="M2300 7172 c0 -10 33 -34 63 -45 32 -12 18 18 -15 33 -18 7 -36 15
-40 18 -5 2 -8 -1 -8 -6z"/>
<path d="M2572 7120 c-12 -5 -28 -14 -35 -20 -6 -6 -21 -17 -32 -25 -17 -12
-18 -14 -3 -15 26 0 65 17 86 38 11 11 26 22 33 25 9 3 6 5 -6 6 -11 0 -30 -4
-43 -9z"/>
<path d="M1148 6923 c7 -3 16 -2 19 1 4 3 -2 6 -13 5 -11 0 -14 -3 -6 -6z"/>
<path d="M1225 6893 c14 -28 -40 -67 -56 -41 -7 10 -11 10 -23 -2 -8 -8 -16
-22 -18 -30 -2 -8 -14 -25 -28 -37 l-25 -23 24 0 c14 0 32 7 41 15 15 13 17
13 17 0 0 -8 -5 -15 -11 -16 -6 0 -1 -4 12 -10 23 -9 78 -2 68 8 -3 3 4 13 15
22 17 14 19 23 14 53 -4 20 -14 45 -22 55 -8 10 -12 12 -8 6z"/>
<path d="M990 6784 c0 -12 34 -33 53 -34 20 0 22 11 5 28 -12 12 -58 17 -58 6z"/>
<path d="M1205 6682 c-11 -3 -29 -11 -40 -18 -11 -8 -36 -14 -55 -14 -28 0
-44 -8 -68 -33 -40 -41 -41 -68 -3 -90 32 -19 93 -14 85 7 -3 8 15 17 53 25
32 7 63 18 70 23 7 5 17 7 23 3 16 -10 -23 -45 -49 -45 -11 0 -23 -5 -26 -11
-5 -7 5 -8 30 -3 30 5 37 4 33 -7 -3 -8 -16 -14 -29 -15 -13 -1 -36 -7 -50
-13 -22 -11 -31 -10 -57 3 -28 14 -31 14 -36 -1 -4 -11 2 -26 18 -41 38 -38
117 -42 189 -9 31 14 63 37 73 51 16 25 16 28 -1 59 -16 31 -16 35 -1 65 20
40 21 66 1 58 -8 -3 -15 -2 -15 2 0 7 -111 10 -145 4z m15 -66 c0 -16 -105
-44 -117 -32 -10 9 17 25 32 20 6 -3 27 2 46 10 19 8 35 15 37 16 1 0 2 -6 2
-14z"/>
<path d="M4639 7184 c-14 -39 -2 -67 27 -61 13 2 21 1 19 -3 -12 -19 22 -69
68 -100 28 -19 53 -35 56 -36 3 0 24 -6 46 -12 36 -11 42 -10 57 8 21 25 39
25 71 0 14 -11 40 -23 58 -27 48 -9 33 16 -30 50 -29 16 -51 31 -48 33 10 10
91 14 97 4 4 -7 15 -7 30 -2 l24 9 -28 18 c-18 12 -47 19 -76 19 -31 0 -46 4
-44 11 5 13 -148 41 -165 31 -5 -4 -20 7 -32 24 -25 33 -40 37 -59 15 -15 -18
-33 -20 -27 -2 5 15 -10 47 -24 47 -5 0 -14 -12 -20 -26z m386 -124 c-3 -5
-10 -10 -16 -10 -5 0 -9 5 -9 10 0 6 7 10 16 10 8 0 12 -4 9 -10z"/>
<path d="M5589 7063 c-1 -4 -1 -12 0 -17 4 -24 -12 -48 -30 -43 -24 6 -24 -2
-1 -20 43 -34 50 -34 66 -2 15 30 15 33 -9 61 -14 16 -26 26 -26 21z"/>
<path d="M5528 7048 c7 -7 16 -7 28 0 14 8 13 10 -10 10 -18 0 -24 -4 -18 -10z"/>
<path d="M5707 6803 c-4 -3 -7 -11 -7 -17 0 -6 5 -5 12 2 6 6 9 14 7 17 -3 3
-9 2 -12 -2z"/>
<path d="M5720 6739 c0 -5 5 -7 10 -4 6 3 10 8 10 11 0 2 -4 4 -10 4 -5 0 -10
-5 -10 -11z"/>
<path d="M5296 6295 c-10 -15 -15 -34 -11 -43 6 -14 10 -12 31 13 13 17 23 34
21 39 -7 20 -25 16 -41 -9z"/>
<path d="M5970 5960 c0 -64 3 -80 15 -80 12 0 15 16 15 80 0 64 -3 80 -15 80
-12 0 -15 -16 -15 -80z"/>
<path d="M4848 5902 c-20 -4 -41 -52 -36 -84 3 -21 6 -20 32 19 30 44 32 71 4
65z"/>
<path d="M5386 5888 c-12 -14 -21 -17 -25 -9 -5 7 -17 1 -36 -19 -16 -16 -27
-32 -24 -34 8 -9 93 40 107 62 18 27 4 28 -22 0z"/>
<path d="M5970 5720 c0 -79 0 -80 -25 -80 -23 0 -25 -3 -25 -52 -1 -31 -7 -61
-15 -72 -9 -11 -15 -41 -15 -68 0 -46 -1 -48 -27 -49 -24 0 -25 -2 -9 -8 19
-7 19 -8 -3 -14 -25 -6 -20 -26 7 -28 9 -1 -17 -7 -58 -14 l-75 -12 138 -2
137 -1 0 240 c0 207 -2 240 -15 240 -12 0 -15 -16 -15 -80z"/>
<path d="M2078 5765 c-10 -22 -8 -28 14 -47 14 -13 29 -34 33 -48 4 -14 20
-46 35 -71 16 -25 36 -73 45 -105 33 -110 63 -174 82 -174 15 0 13 16 -14 80
-8 19 -23 72 -34 118 -10 45 -31 105 -45 133 -14 28 -23 57 -20 65 7 19 -41
74 -65 74 -11 0 -24 -11 -31 -25z"/>
<path d="M3554 5739 c-35 -39 -122 -91 -273 -163 -37 -17 -72 -79 -87 -153 -8
-38 -17 -76 -20 -85 -5 -17 12 -18 256 -18 l262 0 -2 108 c-1 59 0 149 3 200
5 83 3 96 -14 113 -27 27 -100 26 -125 -2z"/>
<path d="M2597 4724 c-4 -4 -7 -26 -7 -50 0 -48 8 -54 77 -54 l46 0 -7 -67
c-3 -38 -8 -135 -11 -218 -3 -82 -8 -166 -11 -185 -6 -37 10 -33 19 5 3 14 5
11 6 -10 1 -16 5 -25 9 -19 6 9 68 44 78 44 1 0 4 -15 6 -32 2 -18 7 44 11
137 4 94 11 208 15 255 l7 85 55 5 55 5 0 50 0 50 -170 3 c-94 2 -174 0 -178
-4z"/>
<path d="M2998 4724 c-13 -13 -9 -485 4 -550 l13 -59 6 45 6 45 2 -45 c2 -36
4 -41 11 -23 7 17 15 20 42 16 95 -13 138 -14 157 -3 12 6 19 16 15 21 -4 8 0
7 14 0 11 -6 23 -16 26 -23 5 -10 7 -10 12 0 3 6 12 12 19 12 8 0 21 7 29 16
23 23 20 1 -5 -29 -39 -51 -81 -62 -217 -60 -76 1 -120 -2 -117 -7 9 -14 234
-11 272 3 41 16 81 51 93 83 11 27 -11 315 -30 409 -11 55 -50 104 -103 131
-34 18 -236 33 -249 18z m225 -126 c9 -15 19 -87 27 -206 11 -172 11 -184 -6
-203 -14 -16 -28 -19 -68 -17 l-51 3 -8 208 c-5 115 -6 215 -3 223 4 9 21 14
50 14 36 0 48 -5 59 -22z m-25 -445 c-16 -2 -40 -2 -55 0 -16 2 -3 4 27 4 30
0 43 -2 28 -4z"/>
<path d="M3390 4699 c0 -32 43 -426 56 -516 7 -46 23 -58 26 -20 0 12 4 2 8
-23 l7 -45 3 40 c2 39 3 39 10 10 l8 -30 1 27 c0 15 5 30 11 33 5 3 7 0 4 -8
-6 -18 54 -27 177 -27 53 0 89 -4 89 -10 0 -5 5 -10 12 -10 8 0 8 4 -2 14 -10
10 -45 15 -110 17 -113 4 -120 5 -120 31 0 10 -3 17 -7 15 -11 -7 -10 115 1
131 6 10 25 11 77 6 78 -7 79 -6 59 68 l-11 37 -77 3 -77 3 -8 73 c-5 40 -6
79 -3 87 4 12 26 15 101 15 104 0 102 -1 84 63 l-10 37 -117 0 c-64 0 -134 3
-154 6 -38 7 -38 6 -38 -27z m170 -529 c0 -5 -4 -10 -10 -10 -5 0 -10 5 -10
10 0 6 5 10 10 10 6 0 10 -4 10 -10z"/>
<path d="M1206 4643 c-15 -43 -60 -177 -100 -298 -41 -121 -73 -221 -72 -223
2 -1 11 12 20 30 12 22 16 26 13 11 -6 -27 8 -31 18 -5 7 16 8 15 15 -3 8 -18
9 -18 10 5 2 24 3 23 10 -5 6 -23 8 -25 9 -8 0 12 6 25 11 28 12 7 8 -12 -17
-103 -8 -30 -13 -55 -11 -57 2 -2 30 74 62 170 31 96 60 175 62 175 3 0 2 -48
-2 -107 -5 -75 -4 -104 4 -99 6 3 13 -2 15 -11 4 -14 5 -14 6 -3 1 12 10 15
35 12 18 -2 43 1 54 7 15 8 21 8 25 -2 2 -7 11 1 20 18 37 69 13 -6 -34 -105
l-51 -108 -47 -8 c-25 -4 -39 -9 -29 -11 9 -2 31 0 49 4 35 10 42 20 174 281
37 74 69 131 72 129 2 -3 -9 -58 -26 -123 -36 -136 -37 -143 -12 -89 l18 40 8
-27 c6 -24 10 -26 27 -17 16 9 24 7 36 -5 11 -10 12 -16 4 -16 -7 0 -12 -12
-11 -27 0 -27 0 -27 14 7 16 41 165 590 165 608 0 8 -24 12 -78 12 l-79 0 -70
-147 c-39 -82 -94 -199 -123 -260 -29 -62 -57 -113 -62 -113 -9 0 -8 13 28
291 13 102 24 196 24 208 0 20 -5 21 -79 21 l-79 0 -26 -77z m309 -443 c3 -5
1 -10 -4 -10 -6 0 -11 5 -11 10 0 6 2 10 4 10 3 0 8 -4 11 -10z"/>
<path d="M1869 4695 c-65 -34 -103 -86 -127 -175 -21 -74 -92 -354 -92 -361 0
-10 76 -8 100 3 24 10 30 26 75 207 53 215 69 245 128 239 52 -5 54 -21 18
-195 -48 -231 -56 -257 -86 -273 -14 -7 -23 -15 -20 -18 2 -3 15 2 28 11 13 8
41 16 63 18 25 2 45 10 56 23 27 33 20 5 -10 -38 -43 -63 -112 -98 -207 -105
-74 -6 -77 -7 -40 -14 47 -9 121 5 173 33 93 50 107 77 153 301 21 105 39 209
39 232 0 117 -131 175 -251 112z"/>
<path d="M2206 4703 c-5 -18 -62 -337 -89 -500 -8 -45 -10 -80 -5 -77 4 3 8
17 9 32 1 25 2 24 12 -8 11 -35 11 -35 15 -7 4 30 17 36 26 11 5 -14 9 -12 26
7 16 20 19 21 20 7 0 -10 4 -18 9 -18 4 0 12 27 15 61 10 87 12 89 62 89 37 0
44 -3 48 -22 3 -13 12 -59 20 -103 14 -70 15 -73 12 -25 -4 45 -2 50 6 28 9
-25 15 -28 54 -28 41 0 44 2 44 28 0 15 -7 56 -15 92 -13 61 -12 67 6 90 10
14 26 34 34 45 8 11 19 60 24 109 9 80 8 94 -9 133 -27 61 -60 73 -204 73
-101 0 -115 -2 -120 -17z m203 -92 c26 -17 11 -146 -20 -180 -26 -28 -109 -31
-109 -3 1 29 27 169 34 181 8 13 75 15 95 2z"/>
<path d="M3860 4712 c-55 -24 -84 -68 -82 -124 3 -57 72 -389 88 -420 15 -29
30 -39 20 -13 -3 8 -1 15 4 15 5 0 12 -9 15 -20 7 -23 25 -27 25 -6 0 7 7 19
16 27 13 11 15 9 10 -17 -4 -16 -3 -23 0 -16 8 17 27 15 20 -3 -3 -8 -1 -15 4
-15 6 0 10 5 10 10 0 7 7 7 21 0 11 -7 23 -10 25 -7 3 2 -9 10 -25 17 -16 6
-31 17 -34 23 -2 7 -21 101 -43 210 -41 210 -40 229 5 235 47 7 80 -17 96 -71
18 -60 26 -67 84 -67 l44 0 -7 41 c-19 117 -122 210 -231 208 -27 0 -57 -3
-65 -7z"/>
<path d="M4260 4693 c0 -16 9 -104 19 -198 11 -93 23 -210 27 -260 4 -49 9
-85 11 -78 5 14 74 5 86 -11 5 -7 11 -5 18 7 9 16 21 17 91 13 54 -4 92 -12
113 -25 32 -18 32 -19 28 0 -3 10 -10 19 -15 19 -5 0 -6 5 -2 11 4 7 14 -1 26
-20 11 -17 22 -31 25 -31 2 0 2 3 0 8 -5 8 -65 135 -127 268 -23 49 -67 142
-97 207 l-56 117 -74 0 -73 0 0 -27z m179 -265 c15 -35 37 -83 49 -108 25 -56
26 -63 1 -72 -12 -5 -18 -4 -14 2 4 6 -7 10 -24 10 -17 0 -31 3 -31 8 0 16
-20 178 -25 200 -11 45 17 20 44 -40z m-12 -244 c-3 -3 -12 -4 -19 -1 -8 3 -5
6 6 6 11 1 17 -2 13 -5z"/>
<path d="M4580 4714 c0 -10 146 -439 180 -529 23 -61 29 -71 24 -40 l-5 40 16
-32 c15 -28 19 -30 31 -18 8 7 14 21 14 30 0 15 1 15 16 1 8 -9 17 -16 18 -16
8 0 -163 511 -183 548 -10 18 -20 22 -61 22 -28 0 -50 -3 -50 -6z m245 -543
c3 -5 1 -12 -5 -16 -5 -3 -10 1 -10 9 0 18 6 21 15 7z"/>
<path d="M4100 4275 c0 0 7 -24 15 -54 14 -55 9 -84 -17 -94 -10 -4 -10 -6 -1
-6 7 -1 24 11 39 27 15 15 24 20 21 12 -4 -13 2 -15 29 -12 40 5 59 25 49 49
-5 10 -9 24 -11 31 -7 35 -15 40 -68 44 -31 1 -56 3 -56 3z m46 -92 c-10 -10
-19 5 -10 18 6 11 8 11 12 0 2 -7 1 -15 -2 -18z"/>
<path d="M4430 4139 c0 -18 3 -19 14 -9 10 8 38 10 83 7 82 -6 75 -5 68 -17
-3 -6 1 -7 10 -4 40 16 -45 41 -142 43 -27 1 -33 -3 -33 -20z"/>
<path d="M1501 4134 c0 -11 3 -14 6 -6 3 7 2 16 -1 19 -3 4 -6 -2 -5 -13z"/>
<path d="M3250 4140 c-8 -5 -10 -10 -5 -10 6 0 17 5 25 10 8 5 11 10 5 10 -5
0 -17 -5 -25 -10z"/>
<path d="M3528 4133 c6 -2 18 -2 25 0 6 3 1 5 -13 5 -14 0 -19 -2 -12 -5z"/>
<path d="M2216 4117 c3 -10 9 -15 12 -12 3 3 0 11 -7 18 -10 9 -11 8 -5 -6z"/>
<path d="M3128 4123 c6 -2 18 -2 25 0 6 3 1 5 -13 5 -14 0 -19 -2 -12 -5z"/>
<path d="M4240 4100 c0 -6 -12 -23 -27 -38 -25 -25 -33 -27 -110 -27 -45 0
-75 -3 -65 -7 28 -11 132 -9 155 4 28 14 57 47 57 65 0 7 -2 13 -5 13 -3 0 -5
-5 -5 -10z"/>
<path d="M2800 4090 c0 -9 -11 -11 -45 -7 -25 4 -47 2 -50 -3 -4 -6 14 -10 44
-10 46 0 72 13 57 27 -3 4 -6 0 -6 -7z"/>
<path d="M2440 4070 l-45 -7 57 -1 c31 -1 60 3 63 8 7 11 -6 11 -75 0z"/>
<path d="M2180 4059 c-19 -4 -40 -6 -47 -4 -7 2 -15 0 -18 -5 -10 -16 69 -11
91 5 21 16 22 16 -26 4z"/>
<path d="M3555 4061 c133 -14 274 -20 235 -11 -19 5 -98 11 -175 14 -108 4
-122 3 -60 -3z"/>
<path d="M1491 3989 c-24 -5 -47 -11 -50 -15 -9 -9 93 7 104 17 10 10 8 10
-54 -2z"/>
<path d="M4360 3990 c14 -4 41 -8 60 -8 l35 0 -40 9 c-22 4 -49 8 -60 7 -16 0
-15 -2 5 -8z"/>
<path d="M2465 3982 c-42 -4 -66 -17 -64 -36 0 -7 2 -6 6 2 8 20 22 14 16 -8
-3 -11 -9 -17 -14 -14 -5 3 -9 0 -9 -5 0 -18 24 -12 38 9 9 15 24 20 60 21 41
1 43 2 17 9 l-30 7 30 4 c43 6 2 15 -50 11z m8 -19 c-7 -2 -19 -2 -25 0 -7 3
-2 5 12 5 14 0 19 -2 13 -5z"/>
<path d="M2654 3965 c-3 -13 -4 -30 -1 -37 3 -7 6 -3 6 9 1 12 6 25 11 28 6 4
9 2 8 -3 -3 -11 0 -12 43 -12 16 0 28 4 25 9 -4 5 4 7 16 5 17 -3 15 -1 -7 10
-16 9 -45 15 -62 16 -26 0 -34 -5 -39 -25z"/>
<path d="M2894 3976 c-10 -11 -35 -73 -33 -85 0 -3 9 12 20 34 l19 40 -5 -45
c-3 -25 -2 -38 1 -30 4 8 15 23 26 33 11 11 18 28 16 40 -3 23 -28 30 -44 13z
m36 -21 c0 -8 -2 -15 -4 -15 -2 0 -6 7 -10 15 -3 8 -1 15 4 15 6 0 10 -7 10
-15z"/>
<path d="M3088 3983 c6 -2 12 -12 12 -20 0 -11 8 -14 30 -11 27 4 30 2 31 -21
0 -26 0 -26 9 -3 6 12 18 22 30 22 11 0 20 5 20 11 0 5 -4 7 -10 4 -6 -3 -7 1
-4 9 5 14 -4 16 -62 15 -38 0 -63 -3 -56 -6z"/>
<path d="M3261 3948 l2 -43 7 35 c4 19 8 28 9 18 1 -13 9 -15 41 -11 32 5 44
2 56 -13 14 -18 15 -18 4 4 -7 15 -7 22 0 22 5 0 10 -5 10 -12 0 -6 3 -8 7 -4
11 10 -26 36 -42 30 -7 -3 -16 -1 -20 5 -3 6 -22 11 -41 11 -34 0 -34 0 -33
-42z m62 15 c-7 -2 -19 -2 -25 0 -7 3 -2 5 12 5 14 0 19 -2 13 -5z"/>
<path d="M1931 3966 c-10 -12 -8 -17 7 -25 22 -12 32 -6 32 21 0 21 -23 24
-39 4z"/>
<path d="M2069 3953 c-5 -14 -8 -34 -6 -42 3 -10 5 -8 6 6 0 12 6 25 12 28 7
5 9 -5 6 -27 -2 -18 -2 -25 0 -16 10 41 75 51 97 15 9 -15 6 -22 -16 -42 -16
-13 -24 -26 -19 -29 13 -8 49 36 56 69 5 20 4 26 -3 16 -8 -11 -11 -11 -18 0
-4 8 -3 14 5 17 9 3 9 7 0 18 -7 9 -31 14 -60 14 -44 0 -51 -3 -60 -27z m76 7
c-3 -5 -17 -10 -30 -10 -13 0 -27 5 -30 10 -4 6 8 10 30 10 22 0 34 -4 30 -10z
m35 0 c0 -5 -2 -10 -4 -10 -3 0 -8 5 -11 10 -3 6 -1 10 4 10 6 0 11 -4 11 -10z"/>
<path d="M2240 3969 c0 -6 8 -8 19 -4 11 3 28 1 39 -6 16 -10 18 -18 10 -52
-5 -22 -7 -42 -4 -44 3 -3 8 12 12 32 5 27 14 40 34 49 15 6 25 17 23 24 -6
15 -133 17 -133 1z m97 -5 c-3 -3 -12 -4 -19 -1 -8 3 -5 6 6 6 11 1 17 -2 13
-5z"/>
<path d="M3486 3965 c-3 -9 -6 -26 -5 -38 1 -16 4 -12 10 12 10 34 6 55 -5 26z"/>
<path d="M3512 3968 c2 -6 10 -14 16 -16 7 -2 10 2 6 12 -7 18 -28 22 -22 4z"/>
<path d="M3629 3948 c5 -32 6 -32 9 -5 3 23 8 27 37 27 47 0 65 -9 65 -32 0
-10 5 -16 10 -13 6 3 10 2 10 -4 0 -5 -5 -12 -10 -14 -6 -3 -5 -4 2 -3 21 4
19 22 -6 49 -21 22 -34 27 -74 27 l-49 0 6 -32z"/>
<path d="M3830 3962 c0 -22 22 -72 33 -72 4 0 7 9 7 19 0 11 5 21 10 23 14 4
-18 48 -36 48 -8 0 -14 -8 -14 -18z m31 -6 c5 3 9 -2 9 -10 0 -9 -4 -16 -10
-16 -5 0 -10 2 -10 4 0 2 -2 10 -3 18 -2 7 -2 10 0 5 3 -4 9 -5 14 -1z"/>
<path d="M4004 3969 c-4 -7 0 -9 13 -5 11 4 31 2 44 -4 l24 -11 -24 5 c-29 6
-51 -9 -51 -35 0 -18 1 -18 21 2 11 11 27 18 35 15 8 -3 14 0 14 6 0 7 5 6 15
-2 13 -11 14 -10 10 2 -12 30 -86 50 -101 27z"/>
<path d="M1698 3963 c6 -2 18 -2 25 0 6 3 1 5 -13 5 -14 0 -19 -2 -12 -5z"/>
<path d="M4201 3938 c0 -18 3 -27 6 -20 8 21 23 13 23 -12 0 -14 5 -28 12 -32
8 -5 9 2 4 27 -6 31 -5 32 9 14 13 -18 14 -17 1 15 -9 22 -22 36 -35 38 -18 3
-21 -2 -20 -30z"/>
<path d="M2260 3950 c0 -5 7 -10 16 -10 11 0 14 -6 9 -21 -5 -15 -4 -19 4 -15
16 11 13 43 -5 50 -21 8 -24 8 -24 -4z"/>
<path d="M3650 3944 c0 -11 5 -14 16 -10 9 3 27 6 40 6 14 0 22 4 19 10 -3 6
-22 10 -41 10 -25 0 -34 -4 -34 -16z"/>
<path d="M1677 3936 c-4 -10 0 -12 14 -9 22 6 26 23 5 23 -8 0 -16 -6 -19 -14z"/>
<path d="M3501 3903 c1 -47 1 -47 10 -16 5 18 14 32 21 30 6 -1 13 4 16 12 2
8 0 11 -6 7 -6 -3 -13 -2 -17 4 -14 23 -25 7 -24 -37z"/>
<path d="M3991 3943 c-1 -6 -4 -20 -7 -30 -5 -17 -5 -17 6 0 6 10 9 23 6 30
-3 9 -5 9 -5 0z"/>
<path d="M1906 3925 c-9 -26 -7 -32 5 -12 6 10 9 21 6 23 -2 3 -7 -2 -11 -11z"/>
<path d="M4748 3933 c7 -3 16 -2 19 1 4 3 -2 6 -13 5 -11 0 -14 -3 -6 -6z"/>
<path d="M1031 3919 c-24 -5 -47 -11 -50 -15 -9 -11 83 6 94 17 5 5 7 9 5 8
-3 -1 -25 -5 -49 -10z"/>
<path d="M1911 3885 c-12 -27 -20 -50 -18 -51 2 -2 16 15 31 38 17 26 23 45
17 51 -6 6 -17 -8 -30 -38z"/>
<path d="M2672 3900 c0 -19 2 -27 5 -17 2 9 2 25 0 35 -3 9 -5 1 -5 -18z"/>
<path d="M3141 3914 c0 -11 3 -14 6 -6 3 7 2 16 -1 19 -3 4 -6 -2 -5 -13z"/>
<path d="M2941 3904 c0 -11 3 -14 6 -6 3 7 2 16 -1 19 -3 4 -6 -2 -5 -13z"/>
<path d="M3387 3893 c-11 -13 -17 -26 -15 -29 7 -7 40 34 37 44 -2 6 -12 -1
-22 -15z"/>
<path d="M4100 3910 c0 -5 5 -10 10 -10 6 0 10 5 10 10 0 6 -4 10 -10 10 -5 0
-10 -4 -10 -10z"/>
<path d="M4878 3913 c7 -3 16 -2 19 1 4 3 -2 6 -13 5 -11 0 -14 -3 -6 -6z"/>
<path d="M1666 3867 c-11 -23 -22 -46 -24 -52 -9 -21 26 22 47 58 16 26 19 37
9 37 -7 0 -22 -19 -32 -43z"/>
<path d="M3360 3900 c-9 -6 -10 -10 -3 -10 6 0 15 5 18 10 8 12 4 12 -15 0z"/>
<path d="M3661 3894 c0 -11 3 -14 6 -6 3 7 2 16 -1 19 -3 4 -6 -2 -5 -13z"/>
<path d="M4938 3903 c7 -3 16 -2 19 1 4 3 -2 6 -13 5 -11 0 -14 -3 -6 -6z"/>
<path d="M2641 3884 c0 -11 3 -14 6 -6 3 7 2 16 -1 19 -3 4 -6 -2 -5 -13z"/>
<path d="M2419 3876 c0 -1 -2 -12 -5 -26 -3 -21 -2 -22 7 -7 7 11 22 17 49 17
21 0 41 4 44 8 4 6 -89 14 -95 8z"/>
<path d="M3295 3870 c-8 -13 8 -18 29 -10 19 6 19 7 -2 12 -12 4 -24 2 -27 -2z"/>
<path d="M3755 3861 c-3 -6 -22 -11 -41 -11 -19 0 -34 -3 -34 -8 0 -11 79 -2
86 10 3 5 4 12 1 14 -3 3 -8 1 -12 -5z"/>
<path d="M2063 3835 c-9 -25 2 -27 22 -5 17 18 17 20 1 20 -9 0 -19 -7 -23
-15z"/>
<path d="M2772 3825 c-16 -19 -18 -25 -7 -25 8 0 19 9 25 21 17 30 7 33 -18 4z"/>
<path d="M2867 3843 c-4 -3 -7 -13 -7 -22 0 -12 3 -12 12 -3 7 7 29 12 51 12
23 0 36 4 32 10 -7 11 -78 14 -88 3z"/>
<path d="M3498 3829 c-19 -12 -7 -15 42 -9 l45 6 -38 5 c-20 3 -43 2 -49 -2z"/>
<path d="M2292 3810 c0 -14 2 -19 5 -12 2 6 2 18 0 25 -3 6 -5 1 -5 -13z"/>
<path d="M3850 3800 c0 -12 8 -12 35 0 18 8 17 9 -7 9 -16 1 -28 -3 -28 -9z"/>
<path d="M1879 3793 c-15 -2 -29 -12 -32 -21 -3 -9 -8 -26 -12 -37 -4 -11 2
-5 14 13 16 24 28 32 50 32 17 0 33 5 36 10 6 10 -6 11 -56 3z"/>
<path d="M2435 3780 l-50 -7 50 -1 c28 0 59 3 70 8 l20 9 -20 -1 c-11 -1 -42
-4 -70 -8z"/>
<path d="M1593 3722 c-20 -44 -7 -37 22 13 6 9 26 20 45 25 l35 8 -40 1 c-38
1 -41 -1 -62 -47z"/>
<path d="M4240 3762 c0 -5 14 -7 30 -4 17 2 30 6 30 8 0 2 -13 4 -30 4 -16 0
-30 -4 -30 -8z"/>
<path d="M4841 3502 c-142 -2 -188 -6 -204 -17 -12 -8 -29 -15 -37 -15 -9 0
-25 -7 -36 -16 -10 -8 -12 -12 -4 -8 11 5 10 1 -3 -13 -10 -12 -31 -27 -47
-33 -21 -9 -27 -17 -22 -28 5 -15 3 -14 -12 1 -10 10 -25 16 -32 13 -8 -3 -14
-1 -14 4 0 5 9 11 19 15 11 3 22 12 25 20 7 19 2 19 -34 0 -17 -9 -33 -15 -37
-14 -4 0 -9 -5 -12 -12 -2 -7 1 -9 9 -4 10 6 12 3 7 -10 -6 -15 -3 -17 24 -11
31 6 32 6 14 -13 -12 -15 -25 -18 -46 -14 -19 3 -29 1 -29 -6 0 -7 5 -9 10 -6
6 3 10 -4 10 -15 0 -15 -5 -20 -14 -17 -16 6 -86 -62 -86 -84 0 -16 -19 -39
-32 -39 -5 0 -1 11 8 25 9 14 14 28 11 31 -3 4 5 31 19 61 13 31 24 61 24 67
0 6 16 29 35 51 19 22 35 45 35 51 0 6 10 16 23 22 16 8 -88 11 -395 11 -230
1 -418 -1 -418 -4 0 -3 12 -18 26 -33 14 -15 39 -47 57 -72 17 -25 34 -47 38
-50 4 -3 28 -48 54 -100 26 -52 56 -107 66 -122 11 -14 19 -39 19 -55 0 -16 8
-36 18 -44 9 -9 26 -28 36 -43 17 -24 24 -26 92 -26 41 0 74 4 74 9 0 5 20 11
45 13 32 2 44 0 41 -9 -3 -6 0 -14 7 -16 9 -3 7 -14 -6 -41 -9 -21 -13 -35 -7
-31 7 4 7 -2 0 -20 -14 -38 -14 -40 25 -82 24 -26 35 -48 35 -69 0 -17 3 -34
7 -38 4 -4 7 -26 6 -49 -1 -26 1 -32 4 -14 3 21 9 27 22 22 12 -4 21 2 29 20
14 30 33 31 105 9 71 -22 87 -43 87 -114 0 -108 41 -178 128 -218 30 -13 63
-33 73 -43 44 -44 130 -6 204 92 84 109 90 115 121 104 39 -14 61 -90 43 -147
-11 -35 -8 -121 7 -180 5 -23 2 -29 -18 -37 -13 -5 -30 -16 -37 -25 -7 -9 -17
-14 -21 -11 -13 8 -60 -17 -60 -32 0 -16 -12 -17 -27 -2 -9 9 -11 7 -6 -9 3
-13 -3 -31 -16 -48 -23 -29 -25 -42 -11 -64 7 -12 12 -12 29 4 11 10 23 31 26
47 11 49 32 35 39 -27 2 -16 4 -32 5 -36 0 -4 13 -14 29 -23 26 -15 24 -16
-46 -11 -44 3 -84 12 -99 22 -20 12 -51 16 -135 17 -60 0 -111 4 -114 9 -3 5
-9 6 -14 3 -14 -9 0 -35 19 -35 10 0 21 -3 25 -7 4 -5 11 -8 14 -8 15 0 108
-60 120 -77 7 -10 20 -18 28 -18 8 0 14 -7 14 -16 0 -12 -6 -15 -26 -10 -24 6
-26 5 -21 -19 4 -24 2 -26 -20 -22 -20 4 -24 1 -21 -16 3 -22 10 -26 81 -56
39 -16 47 -24 47 -45 0 -14 -4 -26 -10 -26 -5 0 -22 -13 -36 -29 -15 -17 -40
-33 -58 -36 -17 -3 -48 -13 -69 -22 -33 -15 -40 -15 -70 -1 -17 9 -52 25 -77
37 -25 11 -53 27 -64 33 -15 10 -19 10 -23 1 -3 -7 -11 -13 -18 -13 -19 0 41
-63 85 -89 19 -12 47 -21 63 -21 22 0 27 -5 27 -23 0 -13 -6 -32 -14 -43 -10
-13 -11 -23 -4 -31 8 -10 6 -13 -8 -13 -11 0 -26 -5 -34 -10 -13 -8 -12 -11 5
-24 22 -16 24 -15 -58 -37 -33 -8 -44 -15 -35 -20 10 -7 10 -9 -3 -9 -9 0 -18
3 -22 6 -3 3 -26 8 -50 10 l-44 3 -7 -66 c-6 -55 -4 -68 9 -75 8 -5 23 -17 33
-28 9 -10 28 -20 42 -22 24 -4 24 -5 -9 -19 l-35 -15 34 -14 c18 -7 51 -32 74
-55 77 -79 113 -120 119 -137 8 -24 -2 -48 -20 -48 -8 0 -11 5 -7 11 4 8 0 8
-15 0 -11 -7 -21 -14 -21 -17 0 -2 24 -28 53 -57 55 -54 127 -163 127 -192 0
-29 -29 -73 -62 -93 -18 -12 -43 -30 -56 -42 l-22 -21 22 -32 c20 -28 20 -30
3 -17 -11 8 -25 22 -32 30 -7 8 -13 10 -13 4 0 -15 58 -69 66 -61 4 4 14 -2
22 -14 8 -11 11 -23 8 -26 -3 -4 -6 -1 -6 5 0 7 -7 12 -15 12 -18 0 -19 5 5
-55 13 -31 19 -39 17 -22 -3 18 0 27 9 27 10 0 14 -13 14 -41 0 -24 -4 -38
-10 -34 -5 3 -10 -1 -10 -9 0 -20 -39 -86 -51 -86 -6 0 -6 8 0 19 6 10 13 42
17 70 6 54 -2 77 -53 131 -13 14 -23 28 -23 31 0 16 -35 18 -58 3 -24 -16 -25
-16 -19 2 4 11 -16 -6 -43 -36 -56 -62 -64 -90 -24 -90 14 0 23 -4 19 -10 -3
-5 -17 -10 -31 -10 -14 0 -22 -4 -19 -10 3 -5 2 -10 -2 -10 -8 0 -26 -38 -43
-92 l-9 -28 850 0 849 0 0 385 c0 306 -3 385 -13 385 -7 0 -14 11 -15 25 -1
16 3 25 13 25 12 0 15 16 15 79 l0 80 -37 30 c-21 17 -42 31 -48 31 -6 0 -11
-33 -12 -78 -3 -100 5 -162 20 -158 7 1 9 1 5 -1 -5 -3 -8 -11 -8 -19 0 -15
-17 -20 -105 -29 -73 -8 -135 -25 -135 -38 0 -5 7 -7 15 -3 19 7 19 -8 1 -27
-9 -9 -11 -19 -5 -28 15 -24 10 -29 -28 -28 -21 0 -32 3 -25 6 6 2 12 11 12
19 0 7 -6 11 -14 8 -26 -10 -30 18 -5 37 22 17 23 19 4 19 -11 0 -49 -7 -84
-15 -35 -9 -65 -14 -66 -13 -2 2 -15 26 -30 53 -15 28 -48 71 -72 97 -24 26
-52 68 -63 93 -17 40 -24 78 -47 256 -6 50 11 119 30 119 7 0 6 4 -3 10 -13 8
-12 10 3 10 10 0 17 8 17 19 0 22 38 35 56 20 7 -6 17 -23 22 -38 9 -25 7 -30
-19 -45 -16 -9 -29 -23 -29 -29 0 -8 3 -8 8 -2 4 6 20 12 36 13 17 2 40 8 53
13 20 7 22 12 12 36 -6 15 -19 73 -29 128 -10 56 -26 120 -36 144 -14 35 -15
49 -5 82 11 37 14 39 51 39 22 0 40 3 40 8 0 4 -31 7 -70 8 -66 0 -70 -1 -79
-26 -7 -21 -15 -27 -39 -27 -52 0 -62 -16 -62 -105 0 -44 6 -103 14 -131 8
-29 17 -69 21 -90 l6 -38 -73 49 c-40 27 -91 58 -113 70 -84 43 -84 43 -28 96
28 25 63 66 79 89 16 23 52 66 81 95 34 34 53 61 53 77 0 44 22 54 82 39 62
-17 88 -18 88 -4 0 6 7 10 15 10 8 0 15 -4 15 -9 0 -7 73 -31 96 -31 17 0 -13
18 -48 30 -27 8 -38 17 -38 31 0 19 -11 25 -23 13 -8 -9 -72 -16 -120 -15 -43
1 -88 19 -94 38 -7 20 35 53 66 53 23 0 30 6 35 26 8 29 26 28 40 -3 8 -17 17
-19 50 -16 27 3 68 -4 120 -22 81 -26 117 -27 54 -1 -20 9 -38 22 -41 31 -4 8
-14 15 -22 15 -9 0 -23 7 -31 15 -14 14 -49 20 -83 15 -11 -1 -10 2 3 15 20
20 21 29 1 21 -8 -3 -15 -1 -15 5 0 6 -4 8 -9 5 -5 -4 -12 0 -14 6 -4 10 -8 9
-16 -2 -9 -13 -11 -11 -11 6 0 12 6 27 14 33 19 16 69 3 62 -15 -6 -15 15 -19
28 -7 4 4 23 6 42 4 33 -2 35 -1 29 21 -4 12 -13 33 -21 45 -17 28 -17 66 1
167 10 56 19 82 33 92 12 8 23 31 27 54 6 36 4 42 -24 66 -20 16 -30 32 -26
43 19 61 52 286 48 322 -4 30 -3 40 5 35 7 -4 12 -2 12 3 0 6 -5 11 -11 11 -6
0 -8 7 -5 16 3 8 2 12 -4 9 -6 -3 -10 -2 -10 4 0 5 4 12 9 16 10 5 41 -48 41
-71 0 -7 9 -16 20 -19 11 -4 18 -10 15 -15 -3 -5 0 -12 6 -16 6 -3 15 -1 19 7
7 10 11 10 24 0 9 -8 16 -10 16 -5 0 4 5 3 12 -4 7 -7 26 -12 43 -12 16 0 39
-7 49 -15 11 -8 37 -15 57 -15 21 0 39 -5 41 -11 2 -5 20 -14 41 -18 l37 -9 0
364 0 364 -327 0 -328 0 45 -27 c55 -33 67 -48 75 -95 4 -21 11 -40 16 -44 5
-3 9 -11 9 -19 0 -7 14 -27 30 -45 17 -18 33 -44 36 -59 3 -14 9 -36 14 -48 7
-17 6 -23 -4 -23 -14 0 -59 47 -69 73 -3 9 -13 17 -22 17 -12 0 -15 13 -16 58
0 48 -2 54 -11 35 -13 -27 -28 -30 -28 -5 0 10 -12 29 -27 43 -16 14 -33 34
-39 44 -19 34 -39 25 -36 -15 4 -37 -3 -36 -22 2 -6 13 -23 28 -36 35 -14 7
-34 26 -45 43 -16 24 -27 30 -55 30 -19 1 -57 2 -85 3 -27 1 -133 1 -234 -1z
m210 -28 c27 -9 52 -20 55 -25 7 -12 2 -11 -42 8 -22 9 -66 20 -99 23 l-60 7
48 1 c27 1 71 -5 98 -14z m-153 0 c-4 -3 -12 -7 -20 -8 -7 -2 -26 -8 -41 -14
-35 -15 -50 -15 -42 -2 4 6 10 8 14 5 5 -2 17 2 27 10 18 13 74 22 62 9z m273
-70 c13 -16 12 -16 -7 -6 -11 6 -27 19 -35 28 -13 16 -12 16 7 6 11 -6 27 -19
35 -28z m-411 8 c-27 -9 -90 -82 -90 -104 0 -20 1 -20 20 -3 11 10 17 22 13
28 -3 6 -1 7 5 3 7 -4 22 3 34 14 13 12 48 33 78 48 58 27 123 32 175 12 26
-10 43 -36 31 -48 -8 -7 -27 19 -21 29 9 14 -112 20 -150 7 -43 -14 -59 -38
-26 -38 12 0 21 -6 21 -16 0 -13 -8 -15 -42 -10 -47 6 -64 -1 -125 -53 -28
-23 -39 -39 -36 -52 7 -24 14 -24 43 1 35 30 50 9 22 -30 -22 -30 -27 -57 -15
-99 6 -23 6 -23 17 -4 49 89 150 139 208 105 25 -15 30 -15 38 -2 8 13 10 13
10 -2 0 -10 14 -21 38 -29 20 -6 42 -16 49 -21 7 -5 14 -5 18 2 3 5 1 10 -4
10 -6 0 -11 7 -11 15 0 14 11 6 92 -69 27 -24 33 -26 42 -14 9 13 14 11 31 -8
28 -33 31 -32 87 21 l21 20 -5 -21 c-4 -16 2 -26 23 -38 19 -11 29 -25 29 -41
0 -19 4 -23 18 -18 14 6 15 4 5 -8 -7 -8 -9 -25 -6 -38 5 -20 3 -22 -15 -16
-18 5 -21 3 -15 -11 4 -11 3 -15 -5 -10 -6 3 -20 -3 -31 -15 -15 -16 -27 -20
-45 -15 -19 5 -26 2 -26 -8 0 -7 -13 -16 -30 -19 -31 -7 -42 -27 -15 -27 9 0
19 -9 23 -20 9 -25 121 -100 139 -93 18 7 17 -22 -2 -40 -13 -13 -13 -17 1
-28 13 -10 17 -10 24 0 4 8 13 10 19 6 9 -5 9 -10 0 -21 -6 -8 -9 -18 -5 -21
4 -4 11 -1 16 7 5 8 12 11 17 7 4 -4 2 -16 -4 -26 -9 -14 -8 -22 4 -33 25 -26
-9 -30 -48 -6 -28 17 -53 21 -144 22 -61 1 -116 5 -122 9 -6 4 -16 0 -23 -9
-9 -10 -22 -13 -41 -9 -15 3 -30 1 -34 -4 -3 -6 -16 -11 -28 -11 -16 0 -18 3
-8 9 7 5 16 29 18 55 5 41 4 46 -11 40 -10 -4 -15 -12 -12 -19 2 -7 -2 -23
-11 -35 l-15 -21 -23 21 c-23 22 -76 37 -363 101 -144 32 -237 71 -228 95 3 8
1 14 -4 14 -6 0 -10 7 -10 16 0 11 -6 14 -20 9 -11 -4 -20 -2 -20 4 0 6 7 11
15 11 18 0 20 17 3 23 -8 2 -9 8 -4 13 5 5 11 4 13 -3 6 -18 65 -16 89 2 15
12 16 14 3 15 -12 0 -14 8 -11 33 2 17 10 38 16 46 9 12 8 13 -3 7 -10 -7 -12
-3 -6 15 3 13 8 31 11 39 3 11 -5 15 -30 14 -18 -1 -38 -4 -44 -8 -27 -16 -19
16 13 51 33 36 48 72 24 57 -18 -11 7 29 30 48 12 11 21 13 21 6 0 -6 8 -4 18
5 26 24 33 21 20 -8 -6 -13 -19 -27 -30 -31 -10 -3 -26 -20 -35 -37 -8 -18
-21 -35 -27 -39 -6 -4 -7 -8 -2 -8 5 0 3 -7 -4 -15 -8 -9 -9 -15 -2 -15 12 0
27 19 27 35 0 6 9 10 20 10 24 0 44 22 46 50 1 17 2 17 6 3 7 -28 21 -21 37
17 8 19 20 35 25 35 6 0 11 8 12 18 0 9 3 12 5 6 8 -18 72 16 78 42 10 37 121
143 135 128 3 -4 -1 -9 -9 -12z m-287 -66 c4 -10 1 -13 -8 -9 -8 3 -12 9 -9
14 7 12 11 11 17 -5z m-13 -19 c0 -2 -13 -13 -30 -25 -35 -26 -40 -22 -8 8 19
18 38 26 38 17z m-98 -69 c-7 -7 -12 -8 -12 -2 0 6 3 14 7 17 3 4 9 5 12 2 2
-3 -1 -11 -7 -17z m89 -101 c-16 -16 -26 0 -10 19 9 11 15 12 17 4 2 -6 -1
-17 -7 -23z m1124 -37 c-3 -5 -11 -10 -16 -10 -6 0 -7 5 -4 10 3 6 11 10 16
10 6 0 7 -4 4 -10z m5 -30 c0 -5 -2 -10 -4 -10 -3 0 -8 5 -11 10 -3 6 -1 10 4
10 6 0 11 -4 11 -10z m-1310 -14 c0 -8 -5 -18 -10 -21 -6 -4 -8 -10 -5 -15 3
-5 1 -11 -4 -14 -15 -10 -24 33 -11 49 16 19 30 19 30 1z m1340 -8 c0 -16 -3
-19 -11 -11 -6 6 -8 16 -5 22 11 17 16 13 16 -11z m-1200 -17 c0 -9 -41 -23
-49 -16 -3 4 28 20 47 24 1 1 2 -3 2 -8z m-233 -23 c-3 -8 -6 -5 -6 6 -1 11 2
17 5 13 3 -3 4 -12 1 -19z m1377 6 c3 -8 2 -12 -4 -9 -6 3 -10 10 -10 16 0 14
7 11 14 -7z m-1347 -22 c-10 -10 -17 -25 -17 -33 0 -12 -2 -12 -9 0 -9 13 27
67 37 56 3 -3 -2 -13 -11 -23z m1249 -359 c-10 -10 -19 5 -10 18 6 11 8 11 12
0 2 -7 1 -15 -2 -18z m-842 -89 c4 -9 4 -19 2 -21 -8 -8 -26 8 -26 23 0 19 16
18 24 -2z m132 -15 c9 -16 -6 -26 -50 -32 l-39 -6 34 24 c39 28 45 29 55 14z
m-170 -17 c-6 -6 31 -35 59 -47 18 -7 18 -9 3 -12 -10 -3 -18 -11 -18 -20 0
-17 44 -55 74 -64 23 -6 112 24 138 48 9 8 21 12 27 9 12 -8 22 7 32 48 l7 31
1 -28 c1 -36 -31 -100 -65 -126 -59 -46 -154 -50 -230 -8 -81 45 -118 199 -43
180 11 -3 18 -8 15 -11z m69 -12 c3 -5 -1 -10 -10 -10 -9 0 -13 5 -10 10 3 6
8 10 10 10 2 0 7 -4 10 -10z m590 -59 c3 -5 1 -12 -5 -16 -5 -3 -10 1 -10 9 0
18 6 21 15 7z m95 -32 c10 -17 6 -22 -26 -35 -20 -8 -44 -12 -52 -9 -13 5 -10
12 18 39 37 36 44 36 60 5z m-120 -10 c0 -6 -4 -7 -10 -4 -5 3 -10 11 -10 16
0 6 5 7 10 4 6 -3 10 -11 10 -16z m228 -118 c-27 -53 -90 -91 -148 -90 -35 0
-34 1 14 15 27 9 62 25 78 37 33 24 67 83 69 119 2 18 3 17 6 -6 3 -17 -5 -46
-19 -75z m-28 8 c-7 -16 -18 -29 -26 -29 -9 0 -7 12 9 45 24 49 38 35 17 -16z
m-154 -148 c-3 -5 3 -20 14 -34 39 -49 13 -127 -42 -127 -24 0 -48 32 -48 63
0 23 25 67 38 67 6 0 11 3 11 8 -3 20 3 32 17 32 8 0 13 -4 10 -9z m-298 -393
c19 -2 14 -13 -19 -37 -17 -12 -37 -20 -45 -17 -8 3 -24 0 -35 -7 -16 -10 -21
-9 -28 2 -5 8 -14 10 -21 6 -9 -6 -11 -4 -6 4 5 7 14 10 22 7 8 -3 14 1 14 9
0 8 -7 15 -15 15 -8 0 -15 4 -15 10 0 5 6 7 13 5 6 -3 26 -1 42 5 17 5 41 7
55 4 14 -3 31 -5 38 -6z m489 -1160 c-2 -13 -4 -5 -4 17 -1 22 1 32 4 23 2
-10 2 -28 0 -40z m268 2 c4 -6 -7 -10 -27 -10 -25 0 -29 3 -18 10 19 13 37 13
45 0z m-266 -80 c1 -13 0 -13 -9 0 -5 8 -9 24 -9 35 l0 20 9 -20 c5 -11 9 -27
9 -35z m281 11 c-19 -12 -90 -25 -90 -17 0 7 58 24 85 25 16 0 17 -1 5 -8z
m-125 -31 c-3 -5 -16 -10 -28 -9 -21 0 -21 1 -2 9 28 12 37 12 30 0z"/>
<path d="M4610 3170 c-1 -8 -2 -33 -2 -55 1 -32 0 -36 -7 -20 -8 16 -10 13
-10 -18 -1 -22 3 -36 9 -32 13 8 22 64 17 106 -2 19 -5 27 -7 19z"/>
<path d="M4674 2913 c11 -20 9 -109 -4 -134 -11 -23 -10 -23 4 -5 23 29 25
121 4 141 -8 7 -9 6 -4 -2z"/>
<path d="M4376 2866 c3 -8 -2 -16 -13 -19 -12 -3 -9 -5 10 -6 17 -1 27 4 27
13 0 8 6 17 13 19 6 3 0 6 -15 6 -20 1 -26 -3 -22 -13z"/>
<path d="M5305 2711 c6 -20 -21 -34 -60 -32 -15 1 -16 -1 -7 -7 7 -5 12 -15
10 -23 -4 -17 29 -19 55 -5 9 6 17 19 17 29 0 11 9 21 20 24 16 4 18 8 9 19
-6 8 -20 14 -31 14 -14 0 -18 -5 -13 -19z"/>
<path d="M4847 2433 c-4 -3 -7 -11 -7 -17 0 -6 5 -5 12 2 6 6 9 14 7 17 -3 3
-9 2 -12 -2z"/>
<path d="M0 3194 l0 -305 22 7 c13 3 30 10 38 15 13 7 13 8 0 9 -9 0 -10 3 -5
9 13 12 154 35 221 35 35 1 50 5 47 13 -3 8 5 11 24 8 33 -4 45 17 88 155 14
47 46 122 71 168 43 77 115 161 140 162 6 0 17 7 24 15 11 13 -27 15 -329 15
l-341 0 0 -306z"/>
<path d="M815 3490 c3 -5 1 -10 -5 -10 -6 0 -9 -3 -6 -8 2 -4 -13 -16 -35 -26
-21 -11 -39 -23 -39 -28 0 -5 -4 -6 -10 -3 -5 3 -10 1 -10 -5 0 -6 10 -15 23
-20 21 -8 21 -9 -6 -9 -33 -1 -59 -23 -52 -44 4 -8 -4 -18 -17 -25 -13 -6 -17
-11 -10 -11 6 -1 12 -6 12 -12 0 -6 -5 -9 -12 -7 -6 2 -24 -8 -38 -24 -15 -15
-32 -28 -39 -28 -7 0 -9 -9 -5 -26 4 -17 2 -29 -7 -35 -9 -6 -10 -9 -2 -9 7 0
1 -12 -12 -26 -14 -15 -25 -31 -25 -35 0 -12 18 -11 25 1 4 6 15 8 25 5 10 -3
21 -1 25 5 3 5 16 11 28 11 17 1 18 2 5 6 -10 2 -18 9 -18 15 0 6 11 8 28 3
25 -6 26 -5 8 8 -17 13 -17 14 -2 20 10 4 14 11 11 17 -6 10 0 12 47 14 14 1
24 -2 22 -6 -9 -14 9 -9 27 8 10 9 25 14 34 11 18 -8 20 -28 3 -23 -7 1 -10 1
-5 -1 14 -9 7 -19 -28 -37 -27 -15 -32 -22 -24 -33 6 -7 21 -12 33 -12 17 1
17 2 4 6 -18 4 -25 23 -10 23 5 0 35 25 66 55 32 30 62 53 66 50 7 -4 26 11
106 85 12 11 26 20 33 20 20 0 63 52 50 60 -20 13 11 23 34 13 68 -31 99 -43
113 -43 19 0 114 -52 114 -62 0 -5 9 -8 20 -8 11 0 20 -4 20 -10 0 -5 16 -17
35 -26 19 -9 35 -20 35 -25 0 -5 6 -9 13 -9 23 0 80 -32 105 -57 12 -13 27
-21 34 -17 6 4 8 3 4 -4 -9 -15 28 -25 64 -17 21 5 32 14 37 33 4 16 2 27 -5
30 -7 2 -12 13 -12 25 -1 23 -21 57 -35 57 -4 0 -29 17 -55 38 -36 27 -47 42
-43 56 3 12 1 16 -6 12 -6 -4 -11 -2 -11 3 0 6 -3 10 -7 9 -5 0 -15 1 -23 5
-8 3 -27 8 -42 11 -16 4 -34 18 -42 34 -9 15 -15 21 -16 14 0 -8 -10 -12 -27
-10 -34 4 -41 25 -11 31 13 2 -109 5 -270 6 -193 1 -291 -2 -287 -9z m28 -182
c-2 -5 -3 -15 -3 -23 0 -8 -4 -15 -10 -15 -5 0 -7 7 -4 15 7 17 -7 20 -22 5
-6 -6 -10 -4 -11 8 -1 13 6 18 25 17 15 0 26 -3 25 -7z m-123 -18 c0 -5 -5
-10 -11 -10 -5 0 -7 5 -4 10 3 6 8 10 11 10 2 0 4 -4 4 -10z m-20 -24 c0 -3
-4 -8 -10 -11 -5 -3 -10 -1 -10 4 0 6 5 11 10 11 6 0 10 -2 10 -4z m128 -17
c10 -1 7 -4 -8 -8 -14 -5 -29 -5 -34 0 -5 4 -16 5 -25 3 -9 -2 -2 2 14 10 17
8 32 10 33 5 2 -5 11 -9 20 -10z m-98 -9 c0 -5 -15 -10 -32 -9 -28 0 -30 2
-13 9 28 12 45 12 45 0z"/>
<path d="M1549 3493 c29 -12 104 -74 137 -116 20 -23 42 -50 50 -60 8 -9 14
-21 14 -26 0 -4 11 -21 25 -37 13 -15 29 -40 34 -54 20 -53 51 -164 51 -182 0
-11 3 -17 8 -15 4 3 6 -38 6 -91 -1 -80 0 -87 6 -42 4 30 7 42 8 27 2 -32 21
-27 23 6 1 14 4 9 9 -13 7 -34 7 -34 9 13 0 27 -2 46 -6 44 -5 -3 -7 29 -7 71
1 63 0 73 -11 59 -11 -15 -13 -12 -19 24 -7 47 -3 57 17 41 14 -12 27 -7 27
10 0 5 -6 6 -12 3 -7 -4 -2 3 12 14 20 17 22 21 8 21 -27 0 -22 17 12 42 21
15 28 27 24 40 -3 11 -1 24 4 31 11 14 11 97 0 97 -15 0 -8 48 7 54 8 3 15 0
15 -7 1 -7 11 0 23 15 12 14 33 28 47 31 14 2 -101 5 -255 5 -154 0 -274 -2
-266 -5z"/>
<path d="M2115 3330 c19 -20 81 -38 93 -25 13 13 -40 45 -76 45 -34 0 -35 0
-17 -20z"/>
<path d="M2119 3296 c9 -11 9 -15 -1 -18 -11 -4 -11 -8 0 -21 11 -13 37 -16
70 -8 1 1 -13 15 -31 31 -36 31 -58 41 -38 16z"/>
<path d="M2962 3133 c7 -16 23 -37 35 -48 18 -17 22 -27 17 -52 -4 -20 -2 -33
7 -38 8 -6 10 -4 4 6 -6 10 -5 11 3 4 6 -6 13 -22 14 -35 2 -14 9 -31 16 -38
15 -16 16 -32 2 -32 -5 0 -10 5 -10 12 0 6 -2 9 -5 6 -4 -4 28 -72 63 -133 23
-40 72 -153 72 -166 0 -7 2 -10 5 -7 3 3 -8 59 -26 124 -30 113 -121 335 -140
342 -5 2 -9 13 -9 23 0 11 -4 17 -10 14 -5 -3 -15 5 -22 19 -6 14 -15 26 -19
26 -5 0 -3 -12 3 -27z"/>
<path d="M3110 3113 c0 -4 5 -15 10 -23 8 -13 10 -13 10 2 0 9 -4 20 -10 23
-5 3 -10 3 -10 -2z"/>
<path d="M715 3090 c-3 -6 1 -7 9 -4 18 7 21 14 7 14 -6 0 -13 -4 -16 -10z"/>
<path d="M540 3072 c-20 -16 -21 -19 -7 -25 10 -4 17 -1 17 5 0 6 8 17 18 24
9 7 12 14 6 14 -7 0 -22 -8 -34 -18z"/>
<path d="M2991 3054 c0 -11 3 -14 6 -6 3 7 2 16 -1 19 -3 4 -6 -2 -5 -13z"/>
<path d="M3140 3051 c0 -6 4 -13 10 -16 6 -3 7 1 4 9 -7 18 -14 21 -14 7z"/>
<path d="M2905 3020 c3 -5 8 -10 11 -10 2 0 4 5 4 10 0 6 -5 10 -11 10 -5 0
-7 -4 -4 -10z"/>
<path d="M2810 3001 c0 -5 7 -14 15 -21 8 -7 15 -16 15 -21 0 -5 27 -63 60
-131 33 -67 60 -127 60 -134 0 -7 5 -16 12 -20 23 -14 -2 55 -67 189 -36 75
-73 138 -81 141 -7 3 -14 2 -14 -3z"/>
<path d="M518 2993 c7 -3 16 -2 19 1 4 3 -2 6 -13 5 -11 0 -14 -3 -6 -6z"/>
<path d="M2940 2973 c0 -7 18 -54 39 -105 22 -51 52 -133 66 -183 22 -73 64
-210 91 -294 2 -8 7 -11 10 -9 3 3 -4 32 -16 64 -11 33 -30 97 -41 144 -11 47
-31 118 -45 158 -28 81 -103 244 -104 225z"/>
<path d="M2553 2837 c-13 -7 -23 -15 -23 -20 0 -4 -13 -20 -28 -36 -16 -15
-32 -38 -35 -52 -3 -13 -8 -34 -12 -46 -5 -16 -2 -23 14 -28 16 -5 27 1 46 23
14 16 33 32 44 35 18 4 18 3 -1 -40 -22 -50 -18 -71 5 -26 21 40 63 76 93 80
35 5 24 -9 -30 -36 -37 -19 -45 -29 -51 -60 -4 -20 -11 -42 -17 -48 -18 -22 7
-15 28 8 74 79 84 84 102 44 10 -21 19 -25 52 -25 29 0 43 -5 52 -20 24 -37
29 -20 7 23 -31 60 -78 129 -103 149 -22 18 -101 25 -110 9 -8 -12 -58 -11
-53 2 1 5 22 19 45 31 23 12 40 26 38 31 -4 14 -37 15 -63 2z"/>
<path d="M605 2809 c-4 -6 -5 -13 -2 -16 7 -7 27 6 27 18 0 12 -17 12 -25 -2z"/>
<path d="M3396 2800 c6 -22 5 -23 -10 -11 -21 17 -21 2 1 -43 12 -27 14 -41 6
-58 -10 -22 -10 -22 -28 12 -28 56 -45 71 -66 59 -14 -7 -19 -6 -19 3 0 8 -3
9 -10 2 -11 -11 21 -107 60 -184 23 -45 26 -65 8 -54 -8 5 -8 1 2 -12 22 -29
24 -30 17 -11 -4 9 -2 17 3 17 6 0 11 -4 11 -10 5 -39 4 -78 -2 -95 -7 -19 -8
-19 -8 2 -1 13 -12 44 -26 70 -13 27 -27 57 -31 68 -7 19 -8 19 -11 -1 -4 -19
34 -112 65 -164 5 -8 20 -35 33 -60 32 -62 82 -129 96 -129 14 -1 39 -41 35
-55 -3 -10 37 -56 49 -56 5 0 6 6 3 13 -3 8 2 14 11 14 13 0 16 -7 12 -26 -4
-20 1 -33 21 -51 18 -18 24 -20 19 -8 -3 10 -2 20 4 23 5 4 9 3 8 -2 -3 -18 1
-33 10 -33 17 0 20 59 6 151 -8 52 -14 103 -14 114 l0 20 9 -20 c5 -11 9 -33
10 -50 0 -16 7 -43 16 -60 l14 -30 -5 30 c-4 20 -3 25 3 16 8 -11 10 -11 15 0
2 8 8 -4 11 -26 23 -132 43 -185 69 -185 17 0 10 86 -19 234 -5 21 -3 27 6 21
8 -5 11 -3 8 6 -3 8 -10 13 -15 12 -5 -1 -10 12 -10 29 0 18 -5 34 -11 36 -7
2 -12 10 -12 19 0 17 -49 103 -59 103 -3 0 -12 14 -19 30 -8 17 -20 30 -27 30
-7 0 -15 6 -18 13 -2 6 -8 9 -12 5 -4 -4 0 -23 9 -42 9 -19 16 -36 16 -39 0
-3 16 -40 36 -82 20 -42 33 -79 30 -82 -3 -3 -13 11 -22 30 -10 20 -22 33 -27
30 -6 -4 -8 2 -5 15 4 12 2 22 -3 22 -5 0 -9 9 -9 20 0 10 -12 41 -28 67 -15
26 -36 65 -47 85 -10 21 -21 36 -23 33 -2 -2 1 -12 7 -23 6 -12 11 -27 11 -34
0 -19 -54 82 -76 142 -10 28 -24 56 -32 62 -10 9 -11 6 -2 -16 18 -50 9 -42
-15 13 -14 29 -22 57 -19 62 3 5 0 17 -6 26 -9 15 -10 14 -4 -7z m19 -119 c3
-5 1 -12 -5 -16 -5 -3 -10 1 -10 9 0 18 6 21 15 7z m170 -241 c9 -32 2 -25
-20 20 -13 27 -14 32 -2 20 8 -8 18 -26 22 -40z m-158 -122 c-3 -8 -6 -5 -6 6
-1 11 2 17 5 13 3 -3 4 -12 1 -19z m17 -34 c3 -8 2 -12 -4 -9 -6 3 -10 10 -10
16 0 14 7 11 14 -7z m186 -144 c0 -5 -5 -10 -11 -10 -5 0 -7 5 -4 10 3 6 8 10
11 10 2 0 4 -4 4 -10z"/>
<path d="M4041 2796 c-6 -7 -12 -59 -13 -115 -3 -88 -1 -99 9 -74 7 15 12 56
13 90 0 52 4 65 20 75 11 7 20 16 20 19 0 13 -40 17 -49 5z"/>
<path d="M337 2771 c-9 -16 -17 -46 -17 -68 l0 -38 21 45 c11 25 30 55 41 68
l21 22 -24 0 c-17 0 -30 -10 -42 -29z"/>
<path d="M631 2735 c-7 -20 -11 -39 -8 -41 7 -7 30 53 25 66 -2 6 -9 -5 -17
-25z"/>
<path d="M605 2740 c-3 -5 -1 -10 4 -10 6 0 11 5 11 10 0 6 -2 10 -4 10 -3 0
-8 -4 -11 -10z"/>
<path d="M2847 2699 c4 -13 8 -18 11 -10 2 7 -1 18 -6 23 -8 8 -9 4 -5 -13z"/>
<path d="M975 2671 c-24 -17 -26 -21 -12 -27 9 -3 17 -12 17 -20 0 -10 7 -13
25 -8 15 4 32 1 40 -6 10 -9 15 -9 15 -1 0 6 4 11 10 11 5 0 9 -9 7 -21 -1
-12 7 -27 20 -36 20 -14 24 -13 47 10 16 16 28 21 34 15 16 -16 2 -38 -24 -38
-13 0 -24 -4 -24 -10 0 -5 8 -10 18 -10 13 0 14 -2 3 -9 -15 -9 -7 -31 11 -31
6 0 20 -7 29 -16 16 -14 23 -15 48 -4 17 7 33 20 36 30 12 38 53 70 89 70 49
0 85 16 97 44 9 20 8 27 -10 45 l-21 21 -11 -21 c-10 -20 -17 -21 -83 -15 -39
4 -81 7 -93 7 -13 -1 -23 3 -23 8 0 4 -37 11 -82 15 -46 3 -94 9 -108 11 -16
4 -36 -2 -55 -14z m115 -21 c11 -7 6 -10 -20 -10 -26 0 -31 3 -20 10 8 5 17
10 20 10 3 0 12 -5 20 -10z"/>
<path d="M2130 2666 c0 -15 -21 -26 -51 -26 -22 0 -62 -58 -54 -78 3 -7 1 -21
-5 -31 -7 -15 -4 -20 23 -28 39 -12 57 -7 57 16 0 17 18 41 30 41 4 0 12 -11
18 -25 7 -15 20 -25 33 -25 19 0 20 2 8 18 -11 14 -11 15 1 5 15 -14 86 -18
94 -5 2 4 -4 26 -14 47 -10 22 -19 36 -19 31 -1 -5 -9 1 -20 12 -10 12 -24 22
-30 22 -7 0 -10 4 -7 9 3 4 -6 13 -20 20 -33 15 -44 14 -44 -3z m64 -54 c3 -5
-8 -6 -24 -4 -16 2 -43 -1 -60 -6 -28 -10 -45 0 -17 11 20 9 95 8 101 -1z m6
-52 c-19 -13 -30 -13 -30 0 0 6 10 10 23 10 18 0 19 -2 7 -10z"/>
<path d="M403 2650 c-46 -20 -58 -44 -44 -83 7 -18 19 -27 38 -29 19 -2 32
-12 41 -30 8 -17 21 -28 33 -28 30 0 22 25 -16 46 -29 16 -29 60 1 83 28 22
33 61 7 60 -10 0 -37 -9 -60 -19z"/>
<path d="M3780 2639 c0 -8 7 -24 15 -35 18 -24 19 -7 0 26 -9 16 -14 19 -15 9z"/>
<path d="M1518 2588 c-45 -69 -51 -97 -37 -169 13 -67 29 -78 29 -20 0 43 5
44 74 26 22 -6 32 -4 41 9 17 23 48 10 39 -17 -5 -15 -3 -19 10 -14 8 3 18 2
21 -4 9 -14 27 1 21 18 -3 8 -1 23 5 34 9 17 6 25 -16 45 -14 13 -29 24 -33
25 -4 0 -27 15 -52 33 -35 26 -45 39 -43 60 3 42 -21 31 -59 -26z"/>
<path d="M3660 2603 c0 -5 7 -18 15 -29 12 -16 14 -16 15 -3 0 9 -7 22 -15 29
-8 7 -15 8 -15 3z"/>
<path d="M4138 2603 c-13 -3 -16 -11 -11 -34 3 -17 0 -35 -7 -44 -11 -13 -10
-14 1 -10 24 11 61 65 55 80 -6 15 -8 16 -38 8z"/>
<path d="M3207 2553 c9 -27 19 -50 23 -53 4 -3 15 -29 25 -57 11 -29 22 -53
26 -53 11 0 -23 95 -56 158 -15 28 -29 52 -30 52 -2 0 3 -21 12 -47z"/>
<path d="M4260 2585 c0 -8 5 -15 10 -15 6 0 10 7 10 15 0 8 -4 15 -10 15 -5 0
-10 -7 -10 -15z"/>
<path d="M3730 2501 c0 -6 4 -13 10 -16 6 -3 7 1 4 9 -7 18 -14 21 -14 7z"/>
<path d="M3224 2447 c7 -30 22 -65 35 -87 5 -8 16 -30 23 -47 7 -18 19 -33 26
-33 9 0 10 5 3 19 -6 10 -7 21 -3 25 3 4 2 10 -3 14 -18 13 -54 70 -61 96 -3
14 -11 29 -17 33 -6 4 -8 -3 -3 -20z"/>
<path d="M3012 2434 c2 -5 12 -27 22 -49 35 -77 70 -144 73 -141 7 7 -75 190
-87 194 -7 3 -11 1 -8 -4z"/>
<path d="M3912 2410 c0 -14 2 -19 5 -12 2 6 2 18 0 25 -3 6 -5 1 -5 -13z"/>
<path d="M145 2369 c-40 -12 -78 -45 -69 -60 4 -8 3 -9 -4 -5 -7 4 -16 -4 -23
-21 -6 -15 -16 -38 -22 -50 -22 -48 60 -241 136 -322 l42 -44 -33 19 c-37 21
-90 86 -99 122 -7 31 -16 28 -32 -10 -12 -32 -13 -32 -21 -10 -5 12 -12 22
-14 22 -3 0 -6 -452 -6 -1005 l0 -1005 854 0 c669 0 854 3 851 13 -20 61 -6
273 35 522 10 59 45 145 81 197 11 14 19 33 19 42 0 9 5 16 11 16 8 0 8 5 -1
15 -7 9 -8 15 -2 15 5 0 12 7 16 15 5 13 2 14 -15 5 -32 -17 -85 4 -97 40 -8
23 -7 30 5 34 9 4 13 9 10 13 -10 9 -35 -16 -41 -40 -3 -12 -3 -1 -2 25 2 28
-1 49 -8 52 -7 3 -6 8 3 14 17 12 57 -1 53 -18 -1 -6 1 -9 6 -6 5 3 20 -6 32
-19 13 -14 20 -25 16 -25 -3 0 7 -13 24 -30 16 -16 30 -39 30 -52 0 -17 3 -19
12 -10 7 7 16 12 20 12 18 0 6 -22 -31 -59 -50 -50 -111 -179 -123 -261 -5
-36 -17 -103 -26 -150 -15 -82 -25 -302 -15 -341 5 -17 16 -19 134 -19 l129 0
6 28 c3 15 10 37 15 50 18 46 9 57 -16 17 -20 -33 -24 -36 -25 -18 0 12 9 46
20 74 12 28 19 54 16 56 -3 3 -19 -2 -36 -11 -18 -8 -48 -18 -69 -21 -35 -6
-36 -6 -13 11 12 9 22 22 22 29 0 7 10 19 21 27 18 12 20 17 10 35 -17 33 -13
88 8 114 18 23 20 23 38 6 11 -9 23 -14 26 -10 13 12 7 42 -9 51 -10 6 -14 14
-9 22 6 10 10 9 17 -4 14 -26 33 -19 46 18 12 32 42 58 42 36 0 -6 9 -5 20 2
11 7 20 17 20 22 0 4 -6 4 -12 -1 -7 -6 -21 -10 -30 -10 -14 0 -18 9 -18 41 0
47 12 72 30 61 7 -5 9 -20 5 -47 l-7 -41 21 20 c13 12 19 28 16 43 -14 91 -25
172 -30 215 -7 69 -16 117 -25 134 -5 9 0 22 12 35 29 31 70 116 64 133 -3 8
-1 11 4 8 6 -3 10 -2 10 4 0 6 -15 17 -34 26 -18 9 -56 39 -83 68 -28 29 -88
91 -135 140 l-85 87 -74 -72 c-117 -115 -138 -130 -168 -123 -28 6 -104 56
-134 87 -21 22 -20 24 50 96 23 24 46 41 52 37 7 -3 11 2 11 14 0 19 10 26 32
22 4 0 5 5 2 13 -3 8 0 17 5 21 6 3 8 11 5 17 -4 6 -3 9 2 5 5 -3 18 2 29 10
22 17 22 17 -45 -3 -23 -6 -23 -6 -7 10 21 21 21 30 2 46 -19 16 -19 26 -1 33
8 3 17 -1 20 -9 3 -9 1 -12 -4 -9 -6 3 -10 2 -10 -4 0 -21 22 -22 40 -1 20 23
40 20 40 -6 0 -8 7 -14 15 -14 26 0 17 -19 -35 -72 -27 -29 -47 -54 -44 -57 2
-3 27 19 54 47 51 53 70 63 70 37 0 -8 -3 -15 -8 -15 -4 0 -13 -10 -21 -22
l-14 -23 25 23 c31 28 52 29 45 1 -4 -15 -2 -19 9 -15 8 3 14 2 14 -3 0 -5 10
-11 21 -14 21 -6 21 -5 -2 21 -13 15 -28 32 -34 37 -6 6 -26 30 -45 55 -19 24
-42 52 -50 61 -32 36 -114 131 -125 146 -7 9 -16 14 -22 12 -9 -4 -143 -163
-178 -213 -7 -10 -18 -17 -24 -15 -7 3 1 19 18 39 31 37 32 67 1 50 -9 -5 -23
-31 -30 -57 -7 -26 -15 -42 -17 -35 -3 6 -11 12 -18 12 -7 0 -16 6 -18 13 -4
7 -6 6 -6 -4 -1 -9 -10 -19 -20 -22 -13 -3 -18 0 -15 8 3 7 1 16 -5 20 -6 3
-11 -2 -11 -12 0 -15 -2 -16 -10 -3 -8 12 -10 12 -11 -5 0 -11 -3 -15 -5 -8
-6 13 -35 6 -46 -11 -5 -7 -8 -7 -8 2 0 6 -5 12 -11 12 -6 0 -9 -6 -6 -14 3
-8 -2 -16 -13 -19 -11 -3 -21 1 -24 9 -4 11 -20 13 -63 10 -64 -4 -113 10
-113 34 0 13 -1 13 -10 0 -9 -13 -11 -13 -20 0 -5 8 -10 11 -10 7 0 -9 -60 48
-60 57 0 3 -17 23 -39 44 -41 39 -67 80 -57 90 3 3 0 12 -8 21 -19 22 -26 59
-12 65 6 2 3 5 -6 5 -12 1 -15 6 -11 19 3 9 3 14 -1 10 -4 -3 -22 10 -40 29
-18 20 -42 37 -54 38 -11 0 -27 7 -36 14 -9 8 -16 10 -16 7 0 -4 -9 -2 -21 4
-13 8 -24 8 -32 2 -20 -17 -56 22 -73 79 -13 43 -14 66 -5 132 19 139 29 127
-101 126 -62 0 -126 -5 -143 -10z m-77 -391 c-2 -6 -10 -14 -16 -16 -7 -2 -10
2 -6 12 7 18 28 22 22 4z m-38 -22 c0 -3 -4 -8 -10 -11 -5 -3 -10 -1 -10 4 0
6 5 11 10 11 6 0 10 -2 10 -4z m30 -16 c0 -5 -4 -10 -10 -10 -5 0 -10 5 -10
10 0 6 5 10 10 10 6 0 10 -4 10 -10z m45 -20 c3 -6 -1 -7 -9 -4 -18 7 -21 14
-7 14 6 0 13 -4 16 -10z m-60 -39 c3 -6 -3 -9 -14 -8 -11 0 -17 5 -15 9 7 11
22 10 29 -1z m360 -117 l30 -25 -32 15 c-17 9 -35 20 -38 26 -11 18 10 10 40
-16z m-280 -22 c-8 -9 -25 20 -18 31 3 5 10 2 15 -7 6 -10 7 -20 3 -24z m55
-24 c-1 -18 -29 -66 -30 -50 0 7 5 22 10 33 8 14 7 25 -5 41 -22 33 -18 45 5
15 11 -14 20 -31 20 -39z m285 12 c3 -5 2 -10 -4 -10 -5 0 -13 5 -16 10 -3 6
-2 10 4 10 5 0 13 -4 16 -10z m1142 -22 c-3 -8 -6 -5 -6 6 -1 11 2 17 5 13 3
-3 4 -12 1 -19z m36 -22 c4 -10 1 -13 -9 -9 -15 6 -19 23 -5 23 5 0 11 -7 14
-14z m-1103 -20 c0 -8 -4 -18 -10 -21 -5 -3 -10 3 -10 14 0 12 5 21 10 21 6 0
10 -6 10 -14z m1050 -43 c0 -3 -9 -16 -20 -30 -11 -14 -20 -23 -20 -19 0 10
-26 -16 -33 -34 -3 -8 -5 -2 -3 15 2 21 9 31 27 36 13 4 18 7 11 8 -9 1 -10 5
0 20 10 16 38 19 38 4z m-1542 -61 c2 -7 -2 -10 -12 -6 -9 3 -16 11 -16 16 0
13 23 5 28 -10z m1012 14 c0 -11 -19 -15 -25 -6 -3 5 1 10 9 10 9 0 16 -2 16
-4z m530 -35 c0 -20 -25 -35 -41 -25 -13 8 -11 32 4 37 25 11 37 7 37 -12z
m-44 -32 c8 -13 -21 -32 -50 -34 -18 -2 -18 -1 -1 11 10 7 23 11 28 7 6 -4 8
0 4 10 -7 19 8 23 19 6z m-1099 -21 c-3 -8 -6 -5 -6 6 -1 11 2 17 5 13 3 -3 4
-12 1 -19z m-12 -75 c-10 -40 -17 -20 -9 23 5 24 9 32 12 21 2 -10 1 -30 -3
-44z m1035 16 c0 -6 -4 -7 -10 -4 -5 3 -10 11 -10 16 0 6 5 7 10 4 6 -3 10
-11 10 -16z m-1140 -117 c0 -7 -4 -10 -10 -7 -5 3 -10 16 -10 28 0 18 2 19 10
7 5 -8 10 -21 10 -28z m99 -57 c0 -5 -4 -3 -9 5 -5 8 -9 22 -9 30 0 16 17 -16
18 -35z m40 -205 c0 -36 -3 -83 -7 -104 -4 -23 -7 20 -7 104 0 84 3 127 7 104
4 -21 7 -68 7 -104z m1213 37 c-23 -11 -92 -136 -92 -168 0 -11 -4 -19 -9 -19
-13 0 0 44 34 110 32 65 64 102 78 93 6 -4 1 -11 -11 -16z m-1305 7 c-3 -3
-12 -4 -19 -1 -8 3 -5 6 6 6 11 1 17 -2 13 -5z m0 -20 c-3 -3 -12 -4 -19 -1
-8 3 -5 6 6 6 11 1 17 -2 13 -5z m-242 -24 c3 -5 -1 -10 -9 -10 -9 0 -16 5
-16 10 0 6 4 10 9 10 6 0 13 -4 16 -10z m245 -10 c0 -11 -6 -20 -12 -20 -9 0
-8 -4 2 -10 13 -8 12 -10 -2 -10 -11 0 -18 8 -18 20 0 11 6 20 13 20 8 0 7 4
-3 10 -13 8 -12 10 3 10 10 0 17 -8 17 -20z m56 -75 c-7 -27 -26 -35 -26 -10
0 16 22 46 29 39 2 -1 1 -15 -3 -29z m-59 19 c-3 -3 -12 -4 -19 -1 -8 3 -5 6
6 6 11 1 17 -2 13 -5z m-10 -40 c-3 -3 -12 -4 -19 -1 -8 3 -5 6 6 6 11 1 17
-2 13 -5z m80 -76 c-3 -7 -5 -2 -5 12 0 14 2 19 5 13 2 -7 2 -19 0 -25z m1141
-41 c4 -57 -8 -187 -17 -187 -4 0 -5 21 -1 48 5 26 6 77 4 115 -2 37 -1 67 3
67 5 0 9 -19 11 -43z m132 23 c0 -5 -4 -10 -10 -10 -5 0 -10 5 -10 10 0 6 5
10 10 10 6 0 10 -4 10 -10z m0 -30 c0 -5 -2 -10 -4 -10 -3 0 -8 5 -11 10 -3 6
-1 10 4 10 6 0 11 -4 11 -10z m100 -20 c-19 -13 -30 -13 -30 0 0 6 10 10 23
10 18 0 19 -2 7 -10z m-60 -95 c0 -12 -19 -12 -23 0 -4 9 -1 12 9 8 7 -3 14
-7 14 -8z m206 -11 c-19 -18 -26 -18 -26 2 0 8 5 12 10 9 6 -3 10 -1 10 5 0 6
5 8 10 5 6 -4 5 -12 -4 -21z m-196 -36 c0 -6 -6 -5 -15 2 -8 7 -15 14 -15 16
0 2 7 1 15 -2 8 -4 15 -11 15 -16z m-1453 -4 c-3 -3 -12 -4 -19 -1 -8 3 -5 6
6 6 11 1 17 -2 13 -5z m-10 -20 c-3 -3 -12 -4 -19 -1 -8 3 -5 6 6 6 11 1 17
-2 13 -5z m3 -24 c0 -13 -11 -13 -30 0 -12 8 -11 10 8 10 12 0 22 -4 22 -10z
m1260 -44 c-3 -24 -5 -66 -4 -95 4 -56 -10 -71 -15 -18 -5 47 -4 82 3 122 10
51 24 43 16 -9z m150 29 c0 -8 -4 -15 -10 -15 -5 0 -10 7 -10 15 0 8 5 15 10
15 6 0 10 -7 10 -15z m-1420 -11 c0 -2 -7 -4 -15 -4 -8 0 -15 4 -15 10 0 5 7
7 15 4 8 -4 15 -8 15 -10z m621 -162 c-5 -15 -13 -46 -16 -70 -4 -23 -11 -40
-16 -36 -5 3 -4 14 2 26 6 12 9 39 6 61 -4 27 -2 36 4 26 6 -10 9 -10 10 -1 1
6 3 17 4 22 1 6 4 18 5 28 2 12 4 10 7 -6 3 -13 0 -36 -6 -50z m32 -49 c4 -18
3 -33 -1 -33 -4 0 -9 17 -10 37 -3 44 3 42 11 -4z m597 -90 c-12 -21 -18 -29
-15 -18 4 11 12 40 18 65 10 38 12 41 15 18 2 -15 -6 -44 -18 -65z m232 -135
c-7 -7 -12 -8 -12 -2 0 14 12 26 19 19 2 -3 -1 -11 -7 -17z m51 0 c-12 -13
-23 -32 -25 -43 -4 -19 -4 -19 -16 3 -10 18 -10 22 1 22 8 0 22 9 32 20 10 11
20 20 23 20 3 0 -4 -10 -15 -22z m-18 -88 c10 -11 16 -20 13 -20 -3 0 -13 9
-23 20 -10 11 -16 20 -13 20 3 0 13 -9 23 -20z"/>
<path d="M3150 2357 c-1 -41 131 -327 151 -327 5 0 2 12 -8 28 -22 32 -82 161
-117 252 -14 36 -25 57 -26 47z"/>
<path d="M3941 2330 c-1 -20 -3 -22 -11 -10 -16 25 -23 -15 -16 -87 4 -36 9
-97 12 -137 3 -39 9 -97 14 -130 5 -32 8 -61 7 -65 -2 -10 55 -93 91 -131 36
-38 65 -94 77 -150 4 -19 15 -48 23 -65 9 -16 15 -34 14 -38 -3 -12 27 -67 37
-67 5 0 11 -11 13 -25 3 -14 2 -25 -2 -25 -4 0 -4 -17 2 -37 5 -21 9 -50 9
-65 -1 -30 18 -39 21 -10 0 9 3 28 5 42 21 143 13 220 -33 317 -13 28 -24 59
-24 69 0 13 -3 14 -15 4 -13 -11 -15 -8 -15 21 0 23 -6 38 -20 47 -15 9 -20
23 -20 55 -1 40 -1 41 -14 18 l-13 -23 -7 32 c-3 18 -6 43 -6 56 0 14 -4 32
-9 42 -11 21 -27 61 -35 85 -3 10 -10 15 -16 12 -7 -4 -9 14 -6 51 3 41 1 53
-6 41 -5 -10 -7 -27 -3 -40 3 -12 -3 -4 -15 17 -11 22 -18 42 -15 44 3 3 5 0
5 -6 0 -7 4 -12 10 -12 6 0 6 9 0 25 -5 14 -7 32 -4 40 4 8 0 22 -7 31 -7 9
-16 34 -20 57 -4 26 -7 32 -8 17z"/>
<path d="M2966 2307 c4 -10 0 -25 -7 -35 -23 -27 -49 -79 -49 -95 0 -8 -9 -26
-21 -40 -15 -21 -19 -34 -13 -62 3 -19 12 -35 19 -35 7 0 16 -7 19 -16 10 -25
7 -82 -4 -89 -12 -7 -13 -55 -2 -71 4 -6 17 -13 30 -16 17 -5 22 -2 22 13 0
34 24 99 37 99 15 0 26 17 27 41 1 11 5 19 10 18 5 0 12 5 17 12 5 8 10 -1 14
-25 4 -20 5 -40 1 -43 -3 -4 -6 5 -7 18 -1 22 -2 21 -10 -6 -5 -16 -7 -43 -3
-60 4 -23 3 -26 -5 -15 -9 12 -11 12 -11 1 0 -8 -10 -34 -22 -59 -24 -47 -54
-67 -76 -49 -11 8 -18 5 -33 -13 -10 -14 -19 -31 -19 -37 0 -7 -4 -13 -10 -13
-5 0 -10 -6 -10 -14 0 -7 -8 -17 -17 -20 -56 -21 -91 -49 -165 -134 -36 -41
-71 -58 -136 -67 -32 -4 -50 -11 -46 -17 11 -17 -43 0 -84 26 -28 18 -43 38
-61 86 -27 67 -79 156 -87 147 -8 -8 15 -120 26 -127 19 -12 60 -130 61 -177
1 -88 18 -95 18 -8 1 49 5 75 10 66 7 -11 9 -11 13 0 3 8 7 -25 11 -74 8 -113
36 -268 48 -261 5 3 9 -8 9 -25 0 -16 9 -45 19 -63 10 -18 22 -47 26 -65 9
-44 25 -56 58 -40 32 15 35 37 5 37 -30 0 -13 15 37 35 38 14 38 15 9 12 -27
-3 -32 0 -31 17 1 12 -2 39 -6 61 -4 27 -4 34 3 20 5 -11 9 -30 9 -43 1 -15 5
-21 13 -16 7 4 8 3 4 -4 -17 -27 46 -9 104 30 l63 41 -6 81 c-7 92 3 124 27
91 9 -11 16 -25 16 -31 0 -6 13 -25 30 -44 27 -30 32 -32 55 -22 32 15 38 15
29 1 -4 -8 0 -8 15 0 24 13 28 23 6 15 -8 -4 -15 -1 -15 5 0 10 14 15 33 12 4
0 56 24 115 54 60 30 114 55 121 55 8 0 11 6 7 16 -3 9 -2 12 4 9 6 -4 26 3
45 15 40 25 44 30 15 23 -14 -4 -20 0 -20 11 0 9 1 18 3 20 1 3 -7 15 -18 28
-22 24 -65 108 -65 125 0 6 -7 16 -15 23 -10 8 -15 30 -15 62 0 44 -2 49 -15
38 -12 -10 -15 -10 -15 3 0 9 4 18 9 22 5 3 8 45 7 93 -3 96 -40 226 -102 357
-32 69 -72 132 -58 92z m-539 -939 c-3 -7 -5 -2 -5 12 0 14 2 19 5 13 2 -7 2
-19 0 -25z m22 -80 c-1 -37 -2 -39 -9 -18 -12 36 -12 60 0 60 6 0 10 -19 9
-42z"/>
<path d="M2390 2300 c-13 -9 -13 -11 0 -20 18 -11 39 5 24 20 -6 6 -15 6 -24
0z"/>
<path d="M3380 2285 c0 -13 62 -96 67 -91 3 3 -7 24 -22 46 -28 40 -45 57 -45
45z"/>
<path d="M2458 2230 c-20 -20 -41 -30 -79 -35 -36 -5 -59 -15 -75 -32 -13 -14
-27 -22 -31 -20 -5 3 -15 2 -23 -3 -13 -8 -12 -12 5 -25 11 -8 28 -13 39 -11
10 3 29 -2 42 -11 17 -10 28 -12 37 -5 6 5 33 12 59 14 26 3 59 13 73 22 23
15 26 23 23 63 -2 33 -9 49 -23 58 -18 12 -23 10 -47 -15z"/>
<path d="M4709 2211 c-20 -9 -44 -23 -53 -31 -20 -16 -99 -136 -109 -165 l-7
-20 15 20 c38 49 139 144 164 155 16 6 33 22 39 36 14 29 4 30 -49 5z"/>
<path d="M1260 2185 c-17 -21 -7 -29 35 -29 44 0 55 12 31 30 -26 18 -50 18
-66 -1z"/>
<path d="M1444 2139 c-3 -6 -15 -8 -25 -6 -13 4 -31 -6 -54 -30 -19 -20 -35
-40 -35 -45 0 -4 -6 -7 -12 -5 -8 1 -12 -6 -10 -18 6 -32 20 -40 40 -22 23 21
29 21 48 2 9 -8 22 -15 31 -15 13 0 13 3 3 15 -9 11 -9 15 -1 15 7 0 9 5 6 11
-4 5 -4 21 -1 35 9 36 50 30 54 -8 5 -43 19 -33 26 19 3 25 5 47 4 48 -13 9
-69 12 -74 4z"/>
<path d="M4803 2133 c-22 -8 -14 -21 18 -32 41 -14 49 -14 49 2 0 11 -43 40
-53 36 -1 0 -8 -3 -14 -6z"/>
<path d="M1200 2045 c0 -16 6 -25 15 -25 18 0 20 16 3 23 -10 4 -10 6 0 6 17
1 15 21 -3 21 -9 0 -15 -9 -15 -25z"/>
<path d="M1240 2062 c0 -5 9 -17 20 -27 11 -10 20 -13 20 -7 0 7 -4 12 -10 12
-5 0 -10 7 -10 15 0 8 -4 15 -10 15 -5 0 -10 -4 -10 -8z"/>
<path d="M36 2043 c-6 -14 -5 -15 5 -6 7 7 10 15 7 18 -3 3 -9 -2 -12 -12z"/>
<path d="M1165 2050 c3 -5 8 -10 11 -10 2 0 4 5 4 10 0 6 -5 10 -11 10 -5 0
-7 -4 -4 -10z"/>
<path d="M1075 2040 c-3 -5 -2 -10 4 -10 5 0 13 5 16 10 3 6 2 10 -4 10 -5 0
-13 -4 -16 -10z"/>
<path d="M3191 2037 c-1 -4 21 -74 48 -155 27 -81 52 -162 56 -179 4 -18 11
-33 15 -33 5 0 14 -18 20 -40 6 -22 15 -40 20 -40 6 0 10 -6 10 -13 0 -24 97
-97 152 -116 50 -16 140 -22 153 -9 3 3 -9 8 -27 12 -18 3 -54 17 -80 31 -27
14 -50 25 -53 25 -3 0 -9 0 -14 0 -32 0 -186 208 -168 226 3 3 8 -3 11 -14 9
-28 66 -98 66 -81 0 22 -73 130 -81 118 -3 -6 -12 5 -19 23 -42 114 -108 260
-109 245z"/>
<path d="M1502 2005 c0 -16 2 -22 5 -12 2 9 2 23 0 30 -3 6 -5 -1 -5 -18z"/>
<path d="M3681 2014 c0 -11 3 -14 6 -6 3 7 2 16 -1 19 -3 4 -6 -2 -5 -13z"/>
<path d="M3141 2004 c0 -11 3 -14 6 -6 3 7 2 16 -1 19 -3 4 -6 -2 -5 -13z"/>
<path d="M3310 2013 c0 -6 8 -17 18 -24 16 -13 16 -13 2 6 -8 11 -16 22 -17
24 -2 2 -3 0 -3 -6z"/>
<path d="M2707 2002 c-9 -2 -15 -7 -12 -11 6 -10 -87 -29 -172 -35 -34 -3 -76
-12 -92 -20 -17 -9 -48 -16 -69 -16 -49 0 -66 -18 -52 -54 7 -19 15 -26 28
-22 95 29 180 47 235 51 37 2 67 2 67 0 0 -9 -71 -46 -79 -41 -11 7 -61 -13
-61 -24 0 -12 -87 -33 -101 -25 -7 5 -10 3 -7 -6 16 -47 201 20 308 111 30 26
65 52 78 59 12 6 22 16 22 20 0 10 -65 18 -93 13z"/>
<path d="M1470 1983 c0 -10 -5 -25 -10 -33 -9 -13 -11 -13 -19 -1 -13 20 -245
28 -269 9 -11 -9 -14 -9 -9 -1 6 9 -7 11 -56 6 -43 -4 -67 -2 -71 6 -10 15
-47 13 -70 -4 -27 -21 -10 -38 31 -30 40 7 122 -11 171 -37 18 -10 39 -18 47
-18 8 0 15 -4 15 -8 0 -12 121 -13 167 -1 23 6 41 16 40 22 -1 7 8 13 19 15
22 3 34 27 34 70 0 12 -4 22 -10 22 -5 0 -10 -8 -10 -17z"/>
<path d="M3747 1949 c4 -13 8 -18 11 -10 2 7 -1 18 -6 23 -8 8 -9 4 -5 -13z"/>
<path d="M3775 1960 c3 -5 8 -10 11 -10 2 0 4 5 4 10 0 6 -5 10 -11 10 -5 0
-7 -4 -4 -10z"/>
<path d="M3911 1944 c0 -11 3 -14 6 -6 3 7 2 16 -1 19 -3 4 -6 -2 -5 -13z"/>
<path d="M4527 1903 c-11 -10 -8 -43 3 -43 6 0 10 11 10 25 0 26 -2 29 -13 18z"/>
<path d="M5840 1851 c0 -5 5 -13 10 -16 6 -3 10 -2 10 4 0 5 -4 13 -10 16 -5
3 -10 2 -10 -4z"/>
<path d="M4515 1840 c-3 -5 -1 -10 4 -10 6 0 11 5 11 10 0 6 -2 10 -4 10 -3 0
-8 -4 -11 -10z"/>
<path d="M5755 1830 c4 -14 25 -58 46 -99 22 -40 39 -79 39 -86 0 -8 8 -11 20
-8 16 4 18 11 13 31 -3 15 -15 35 -25 46 -10 11 -18 23 -18 26 0 4 -18 31 -41
61 -27 35 -39 45 -34 29z"/>
<path d="M1189 1830 c-52 -6 -111 -44 -102 -66 3 -8 13 -14 24 -14 10 0 27 -9
38 -21 15 -17 23 -19 39 -10 15 8 23 7 30 -2 6 -7 25 -14 42 -15 17 -1 36 -3
43 -5 6 -1 13 9 15 23 2 14 7 29 11 33 5 4 6 18 4 30 -6 29 -81 54 -144 47z"/>
<path d="M2945 1810 c-3 -5 -1 -10 4 -10 6 0 11 5 11 10 0 6 -2 10 -4 10 -3 0
-8 -4 -11 -10z"/>
<path d="M5710 1695 c0 -3 9 -25 20 -47 11 -23 20 -45 20 -49 0 -5 12 -29 27
-54 28 -46 49 -60 38 -26 -6 19 18 41 44 41 28 0 91 -88 91 -128 0 -21 -18
-42 -36 -42 -7 0 -26 12 -43 26 l-31 26 0 -29 c0 -16 -9 -48 -21 -72 -18 -38
-19 -45 -6 -64 14 -22 27 -90 35 -190 2 -14 6 -16 21 -7 27 14 34 13 27 -5 -3
-8 -1 -15 3 -15 12 0 18 18 26 76 9 62 29 153 49 224 17 61 21 104 8 82 -6 -9
-16 2 -31 35 -13 26 -27 56 -32 66 -6 10 -7 22 -4 27 4 6 1 10 -6 10 -8 0 -10
11 -6 35 5 31 4 33 -9 21 -7 -8 -12 -21 -9 -29 6 -14 -8 -30 -36 -40 -12 -4
-15 0 -11 19 4 23 4 23 -27 8 -37 -18 -56 -11 -39 15 9 15 6 25 -17 55 -24 32
-45 46 -45 31z"/>
<path d="M3883 1664 c-10 -21 -9 -24 9 -24 10 0 16 -5 13 -10 -4 -6 -11 -8
-16 -5 -5 4 -9 1 -9 -4 0 -7 23 -11 56 -11 36 0 53 4 49 10 -4 7 3 8 21 4 19
-5 25 -4 20 5 -4 6 -1 11 6 11 26 0 -68 41 -102 45 -29 3 -37 -1 -47 -21z"/>
<path d="M5522 1674 c10 -10 20 -15 24 -12 3 4 -5 12 -18 18 -22 12 -22 12 -6
-6z"/>
<path d="M3420 1667 c0 -2 9 -14 20 -27 22 -26 27 -15 6 13 -12 15 -26 23 -26
14z"/>
<path d="M5560 1648 c0 -7 9 -37 20 -66 11 -29 21 -64 22 -78 3 -27 13 -32 21
-10 3 8 -3 31 -14 52 -22 44 -24 65 -7 82 14 14 11 17 -19 26 -16 5 -23 3 -23
-6z"/>
<path d="M1650 1615 c0 -2 10 -10 23 -16 20 -11 21 -11 8 4 -13 16 -31 23 -31
12z"/>
<path d="M3500 1611 c0 -13 28 -33 41 -29 6 2 0 12 -15 21 -14 10 -26 13 -26
8z"/>
<path d="M3680 1569 c-52 -3 -83 -6 -69 -7 14 -1 45 -9 70 -17 52 -17 88 -23
148 -24 24 -1 42 -3 40 -6 -8 -8 -180 -12 -225 -5 -35 5 -42 4 -33 -6 5 -7 42
-18 82 -24 40 -6 80 -16 89 -21 10 -5 19 -5 23 1 3 6 23 10 43 10 29 0 34 3
22 11 -11 8 -8 9 13 4 18 -3 26 -2 23 4 -8 12 14 27 23 15 11 -16 74 -14 93 3
16 14 20 14 43 -1 13 -9 32 -27 41 -41 24 -37 34 -30 19 12 -26 76 -78 96
-255 97 -52 1 -138 -2 -190 -5z"/>
<path d="M1664 1488 l-19 -23 23 19 c21 18 27 26 19 26 -2 0 -12 -10 -23 -22z"/>
<path d="M1830 1480 c0 -5 5 -10 11 -10 5 0 7 5 4 10 -3 6 -8 10 -11 10 -2 0
-4 -4 -4 -10z"/>
<path d="M1592 1473 c-7 -2 -17 -13 -22 -24 -8 -14 -7 -17 2 -14 11 4 45 47
36 44 -2 0 -9 -3 -16 -6z"/>
<path d="M3947 1451 c-16 -6 -14 -11 17 -39 20 -18 36 -36 36 -41 0 -11 71
-81 83 -81 5 0 7 17 4 40 -3 23 -1 38 4 34 5 -3 9 -14 9 -24 0 -10 4 -21 9
-24 17 -11 9 69 -10 100 -24 40 -98 57 -152 35z"/>
<path d="M3836 1427 c-27 -7 -51 -17 -53 -22 -4 -13 81 -37 85 -25 2 5 10 6
19 3 11 -4 14 -2 9 5 -4 7 -3 12 3 12 5 0 12 -6 14 -12 3 -7 6 -4 6 8 1 19
-16 45 -28 43 -4 0 -28 -6 -55 -12z"/>
<path d="M3284 1405 c-18 -13 -18 -14 4 -8 12 3 25 9 28 14 8 14 -10 11 -32
-6z"/>
<path d="M3700 1390 c-13 -8 -13 -10 2 -10 9 0 20 -5 23 -11 9 -13 -57 -4 -87
12 -34 18 -31 2 4 -20 18 -12 47 -33 63 -47 l30 -27 -30 18 c-16 11 -50 32
-76 47 -36 23 -119 45 -119 31 0 -1 17 -11 38 -22 20 -10 55 -36 78 -57 22
-22 31 -32 20 -24 -12 8 -23 17 -26 20 -20 21 -95 56 -85 40 3 -5 -9 -17 -27
-26 -23 -11 -39 -29 -51 -57 -29 -70 -20 -86 41 -78 6 1 20 -3 30 -8 15 -9 15
-10 -5 -11 -27 0 -40 -18 -19 -26 10 -4 16 -18 16 -36 0 -26 2 -29 15 -18 20
17 45 5 45 -20 0 -12 -4 -19 -10 -15 -15 9 -52 -35 -47 -56 4 -15 0 -19 -20
-19 -25 0 -26 0 -8 20 21 24 14 27 -9 4 -9 -8 -16 -31 -16 -49 0 -19 -5 -37
-12 -41 -8 -5 -7 -10 4 -18 17 -13 19 -56 1 -56 -7 0 -22 -13 -35 -30 -12 -16
-28 -30 -36 -30 -12 0 -12 -3 -1 -16 10 -13 10 -17 0 -24 -8 -4 -11 -13 -7
-18 4 -6 -2 -16 -13 -21 -20 -11 -37 -46 -33 -68 2 -7 -1 -13 -7 -13 -5 0 -7
-8 -4 -19 3 -12 -2 -20 -14 -24 -10 -3 -36 -17 -58 -30 -22 -13 -71 -29 -110
-36 -151 -26 -226 -45 -242 -63 -15 -17 -15 -18 7 -18 12 0 61 4 109 10 47 5
140 14 206 20 66 7 166 23 222 36 106 25 213 41 213 31 0 -15 -219 -72 -310
-80 -25 -2 -52 -7 -60 -10 -8 -3 -53 -17 -100 -30 -47 -14 -114 -37 -150 -53
-36 -15 -128 -42 -205 -61 -126 -31 -195 -57 -182 -69 2 -2 26 0 53 5 27 5
101 17 164 26 63 9 157 25 207 36 120 25 233 35 233 22 0 -19 -25 -32 -114
-61 -106 -34 -97 -42 49 -42 105 0 199 14 223 33 7 5 15 7 18 4 4 -3 23 4 43
17 42 26 104 50 96 36 -4 -6 -1 -10 4 -10 6 0 11 5 11 10 0 6 6 10 13 10 6 -1
-10 -21 -36 -45 -32 -29 -53 -42 -64 -38 -11 4 -14 3 -9 -6 6 -8 2 -11 -10 -9
-11 2 -18 -2 -17 -8 1 -8 -6 -10 -19 -6 -14 3 -19 1 -14 -6 4 -7 1 -12 -8 -12
-9 0 -16 -5 -16 -11 0 -5 -4 -8 -8 -5 -5 3 -15 -6 -22 -19 -7 -14 -35 -39 -62
-56 -26 -17 -48 -36 -48 -41 0 -6 -9 -8 -20 -5 -12 3 -18 1 -14 -5 4 -6 0 -14
-7 -19 -9 -6 -10 -9 -2 -9 10 0 46 23 164 109 10 7 19 10 19 5 0 -5 -25 -27
-56 -49 -97 -70 -122 -65 359 -65 l435 0 1 56 c0 37 -5 61 -14 71 -15 15 -18
36 -15 109 1 26 -4 45 -14 53 -9 8 -16 23 -16 36 0 24 -15 77 -32 112 -6 12
-8 40 -5 62 5 43 -7 65 -18 31 -4 -11 -11 -17 -17 -14 -6 4 -14 0 -20 -7 -7
-11 -9 -9 -7 6 3 42 -2 49 -16 20 -13 -29 -13 -29 -14 -5 -1 14 13 52 30 84
35 65 35 73 1 207 l-19 77 39 -3 c40 -3 68 -19 68 -40 0 -6 10 -32 23 -56 22
-44 25 -61 14 -89 -17 -46 -14 -86 8 -114 19 -24 25 -27 44 -17 16 9 21 9 21
-1 0 -7 5 -5 11 6 11 18 5 159 -9 194 -3 10 14 1 40 -20 26 -21 49 -38 53 -38
3 0 25 -13 48 -29 23 -15 62 -38 87 -51 25 -12 48 -27 51 -33 4 -5 12 -6 18
-3 8 5 4 17 -11 39 -12 18 -26 34 -31 36 -4 2 -12 14 -17 26 -5 13 -33 39 -62
58 -58 37 -188 159 -207 194 -17 34 -13 38 13 12 38 -37 86 -72 86 -61 0 5 -9
17 -21 28 -12 11 -18 26 -15 37 3 13 -9 33 -41 63 -24 24 -49 44 -55 44 -6 0
-42 31 -82 68 -136 132 -198 184 -234 199 -77 32 -87 36 -98 38 -6 2 -20 5
-30 9 -11 3 -26 1 -34 -4z m-175 -129 c-3 -6 -11 -11 -17 -11 -6 0 -6 6 2 15
14 17 26 13 15 -4z m208 -87 c20 -29 37 -58 37 -65 0 -14 50 -152 116 -321 37
-96 38 -98 26 -98 -5 0 -17 28 -27 63 -10 34 -29 83 -42 110 -13 26 -37 89
-54 140 -17 50 -49 126 -71 167 -43 81 -41 82 15 4z m71 -90 c3 -8 2 -12 -4
-9 -6 3 -10 10 -10 16 0 14 7 11 14 -7z m130 -484 c1 -20 6 -43 11 -49 4 -7 3
-17 -3 -23 -9 -9 -33 93 -31 138 1 30 19 -21 23 -66z m107 43 c-12 -20 -14
-14 -5 12 4 9 9 14 11 11 3 -2 0 -13 -6 -23z m-98 -224 l-8 -84 -5 75 c-4 65
4 110 17 97 2 -3 0 -42 -4 -88z m-93 27 c0 -2 -8 -10 -17 -17 -16 -13 -17 -12
-4 4 13 16 21 21 21 13z m-40 -39 c0 -2 -17 -19 -37 -38 l-38 -34 34 38 c33
34 41 42 41 34z m-197 -44 c-13 -2 -23 -8 -23 -13 0 -12 -58 -30 -75 -24 -36
14 19 43 80 42 22 0 30 -3 18 -5z m52 -100 c-52 -46 -100 -83 -109 -83 -4 0
25 27 66 60 81 66 105 80 43 23z m-135 -108 c-7 -8 -17 -15 -22 -15 -6 0 -5 7
2 15 7 8 17 15 22 15 6 0 5 -7 -2 -15z"/>
<path d="M5596 1355 c-3 -8 -1 -15 4 -15 6 0 10 7 10 15 0 8 -2 15 -4 15 -2 0
-6 -7 -10 -15z"/>
<path d="M5485 1300 c-3 -6 1 -7 9 -4 18 7 21 14 7 14 -6 0 -13 -4 -16 -10z"/>
<path d="M5525 1300 c3 -5 11 -10 16 -10 6 0 7 5 4 10 -3 6 -11 10 -16 10 -6
0 -7 -4 -4 -10z"/>
<path d="M3022 1040 c-63 -29 -95 -53 -144 -113 -45 -55 -38 -51 52 24 30 25
77 60 104 77 56 36 51 41 -12 12z"/>
<path d="M2580 939 c0 -6 -6 -9 -14 -6 -8 3 -16 0 -19 -6 -3 -7 7 -13 24 -14
23 -2 29 2 29 17 0 11 -4 20 -10 20 -5 0 -10 -5 -10 -11z"/>
<path d="M1790 920 c0 -5 5 -10 11 -10 5 0 7 5 4 10 -3 6 -8 10 -11 10 -2 0
-4 -4 -4 -10z"/>
<path d="M2555 890 c-3 -5 -2 -10 4 -10 6 0 8 -7 5 -15 -4 -8 -2 -15 4 -15 5
0 12 6 15 14 7 18 -18 42 -28 26z"/>
<path d="M1780 881 c0 -11 31 -24 39 -16 3 3 -1 10 -9 15 -19 12 -30 12 -30 1z"/>
<path d="M2787 843 c-30 -59 -33 -71 -13 -51 21 21 48 78 43 91 -2 7 -16 -11
-30 -40z"/>
<path d="M2505 860 c-4 -6 -10 -8 -15 -5 -4 3 -13 -2 -19 -9 -8 -10 -9 -16 -1
-21 5 -3 10 1 10 10 0 9 5 13 10 10 6 -4 8 -10 5 -15 -3 -6 8 -2 24 8 17 9 31
20 31 25 0 11 -38 9 -45 -3z"/>
<path d="M4452 801 c11 -22 27 -46 35 -53 14 -11 15 -10 9 12 -9 30 -38 72
-53 77 -6 2 -2 -14 9 -36z"/>
<path d="M2540 783 c-8 -3 -24 -16 -37 -27 -21 -19 -21 -23 -9 -48 8 -15 16
-35 19 -45 3 -13 5 -11 6 7 1 20 3 22 11 10 9 -13 13 -11 30 10 24 31 26 70 4
70 -14 0 -14 3 -4 15 13 15 6 18 -20 8z"/>
<path d="M2357 688 c-47 -45 -64 -71 -108 -168 -28 -63 -67 -140 -87 -170 -61
-94 -121 -232 -135 -310 -6 -32 -6 -34 8 -16 8 11 15 23 15 27 0 4 4 20 10 34
9 24 12 25 31 12 24 -17 57 -11 82 14 10 11 22 19 26 19 5 0 11 11 15 23 3 13
19 41 36 62 16 20 27 41 24 46 -2 5 7 11 21 15 14 3 25 10 25 14 0 14 110 120
125 120 8 0 15 8 15 18 0 10 5 23 11 29 32 32 35 57 18 143 -32 161 -44 169
-132 88z m-67 -158 c0 -5 -5 -10 -11 -10 -5 0 -7 5 -4 10 3 6 8 10 11 10 2 0
4 -4 4 -10z m-10 -29 c0 -6 -4 -13 -10 -16 -5 -3 -10 1 -10 9 0 9 5 16 10 16
6 0 10 -4 10 -9z m-20 -38 c0 -5 -8 -17 -17 -28 -14 -18 -15 -18 -9 -2 3 10 6
23 6 28 0 5 5 9 10 9 6 0 10 -3 10 -7z m-38 -75 c-7 -7 -12 -8 -12 -2 0 14 12
26 19 19 2 -3 -1 -11 -7 -17z m-32 -58 c0 -5 -5 -10 -11 -10 -5 0 -7 5 -4 10
3 6 8 10 11 10 2 0 4 -4 4 -10z m30 -46 c0 -8 -19 -13 -24 -6 -3 5 1 9 9 9 8
0 15 -2 15 -3z m-70 -20 c0 -8 -5 -12 -10 -9 -6 4 -8 11 -5 16 9 14 15 11 15
-7z m-30 -64 c0 -5 -2 -10 -4 -10 -3 0 -8 5 -11 10 -3 6 -1 10 4 10 6 0 11 -4
11 -10z m-14 -50 c-1 -21 -6 -30 -18 -30 -15 0 -15 3 -2 30 19 37 21 37 20 0z"/>
<path d="M4330 670 c10 -6 11 -10 3 -10 -7 0 -13 -11 -13 -25 0 -14 5 -25 11
-25 5 0 7 -4 4 -10 -3 -5 -2 -10 3 -10 8 0 52 54 52 64 0 4 -58 26 -69 26 -3
0 1 -5 9 -10z m27 -26 c-3 -3 -12 -4 -19 -1 -8 3 -5 6 6 6 11 1 17 -2 13 -5z"/>
<path d="M2557 663 c-4 -3 -7 -13 -7 -22 1 -13 3 -13 11 2 11 19 8 33 -4 20z"/>
<path d="M4442 608 c-5 -7 -17 -29 -27 -48 l-18 -34 49 -43 c55 -49 67 -52 82
-20 11 21 11 20 6 -5 -7 -33 14 -38 39 -10 18 19 22 48 11 76 -9 24 -21 19
-33 -11 -10 -27 -10 -26 -5 7 5 32 2 39 -35 68 -44 35 -54 38 -69 20z"/>
<path d="M4276 602 c-11 -18 -4 -87 12 -111 l15 -25 14 37 c14 34 13 38 -10
72 -14 20 -27 32 -31 27z"/>
<path d="M4196 523 c-8 -21 4 -83 15 -83 6 0 6 -7 1 -17 -17 -32 -21 -141 -7
-153 24 -20 33 13 36 125 1 34 -5 98 -12 115 -1 3 -1 8 -1 12 2 14 -27 16 -32
1z"/>
<path d="M4366 461 c-8 -12 24 -45 34 -35 2 3 0 8 -6 12 -6 4 -13 14 -16 22
-3 11 -6 11 -12 1z"/>
<path d="M4293 435 c-7 -8 -13 -29 -13 -47 l1 -33 20 39 c21 39 15 66 -8 41z"/>
<path d="M4330 401 c0 -5 4 -12 8 -15 5 -3 15 -31 22 -63 7 -32 15 -59 16 -61
5 -7 52 29 58 44 7 19 -3 44 -19 44 -7 0 -15 3 -17 8 -6 13 -68 53 -68 43z"/>
<path d="M2810 347 c-43 -16 -79 -36 -64 -37 6 0 40 11 75 25 64 24 54 35 -11
12z"/>
<path d="M4240 334 c0 -8 5 -12 10 -9 6 4 8 11 5 16 -9 14 -15 11 -15 -7z"/>
<path d="M4295 288 c-10 -26 -10 -111 0 -114 6 -2 11 23 12 61 1 63 -2 79 -12
53z"/>
<path d="M3345 140 c-3 -5 -1 -10 4 -10 6 0 11 5 11 10 0 6 -2 10 -4 10 -3 0
-8 -4 -11 -10z"/>
<path d="M2085 60 c3 -5 10 -10 16 -10 5 0 9 5 9 10 0 6 -7 10 -16 10 -8 0
-12 -4 -9 -10z"/>
</g>
</svg>
