<?xml version="1.0" standalone="no"?>
<!DOCTYPE svg PUBLIC "-//W3C//DTD SVG 20010904//EN"
 "http://www.w3.org/TR/2001/REC-SVG-20010904/DTD/svg10.dtd">
<svg version="1.0" xmlns="http://www.w3.org/2000/svg"
 width="600.000000pt" height="900.000000pt" viewBox="0 0 600.000000 900.000000"
 preserveAspectRatio="xMidYMid meet">

<g transform="translate(0.000000,900.000000) scale(0.100000,-0.100000)"
fill="#000000" stroke="none">
<path d="M0 7665 c0 -734 3 -1335 6 -1335 3 0 24 13 47 29 23 15 82 49 130 75
115 61 129 69 145 84 16 15 26 16 17 2 -3 -5 -2 -10 3 -10 8 0 42 42 73 90 23
35 108 122 149 152 91 67 173 94 254 84 60 -7 100 7 217 75 38 22 102 47 152
60 83 20 100 30 77 44 -19 12 -10 35 16 41 35 9 54 -11 28 -30 -10 -8 -17 -17
-14 -20 8 -7 124 42 128 54 2 6 7 8 10 6 4 -2 7 8 8 22 1 50 12 92 34 127 19
31 26 35 66 35 35 0 47 5 59 23 8 13 27 30 43 38 15 8 29 17 32 20 13 16 59
18 74 3 14 -14 18 -13 41 3 13 10 25 24 25 31 1 54 147 72 237 30 27 -13 51
-27 54 -32 4 -5 16 -6 28 -3 14 3 21 0 21 -9 0 -23 27 -16 34 9 6 20 7 20 17
5 12 -22 29 -23 29 -3 0 11 11 15 39 15 21 0 53 3 70 6 24 5 31 3 31 -10 0
-10 -9 -16 -22 -16 -37 -1 -135 -38 -118 -45 9 -3 76 -7 150 -9 74 -2 147 -4
162 -5 15 -1 36 -10 47 -22 12 -13 21 -17 26 -10 4 8 12 8 27 0 14 -8 23 -8
31 0 6 6 26 11 44 11 21 0 31 4 29 13 -1 6 -1 9 1 5 3 -5 11 -8 20 -8 22 0 10
-23 -18 -32 -18 -6 -15 -6 10 -3 44 7 34 -4 -13 -15 -21 -4 -36 -4 -36 1 0 5
-4 9 -10 9 -5 0 -7 -7 -4 -15 4 -8 2 -15 -4 -15 -6 0 -12 4 -14 8 -1 5 -15 12
-31 16 -26 6 -27 5 -15 -14 12 -18 23 -20 115 -20 56 0 104 -4 107 -9 4 -5
-35 -10 -91 -10 -54 -1 -112 -4 -130 -7 -28 -5 -34 -3 -42 17 -4 13 -6 30 -4
37 6 14 -1 15 -25 3 -39 -22 -136 -51 -188 -57 -43 -5 -54 -10 -52 -23 2 -9
12 -17 23 -19 11 -2 27 -10 36 -18 12 -11 18 -11 27 -2 7 7 12 8 13 3 0 -6 2
-18 4 -27 2 -10 -1 -18 -6 -18 -5 0 -9 -4 -9 -10 0 -11 54 -2 90 15 14 7 42
15 63 19 33 6 37 10 37 36 l0 29 144 0 c143 0 145 0 165 -25 12 -15 22 -21 26
-14 10 16 -183 220 -259 274 -60 43 -62 47 -16 29 25 -9 55 -23 67 -30 12 -8
40 -13 67 -11 l46 3 -29 44 c-16 24 -27 51 -23 59 4 11 2 13 -8 7 -9 -6 -11
-4 -5 5 6 10 12 8 26 -11 87 -116 102 -127 114 -81 l7 27 10 -27 c5 -16 13
-28 18 -28 4 0 10 -6 13 -14 4 -11 -1 -13 -19 -10 -26 5 -33 -10 -9 -20 8 -3
15 -9 14 -13 -4 -22 3 -33 21 -33 23 0 24 4 8 33 -10 20 -10 21 5 8 9 -7 37
-51 62 -97 25 -46 51 -86 57 -90 7 -4 8 -3 4 4 -5 9 33 12 148 12 86 0 156 4
156 8 0 5 -44 9 -97 9 -241 1 -227 -2 -245 40 -10 20 -15 40 -13 43 5 8 134 6
240 -4 52 -5 64 -4 47 4 -13 5 -88 13 -168 17 -90 4 -141 10 -137 16 10 16
248 0 337 -23 89 -23 115 -25 100 -10 -12 12 -205 51 -339 70 -49 7 -101 16
-115 20 -90 30 281 -22 397 -55 28 -8 55 -15 60 -15 11 0 32 99 22 105 -10 7
-470 65 -508 65 -17 0 -31 4 -31 9 0 5 8 7 18 5 25 -5 472 -56 507 -58 22 -1
32 5 40 22 9 21 15 23 54 18 24 -3 56 -6 70 -6 15 0 21 -3 14 -8 -6 -4 19 -7
55 -7 37 0 106 -6 154 -14 84 -12 89 -15 145 -66 32 -29 56 -55 53 -58 -5 -5
-137 9 -318 34 -47 6 -87 8 -92 3 -5 -5 -14 -47 -20 -94 -6 -47 -16 -102 -21
-123 -8 -32 -7 -42 6 -57 15 -16 6 -17 -177 -12 -106 2 -195 9 -196 13 -4 11
-94 11 -190 0 -83 -10 -112 -29 -112 -73 0 -23 4 -28 25 -28 17 0 25 -5 25
-18 0 -10 5 -23 12 -30 20 -20 1 -25 -33 -8 -39 20 -49 20 -49 2 0 -18 -22
-26 -71 -26 -26 0 -37 4 -34 13 2 6 -2 20 -9 30 -12 15 -18 16 -35 7 -18 -9
-19 -13 -8 -30 6 -11 19 -21 27 -22 8 -1 -12 -4 -45 -7 -54 -5 -60 -8 -57 -27
2 -16 -4 -23 -20 -27 -13 -2 -84 -17 -158 -32 -138 -27 -483 -115 -536 -136
l-29 -11 45 -16 c42 -14 43 -16 22 -25 -17 -8 -32 -6 -58 6 -40 19 -53 22 -38
7 10 -10 37 -20 253 -93 93 -31 113 -52 23 -24 -26 8 -72 22 -102 30 -30 8
-80 22 -111 31 -31 9 -63 16 -72 16 -10 0 -61 16 -115 36 -53 20 -115 43 -137
51 -22 8 -58 23 -79 34 -22 11 -42 16 -45 11 -3 -4 -58 -28 -121 -52 -141 -53
-511 -210 -600 -255 -36 -17 -131 -66 -211 -108 -81 -42 -149 -74 -152 -71 -6
7 -55 -65 -89 -131 -29 -58 -60 -154 -53 -165 3 -5 1 -10 -3 -12 -4 -1 -18
-37 -30 -78 -15 -51 -19 -61 -15 -30 4 25 8 61 8 80 1 48 31 134 83 235 14 27
14 29 -1 17 -14 -12 -81 -142 -121 -233 -27 -63 -107 -347 -165 -587 -31 -128
-61 -236 -66 -240 -6 -4 -12 -62 -13 -138 l-3 -132 63 -6 c35 -4 92 -11 128
-16 36 -4 106 -14 155 -20 50 -7 104 -16 120 -20 l30 -8 -35 -1 c-19 -1 -68 6
-110 14 -81 15 -212 32 -297 38 l-53 4 0 -884 c0 -704 3 -883 12 -877 10 6 10
4 1 -7 -10 -10 -13 -160 -13 -680 0 -596 2 -668 16 -673 8 -3 12 -10 9 -16 -4
-6 -11 -8 -16 -5 -5 4 -9 -312 -9 -819 l0 -826 3000 0 3000 0 0 1845 c0 1015
-3 1845 -7 1845 -3 0 -20 -11 -37 -23 -39 -30 -158 -43 -177 -21 -6 8 -17 14
-24 14 -17 0 -26 62 -14 103 5 19 23 52 40 73 46 59 153 160 188 179 l31 16 0
797 0 797 -25 90 c-67 236 -69 240 -185 440 -29 50 -58 99 -64 110 -22 38 -66
105 -70 105 -2 0 16 -35 40 -77 70 -122 143 -275 148 -313 l6 -35 -15 40 c-8
22 -21 51 -28 65 -28 58 -179 316 -189 325 -7 6 -4 -2 5 -17 9 -15 17 -30 17
-33 0 -3 -28 12 -62 34 -35 22 -65 35 -69 30 -3 -5 -14 0 -24 11 -10 11 -21
20 -25 20 -4 0 -40 32 -81 70 -40 39 -76 70 -81 70 -4 0 -30 21 -58 48 -29 26
-59 51 -68 56 -10 5 -48 35 -87 65 -91 73 -135 103 -135 92 0 -5 21 -21 46
-36 51 -30 52 -48 1 -23 -69 34 -294 111 -327 112 -30 1 -36 -3 -38 -23 -2
-13 -10 -31 -18 -39 -8 -8 -13 -17 -10 -19 3 -3 12 1 20 10 12 11 25 13 62 6
26 -5 53 -14 61 -21 8 -6 33 -12 56 -13 46 -1 348 -117 368 -141 6 -8 17 -14
24 -14 8 0 15 -3 17 -8 2 -4 27 -27 56 -51 28 -24 50 -46 48 -48 -2 -3 -22 5
-45 16 -63 33 -236 104 -338 140 -51 18 -101 43 -114 57 -12 13 -27 24 -33 24
-6 0 -4 -5 4 -10 25 -16 -6 -13 -102 12 -85 22 -87 22 -107 4 -12 -11 -21 -23
-21 -27 0 -17 -217 -219 -235 -219 -4 0 -21 -10 -38 -22 -57 -43 -245 -136
-274 -137 -10 -1 -36 -3 -58 -6 -39 -4 -39 -4 10 12 180 58 325 136 356 192
11 20 36 63 56 96 19 33 48 83 64 111 l28 51 -39 13 c-49 16 -53 38 -7 34 32
-3 28 -2 -47 17 -64 17 -35 19 39 4 64 -14 71 -14 83 2 19 26 15 31 -30 44
-24 6 -69 20 -101 30 -31 11 -67 19 -80 19 -15 0 -18 3 -9 9 9 5 -1 12 -33 21
-46 13 -76 35 -33 25 12 -2 54 -10 92 -15 38 -6 104 -19 146 -29 77 -18 79
-18 83 1 4 14 1 18 -9 14 -8 -3 -14 -1 -14 4 0 5 -12 12 -27 16 -16 3 -75 21
-133 38 -58 18 -142 41 -187 51 -46 11 -83 22 -83 27 0 13 21 10 139 -21 93
-24 112 -26 122 -15 6 8 22 14 35 14 13 0 24 3 24 8 0 4 23 5 50 4 37 -3 61 2
91 17 38 20 43 21 59 6 17 -15 19 -15 29 3 8 15 19 19 43 17 18 -2 43 -3 55
-4 12 -1 28 -7 35 -15 8 -7 35 -16 62 -20 62 -10 76 -15 76 -31 0 -14 58 -45
85 -45 10 0 23 7 30 17 15 20 39 7 32 -18 -3 -11 -1 -17 4 -14 10 7 60 -18 83
-40 25 -25 64 -9 87 36 18 36 23 39 62 39 38 0 47 -5 73 -36 16 -20 32 -41 35
-47 4 -5 18 -7 32 -3 16 4 29 1 38 -10 10 -12 24 -14 71 -9 40 5 58 4 58 -4 0
-7 -7 -14 -15 -17 -24 -10 -18 -19 23 -37 56 -24 69 -21 63 16 -2 11 12 8 33
-8 11 -8 35 -15 53 -15 18 0 33 -4 33 -10 0 -5 7 -10 15 -10 8 0 24 -9 36 -21
11 -11 27 -18 34 -15 9 3 21 -7 32 -25 10 -16 23 -27 29 -25 6 2 20 -11 30
-30 45 -83 44 -111 44 1096 l0 1140 -3000 0 -3000 0 0 -1335z m1945 684 c0
-10 -10 -13 -33 -11 -39 4 -62 -12 -62 -43 0 -31 23 -47 61 -43 42 4 48 -17 9
-30 -56 -20 -104 14 -104 73 0 38 25 72 58 77 33 6 71 -7 71 -23z m1218 1 c11
-10 19 -33 20 -55 1 -47 -29 -75 -83 -75 -46 0 -74 28 -74 75 0 74 83 107 137
55z m1487 -8 c26 -32 25 -63 -1 -96 -42 -54 -139 -24 -139 43 0 44 10 62 42
76 39 16 74 8 98 -23z m-2570 -2 c0 -27 3 -30 30 -30 27 0 30 3 30 30 0 20 5
30 15 30 12 0 15 -15 15 -75 0 -60 -3 -75 -15 -75 -10 0 -15 10 -15 30 0 27
-3 30 -30 30 -27 0 -30 -3 -30 -30 0 -23 -5 -30 -19 -30 -16 0 -18 9 -20 75
-2 70 -1 75 18 75 17 0 21 -6 21 -30z m308 18 c17 -17 15 -63 -3 -78 -14 -12
-14 -15 0 -30 19 -21 19 -30 -1 -30 -9 0 -25 11 -36 25 -11 14 -24 25 -29 25
-5 0 -9 -11 -9 -25 0 -18 -5 -25 -20 -25 -18 0 -20 7 -20 75 l0 75 53 0 c29 0
58 -5 65 -12z m142 -68 c0 -64 -3 -78 -14 -74 -19 7 -24 30 -18 97 3 39 9 57
18 57 11 0 14 -19 14 -80z m195 60 c0 -11 -9 -14 -32 -12 -46 5 -41 -12 8 -31
35 -14 40 -19 37 -44 -2 -17 -12 -32 -26 -39 -29 -14 -76 -4 -80 18 -3 14 4
15 39 11 32 -5 41 -3 37 8 -2 7 -19 17 -37 21 -36 10 -46 27 -37 64 6 23 11
25 49 22 29 -2 42 -8 42 -18z m225 5 c0 -9 -9 -15 -25 -15 -24 0 -25 -3 -25
-60 0 -47 -3 -60 -15 -60 -12 0 -15 13 -15 60 0 57 -1 60 -25 60 -16 0 -25 6
-25 15 0 12 14 15 65 15 51 0 65 -3 65 -15z m434 -1 c34 -33 2 -94 -49 -94
-18 0 -25 -5 -25 -20 0 -11 -7 -20 -15 -20 -12 0 -15 15 -15 75 l0 75 44 0
c27 0 51 -6 60 -16z m136 -14 c0 -27 3 -30 29 -30 30 0 50 28 36 50 -3 5 3 10
14 10 19 0 21 -6 21 -75 0 -69 -2 -75 -20 -75 -12 0 -20 6 -19 13 5 37 -2 47
-31 47 -27 0 -30 -3 -30 -30 0 -20 -5 -30 -15 -30 -12 0 -15 15 -15 75 0 60 3
75 15 75 10 0 15 -10 15 -30z m310 15 c0 -11 -11 -15 -40 -15 -29 0 -40 -4
-40 -15 0 -10 11 -15 35 -15 24 0 35 -5 35 -15 0 -10 -11 -15 -35 -15 -53 0
-47 -28 7 -32 23 -2 43 -9 46 -15 3 -10 -13 -13 -57 -13 l-61 0 0 75 0 75 55
0 c42 0 55 -3 55 -15z m208 3 c15 -15 15 -53 0 -78 -10 -15 -9 -23 6 -39 19
-21 19 -21 -2 -21 -12 0 -29 11 -38 25 -9 14 -23 25 -30 25 -8 0 -14 -10 -14
-25 0 -16 -6 -25 -15 -25 -12 0 -15 15 -15 75 l0 75 48 0 c26 0 53 -5 60 -12z
m305 -34 l32 -46 3 46 c2 32 7 46 18 46 11 0 14 -16 14 -75 0 -91 -13 -97 -62
-29 l-33 47 -3 -47 c-2 -32 -7 -46 -18 -46 -11 0 -14 16 -14 75 0 91 14 98 63
29z m457 -14 l0 -60 35 0 c24 0 35 -5 35 -15 0 -12 -13 -15 -55 -15 l-55 0 0
75 c0 68 2 75 20 75 18 0 20 -7 20 -60z m277 -12 c27 -62 29 -74 16 -77 -9 -1
-20 4 -25 13 -12 21 -78 22 -78 1 0 -8 -9 -15 -20 -15 -25 0 -25 -4 3 61 13
30 27 62 30 72 4 9 15 17 25 17 13 0 27 -21 49 -72z m188 26 l35 -47 0 47 c0
34 4 46 15 46 12 0 15 -15 15 -75 0 -91 -13 -97 -62 -29 l-33 47 -3 -47 c-2
-32 -7 -46 -18 -46 -11 0 -14 16 -14 75 0 91 13 97 65 29z m-4573 -51 c2 -26
8 -38 18 -38 10 0 16 12 18 38 4 49 22 48 22 -3 0 -41 -20 -62 -50 -52 -22 7
-30 23 -30 60 0 45 18 40 22 -5z m131 20 c18 -17 19 -17 28 0 17 30 29 18 29
-28 0 -25 -4 -45 -10 -45 -5 0 -10 12 -10 28 -1 24 -2 25 -11 9 -10 -18 -11
-18 -25 0 -12 17 -13 16 -14 -9 0 -16 -4 -28 -10 -28 -5 0 -10 20 -10 45 0 50
4 53 33 28z m227 7 c0 -5 -11 -10 -25 -10 -14 0 -25 -4 -25 -10 0 -5 9 -10 20
-10 11 0 20 -4 20 -10 0 -5 -9 -10 -20 -10 -11 0 -20 -7 -20 -15 0 -8 -4 -15
-10 -15 -5 0 -10 20 -10 45 0 45 0 45 35 45 19 0 35 -4 35 -10z m50 -35 c0
-25 -4 -45 -10 -45 -5 0 -10 20 -10 45 0 25 5 45 10 45 6 0 10 -20 10 -45z
m82 -27 c9 1 19 -2 23 -8 4 -6 -6 -10 -24 -10 -32 0 -33 2 -33 55 0 42 5 42
11 0 4 -30 10 -39 23 -37z m94 55 c13 -17 15 -17 28 0 21 27 26 21 25 -30 -1
-39 -3 -43 -8 -19 -5 26 -7 28 -20 12 -13 -15 -15 -15 -27 1 -12 16 -13 16
-14 -9 0 -16 -4 -28 -10 -28 -11 0 -14 73 -3 83 10 10 15 9 29 -10z m164 7 c0
-5 -11 -10 -25 -10 -14 0 -25 -4 -25 -10 0 -5 9 -10 20 -10 11 0 20 -4 20 -10
0 -5 -10 -10 -22 -10 -25 0 -14 -15 17 -23 11 -3 4 -5 -17 -6 l-38 -1 0 45 c0
45 0 45 35 45 19 0 35 -4 35 -10z m164 -6 c30 -30 10 -74 -34 -74 -31 0 -32 2
-32 45 0 14 0 30 1 35 2 16 48 12 65 -6z m116 6 c0 -5 -11 -10 -25 -10 -14 0
-25 -4 -25 -10 0 -5 12 -10 26 -10 14 0 23 -4 19 -10 -3 -5 -16 -10 -28 -10
-24 0 -13 -16 18 -23 13 -3 10 -5 -11 -6 -29 -1 -32 2 -36 33 -2 19 -2 39 0
45 5 14 62 15 62 1z m-1178 -249 c-10 -6 -8 -10 8 -14 16 -4 20 -2 16 9 -8 20
0 17 25 -8 12 -13 19 -17 15 -10 -12 20 2 14 35 -15 44 -38 69 -98 67 -158 -1
-49 -1 -49 -9 -15 -7 33 -8 32 -5 -11 2 -27 -3 -56 -11 -70 l-14 -24 7 24 c4
16 3 21 -5 17 -6 -4 -11 -2 -11 3 0 6 5 11 10 11 6 0 10 7 10 15 0 8 -4 15
-10 15 -11 0 -14 -19 -11 -66 3 -35 -10 -48 -51 -50 -18 -1 -25 3 -21 12 3 8
16 11 34 9 24 -3 29 0 29 16 0 13 -4 18 -12 13 -8 -5 -9 -2 -4 12 4 10 9 28
12 38 2 11 10 24 19 28 8 5 15 19 14 31 -1 21 -2 20 -9 -3 -7 -21 -8 -22 -9
-5 -3 42 -18 46 -19 5 -1 -22 -8 -56 -16 -75 -11 -25 -11 -35 -3 -38 7 -2 8
-8 4 -13 -4 -5 -13 -2 -18 6 -8 11 -12 12 -16 3 -2 -7 -12 -13 -21 -13 -15 0
-15 -2 -2 -11 11 -7 1 -8 -35 -4 -28 3 -61 2 -75 -4 -14 -5 -18 -10 -10 -11
10 -1 9 -4 -5 -9 -16 -7 -11 -10 25 -15 90 -12 94 -13 39 -15 -31 0 -72 6 -92
14 -44 18 -100 73 -93 92 3 8 1 11 -4 8 -6 -3 -11 0 -11 7 -2 23 -4 33 -13 56
-13 39 21 126 66 168 29 27 43 33 51 25 6 -6 19 -11 28 -11 20 0 35 18 24 28
-3 3 -10 0 -14 -7 -5 -8 -14 -10 -22 -6 -9 6 -8 10 7 15 28 11 122 11 106 1z
m601 -6 c9 -4 17 -11 17 -16 0 -6 -7 -6 -18 0 -13 7 -24 4 -41 -8 -21 -16 -22
-19 -6 -25 10 -3 20 -4 23 -1 3 3 -1 5 -9 6 -8 0 -3 5 10 10 33 13 50 -4 33
-31 -15 -25 -15 -33 -1 -24 8 5 10 0 6 -17 -3 -13 -2 -31 4 -39 7 -11 9 -1 7
32 -1 26 1 51 5 54 4 4 2 13 -4 21 -7 8 -8 13 -1 13 15 0 40 -44 43 -76 6 -77
-6 -94 -22 -32 l-9 33 4 -37 c4 -30 2 -36 -11 -31 -11 4 -14 2 -11 -8 3 -8 12
-13 22 -11 26 5 18 -11 -22 -41 -31 -24 -45 -28 -85 -25 -27 2 -47 -1 -47 -7
0 -5 -4 -3 -9 5 -6 8 -7 18 -5 22 3 4 -2 5 -10 2 -8 -3 -18 -19 -21 -36 -5
-20 -11 -28 -21 -24 -9 3 -14 -1 -14 -14 0 -11 9 -20 23 -23 15 -3 12 -4 -9
-4 -27 1 -30 4 -27 26 4 25 3 24 -11 -4 -13 -28 -14 -15 -15 149 l-1 179 108
-5 c59 -3 115 -9 125 -13z m282 -40 c5 -16 8 -17 15 -5 5 8 6 18 4 22 -3 4 0
8 5 8 6 0 11 5 11 11 0 6 -9 9 -20 6 -11 -3 -20 -1 -20 4 0 11 132 11 180 0
102 -23 138 -155 62 -226 -31 -29 -36 -30 -55 -10 -19 19 -67 31 -67 16 0 -6
8 -11 18 -11 10 0 27 -7 38 -15 19 -14 18 -14 -3 -15 -13 0 -23 5 -23 10 0 14
-57 13 -66 -1 -4 -8 -9 -7 -15 2 -7 11 -9 10 -9 -3 0 -10 -7 -18 -15 -18 -8 0
-15 5 -15 11 0 5 5 7 12 3 7 -4 8 -3 4 5 -4 6 -12 9 -17 6 -5 -4 -9 -1 -9 4 0
6 9 11 20 11 11 0 20 5 20 10 0 6 -5 10 -11 10 -5 0 -8 4 -5 8 2 4 1 14 -5 22
-7 13 -9 12 -9 -1 0 -9 -7 -30 -15 -45 l-15 -29 1 45 c0 31 3 39 8 26 7 -18 8
-18 14 5 4 13 7 36 7 51 0 14 3 34 6 43 9 23 24 -1 23 -35 -1 -23 -2 -23 -9 5
-8 30 -8 30 -9 -8 -2 -58 13 -77 59 -77 21 0 50 -4 64 -10 19 -7 30 -5 48 10
13 11 18 19 11 20 -6 0 -15 -4 -18 -10 -3 -5 -16 -10 -28 -9 -22 0 -22 0 -1 9
14 5 26 25 35 57 l14 48 5 -44 c3 -25 11 -46 18 -49 10 -3 10 2 1 22 -9 19 -9
33 -2 49 10 20 8 23 -15 25 -14 1 -30 6 -36 10 -6 5 -45 10 -87 11 -84 3 -87
0 -90 -74 -1 -29 -1 -29 -8 -5 -7 21 -9 16 -15 -30 -5 -32 -3 -70 2 -90 8 -28
10 -30 11 -11 1 31 11 22 15 -13 1 -15 6 -26 11 -25 14 1 22 -21 17 -49 -3
-25 -8 -28 -35 -27 l-32 2 -2 199 c-2 184 1 203 22 139z m755 20 l0 -35 -97 2
-98 2 90 5 c84 6 90 8 93 29 2 12 -2 22 -8 22 -6 0 -8 -4 -5 -10 4 -6 -11 -11
-37 -12 l-43 -1 45 -7 c37 -6 30 -7 -44 -8 -72 -2 -91 -5 -102 -19 -7 -10 -16
-14 -21 -9 -4 5 -2 11 5 13 6 3 12 14 12 26 -1 22 -1 22 -15 3 -8 -11 -15 -28
-15 -38 0 -10 -6 -18 -12 -18 -10 0 -9 -3 1 -9 11 -7 11 -15 3 -40 -6 -17 -7
-33 -3 -36 5 -2 12 16 16 42 4 31 9 42 15 33 5 -8 6 -18 3 -23 -12 -19 -21
-77 -12 -77 5 0 10 10 10 23 l2 22 4 -22 c2 -13 9 -23 15 -23 5 0 7 7 4 16 -3
8 -2 13 3 9 5 -3 11 0 13 7 3 9 15 9 52 -1 26 -6 52 -8 59 -4 23 14 47 13 47
-2 0 -12 -17 -15 -82 -17 l-83 -2 85 -6 85 -6 -99 -2 c-55 -1 -96 -5 -93 -8 3
-4 0 -16 -8 -28 -8 -11 -15 -39 -15 -61 0 -29 3 -36 10 -25 5 8 10 11 10 5 0
-6 39 -9 102 -7 l103 3 1 -33 c1 -18 0 -26 -3 -18 -3 13 -24 15 -133 12 -111
-3 -129 -5 -132 -20 -3 -13 -5 -12 -10 6 -6 20 -3 22 35 22 41 0 41 1 17 13
-14 7 -26 9 -28 5 -2 -4 -10 -8 -18 -8 -12 0 -14 31 -14 175 l0 175 145 0 145
0 0 -35z m232 25 c-20 -9 -22 -15 -20 -80 1 -38 -2 -73 -5 -77 -4 -3 -7 32 -7
78 l0 85 28 1 c26 2 26 1 4 -7z m268 -62 c0 -46 13 -59 32 -33 10 13 10 95 0
95 -4 0 -6 -20 -4 -45 2 -26 0 -45 -6 -45 -6 0 -12 23 -14 50 -3 46 -1 50 17
48 19 -3 20 -12 23 -195 2 -151 0 -193 -10 -194 -7 0 -23 -2 -35 -5 -27 -5
-31 12 -5 19 9 3 2 5 -15 6 -22 1 -33 6 -33 16 0 8 -4 15 -9 15 -14 0 -23 32
-11 44 7 7 10 3 10 -11 0 -12 5 -25 11 -29 8 -4 9 3 4 25 -4 20 -2 37 5 46 7
9 11 53 11 124 -1 115 5 153 20 129 5 -7 9 -34 9 -60z m305 62 c-3 -5 -1 -10
4 -10 14 0 14 -40 1 -60 -8 -12 -10 -8 -11 15 -2 27 -3 26 -10 -10 -7 -39 -7
-38 -6 13 1 28 -1 52 -5 52 -5 0 -8 -44 -8 -97 0 -66 3 -93 10 -83 5 8 7 25 3
37 -3 13 -1 23 5 23 5 0 12 -15 15 -32 3 -24 -1 -39 -16 -55 -11 -13 -18 -25
-15 -28 3 -4 15 5 26 19 11 15 30 27 43 27 19 1 20 2 6 6 -18 5 -18 5 0 19 10
7 36 13 58 12 l40 -1 -45 -7 -45 -7 50 -3 c28 -2 65 -3 83 -3 17 1 32 -3 32
-8 0 -5 -8 -9 -19 -9 -10 0 -24 -7 -31 -15 -8 -9 -30 -15 -60 -15 -57 0 -110
-10 -110 -20 0 -4 8 -7 18 -6 14 1 17 -8 18 -44 l2 -45 -8 45 -7 45 -1 -57
c-2 -44 -6 -58 -17 -58 -8 0 -15 5 -15 10 0 6 -4 10 -10 10 -5 0 -10 -7 -10
-15 0 -22 57 -20 63 3 3 11 5 7 6 -10 1 -20 -3 -25 -16 -23 -10 2 -28 4 -40 4
l-23 1 0 195 0 195 26 0 c14 0 23 -4 19 -10z m35 -72 c0 -44 -3 -56 -15 -54
-21 3 -28 13 -20 26 6 9 10 9 17 -1 6 -9 8 8 6 49 -3 34 -1 57 4 50 4 -7 8
-38 8 -70z m244 66 c9 -22 7 -327 -2 -341 -4 -6 -21 -13 -37 -16 -27 -4 -26
-4 8 -6 21 0 36 -5 33 -10 -4 -5 -14 -8 -24 -6 -9 2 -25 4 -34 4 -16 1 -18 11
-16 74 l1 72 6 -55 c5 -48 9 -55 29 -57 l22 -3 -2 173 -2 172 -6 -165 -6 -165
-2 168 c-2 141 -4 167 -17 167 -12 0 -15 -15 -17 -67 l-2 -68 -3 59 c-2 32 -2
65 1 72 7 20 62 18 70 -2z m516 -19 l0 -35 -96 0 c-68 0 -99 4 -109 14 -8 7
-11 17 -7 20 3 4 -1 4 -11 0 -21 -8 -22 -24 -1 -24 8 0 12 -5 9 -10 -4 -6 -11
-8 -16 -5 -5 4 -9 -3 -9 -14 0 -12 -6 -21 -12 -22 -10 0 -10 -2 0 -6 6 -2 9
-10 6 -16 -5 -8 -4 -9 4 -2 5 6 12 19 15 30 3 13 5 8 6 -13 1 -26 -4 -35 -20
-39 -16 -4 -17 -8 -7 -14 18 -12 31 -11 23 1 -4 6 6 8 25 5 16 -3 43 -7 58 -9
16 -3 45 -1 65 4 20 4 37 5 38 1 0 -3 2 -14 4 -23 3 -16 -5 -18 -73 -16 l-77
1 55 7 c67 8 64 10 -16 13 -55 2 -60 0 -50 -15 8 -13 28 -18 91 -21 l80 -3
-97 -2 -98 -2 0 -50 0 -50 110 0 110 0 0 -29 c0 -16 -6 -31 -12 -33 -20 -6
-270 0 -277 7 -11 11 -13 275 -2 275 6 0 8 -37 6 -102 -3 -57 -2 -119 2 -138
6 -33 6 -33 15 -10 6 16 5 26 -1 28 -17 6 -13 69 6 87 13 14 14 22 5 48 -13
39 -15 154 -1 162 11 7 3 25 -12 25 -5 0 -9 -15 -9 -32 0 -18 -5 -40 -10 -48
-7 -11 -10 -2 -10 31 0 25 3 49 7 52 3 4 71 7 150 7 l143 0 0 -35z m220 25
c-10 -6 -11 -10 -2 -10 7 0 13 -16 14 -42 l1 -43 7 45 c6 38 7 32 8 -40 1 -58
-1 -80 -8 -70 -5 8 -11 11 -12 5 -1 -5 -4 17 -8 50 l-7 60 -1 -62 c-2 -50 1
-63 13 -63 10 0 15 -11 16 -32 2 -67 18 43 18 130 1 53 5 81 11 77 6 -4 10
-77 10 -188 0 -121 -4 -177 -10 -167 -8 12 -10 12 -10 1 0 -9 -8 -12 -25 -9
-13 3 -26 0 -28 -6 -3 -6 -3 2 -1 17 2 15 0 26 -4 23 -4 -2 -6 72 -4 165 3
151 5 169 20 169 15 0 15 -2 2 -10z m355 2 c9 -6 39 -49 102 -149 10 -16 13
-16 26 -3 9 8 30 42 48 75 17 33 36 66 42 73 14 18 84 16 91 -4 3 -9 6 -96 6
-195 l0 -179 -26 0 c-14 0 -23 4 -20 9 3 4 -1 17 -9 27 -14 18 -15 17 -10 -13
3 -20 1 -33 -6 -33 -7 0 -10 45 -8 139 1 76 -1 143 -5 150 -5 8 -14 4 -27 -13
-10 -13 -19 -27 -19 -30 0 -3 -12 -18 -27 -33 -20 -21 -25 -23 -19 -8 4 11 4
16 0 13 -4 -4 -15 -3 -25 2 -12 7 -20 7 -24 0 -4 -6 -3 -9 2 -8 9 3 13 -5 13
-24 0 -8 -7 -5 -15 6 -8 11 -18 17 -22 13 -3 -4 2 -16 12 -27 14 -15 21 -17
31 -9 8 6 11 16 7 22 -3 6 -1 7 5 3 7 -4 12 -15 12 -24 0 -11 8 -4 21 17 11
18 22 31 25 28 3 -3 -7 -24 -22 -46 -28 -43 -37 -52 -28 -26 4 8 2 15 -4 15
-15 0 -22 -26 -9 -39 6 -6 7 -11 1 -11 -5 0 -22 19 -37 43 -55 81 -78 112 -84
107 -3 -3 -5 -61 -4 -130 l2 -125 -36 1 c-39 2 -63 14 -28 14 21 0 34 19 32
48 0 10 -5 5 -11 -10 -5 -16 -16 -28 -24 -28 -11 0 -14 30 -14 169 0 93 3 176
6 185 6 17 60 22 79 8z m796 -19 l1 -28 8 30 c8 30 8 30 9 -7 l1 -38 -105 0
-105 0 0 -49 0 -49 48 1 c26 0 68 0 95 -1 45 -2 47 -3 47 -32 0 -34 -5 -35
-122 -31 l-68 3 0 -50 0 -50 75 -4 c41 -2 75 -1 75 2 0 3 8 6 18 6 11 0 18 -9
18 -23 2 -25 -11 -31 -19 -10 -4 8 -6 6 -6 -4 -1 -13 -12 -16 -63 -14 -59 3
-60 2 -25 -7 21 -6 58 -7 82 -3 40 6 45 9 46 33 0 26 1 26 9 4 19 -46 9 -49
-146 -51 l-144 -2 0 200 0 201 135 0 135 0 1 -27z m231 -170 c-2 -135 1 -193
8 -183 8 13 10 12 10 -3 0 -11 -5 -17 -12 -14 -10 3 -13 53 -15 200 -1 109 1
197 5 197 4 0 6 -89 4 -197z m33 170 l-5 -28 11 29 12 29 88 -5 c72 -5 96 -10
124 -29 41 -28 59 -73 50 -123 -9 -44 -32 -72 -78 -91 -25 -10 -35 -20 -31
-30 4 -8 10 -15 15 -15 13 0 11 18 -3 23 -10 4 -10 6 -1 6 10 1 51 -53 95
-125 5 -7 -8 -10 -35 -10 -39 1 -44 4 -79 56 -21 30 -38 58 -38 63 0 17 17 4
35 -28 18 -31 22 -33 39 -20 11 8 17 18 13 21 -4 4 -13 2 -20 -4 -10 -9 -17
-5 -30 17 -15 26 -20 28 -69 23 -50 -5 -52 -4 -38 13 14 17 13 18 -3 12 -10
-4 -21 -7 -23 -7 -3 0 -2 -5 2 -12 5 -7 3 -8 -5 -3 -10 5 -11 28 -6 86 5 55 4
79 -4 79 -7 0 -11 -39 -11 -120 0 -68 4 -120 9 -120 6 0 12 15 14 33 2 17 4 5
3 -28 -1 -50 -4 -60 -20 -63 -15 -3 -18 1 -13 20 2 12 1 46 -3 73 l-8 50 1
-47 c0 -26 -2 -50 -6 -54 -9 -9 -9 318 -1 340 10 27 25 18 19 -11z m-2980 -10
c7 -9 22 -17 33 -18 14 -1 45 -32 90 -91 66 -86 94 -127 77 -112 -5 5 -14 -1
-22 -12 -8 -11 -18 -20 -24 -20 -5 0 -36 36 -68 80 -32 44 -62 76 -66 72 -4
-4 -5 3 -2 16 3 12 1 22 -5 22 -9 0 -8 -32 3 -69 2 -7 -1 -15 -7 -18 -7 -2
-12 2 -11 9 2 56 -4 88 -18 88 -10 0 -15 11 -15 35 0 38 15 46 35 18z m782
-225 c-1 -46 -3 -9 -3 82 0 91 2 128 3 83 2 -46 2 -120 0 -165z m-795 125 c5
-40 3 -51 -9 -40 -9 9 -11 77 -2 77 4 0 9 -17 11 -37z m2168 7 c0 -5 -2 -10
-4 -10 -3 0 -8 5 -11 10 -3 6 -1 10 4 10 6 0 11 -4 11 -10z m-20 -20 c0 -5 -5
-10 -11 -10 -5 0 -7 5 -4 10 3 6 8 10 11 10 2 0 4 -4 4 -10z m-1550 -9 c0 -5
-7 -11 -15 -15 -9 -3 -15 0 -15 9 0 8 7 15 15 15 8 0 15 -4 15 -9z m155 -11
c3 -5 1 -10 -4 -10 -6 0 -11 5 -11 10 0 6 2 10 4 10 3 0 8 -4 11 -10z m-771
-16 c17 -7 22 -34 6 -34 -5 0 -10 -5 -10 -11 0 -5 4 -8 9 -5 10 7 26 -52 17
-61 -3 -3 -10 6 -15 21 -6 14 -12 26 -13 26 -2 0 -5 -27 -6 -59 -3 -49 0 -61
15 -69 21 -12 13 -25 -11 -16 -13 5 -16 23 -16 110 0 57 2 104 4 104 2 0 11
-3 20 -6z m45 -41 c-11 -13 -11 -17 -1 -20 14 -5 17 -93 2 -93 -14 0 -12 -38
2 -42 7 -3 6 -7 -5 -11 -11 -4 -17 -1 -17 8 0 8 -6 15 -13 15 -9 0 -14 13 -14
38 -1 27 1 31 6 14 9 -35 25 -28 35 14 6 27 6 39 -3 42 -18 6 -14 52 5 52 14
0 15 -2 3 -17z m741 7 c-19 -13 -30 -13 -30 0 0 6 10 10 23 10 18 0 19 -2 7
-10z m-1067 -7 c-23 -2 -64 -2 -90 0 -26 2 -7 3 42 3 50 0 71 -1 48 -3z m-568
-43 c4 -6 -5 -10 -19 -10 -14 0 -26 5 -26 10 0 6 9 10 19 10 11 0 23 -4 26
-10z m412 -32 c-3 -8 -6 -5 -6 6 -1 11 2 17 5 13 3 -3 4 -12 1 -19z m-492 2
c3 -5 1 -10 -4 -10 -6 0 -11 5 -11 10 0 6 2 10 4 10 3 0 8 -4 11 -10z m-913
-60 c10 0 16 -4 13 -10 -9 -14 8 -13 23 2 6 6 14 9 18 6 3 -4 -4 -12 -16 -18
-15 -8 -25 -8 -35 0 -8 6 -29 8 -54 4 -36 -6 -41 -5 -35 11 5 13 14 15 37 11
16 -3 38 -6 49 -6z m406 -7 c-10 -2 -28 -2 -40 0 -13 2 -5 4 17 4 22 1 32 -1
23 -4z m12 -21 c0 -10 -56 -9 -66 1 -4 4 9 7 29 7 21 0 37 -4 37 -8z m1150 -2
c-37 -9 -198 -6 -207 4 -4 3 50 6 118 5 88 -1 114 -3 89 -9z m1930 6 c0 -2
-13 -6 -30 -8 -16 -3 -30 -1 -30 4 0 4 14 8 30 8 17 0 30 -2 30 -4z m-3365
-146 c-5 -9 21 -14 63 -13 6 1 12 -4 12 -9 0 -10 -64 -3 -82 8 -12 7 -10 24 3
24 5 0 7 -4 4 -10z m58 3 c-7 -2 -21 -2 -30 0 -10 3 -4 5 12 5 17 0 24 -2 18
-5z m3985 -61 c18 -24 15 -48 -14 -95 -32 -51 -41 -57 -78 -57 -31 0 -55 23
-56 54 0 26 50 103 75 115 24 12 56 4 73 -17z m-2123 -12 c3 -6 -1 -7 -9 -4
-18 7 -21 14 -7 14 6 0 13 -4 16 -10z m43 -72 c8 -10 -6 -13 -64 -15 -58 -1
-74 2 -74 13 0 19 123 20 138 2z m-193 -8 c-3 -5 -15 -10 -26 -10 -11 0 -17 5
-14 10 3 6 15 10 26 10 11 0 17 -4 14 -10z m226 -70 c5 0 9 -4 9 -10 0 -5 -7
-10 -15 -10 -8 0 -15 4 -15 10 0 5 -7 6 -17 3 -11 -4 -14 -3 -9 6 5 7 15 10
23 7 8 -3 19 -6 24 -6z m1499 -60 c0 -5 -4 -10 -10 -10 -5 0 -10 5 -10 10 0 6
5 10 10 10 6 0 10 -4 10 -10z m1470 -39 c29 -54 -9 -131 -64 -131 -32 0 -60
49 -51 89 11 50 94 81 115 42z m-758 -23 c-9 -9 -15 -9 -24 0 -9 9 -7 12 12
12 19 0 21 -3 12 -12z m758 -169 c0 -15 -29 -29 -46 -23 -35 13 -44 25 -34 45
10 18 12 18 45 2 19 -9 35 -20 35 -24z m-4580 11 c0 -24 -20 -70 -31 -70 -4 0
-11 -9 -14 -20 -3 -11 -11 -20 -17 -20 -17 0 -2 66 22 100 25 35 40 39 40 10z
m2050 10 c-8 -5 -24 -9 -35 -9 -16 1 -16 2 5 9 35 11 48 11 30 0z m-2039 -43
c-10 -9 -11 -8 -5 6 3 10 9 15 12 12 3 -3 0 -11 -7 -18z m4459 -3 c0 -8 -4
-12 -10 -9 -5 3 -10 13 -10 21 0 8 5 12 10 9 6 -3 10 -13 10 -21z m-5102 -3
c40 -20 79 -58 70 -67 -6 -5 -108 42 -108 50 0 3 -3 11 -6 20 -8 21 -1 20 44
-3z m2946 5 c21 -9 72 -14 137 -14 207 -1 307 -12 382 -44 38 -16 75 -27 83
-24 8 3 14 1 14 -4 0 -6 10 -10 23 -10 12 0 29 -5 37 -10 15 -10 -327 -6 -527
6 -81 5 -93 8 -99 26 -4 14 -9 17 -17 9 -7 -7 -15 0 -27 22 -14 25 -23 31 -41
29 -32 -5 -34 -9 -18 -28 13 -16 11 -17 -16 -10 -31 8 -45 21 -45 44 0 9 7 11
19 7 11 -3 22 -1 26 5 8 14 29 13 69 -4z m852 -14 c-10 -2 -22 0 -28 6 -6 6 0
7 19 4 21 -5 23 -7 9 -10z m-3931 -2 c3 -5 -1 -10 -9 -10 -9 0 -16 5 -16 10 0
6 4 10 9 10 6 0 13 -4 16 -10z m2795 -36 c0 -9 -9 -27 -19 -40 -11 -13 -17
-32 -14 -42 2 -10 -5 -26 -16 -36 -12 -11 -21 -30 -21 -43 0 -13 -12 -40 -26
-59 -15 -19 -24 -37 -21 -40 7 -7 -37 -91 -62 -119 -24 -27 -61 -93 -61 -109
0 -6 -13 -30 -30 -53 -16 -22 -27 -42 -25 -45 3 -2 -11 -23 -31 -46 -30 -35
-33 -43 -19 -48 9 -4 25 2 38 13 21 19 26 19 92 7 128 -23 369 -14 302 12 -9
3 -32 4 -50 1 -17 -2 -83 6 -146 19 -62 13 -124 24 -137 24 -13 0 -24 5 -24
10 0 12 108 3 149 -12 12 -4 64 -10 115 -13 50 -3 114 -8 141 -11 42 -6 46 -8
28 -15 -33 -12 -28 -19 15 -19 27 0 33 3 22 10 -10 7 10 9 65 9 61 -1 72 -3
45 -9 -26 -6 -13 -8 51 -9 75 -1 88 -4 107 -23 11 -13 23 -36 26 -53 6 -30 6
-30 -4 -3 -6 14 -27 34 -46 43 -32 15 -77 16 -467 10 -474 -7 -578 -14 -606
-39 -22 -20 -38 -141 -52 -381 -11 -183 -11 -219 -3 -259 5 -22 3 -28 -7 -23
-8 3 -23 8 -34 11 -16 5 -16 5 2 -5 21 -11 22 -19 25 -143 2 -72 2 -132 1
-134 -5 -12 -218 58 -350 115 -82 35 -82 35 -134 20 -28 -9 -48 -12 -43 -7 5
5 25 13 44 18 l35 10 -32 13 c-18 7 -33 17 -33 21 0 8 66 12 123 8 37 -2 34 5
-13 36 -54 36 -45 40 16 7 42 -22 56 -25 97 -19 26 4 45 11 42 16 -4 7 6 18
64 70 33 30 136 97 159 104 19 6 22 14 22 58 0 48 -1 50 -17 36 -42 -36 -373
-202 -359 -179 3 5 44 33 92 62 47 30 132 87 190 127 92 65 104 77 104 103 0
16 -3 29 -8 29 -4 0 -30 -23 -57 -51 -27 -28 -65 -59 -85 -69 -19 -10 -57 -37
-83 -60 -27 -24 -63 -51 -80 -60 -28 -15 -112 -63 -157 -90 -34 -20 -150 -70
-162 -70 -7 0 -26 -7 -42 -15 -15 -8 -51 -21 -80 -29 -28 -8 -82 -24 -121 -36
-78 -23 -143 -36 -135 -27 3 3 55 20 115 37 61 17 150 45 200 63 81 28 87 32
60 38 -17 3 -34 8 -40 10 -5 2 -37 0 -71 -4 -35 -5 -81 -3 -111 3 l-50 11 -2
55 c-1 61 -31 146 -38 108 -3 -15 -14 -24 -34 -28 -55 -11 -82 18 -109 117 -7
26 -10 50 -7 53 6 6 63 -21 87 -41 8 -7 26 -16 39 -20 44 -13 17 14 -59 59
l-75 45 -11 -40 c-7 -22 -19 -50 -27 -63 -33 -49 -174 -117 -213 -102 -16 6
-11 14 59 90 47 51 55 80 32 106 -20 22 -61 26 -100 8 -36 -16 -31 -25 18 -32
65 -10 73 -20 30 -39 -24 -11 -31 -12 -20 -4 25 21 22 24 -29 30 -95 10 -184
-42 -229 -136 -37 -75 -94 -290 -96 -355 0 -20 -4 -46 -8 -57 -6 -15 -9 -11
-14 20 -10 59 -8 115 3 115 6 0 10 20 10 45 0 25 7 62 15 82 8 19 15 45 15 57
0 12 8 37 19 56 10 19 22 46 26 60 4 14 24 44 44 67 20 23 49 58 64 77 90 111
269 147 364 73 60 -48 180 -109 188 -97 9 14 85 50 105 50 9 0 20 3 24 8 4 4
11 7 14 8 4 0 20 6 35 12 16 7 30 12 32 12 2 0 39 16 82 37 43 20 83 37 88 38
6 0 17 4 25 8 8 4 58 18 110 31 52 13 133 36 180 51 47 15 116 33 153 41 37 8
75 17 85 22 9 5 24 8 32 7 8 0 30 10 49 24 30 23 46 26 147 31 l112 5 31 39
c17 22 30 41 27 43 -2 2 -28 8 -57 12 -56 10 -115 29 -108 35 2 3 44 -3 92
-13 l88 -18 34 62 c19 34 35 66 35 72 0 6 12 28 26 49 39 58 67 124 48 117 -8
-3 -14 -9 -14 -13 0 -5 -21 -16 -47 -26 -27 -10 -54 -22 -61 -27 -7 -5 -38
-16 -70 -24 -31 -8 -72 -18 -90 -23 -17 -4 -34 -5 -37 0 -2 4 21 13 53 20 80
19 172 54 238 91 59 34 52 22 138 212 33 72 56 98 56 61z m95 -53 c4 -14 15
-35 25 -46 9 -11 23 -38 30 -60 7 -21 21 -46 31 -55 15 -13 54 -118 46 -126
-1 -2 -14 18 -28 44 -15 26 -53 94 -86 152 -33 58 -63 117 -67 133 l-6 27 24
-21 c13 -12 27 -33 31 -48z m65 -25 c0 -5 11 -23 24 -41 13 -17 31 -47 39 -67
8 -20 25 -46 36 -57 11 -11 27 -36 35 -56 8 -19 20 -35 25 -35 13 0 41 -65 40
-94 0 -16 -4 -13 -16 14 -8 19 -20 38 -25 41 -6 4 -7 12 -4 18 4 6 2 10 -4 9
-7 -2 -23 17 -36 41 -13 24 -24 40 -24 35 0 -5 -15 14 -33 41 -52 80 -107 176
-107 186 0 5 -8 22 -17 37 -10 16 0 9 25 -18 23 -24 42 -48 42 -54z m2375 74
c3 -5 -1 -10 -9 -10 -8 0 -18 5 -21 10 -3 6 1 10 9 10 8 0 18 -4 21 -10z
m-2320 -18 c-3 -3 -11 0 -18 7 -9 10 -8 11 6 5 10 -3 15 -9 12 -12z m48 1 c-7
-2 -19 -2 -25 0 -7 3 -2 5 12 5 14 0 19 -2 13 -5z m-470 -70 c-7 -2 -19 -2
-25 0 -7 3 -2 5 12 5 14 0 19 -2 13 -5z m-1221 -244 c37 -12 68 -25 68 -30 0
-4 -14 -11 -32 -14 -18 -4 -39 -11 -48 -16 -8 -4 -64 -25 -125 -45 -341 -113
-807 -335 -1141 -542 -26 -17 -50 -30 -51 -28 -6 5 30 133 43 153 23 36 584
307 885 428 96 39 306 113 324 114 5 1 40 -9 77 -20z m1698 -40 c6 -23 9 -43
7 -45 -5 -5 -37 70 -37 87 0 23 20 -5 30 -42z m-1235 11 c18 -8 18 -9 -5 -9
-14 0 -32 4 -40 9 -12 8 -12 10 5 9 11 0 29 -4 40 -9z m133 -27 c-10 -2 -28
-2 -40 0 -13 2 -5 4 17 4 22 1 32 -1 23 -4z m307 -3 c-44 -11 -116 -11 -90 0
11 5 43 8 70 8 43 0 46 -1 20 -8z m-167 -11 c-11 -6 -29 -6 -50 0 -32 9 -31 9
17 10 38 0 46 -2 33 -10z m1021 -71 c6 -18 7 -28 2 -23 -10 12 -25 55 -18 55
3 0 10 -15 16 -32z m80 10 c4 -13 11 -36 14 -53 5 -26 4 -25 -13 10 -19 40
-25 65 -15 65 3 0 9 -10 14 -22z m-1109 -28 c13 -9 13 -10 0 -9 -8 0 -24 4
-35 9 l-20 9 20 0 c11 0 27 -4 35 -9z m155 -30 c17 -7 16 -9 -10 -9 -16 0 -37
4 -45 9 -12 8 -10 10 10 9 14 0 34 -4 45 -9z m1695 3 c0 -6 -103 -123 -181
-205 -46 -49 -107 -90 -127 -86 -9 2 -22 14 -28 27 -7 13 -31 43 -55 67 -47
48 -47 62 2 45 24 -8 36 -8 46 0 13 12 118 -3 153 -21 11 -6 36 17 94 86 72
85 96 107 96 87z m-510 -23 c0 -5 -4 -10 -10 -10 -5 0 -10 5 -10 10 0 6 5 10
10 10 6 0 10 -4 10 -10z m1037 -48 c-21 -23 -21 -58 -2 -92 18 -32 19 -51 1
-44 -8 3 -21 22 -29 42 l-14 36 -32 -49 c-17 -28 -31 -45 -31 -39 0 19 99 164
111 164 8 0 6 -7 -4 -18z m-1187 -27 c0 -5 -5 -3 -10 5 -5 8 -10 20 -10 25 0
6 5 3 10 -5 5 -8 10 -19 10 -25z m240 0 c-19 -7 -53 -14 -75 -14 -22 -1 -57
-5 -78 -10 -20 -5 -39 -5 -42 -1 -3 5 16 12 42 15 27 4 66 10 88 15 22 4 54 8
70 8 l30 0 -35 -13z m1758 -51 c-4 -3 -12 5 -18 18 -12 22 -12 22 6 6 10 -10
15 -20 12 -24z m-658 -10 c0 -28 -119 -189 -207 -279 -24 -24 -43 -49 -43 -56
0 -7 -3 -9 -7 -6 -8 8 -53 -32 -53 -47 -1 -6 -12 -24 -25 -41 -34 -41 -32 -10
3 37 15 20 41 56 59 80 31 42 75 98 132 168 16 20 41 61 55 92 15 32 34 61 43
67 21 11 43 4 43 -15z m710 2 c0 -3 -4 -8 -10 -11 -5 -3 -10 -1 -10 4 0 6 5
11 10 11 6 0 10 -2 10 -4z m-1436 -56 c14 0 28 -4 31 -10 3 -5 15 -10 26 -10
12 0 19 -5 16 -12 -2 -7 -12 -12 -21 -10 -10 2 -24 -2 -32 -9 -8 -7 -27 -12
-43 -11 -23 0 -30 -6 -41 -33 -17 -43 -40 -53 -62 -26 -19 25 -31 26 -48 6 -7
-9 -19 -14 -26 -11 -7 3 -15 0 -18 -7 -2 -7 -5 -7 -5 -1 -1 16 58 56 71 48 7
-4 8 -3 4 4 -4 7 13 30 41 56 37 35 51 42 65 35 9 -5 28 -9 42 -9z m976 -1 c0
-6 -4 -7 -10 -4 -5 3 -10 11 -10 16 0 6 5 7 10 4 6 -3 10 -11 10 -16z m-660
-74 c0 -30 -4 -55 -10 -55 -11 0 -14 93 -3 103 12 12 13 8 13 -48z m475 45 c3
-5 0 -10 -8 -10 -8 0 -34 -23 -57 -50 -24 -28 -45 -48 -48 -45 -3 3 12 30 33
60 36 52 65 69 80 45z m-630 -40 c-3 -5 3 -14 12 -20 15 -9 14 -10 -7 -4 -14
4 -30 14 -37 23 -6 9 -15 12 -20 7 -4 -4 2 -15 15 -23 12 -9 22 -19 22 -23 0
-4 -25 -13 -56 -20 -48 -12 -57 -12 -65 1 -8 10 -9 8 -4 -8 5 -18 2 -23 -12
-24 -10 0 -27 -2 -38 -3 -11 -2 -47 -6 -80 -9 -60 -7 -60 -7 -18 6 24 6 49 21
57 32 9 14 27 22 52 23 21 2 41 6 44 10 10 14 51 33 59 27 5 -2 11 4 14 15 4
17 9 18 36 9 17 -6 29 -15 26 -19z m261 -6 c-3 -9 -6 -18 -6 -20 0 -2 -4 -4
-9 -4 -5 0 -7 9 -4 20 3 11 10 20 15 20 6 0 7 -7 4 -16z m588 0 c3 -8 3 -26 0
-40 -4 -14 -2 -24 5 -24 18 0 14 -125 -4 -140 -8 -7 -15 -20 -16 -29 -2 -28
-17 32 -18 70 -1 25 4 39 15 43 16 6 15 41 -3 114 -6 25 12 31 21 6z m-4044
-28 c0 -3 -4 -8 -10 -11 -5 -3 -10 -1 -10 4 0 6 5 11 10 11 6 0 10 -2 10 -4z
m695 -6 c-3 -5 -10 -10 -16 -10 -5 0 -9 5 -9 10 0 6 7 10 16 10 8 0 12 -4 9
-10z m3040 -87 c-9 -16 -28 -41 -42 -58 l-25 -30 22 40 c23 40 50 75 57 75 2
0 -3 -12 -12 -27z m-1298 -25 c-3 -7 -5 -2 -5 12 0 14 2 19 5 13 2 -7 2 -19 0
-25z m33 -61 c-14 -8 -27 -12 -30 -10 -7 6 23 23 40 23 8 0 4 -6 -10 -13z
m169 -21 c-3 -3 -11 5 -18 17 -13 21 -12 21 5 5 10 -10 16 -20 13 -22z m-192
-58 c-3 -8 -6 -5 -6 6 -1 11 2 17 5 13 3 -3 4 -12 1 -19z m-3187 -8 c0 -5 -4
-10 -10 -10 -5 0 -10 5 -10 10 0 6 5 10 10 10 6 0 10 -4 10 -10z m591 -23 c-1
-19 -48 -87 -59 -87 -23 0 -73 31 -69 43 2 7 21 21 43 32 21 11 40 23 42 27 4
9 44 -5 43 -15z m2947 -43 c-4 -3 -12 5 -18 18 -12 22 -12 22 6 6 10 -10 15
-20 12 -24z m554 -14 c-15 -21 -33 -42 -41 -45 -16 -6 -5 10 38 58 34 38 36
34 3 -13z m-3612 -74 c19 -58 20 -70 9 -130 -7 -36 -15 -66 -19 -66 -11 0 -36
32 -55 69 -23 45 -17 136 10 173 11 14 23 24 27 22 3 -2 16 -33 28 -68z m2788
32 c7 -7 12 -21 11 -32 0 -19 -2 -18 -12 4 -6 14 -16 28 -22 32 -7 5 -7 8 1 8
5 0 15 -5 22 -12z m210 -39 c100 -11 194 -39 224 -66 31 -28 40 -82 20 -122
-28 -58 -86 -93 -233 -140 -73 -24 -144 -47 -157 -52 -35 -14 -42 -11 -42 14
0 14 6 24 15 24 8 0 15 -4 15 -9 0 -4 -4 -8 -10 -8 -5 0 -10 -4 -10 -10 0 -6
9 -6 23 -1 13 5 21 15 19 26 -3 13 3 16 30 14 18 -2 35 -1 37 1 9 9 -14 37
-46 55 -26 15 -34 16 -47 6 -21 -18 -41 -4 -24 17 11 13 10 15 -4 9 -13 -5
-18 -1 -18 12 0 10 9 21 20 24 20 5 28 27 11 27 -6 0 -22 16 -37 35 l-27 36
24 17 c13 9 27 16 32 14 4 -1 7 3 7 8 0 6 10 10 23 10 36 1 161 36 150 43 -6
4 -49 10 -97 13 -47 4 -86 10 -86 14 0 8 39 6 188 -11z m912 11 c0 -5 -4 -10
-10 -10 -5 0 -10 5 -10 10 0 6 5 10 10 10 6 0 10 -4 10 -10z m-426 -84 c-21
-25 -40 -46 -41 -46 -8 0 22 47 45 72 41 44 38 24 -4 -26z m-3764 4 c0 -5 -4
-10 -10 -10 -5 0 -10 5 -10 10 0 6 5 10 10 10 6 0 10 -4 10 -10z m-380 -69
l25 -7 -26 -5 c-14 -3 -30 0 -37 8 -15 15 -4 16 38 4z m756 -45 c26 -41 29
-43 56 -34 16 6 31 8 34 5 9 -8 -20 -47 -35 -47 -11 0 -11 -3 -1 -15 6 -8 9
-19 5 -25 -11 -18 91 -11 201 15 58 14 111 25 117 24 24 -1 -89 -37 -120 -38
-17 -1 -34 -5 -37 -10 -3 -5 16 -7 42 -5 43 4 44 3 17 -6 -29 -10 -363 -5
-374 5 -2 3 10 5 27 5 17 0 34 5 37 10 3 6 -3 10 -14 10 -12 0 -21 5 -21 10 0
6 13 10 29 10 16 0 34 6 40 14 9 11 6 15 -16 21 -35 8 -53 23 -48 38 2 7 6 25
9 40 8 34 16 30 52 -27z m-556 40 c0 -3 -4 -8 -10 -11 -5 -3 -10 -1 -10 4 0 6
5 11 10 11 6 0 10 -2 10 -4z m4599 -25 c-13 -18 -24 -53 -28 -88 l-7 -58 -8
38 c-9 42 14 110 43 127 24 14 24 13 0 -19z m-4689 0 c36 -11 54 -19 40 -19
-24 0 -135 36 -115 37 6 1 39 -8 75 -18z m4441 -66 c-37 -43 -54 -103 -49
-173 4 -49 4 -52 -8 -31 -30 55 -12 155 38 206 42 44 58 43 19 -2z m-4261 15
c12 -8 12 -10 -5 -10 -11 0 -27 5 -35 10 -12 8 -12 10 5 10 11 0 27 -5 35 -10z
m1085 -39 c-4 -3 -11 -7 -16 -7 -5 -1 -13 -2 -19 -3 -5 0 -10 -8 -10 -16 0
-11 11 -15 36 -15 31 0 35 3 29 20 -4 11 -2 20 4 20 6 0 11 -7 11 -16 0 -15 9
-16 68 -10 37 4 78 9 92 12 15 3 11 -1 -10 -9 -49 -19 -515 -56 -475 -37 11 5
49 9 85 9 94 2 140 11 140 29 0 21 30 40 52 34 10 -2 16 -7 13 -11z m4335 15
c0 -3 -4 -8 -10 -11 -5 -3 -10 -1 -10 4 0 6 5 11 10 11 6 0 10 -2 10 -4z
m-5705 -16 l30 -8 -27 -1 c-16 0 -28 -7 -28 -13 0 -9 -3 -10 -8 -2 -4 6 -27
15 -52 21 l-45 11 50 0 c28 0 64 -4 80 -8z m409 1 c4 -5 -3 -7 -14 -4 -23 6
-26 13 -6 13 8 0 17 -4 20 -9z m-291 -18 c-13 -2 -35 -2 -50 0 -16 2 -5 4 22
4 28 0 40 -2 28 -4z m140 -20 c-7 -2 -21 -2 -30 0 -10 3 -4 5 12 5 17 0 24 -2
18 -5z m156 -9 c10 -9 -66 -3 -79 6 -10 7 -1 8 30 4 25 -4 47 -8 49 -10z
m4484 9 c3 -5 -1 -14 -9 -21 -11 -10 -14 -10 -14 0 0 7 -10 -2 -21 -19 -12
-18 -27 -33 -34 -33 -7 0 -23 -12 -34 -27 l-21 -28 11 30 c21 59 105 126 122
98z m-137 -49 c5 -19 0 -32 -20 -53 -28 -29 -36 -52 -11 -31 26 21 27 5 1 -19
l-23 -22 2 48 c4 85 37 134 51 77z m-4314 -76 c-6 -69 -22 -59 -22 13 0 49 2
58 13 47 8 -8 11 -30 9 -60z m415 46 c-3 -3 -12 -4 -19 -1 -8 3 -5 6 6 6 11 1
17 -2 13 -5z m-767 -24 c-8 -5 -40 -9 -70 -9 -50 2 -52 2 -20 9 55 12 108 12
90 0z m138 3 c-21 -2 -55 -2 -75 0 -21 2 -4 4 37 4 41 0 58 -2 38 -4z m3347
-3 c7 -12 -2 -12 -30 0 -19 8 -19 9 2 9 12 1 25 -3 28 -9z m-3618 -6 c-7 -7
-138 -7 -145 1 -3 3 30 5 73 5 43 0 76 -3 72 -6z m1199 -59 c20 -15 33 -30 29
-33 -3 -4 -9 -2 -13 4 -4 6 -16 16 -27 21 -16 9 -21 7 -30 -10 -10 -19 -8 -25
12 -44 25 -22 23 -49 -4 -39 -11 5 -13 1 -7 -17 6 -20 4 -20 -24 7 -58 54
-136 44 -171 -23 -16 -29 -10 -34 23 -21 35 13 124 14 110 0 -5 -5 -25 -11
-44 -14 -57 -7 -90 -17 -134 -42 -42 -24 -97 -74 -81 -74 5 0 0 -7 -12 -15
-12 -8 -29 -30 -39 -48 -43 -81 -58 -115 -74 -160 l-17 -48 -7 32 c-5 24 0 45
19 81 14 26 25 54 25 61 0 8 11 30 24 50 l24 35 -49 12 c-48 12 -49 13 -49 51
0 21 5 39 10 39 6 0 10 -15 10 -34 0 -26 5 -35 23 -40 48 -13 68 -5 119 43 41
39 52 57 55 87 2 21 9 41 14 45 6 3 10 22 9 40 -1 19 -2 39 -1 46 1 12 70 40
111 45 54 7 131 -11 166 -37z m-450 -1 c-22 -16 -46 -19 -46 -5 0 10 52 31 60
24 3 -3 -4 -11 -14 -19z m2989 -2 c-3 -3 -11 0 -18 7 -9 10 -8 11 6 5 10 -3
15 -9 12 -12z m-3235 -40 c0 -10 -7 -27 -15 -38 -8 -10 -15 -27 -15 -36 0 -30
-17 -20 -24 13 -9 45 -7 71 3 64 5 -3 12 -1 16 5 10 17 35 11 35 -8z m140 -17
c0 -5 -5 -3 -10 5 -5 8 -10 20 -10 25 0 6 5 3 10 -5 5 -8 10 -19 10 -25z m90
-29 c0 -49 -4 -65 -16 -70 -26 -10 -29 -1 -26 68 3 57 6 66 23 66 17 0 19 -8
19 -64z m600 -22 c0 -2 -9 0 -20 6 -11 6 -20 13 -20 16 0 2 9 0 20 -6 11 -6
20 -13 20 -16z m2259 0 c10 -9 -35 -3 -49 6 -11 8 -7 9 15 4 17 -4 32 -8 34
-10z m-3599 -50 l75 -14 -65 6 c-36 3 -87 6 -113 8 -27 2 -51 7 -54 10 -11 10
79 5 157 -10z m200 -34 c13 -9 13 -10 0 -10 -8 0 -22 5 -30 10 -13 9 -13 10 0
10 8 0 22 -5 30 -10z m2134 -2 c15 -49 16 -68 2 -68 -18 0 -36 30 -36 59 0 23
28 29 34 9z m-2477 -60 c-2 -13 -4 -5 -4 17 -1 22 1 32 4 23 2 -10 2 -28 0
-40z m600 15 c-3 -10 -5 -4 -5 12 0 17 2 24 5 18 2 -7 2 -21 0 -30z m748 27
c-3 -5 -12 -10 -18 -10 -7 0 -6 4 3 10 19 12 23 12 15 0z m-858 -6 c-3 -3 -12
-4 -19 -1 -8 3 -5 6 6 6 11 1 17 -2 13 -5z m586 -18 c-18 -25 -53 -41 -53 -26
0 10 49 50 62 50 5 0 1 -11 -9 -24z m309 -18 c-7 -7 -12 -8 -12 -2 0 14 12 26
19 19 2 -3 -1 -11 -7 -17z m-602 -9 c0 -5 -12 -6 -27 -3 -42 10 -47 21 -8 16
19 -2 35 -8 35 -13z m397 -8 c1 -11 -6 -22 -15 -24 -9 -2 15 -7 53 -12 62 -7
66 -9 40 -17 -18 -5 -50 -3 -82 3 -51 12 -51 12 -32 32 10 12 19 24 19 29 0
17 16 7 17 -11z m2171 -37 c-9 -9 -21 -13 -28 -9 -14 9 5 25 30 25 12 0 12 -3
-2 -16z m316 -8 c-33 -15 -123 -32 -113 -22 6 7 108 35 129 35 8 0 1 -6 -16
-13z m-2267 -22 c-3 -3 -12 -4 -19 -1 -8 3 -5 6 6 6 11 1 17 -2 13 -5z m1918
-14 c3 -5 1 -10 -4 -10 -6 0 -11 5 -11 10 0 6 2 10 4 10 3 0 8 -4 11 -10z
m-2482 -12 c6 -21 -4 -48 -19 -48 -14 0 -20 41 -7 53 10 11 21 8 26 -5z m2162
-18 c3 -5 1 -10 -4 -10 -6 0 -11 5 -11 10 0 6 2 10 4 10 3 0 8 -4 11 -10z
m2035 -26 c0 -2 -9 -4 -20 -4 -11 0 -20 4 -20 9 0 5 9 7 20 4 11 -3 20 -7 20
-9z m-3513 -60 c-3 -3 -12 -4 -19 -1 -8 3 -5 6 6 6 11 1 17 -2 13 -5z m-1027
-24 c12 -8 11 -10 -5 -9 -11 1 -31 5 -45 9 -24 8 -24 8 5 9 17 0 37 -4 45 -9z
m670 0 c-14 -4 -38 -8 -55 -8 -29 0 -29 0 -5 8 14 4 39 8 55 8 29 0 29 0 5 -8z
m1883 3 c-7 -2 -19 -2 -25 0 -7 3 -2 5 12 5 14 0 19 -2 13 -5z m-2093 -33 c-8
-5 -33 -9 -55 -9 -39 1 -39 2 -10 9 17 4 41 8 55 9 20 0 22 -1 10 -9z m405 0
c-3 -5 -12 -10 -18 -10 -7 0 -6 4 3 10 19 12 23 12 15 0z m-582 -20 c-4 -4
-39 -10 -78 -14 -46 -4 -63 -3 -50 3 11 5 41 10 68 10 26 1 47 6 47 12 0 5 5
7 11 3 6 -3 7 -10 2 -14z m440 3 c-18 -2 -48 -2 -65 0 -18 2 -4 4 32 4 36 0
50 -2 33 -4z m-22 -69 c46 -31 97 -67 113 -80 l30 -23 28 20 c30 22 48 18 48
-10 0 -34 -60 -69 -82 -48 -25 24 -210 147 -222 147 -6 0 -13 11 -14 25 -1 14
2 25 7 25 4 0 46 -25 92 -56z m24 36 c-3 -5 -11 -10 -16 -10 -6 0 -7 5 -4 10
3 6 11 10 16 10 6 0 7 -4 4 -10z m1875 0 c0 -5 -4 -10 -10 -10 -5 0 -10 5 -10
10 0 6 5 10 10 10 6 0 10 -4 10 -10z m-2680 -11 c-25 -4 -56 -7 -70 -7 l-25 0
25 8 c14 4 45 8 70 8 l45 -1 -45 -8z m407 -21 c-3 -7 -5 -2 -5 12 0 14 2 19 5
13 2 -7 2 -19 0 -25z m-820 6 c-3 -3 -12 -4 -19 -1 -8 3 -5 6 6 6 11 1 17 -2
13 -5z m3399 -122 c-18 -16 -18 -16 -6 6 6 13 14 21 18 18 3 -4 -2 -14 -12
-24z m41 -84 c30 -34 144 -118 208 -153 81 -45 118 -67 155 -95 23 -17 76 -38
150 -57 134 -36 279 -82 475 -151 347 -123 339 -119 392 -196 31 -45 81 -181
71 -192 -6 -5 -28 41 -55 111 -15 42 -27 55 -72 82 -29 17 -60 32 -69 32 -28
0 -227 55 -230 64 -2 4 -11 7 -19 7 -9 0 -54 13 -102 29 -47 16 -104 33 -126
36 -22 4 -57 18 -77 31 -21 13 -45 24 -54 24 -8 0 -36 12 -62 27 l-47 26 28
-29 c39 -44 33 -48 -20 -14 -26 17 -65 33 -85 37 -21 3 -38 9 -38 14 0 5 -14
9 -31 9 -51 0 -241 69 -271 99 -15 14 -36 51 -47 81 -10 29 -26 59 -33 64 -8
6 -13 17 -11 24 3 6 0 12 -5 12 -6 0 -12 6 -15 13 -2 6 -2 3 0 -8 2 -11 6 -41
10 -67 5 -44 4 -46 -15 -41 -12 3 -27 11 -33 19 -6 8 -20 14 -30 14 -22 0 -22
-4 -8 76 8 44 8 68 0 82 -6 11 -8 28 -5 37 6 14 8 14 27 -2 12 -10 31 -30 44
-45z m-861 -13 c-9 -13 -16 -32 -16 -41 0 -9 -6 -30 -14 -47 -8 -18 -19 -45
-24 -62 l-10 -30 -1 41 c-1 44 16 104 29 104 4 0 13 14 20 30 7 17 17 30 22
30 6 0 3 -11 -6 -25z m-2176 -45 c0 -5 -4 -10 -9 -10 -6 0 -13 5 -16 10 -3 6
1 10 9 10 9 0 16 -4 16 -10z m237 -37 c2 -6 -3 -13 -12 -16 -10 -5 -15 0 -15
14 0 21 21 22 27 2z m1817 -52 c-12 -21 -20 -27 -26 -18 -4 7 2 21 14 34 28
30 34 22 12 -16z m-2364 15 c0 -3 -4 -8 -10 -11 -5 -3 -10 -1 -10 4 0 6 5 11
10 11 6 0 10 -2 10 -4z m2306 -35 c-4 -5 -41 -26 -84 -47 -45 -22 -126 -77
-196 -133 -199 -161 -193 -148 22 42 47 42 44 48 -8 15 -19 -12 -45 -21 -57
-19 -11 1 -24 -2 -27 -8 -4 -6 -13 -8 -21 -4 -8 3 -15 1 -15 -5 0 -6 -14 -13
-31 -17 -17 -4 -65 -25 -107 -46 -42 -21 -86 -39 -98 -39 -11 0 -24 -3 -27 -7
-9 -9 -107 -44 -132 -48 -12 -1 -58 -15 -103 -29 -46 -14 -97 -26 -115 -27
-42 0 -139 -38 -171 -66 -17 -15 -26 -18 -26 -9 0 29 85 75 214 115 33 11 88
31 121 46 141 63 424 155 614 200 41 9 90 26 110 38 37 21 119 56 134 57 5 0
6 -4 3 -9z m-857 -134 c17 -45 17 -81 0 -85 -17 -3 -29 33 -29 84 0 31 18 31
29 1z m3571 -73 c0 -8 -4 -12 -10 -9 -5 3 -10 10 -10 16 0 5 5 9 10 9 6 0 10
-7 10 -16z m-4465 -20 c0 -14 -8 -20 -32 -22 -39 -4 -46 19 -10 36 29 14 42
10 42 -14z m-276 -166 c18 -46 35 -88 38 -94 2 -6 -3 -11 -12 -11 -19 0 -39
43 -29 59 4 7 2 8 -4 4 -8 -5 -12 4 -12 29 0 20 -4 34 -9 31 -5 -3 -11 10 -13
29 -2 19 -2 35 2 35 3 0 20 -37 39 -82z m1556 52 c-16 -16 -33 -30 -39 -30 -9
0 53 59 63 60 3 0 -8 -13 -24 -30z m1835 -181 c0 -6 -4 -7 -10 -4 -5 3 -10 11
-10 16 0 6 5 7 10 4 6 -3 10 -11 10 -16z m500 -259 c0 -5 -4 -10 -10 -10 -5 0
-10 5 -10 10 0 6 5 10 10 10 6 0 10 -4 10 -10z m-3910 -70 c0 -5 -4 -10 -10
-10 -5 0 -10 5 -10 10 0 6 5 10 10 10 6 0 10 -4 10 -10z m470 -90 c0 -5 -5
-10 -11 -10 -5 0 -7 5 -4 10 3 6 8 10 11 10 2 0 4 -4 4 -10z m-740 -70 c0 -5
-5 -10 -11 -10 -5 0 -7 5 -4 10 3 6 8 10 11 10 2 0 4 -4 4 -10z m1820 -39 c0
-12 -20 -25 -27 -18 -7 7 6 27 18 27 5 0 9 -4 9 -9z m-1026 -36 c-4 -8 -10
-12 -15 -9 -11 6 -2 24 11 24 5 0 7 -7 4 -15z m-624 -40 c0 -5 -5 -3 -10 5 -5
8 -10 20 -10 25 0 6 5 3 10 -5 5 -8 10 -19 10 -25z m4950 -35 c0 -5 -2 -10 -4
-10 -3 0 -8 5 -11 10 -3 6 -1 10 4 10 6 0 11 -4 11 -10z m-3630 -54 c0 -2 -8
-10 -17 -17 -16 -13 -17 -12 -4 4 13 16 21 21 21 13z m1168 -117 c-2 -6 -8
-10 -13 -10 -5 0 -11 4 -13 10 -2 6 4 11 13 11 9 0 15 -5 13 -11z m2395 4 c9
-9 -13 -34 -24 -27 -14 8 -11 34 4 34 8 0 17 -3 20 -7z m-5094 -137 c10 -12 8
-17 -8 -25 -27 -15 -31 -14 -31 7 0 33 20 42 39 18z m77 -181 c-11 -8 -25 -15
-30 -15 -6 0 -2 7 8 15 11 8 25 15 30 15 6 0 2 -7 -8 -15z m3414 -60 c0 -8 -2
-15 -4 -15 -2 0 -11 -3 -20 -6 -10 -4 -16 -1 -16 9 0 14 13 24 33 26 4 1 7 -6
7 -14z m-1194 -152 c-10 -10 -19 5 -10 18 6 11 8 11 12 0 2 -7 1 -15 -2 -18z
m504 -83 c0 -5 -7 -10 -16 -10 -8 0 -12 5 -9 10 3 6 10 10 16 10 5 0 9 -4 9
-10z m-1250 -30 c0 -5 -2 -10 -4 -10 -3 0 -8 5 -11 10 -3 6 -1 10 4 10 6 0 11
-4 11 -10z m2525 -70 c3 -5 -1 -10 -10 -10 -9 0 -13 5 -10 10 3 6 8 10 10 10
2 0 7 -4 10 -10z m-3721 -115 c-9 -14 -20 -22 -26 -19 -5 3 -2 14 8 25 25 27
37 23 18 -6z m2105 -12 c0 -25 -1 -26 -9 -8 -12 27 -12 35 0 35 6 0 10 -12 9
-27z m1391 17 c0 -5 -4 -10 -10 -10 -5 0 -10 5 -10 10 0 6 5 10 10 10 6 0 10
-4 10 -10z m-3549 -34 c-9 -11 -9 -15 1 -19 9 -4 8 -6 -3 -6 -17 -1 -32 22
-22 33 4 3 13 6 21 6 11 0 12 -3 3 -14z m3699 -1 c0 -8 -4 -15 -10 -15 -5 0
-10 7 -10 15 0 8 5 15 10 15 6 0 10 -7 10 -15z m-3932 -16 c-2 -6 -8 -10 -13
-10 -5 0 -11 4 -13 10 -2 6 4 11 13 11 9 0 15 -5 13 -11z m-114 -14 c3 -8 1
-15 -3 -15 -5 0 -11 7 -15 15 -3 8 -1 15 3 15 5 0 11 -7 15 -15z m1918 -5 c20
-18 20 -20 4 -45 -30 -45 -104 -25 -89 25 3 8 6 21 8 28 6 19 53 14 77 -8z
m-632 0 c0 -5 -5 -10 -11 -10 -5 0 -7 5 -4 10 3 6 8 10 11 10 2 0 4 -4 4 -10z
m306 -17 c-10 -10 -19 5 -10 18 6 11 8 11 12 0 2 -7 1 -15 -2 -18z m3711 -89
c-3 -38 -8 -82 -12 -99 -4 -16 -11 -70 -15 -120 -9 -107 -16 -130 -45 -170
-12 -16 -24 -38 -28 -47 -9 -25 -34 -22 -40 4 -6 22 -6 22 -28 2 l-21 -19 7
45 c4 25 11 53 17 63 5 10 5 17 -1 17 -5 0 -9 20 -9 45 0 24 -3 49 -7 55 -4 6
-1 9 6 8 7 -2 15 11 19 27 4 17 19 51 33 77 15 26 27 54 27 62 0 9 5 16 10 16
6 0 13 8 17 18 13 36 58 100 66 92 5 -4 7 -39 4 -76z m-5042 66 c3 -5 1 -10
-4 -10 -6 0 -11 5 -11 10 0 6 2 10 4 10 3 0 8 -4 11 -10z m40 0 c3 -5 -1 -10
-9 -10 -9 0 -16 5 -16 10 0 6 4 10 9 10 6 0 13 -4 16 -10z m5085 -10 c0 -5 -2
-10 -4 -10 -3 0 -8 5 -11 10 -3 6 -1 10 4 10 6 0 11 -4 11 -10z m-3070 -42 c0
-6 -7 -5 -15 2 -8 7 -15 17 -15 22 0 6 7 5 15 -2 8 -7 15 -17 15 -22z m-1080
-33 c0 -8 -4 -15 -10 -15 -5 0 -10 7 -10 15 0 8 5 15 10 15 6 0 10 -7 10 -15z
m150 -85 c0 -5 -4 -10 -10 -10 -5 0 -10 5 -10 10 0 6 5 10 10 10 6 0 10 -4 10
-10z m286 -21 c3 -6 0 -18 -9 -26 -18 -18 -37 -9 -37 18 0 21 34 27 46 8z
m-1336 -73 c0 -2 -8 -10 -17 -17 -16 -13 -17 -12 -4 4 13 16 21 21 21 13z
m-270 -41 c-7 -9 -15 -13 -19 -10 -3 3 1 10 9 15 21 14 24 12 10 -5z m3805
-15 c-10 -11 -21 -18 -23 -15 -3 3 3 12 14 20 27 20 30 18 9 -5z m-3088 -72
c-3 -8 -6 -5 -6 6 -1 11 2 17 5 13 3 -3 4 -12 1 -19z m4008 -18 c3 -5 1 -10
-4 -10 -6 0 -11 5 -11 10 0 6 2 10 4 10 3 0 8 -4 11 -10z m-35 -96 c0 -8 -4
-14 -10 -14 -5 0 -10 9 -10 21 0 11 5 17 10 14 6 -3 10 -13 10 -21z m-4320
-29 c0 -8 -4 -15 -10 -15 -5 0 -10 7 -10 15 0 8 5 15 10 15 6 0 10 -7 10 -15z
m4660 -71 c0 -24 -2 -44 -5 -44 -13 0 -45 94 -39 113 7 21 7 21 25 -2 12 -15
19 -39 19 -67z m-5070 -8 c0 -3 -4 -8 -10 -11 -5 -3 -10 -1 -10 4 0 6 5 11 10
11 6 0 10 -2 10 -4z m420 -26 c13 -9 10 -14 -15 -35 -16 -14 -37 -25 -45 -25
-8 0 -27 -6 -41 -14 -22 -11 -29 -11 -45 2 -10 8 -14 16 -9 18 6 3 33 17 60
33 55 32 73 36 95 21z m4596 -107 c-11 -11 -19 6 -11 24 8 17 8 17 12 0 3 -10
2 -21 -1 -24z m-4896 7 c0 -5 -4 -10 -10 -10 -5 0 -10 5 -10 10 0 6 5 10 10
10 6 0 10 -4 10 -10z m2490 -9 c0 -6 -4 -13 -10 -16 -5 -3 -10 1 -10 9 0 9 5
16 10 16 6 0 10 -4 10 -9z m-2659 -67 c-5 -21 -9 -30 -10 -19 -1 24 10 67 15
62 3 -2 0 -22 -5 -43z m1229 30 l25 -15 -25 7 c-14 3 -32 10 -40 15 -13 7 -13
8 0 8 8 0 26 -6 40 -15z m-745 -84 c-5 -8 -11 -8 -17 -2 -6 6 -7 16 -3 22 5 8
11 8 17 2 6 -6 7 -16 3 -22z m750 -30 c-3 -5 -11 -10 -16 -10 -6 0 -7 5 -4 10
3 6 11 10 16 10 6 0 7 -4 4 -10z m-778 -136 c-3 -3 -12 -4 -19 -1 -8 3 -5 6 6
6 11 1 17 -2 13 -5z m2023 -54 c0 -5 -2 -10 -4 -10 -3 0 -8 5 -11 10 -3 6 -1
10 4 10 6 0 11 -4 11 -10z m-895 -100 c-53 -24 -70 -24 -25 0 19 11 42 19 50
19 8 0 -3 -9 -25 -19z m-1618 -342 c-3 -8 -6 -5 -6 6 -1 11 2 17 5 13 3 -3 4
-12 1 -19z m858 3 c-11 -10 -85 -32 -85 -25 0 6 63 32 80 33 8 1 10 -2 5 -8z
m-355 -91 c-20 -13 -33 -13 -25 0 3 6 14 10 23 10 15 0 15 -2 2 -10z m-430
-140 c0 -5 -5 -10 -11 -10 -5 0 -7 5 -4 10 3 6 8 10 11 10 2 0 4 -4 4 -10z
m-11 -39 c-14 -11 -26 -15 -28 -9 -4 12 17 28 38 28 8 0 3 -8 -10 -19z m5873
-83 c-7 -7 -12 -8 -12 -2 0 14 12 26 19 19 2 -3 -1 -11 -7 -17z"/>
<path d="M3072 8328 c-7 -7 -12 -21 -12 -33 0 -12 5 -26 12 -33 7 -7 21 -12
33 -12 12 0 26 5 33 12 7 7 12 21 12 33 0 12 -5 26 -12 33 -7 7 -21 12 -33 12
-12 0 -26 -5 -33 -12z"/>
<path d="M4550 8325 c-10 -12 -11 -24 -4 -43 8 -22 16 -27 44 -27 34 0 35 1
35 40 0 37 -2 40 -31 43 -19 2 -36 -3 -44 -13z"/>
<path d="M2310 8320 c0 -17 5 -21 28 -18 16 2 27 9 27 18 0 9 -11 16 -27 18
-23 3 -28 -1 -28 -18z"/>
<path d="M3312 8318 c4 -27 18 -32 42 -15 24 17 13 37 -20 37 -20 0 -25 -4
-22 -22z"/>
<path d="M3960 8320 c0 -16 7 -20 30 -20 23 0 30 4 30 20 0 16 -7 20 -30 20
-23 0 -30 -4 -30 -20z"/>
<path d="M5016 8304 c-9 -23 -8 -24 13 -24 14 0 18 5 14 20 -6 24 -19 26 -27
4z"/>
<path d="M1550 8266 c0 -31 12 -39 35 -22 23 16 13 46 -15 46 -15 0 -20 -7
-20 -24z"/>
<path d="M462 8016 c-23 -12 -48 -28 -55 -36 -6 -7 -1 -6 13 3 13 10 32 17 41
17 10 0 20 6 23 13 4 7 8 8 11 2 3 -6 24 -9 48 -7 28 2 38 0 28 -6 -10 -7 -6
-9 13 -9 14 0 26 3 26 7 0 11 -50 23 -85 21 -23 -1 -27 0 -15 8 27 19 -4 10
-48 -13z"/>
<path d="M400 8012 c0 -6 -6 -9 -13 -6 -17 6 -51 -33 -65 -76 -14 -40 -15 -50
-2 -30 8 12 10 9 10 -13 0 -16 -4 -26 -10 -22 -12 7 -12 -21 -1 -50 6 -15 10
-6 15 36 4 30 13 67 21 82 8 16 9 27 3 29 -5 2 1 12 13 23 13 11 18 13 13 5
-11 -19 -13 -60 -1 -53 4 3 6 11 3 18 -2 7 2 23 11 34 8 12 12 25 9 28 -3 4
-6 1 -6 -5z m-59 -83 c-5 -13 -10 -19 -10 -12 -1 15 10 45 15 40 3 -2 0 -15
-5 -28z"/>
<path d="M421 7964 c-18 -15 -33 -39 -37 -60 -3 -19 -12 -34 -20 -34 -14 0
-31 -46 -20 -57 3 -4 6 3 6 15 0 11 4 23 9 26 10 7 21 -16 21 -44 0 -10 16
-32 35 -49 46 -40 114 -43 166 -8 69 47 64 176 -10 220 -45 26 -113 22 -150
-9z"/>
<path d="M604 7959 c14 -17 26 -34 26 -38 0 -4 6 -8 14 -8 11 0 12 6 4 30 -8
21 -13 25 -19 16 -6 -11 -9 -10 -14 3 -4 9 -13 19 -22 22 -8 4 -4 -7 11 -25z"/>
<path d="M637 7980 c15 -6 27 -24 35 -55 7 -25 16 -45 20 -45 27 0 -28 104
-57 107 -17 3 -16 1 2 -7z"/>
<path d="M356 7905 c-9 -26 -7 -32 5 -12 6 10 9 21 6 23 -2 3 -7 -2 -11 -11z"/>
<path d="M359 7815 c-4 -11 -10 -28 -14 -38 -6 -13 -3 -16 9 -11 10 4 18 0 22
-10 3 -9 10 -14 14 -11 5 3 11 1 14 -4 3 -5 -2 -12 -11 -16 -10 -3 -19 -1 -21
4 -2 6 -9 11 -15 11 -7 -1 2 -12 18 -25 17 -14 35 -25 40 -25 6 0 2 5 -9 11
-15 9 -16 13 -5 20 19 12 32 11 24 -1 -3 -6 1 -7 10 -4 12 5 9 11 -17 30 -17
13 -35 24 -39 24 -4 0 -9 15 -11 33 -2 25 -4 28 -9 12z"/>
<path d="M927 7999 c2 -67 13 -76 13 -11 0 29 3 52 8 52 4 0 8 -34 8 -76 1
-52 6 -79 15 -86 11 -8 10 -9 -3 -4 -10 3 -18 1 -18 -4 0 -5 21 -12 47 -16 38
-5 44 -9 28 -15 -14 -5 -6 -8 28 -8 44 -1 63 -14 35 -24 -7 -2 -1 -4 14 -3 33
1 32 0 12 20 -8 9 -27 16 -42 16 -23 1 -22 3 13 15 22 8 41 19 43 25 2 5 8 8
13 5 20 -13 -5 62 -28 83 -23 21 -43 26 -90 22 -19 -1 -23 4 -23 29 0 29 -2
31 -37 31 l-38 0 2 -51z m59 -5 c-3 -26 -7 -59 -7 -73 -1 -25 -2 -25 -8 4 -4
17 -3 42 2 58 5 15 6 34 3 42 -3 8 0 15 6 15 7 0 9 -15 4 -46z"/>
<path d="M1017 8043 c-14 -14 -7 -43 11 -42 10 0 12 3 5 6 -7 2 -13 12 -13 21
0 15 2 15 10 2 7 -11 10 -12 10 -2 0 10 9 12 33 7 24 -5 28 -4 17 4 -17 12
-63 15 -73 4z"/>
<path d="M1050 8020 c0 -5 5 -10 11 -10 5 0 7 5 4 10 -3 6 -8 10 -11 10 -2 0
-4 -4 -4 -10z"/>
<path d="M1131 7994 c0 -11 3 -14 6 -6 3 7 2 16 -1 19 -3 4 -6 -2 -5 -13z"/>
<path d="M1185 7960 c3 -5 8 -10 11 -10 2 0 4 5 4 10 0 6 -5 10 -11 10 -5 0
-7 -4 -4 -10z"/>
<path d="M927 7893 c-2 -5 -1 -19 3 -33 l6 -25 6 28 c5 26 -5 47 -15 30z"/>
<path d="M1130 7856 c0 -11 -4 -14 -12 -10 -9 6 -9 3 1 -9 10 -13 17 -14 33
-6 11 6 18 12 16 13 -1 1 -11 8 -20 15 -16 12 -18 11 -18 -3z"/>
<path d="M966 7827 c-8 -31 -7 -37 5 -37 5 0 7 5 3 12 -4 6 1 17 10 23 14 11
14 14 2 18 -9 4 -16 -3 -20 -16z"/>
<path d="M1035 7810 c3 -5 12 -7 20 -3 21 7 19 13 -6 13 -11 0 -18 -4 -14 -10z"/>
<path d="M1473 8043 c11 -10 56 -12 62 -2 4 5 -11 9 -31 9 -21 0 -34 -3 -31
-7z"/>
<path d="M1570 8032 l-35 -5 35 -7 c31 -7 28 -8 -25 -10 l-60 -3 55 -7 c30 -4
59 -3 64 1 6 5 17 3 25 -5 10 -8 24 -11 36 -6 17 6 16 7 -8 14 -15 3 -27 13
-27 21 0 8 -6 14 -12 13 -7 0 -29 -4 -48 -6z"/>
<path d="M1460 8010 c0 -5 5 -10 11 -10 5 0 7 5 4 10 -3 6 -8 10 -11 10 -2 0
-4 -4 -4 -10z"/>
<path d="M1673 7934 c-3 -8 -1 -20 6 -27 8 -8 11 -4 11 16 0 30 -7 35 -17 11z"/>
<path d="M1646 7839 c-15 -12 -25 -23 -22 -26 2 -3 17 7 33 21 33 31 26 34
-11 5z"/>
<path d="M1490 7830 c0 -5 4 -10 9 -10 6 0 13 5 16 10 3 6 -1 10 -9 10 -9 0
-16 -4 -16 -10z"/>
<path d="M1430 7717 c0 -10 8 -17 18 -17 9 0 13 4 7 8 -5 4 -13 11 -17 16 -5
5 -8 2 -8 -7z"/>
<path d="M1411 7703 c-1 -19 4 -23 27 -22 22 1 23 2 5 6 -12 2 -24 12 -26 21
-3 12 -5 10 -6 -5z"/>
<path d="M1900 7966 c0 -68 3 -86 18 -97 15 -13 16 -12 4 3 -10 12 -13 41 -10
97 2 45 0 81 -4 81 -5 0 -8 -38 -8 -84z"/>
<path d="M2000 8039 c0 -6 -4 -7 -10 -4 -5 3 -10 1 -10 -4 0 -12 7 -13 34 -2
18 7 18 8 3 14 -9 3 -17 2 -17 -4z"/>
<path d="M1925 8020 c-4 -12 -5 -24 -2 -27 3 -2 8 5 12 17 4 12 5 24 2 27 -3
2 -8 -5 -12 -17z"/>
<path d="M1940 7839 c0 -5 5 -7 10 -4 6 3 10 8 10 11 0 2 -4 4 -10 4 -5 0 -10
-5 -10 -11z"/>
<path d="M1903 7770 c0 -30 2 -43 4 -27 2 15 2 39 0 55 -2 15 -4 2 -4 -28z"/>
<path d="M1930 7809 c0 -5 5 -7 10 -4 6 3 10 8 10 11 0 2 -4 4 -10 4 -5 0 -10
-5 -10 -11z"/>
<path d="M1925 7771 c-3 -5 -1 -12 5 -16 5 -3 10 1 10 9 0 18 -6 21 -15 7z"/>
<path d="M2015 7710 c28 -12 65 -12 65 0 0 6 -19 10 -42 9 -33 0 -38 -2 -23
-9z"/>
<path d="M2105 7710 c3 -5 17 -10 31 -10 13 0 24 5 24 10 0 6 -14 10 -31 10
-17 0 -28 -4 -24 -10z"/>
<path d="M2663 7960 c0 -47 2 -66 4 -42 2 23 2 61 0 85 -2 23 -4 4 -4 -43z"/>
<path d="M2700 7905 c0 -14 5 -25 10 -25 6 0 10 11 10 25 0 14 -4 25 -10 25
-5 0 -10 -11 -10 -25z"/>
<path d="M2675 7868 c-9 -32 -11 -68 -4 -68 5 0 9 16 9 36 0 22 4 33 11 29 6
-4 8 -14 5 -22 -3 -8 0 -20 7 -27 11 -11 13 -7 13 20 0 18 -4 30 -8 28 -4 -3
-8 0 -8 5 0 15 -20 14 -25 -1z"/>
<path d="M2645 7710 c-3 -5 1 -10 10 -10 9 0 13 5 10 10 -3 6 -8 10 -10 10 -2
0 -7 -4 -10 -10z"/>
<path d="M2690 7709 c0 -5 5 -7 10 -4 6 3 10 8 10 11 0 2 -4 4 -10 4 -5 0 -10
-5 -10 -11z"/>
<path d="M2705 7690 c-3 -5 -1 -10 4 -10 6 0 11 5 11 10 0 6 -2 10 -4 10 -3 0
-8 -4 -11 -10z"/>
<path d="M3100 7863 c8 -3 19 -11 23 -17 6 -7 7 -6 4 4 -2 8 -12 16 -23 17
-13 2 -15 1 -4 -4z"/>
<path d="M3008 7843 c6 -2 18 -2 25 0 6 3 1 5 -13 5 -14 0 -19 -2 -12 -5z"/>
<path d="M2955 7760 c-1 -22 3 -40 7 -40 4 0 8 18 8 40 0 22 -3 40 -7 40 -5 0
-8 -18 -8 -40z"/>
<path d="M3574 8035 c8 -8 17 -15 20 -15 3 0 3 7 0 15 -4 8 -13 15 -21 15 -12
0 -12 -2 1 -15z"/>
<path d="M3748 8043 c6 -2 12 -11 12 -18 0 -11 -21 -15 -87 -18 l-88 -3 93 -2
92 -2 0 25 c0 17 -5 25 -17 24 -11 0 -13 -3 -5 -6z"/>
<path d="M3710 7870 c0 -5 5 -10 10 -10 6 0 10 5 10 10 0 6 -4 10 -10 10 -5 0
-10 -4 -10 -10z"/>
<path d="M3540 7814 c0 -24 -4 -44 -10 -44 -5 0 -10 -4 -10 -10 0 -5 7 -7 15
-4 10 4 15 20 15 44 0 29 5 39 18 42 14 3 13 5 -5 10 -21 6 -23 3 -23 -38z"/>
<path d="M3521 7794 c0 -11 3 -14 6 -6 3 7 2 16 -1 19 -3 4 -6 -2 -5 -13z"/>
<path d="M3538 7719 c7 -8 38 -14 75 -14 134 -2 147 -9 27 -15 l-125 -6 125 0
c101 1 125 4 125 15 0 11 -21 15 -95 18 -52 1 -106 5 -120 9 -20 4 -23 3 -12
-7z"/>
<path d="M3992 7820 c0 -48 1 -52 10 -27 6 18 6 36 0 55 -9 24 -10 20 -10 -28z"/>
<path d="M4043 7765 c0 -27 2 -38 4 -22 2 15 2 37 0 50 -2 12 -4 0 -4 -28z"/>
<path d="M4011 7774 c0 -11 3 -14 6 -6 3 7 2 16 -1 19 -3 4 -6 -2 -5 -13z"/>
<path d="M4017 7730 c-3 -11 -1 -20 4 -20 5 0 9 9 9 20 0 11 -2 20 -4 20 -2 0
-6 -9 -9 -20z"/>
<path d="M4287 8043 c-8 -14 -1 -312 7 -320 5 -5 6 65 3 155 -4 135 -3 162 9
162 8 0 14 -6 14 -14 0 -8 12 -28 26 -45 19 -23 22 -31 10 -31 -8 0 -18 -5
-22 -12 -5 -7 -3 -8 5 -4 14 9 51 -20 51 -40 0 -7 4 -15 9 -18 14 -9 41 4 41
20 0 16 -43 87 -71 118 -11 11 -19 23 -19 28 0 10 -57 11 -63 1z m87 -52 c21
-24 35 -50 32 -57 -3 -8 0 -13 6 -11 6 1 13 -4 16 -12 3 -9 0 -11 -8 -6 -10 6
-12 3 -7 -11 7 -18 6 -18 -8 1 -8 11 -20 26 -27 34 -10 12 -10 15 0 19 8 2 2
15 -18 35 -16 17 -30 37 -30 46 0 8 2 12 4 10 2 -2 20 -24 40 -48z"/>
<path d="M4635 8034 c9 -9 18 -14 21 -11 9 9 -6 27 -22 27 -13 0 -13 -2 1 -16z"/>
<path d="M4551 7992 c0 -7 -12 -30 -26 -52 -27 -44 -30 -50 -16 -50 5 0 13 10
17 23 3 12 13 30 21 39 8 9 13 25 10 35 -3 10 -5 12 -6 5z"/>
<path d="M4639 7968 c-1 -7 -1 -20 0 -28 1 -11 -1 -11 -9 3 -16 24 -33 22 -20
-3 7 -14 8 -26 0 -39 -12 -23 -14 -111 -2 -111 4 0 7 25 7 55 0 39 5 59 15 65
11 7 17 4 22 -8 4 -10 7 3 7 31 1 26 -3 47 -9 47 -5 0 -11 -6 -11 -12z"/>
<path d="M4325 7885 c4 -30 3 -35 -4 -20 -11 24 -6 -66 8 -130 7 -33 9 -22 10
60 0 55 -4 107 -9 115 -7 10 -8 3 -5 -25z m2 -77 c-3 -8 -6 -5 -6 6 -1 11 2
17 5 13 3 -3 4 -12 1 -19z"/>
<path d="M4631 7842 c-1 -38 2 -51 11 -46 8 5 9 -2 5 -24 -4 -17 -2 -34 3 -37
14 -9 12 40 -5 105 l-13 55 -1 -53z"/>
<path d="M4602 7750 c0 -14 2 -19 5 -12 2 6 2 18 0 25 -3 6 -5 1 -5 -13z"/>
<path d="M4621 7748 c-1 -22 20 -68 31 -68 4 0 8 10 8 23 0 17 -2 19 -9 8 -7
-11 -12 -6 -19 20 -6 19 -11 26 -11 17z"/>
<path d="M4931 7883 c1 -134 3 -157 10 -113 5 30 7 80 4 110 -3 30 -1 81 3
113 7 45 6 57 -5 57 -10 0 -13 -34 -12 -167z"/>
<path d="M4983 8043 c-7 -2 -13 -14 -12 -26 0 -22 0 -22 9 1 10 24 45 30 53
10 3 -8 6 -6 6 5 1 17 -27 22 -56 10z"/>
<path d="M5070 8040 c0 -5 16 -10 36 -10 21 0 33 4 29 10 -3 6 -19 10 -36 10
-16 0 -29 -4 -29 -10z"/>
<path d="M4904 7880 c0 -91 2 -128 3 -82 2 45 2 119 0 165 -1 45 -3 8 -3 -83z"/>
<path d="M5000 8010 c0 -5 5 -10 11 -10 5 0 7 5 4 10 -3 6 -8 10 -11 10 -2 0
-4 -4 -4 -10z"/>
<path d="M5085 8010 l-50 -7 53 -1 c29 -1 52 2 52 8 0 6 -1 9 -2 8 -2 0 -25
-4 -53 -8z"/>
<path d="M4998 7883 c7 -3 16 -2 19 1 4 3 -2 6 -13 5 -11 0 -14 -3 -6 -6z"/>
<path d="M5056 7878 c5 -8 2 -9 -9 -5 -10 4 -17 2 -17 -5 0 -6 11 -8 30 -4 17
3 30 1 30 -4 0 -6 -7 -10 -16 -10 -8 0 -12 -5 -9 -10 7 -11 45 5 45 19 0 5
-14 14 -30 20 -23 7 -29 7 -24 -1z"/>
<path d="M4960 7870 c0 -5 5 -10 10 -10 6 0 10 5 10 10 0 6 -4 10 -10 10 -5 0
-10 -4 -10 -10z"/>
<path d="M5125 7870 c-3 -5 -1 -10 4 -10 6 0 11 5 11 10 0 6 -2 10 -4 10 -3 0
-8 -4 -11 -10z"/>
<path d="M4978 7843 c12 -2 32 -2 45 0 12 2 2 4 -23 4 -25 0 -35 -2 -22 -4z"/>
<path d="M4950 7710 c0 -5 9 -10 21 -10 11 0 17 5 14 10 -3 6 -13 10 -21 10
-8 0 -14 -4 -14 -10z"/>
<path d="M5060 7710 c0 -5 9 -10 20 -10 11 0 20 5 20 10 0 6 -9 10 -20 10 -11
0 -20 -4 -20 -10z"/>
<path d="M4925 7700 c18 -8 18 -9 2 -9 -10 -1 -16 -5 -13 -10 3 -5 15 -7 26
-4 16 4 18 8 9 19 -6 8 -19 14 -28 13 -12 0 -11 -2 4 -9z"/>
<path d="M5440 8034 c0 -9 10 -14 28 -13 l27 1 -25 8 c-20 7 -17 8 17 7 46 -2
52 -17 12 -29 l-24 -8 25 4 c14 3 36 8 50 12 23 7 24 7 8 -9 -18 -18 -104 -25
-93 -7 3 6 0 10 -7 10 -10 0 -13 -22 -13 -89 0 -79 2 -88 15 -76 8 7 43 15 78
17 40 3 67 10 73 19 11 17 12 63 2 73 -4 4 -8 15 -8 23 0 9 -7 18 -15 20 -13
4 -13 3 0 -6 18 -13 1 -15 -19 -2 -15 10 -8 15 32 25 25 6 28 4 22 -13 -3 -11
-1 -22 4 -25 6 -4 8 -14 5 -24 -5 -15 -4 -15 6 1 9 14 9 22 0 33 -15 17 1 19
18 2 9 -9 12 -9 12 -1 0 7 -13 21 -29 32 -31 22 -57 28 -46 11 7 -11 -6 -13
-30 -4 -12 5 -13 9 -5 14 7 4 -17 8 -54 8 -51 0 -66 -3 -66 -14z"/>
<path d="M5663 7963 c-18 -7 -16 -30 3 -37 12 -5 14 -1 9 15 -5 16 -4 19 5 14
9 -5 11 -4 6 3 -4 7 -8 12 -9 11 -1 0 -8 -3 -14 -6z"/>
<path d="M5403 7920 c0 -25 2 -35 4 -22 2 12 2 32 0 45 -2 12 -4 2 -4 -23z"/>
<path d="M5645 7911 c-3 -5 -1 -12 5 -16 5 -3 10 1 10 9 0 18 -6 21 -15 7z"/>
<path d="M5620 7880 c0 -16 -41 -32 -86 -33 -25 0 -47 -4 -49 -8 -3 -4 5 -5
17 -2 21 4 22 3 6 -10 -10 -8 -18 -16 -18 -19 0 -7 62 1 69 8 3 4 -4 4 -16 1
-13 -3 -23 -2 -23 3 0 14 31 20 52 9 11 -6 22 -8 26 -5 3 3 0 6 -7 6 -7 0 -9
5 -5 12 5 8 11 6 19 -6 12 -15 15 -14 44 10 33 27 41 47 16 37 -9 -3 -13 -8
-10 -11 2 -3 -4 -12 -16 -20 -11 -8 -23 -11 -27 -7 -4 3 1 11 11 16 18 11 23
29 7 29 -5 0 -10 -4 -10 -10z"/>
<path d="M5432 7690 c0 -14 2 -19 5 -12 2 6 2 18 0 25 -3 6 -5 1 -5 -13z"/>
<path d="M5640 7701 c0 -6 5 -13 10 -16 6 -3 10 1 10 9 0 9 -4 16 -10 16 -5 0
-10 -4 -10 -9z"/>
<path d="M5620 7685 c0 -8 4 -15 10 -15 5 0 7 7 4 15 -4 8 -8 15 -10 15 -2 0
-4 -7 -4 -15z"/>
<path d="M2478 7965 c-4 -20 -2 -23 8 -14 7 6 10 17 7 25 -7 20 -10 18 -15
-11z"/>
<path d="M2491 7934 c-7 -8 -10 -18 -6 -22 4 -4 10 -1 12 6 7 17 20 15 27 -5
3 -10 9 -25 13 -33 5 -13 4 -13 -10 -1 -10 7 -17 9 -17 3 0 -6 4 -12 8 -14 4
-1 18 -20 31 -40 14 -23 30 -38 42 -38 11 0 17 5 14 10 -3 6 -1 10 5 10 16 0
-1 28 -49 80 -23 25 -41 48 -41 52 0 13 -14 8 -29 -8z m79 -64 c6 -12 7 -27 2
-36 -7 -12 -10 -10 -20 11 -9 20 -9 25 0 19 8 -5 9 -2 5 9 -9 24 0 21 13 -3z
m30 -44 c0 -8 -6 -16 -14 -19 -10 -4 -12 0 -9 14 6 22 23 26 23 5z"/>
<path d="M1514 5792 c5 -9 35 -29 136 -94 30 -19 88 -56 127 -83 42 -27 79
-45 88 -41 26 9 17 20 -41 50 -31 16 -82 46 -113 66 -139 91 -214 129 -197
102z"/>
<path d="M2338 5553 c7 -3 16 -2 19 1 4 3 -2 6 -13 5 -11 0 -14 -3 -6 -6z"/>
<path d="M4147 6199 c7 -7 15 -10 18 -7 3 3 -2 9 -12 12 -14 6 -15 5 -6 -5z"/>
<path d="M4095 6110 c3 -5 8 -10 11 -10 2 0 4 5 4 10 0 6 -5 10 -11 10 -5 0
-7 -4 -4 -10z"/>
<path d="M3930 5650 c0 -13 11 -13 30 0 12 8 11 10 -7 10 -13 0 -23 -4 -23
-10z"/>
<path d="M2806 7360 c15 -15 28 -20 43 -15 29 9 27 25 -3 25 -13 0 -33 3 -43
6 -16 6 -15 4 3 -16z"/>
<path d="M3571 7336 c-14 -35 -11 -78 6 -83 16 -6 28 63 15 90 -10 22 -10 21
-21 -7z"/>
<path d="M2930 7245 c36 -37 40 -40 40 -26 0 13 -48 61 -61 61 -7 0 2 -16 21
-35z"/>
<path d="M2990 7270 c0 -5 7 -10 16 -10 8 0 12 5 9 10 -3 6 -10 10 -16 10 -5
0 -9 -4 -9 -10z"/>
<path d="M2734 7124 c-44 -12 -61 -45 -22 -43 13 0 17 3 10 6 -6 2 -10 9 -6
14 7 12 51 12 59 -1 10 -16 62 -12 69 6 3 9 12 14 19 11 6 -2 21 -1 32 4 l20
8 -20 1 c-84 5 -127 4 -161 -6z"/>
<path d="M2860 7013 c-159 -24 -279 -47 -275 -53 2 -3 -17 -7 -43 -8 -46 -1
-117 -20 -79 -21 9 -1 17 -5 17 -10 0 -18 32 -21 105 -10 42 7 73 16 72 22 -3
15 85 31 156 29 32 -1 67 3 78 8 21 12 27 51 7 49 -7 -1 -24 -3 -38 -6z"/>
<path d="M4580 6980 c0 -6 7 -13 15 -17 24 -9 27 1 5 15 -13 8 -20 8 -20 2z"/>
<path d="M4638 6935 c4 -21 7 -23 24 -14 22 12 22 12 -8 27 -19 10 -21 9 -16
-13z"/>
<path d="M4713 6932 c-8 -5 13 -18 57 -35 76 -29 113 -35 65 -11 -16 9 -35 22
-40 29 -13 16 -66 27 -82 17z"/>
<path d="M4857 6929 c8 -8 16 -8 30 0 16 9 14 10 -11 11 -22 0 -27 -3 -19 -11z"/>
<path d="M2245 6890 c-16 -4 -23 -8 -15 -9 13 -1 13 -2 0 -11 -11 -7 -12 -12
-3 -21 8 -8 26 -8 69 2 33 6 52 14 44 17 -8 3 -21 11 -28 19 -15 14 -22 15
-67 3z"/>
<path d="M4535 6870 c-11 -12 -13 -20 -6 -20 7 0 10 -4 7 -8 -7 -12 43 -7 56
6 15 15 2 42 -20 42 -10 0 -27 -9 -37 -20z"/>
<path d="M5110 6870 c0 -12 28 -25 36 -17 3 3 -4 10 -15 17 -15 7 -21 7 -21 0z"/>
<path d="M1035 6853 c-18 -14 -18 -15 -2 -9 10 3 25 6 33 6 9 0 12 5 9 10 -8
14 -16 12 -40 -7z"/>
<path d="M2095 6853 c-11 -2 -41 -11 -66 -19 -41 -13 -46 -17 -41 -39 2 -14 7
-25 11 -25 3 0 39 10 79 21 71 22 87 34 57 45 -8 4 -12 10 -9 15 5 9 2 10 -31
2z"/>
<path d="M4460 6839 c0 -5 5 -7 10 -4 6 3 10 8 10 11 0 2 -4 4 -10 4 -5 0 -10
-5 -10 -11z"/>
<path d="M750 6792 l-35 -17 54 -3 c44 -3 58 1 75 17 l20 21 -39 -1 c-22 0
-56 -8 -75 -17z"/>
<path d="M4499 6797 c-9 -7 -14 -16 -12 -22 1 -5 -8 -23 -22 -39 -14 -16 -25
-36 -25 -44 0 -8 -14 -30 -30 -49 -31 -35 -33 -61 -2 -42 22 15 123 134 140
165 11 22 11 24 -7 24 -11 0 -21 4 -23 9 -2 6 -10 4 -19 -2z"/>
<path d="M662 6763 c-6 -3 -9 -9 -6 -14 3 -6 -1 -21 -10 -34 -23 -35 -21 -38
22 -31 25 4 31 3 17 -3 -19 -9 -19 -9 5 -19 21 -8 29 -6 53 16 18 17 23 28 16
33 -8 4 -5 11 7 18 16 10 11 11 -26 6 -24 -3 -48 -11 -52 -18 -4 -6 -10 -8
-14 -4 -4 4 0 15 10 26 13 14 14 20 4 23 -7 3 -19 3 -26 1z"/>
<path d="M927 6763 c-4 -3 -2 -12 3 -18 7 -9 3 -17 -14 -29 -14 -9 -28 -16
-32 -16 -3 0 -27 -20 -52 -45 -25 -25 -41 -45 -36 -45 18 1 198 115 202 129 3
10 -1 12 -17 8 -17 -4 -21 -2 -17 9 5 14 -24 20 -37 7z"/>
<path d="M5214 6753 c1 -13 -5 -17 -21 -16 -13 2 -23 1 -23 -1 0 -5 137 -86
145 -86 4 0 18 -9 32 -20 15 -11 28 -18 31 -15 7 7 -68 78 -105 100 -33 19
-43 35 -22 35 5 0 7 5 4 10 -11 17 -43 11 -41 -7z"/>
<path d="M1792 6751 c-11 -7 -10 -10 3 -15 24 -9 35 -8 35 4 0 5 -7 6 -17 3
-11 -4 -14 -3 -9 5 8 14 6 15 -12 3z"/>
<path d="M600 6721 l-35 -30 27 -1 c18 0 31 7 38 21 20 36 6 40 -30 10z"/>
<path d="M1640 6716 c0 -2 7 -7 16 -10 8 -3 12 -2 9 4 -6 10 -25 14 -25 6z"/>
<path d="M5444 6683 c3 -4 17 -8 29 -10 17 -2 19 -1 7 7 -17 11 -47 14 -36 3z"/>
<path d="M5551 6666 c2 -2 27 -6 54 -9 34 -4 42 -3 25 3 -25 8 -87 13 -79 6z"/>
<path d="M543 6631 c-3 -11 -22 -26 -43 -35 -35 -14 -100 -81 -100 -104 0 -5
-7 -15 -15 -22 -8 -7 -15 -22 -15 -34 0 -18 2 -19 11 -6 9 12 10 11 6 -7 -5
-22 -4 -22 31 -7 43 18 51 25 34 31 -6 3 -10 9 -6 14 3 5 -2 9 -10 9 -10 0
-16 9 -16 25 0 30 20 33 40 6 7 -11 17 -18 22 -15 4 3 8 -2 8 -10 0 -26 28
-18 72 21 24 20 37 31 31 23 -7 -8 -13 -18 -13 -23 0 -16 31 16 66 68 40 59
35 69 -44 79 -48 6 -54 5 -59 -13z m-63 -80 c0 -12 -20 -25 -27 -18 -7 7 6 27
18 27 5 0 9 -4 9 -9z m-73 -123 c-3 -8 -6 -5 -6 6 -1 11 2 17 5 13 3 -3 4 -12
1 -19z"/>
<path d="M5720 6644 c0 -5 7 -18 15 -28 12 -16 15 -17 15 -4 0 8 -7 21 -15 28
-8 7 -15 9 -15 4z"/>
<path d="M5590 6630 c0 -5 4 -10 9 -10 6 0 13 5 16 10 3 6 -1 10 -9 10 -9 0
-16 -4 -16 -10z"/>
<path d="M1880 6620 c8 -5 20 -10 25 -10 6 0 3 5 -5 10 -8 5 -19 10 -25 10 -5
0 -3 -5 5 -10z"/>
<path d="M5329 6577 c19 -20 76 -62 128 -94 52 -32 108 -67 124 -77 l31 -19
-29 40 c-15 23 -29 39 -31 38 -2 -2 -45 23 -95 54 -51 32 -108 66 -127 76
l-35 17 34 -35z"/>
<path d="M5520 6583 c0 -15 69 -131 84 -140 6 -4 3 6 -8 22 -16 27 -14 26 19
-8 39 -38 75 -63 75 -51 0 4 -20 27 -45 53 -24 25 -62 66 -84 91 -22 25 -41
40 -41 33z"/>
<path d="M5810 6513 c1 -16 28 -43 43 -43 21 0 33 -20 17 -30 -9 -5 -9 -9 -1
-14 6 -4 11 -2 11 3 0 6 5 11 11 11 5 0 7 -6 3 -12 -5 -10 -4 -10 5 -2 10 9 9
17 -4 38 -10 14 -21 24 -25 21 -4 -3 -19 5 -34 16 -14 11 -26 17 -26 12z"/>
<path d="M597 6434 c-10 -13 -14 -24 -10 -24 9 0 36 40 31 45 -2 2 -11 -8 -21
-21z"/>
<path d="M212 6405 c-57 -48 -77 -58 -47 -25 10 11 14 20 8 20 -16 0 -44 -36
-36 -45 5 -4 3 -5 -3 -2 -7 4 -17 0 -24 -9 -7 -8 -20 -12 -27 -9 -15 5 -58
-13 -50 -22 3 -2 16 1 29 8 21 11 22 11 10 -4 -7 -9 -27 -19 -43 -22 -29 -7
-39 -28 -18 -41 8 -5 8 -9 -1 -14 -7 -4 -11 -12 -9 -18 8 -22 309 193 309 221
0 10 -18 9 -25 -3 -3 -5 -12 -10 -18 -10 -7 0 -6 4 3 10 8 5 11 10 5 10 -5 0
-34 -21 -63 -45z"/>
<path d="M5970 6371 c-15 -4 -20 -10 -13 -14 13 -8 43 1 43 14 0 5 -1 9 -2 8
-2 -1 -14 -4 -28 -8z"/>
<path d="M5866 6360 c-3 -9 -16 -16 -27 -17 -11 -1 -27 -8 -36 -15 -13 -10 -7
-14 38 -24 58 -13 68 -12 51 8 -5 7 -12 24 -14 38 -3 19 -6 21 -12 10z"/>
<path d="M5745 6330 c3 -5 8 -10 11 -10 2 0 4 5 4 10 0 6 -5 10 -11 10 -5 0
-7 -4 -4 -10z"/>
<path d="M5770 6263 c0 -6 8 -21 18 -34 16 -23 70 -129 97 -194 7 -16 22 -51
34 -78 11 -26 21 -53 21 -60 0 -6 7 -25 16 -42 8 -16 18 -48 21 -72 12 -89 23
-37 23 110 l0 154 -45 48 c-49 54 -51 71 -5 37 44 -33 45 -27 3 11 -55 48 -94
77 -105 77 -5 0 7 -30 26 -67 36 -70 59 -123 52 -123 -2 0 -23 35 -47 78 -53
97 -109 177 -109 155z"/>
<path d="M432 6248 c-14 -18 -53 -98 -48 -98 2 0 18 25 34 55 30 54 34 67 14
43z"/>
<path d="M475 6249 c-4 -6 -5 -12 -2 -15 2 -3 7 2 10 11 7 17 1 20 -8 4z"/>
<path d="M295 6112 c-6 -4 -16 -18 -23 -32 -7 -14 -22 -36 -33 -50 l-20 -25
15 38 c17 42 18 42 -59 -11 -27 -19 -54 -42 -60 -51 -14 -23 -41 -98 -81 -228
l-34 -111 2 -279 c1 -153 3 -258 5 -234 3 25 11 54 19 65 8 11 14 42 14 68 0
27 5 48 10 48 6 0 10 17 10 38 0 20 7 55 15 77 8 22 14 55 15 73 0 17 4 32 9
32 5 0 12 21 16 47 4 26 13 56 21 67 8 11 14 32 14 46 0 14 7 39 16 55 9 17
16 49 16 73 0 24 10 67 22 95 13 29 21 58 18 66 -2 8 0 11 5 8 15 -10 29 6 57
66 27 58 30 73 11 59z m-129 -188 c-5 -14 -4 -15 9 -4 9 7 18 10 22 7 8 -9
-17 -37 -34 -37 -7 0 -16 -8 -19 -17 -4 -10 -13 -37 -23 -60 -19 -50 -43 -66
-36 -25 2 15 7 44 10 64 4 24 16 46 36 62 36 30 44 32 35 10z"/>
<path d="M17 5916 c-12 -9 -17 -26 -16 -57 0 -40 1 -42 11 -19 5 14 16 37 24
52 22 41 15 50 -19 24z"/>
</g>
</svg>
