<?xml version="1.0" standalone="no"?>
<!DOCTYPE svg PUBLIC "-//W3C//DTD SVG 20010904//EN"
 "http://www.w3.org/TR/2001/REC-SVG-20010904/DTD/svg10.dtd">
<svg version="1.0" xmlns="http://www.w3.org/2000/svg"
 width="600.000000pt" height="900.000000pt" viewBox="0 0 600.000000 900.000000"
 preserveAspectRatio="xMidYMid meet">

<g transform="translate(0.000000,900.000000) scale(0.100000,-0.100000)"
fill="#000000" stroke="none">
<path d="M1245 8974 c-11 -14 -30 -30 -43 -35 -13 -5 -21 -13 -18 -18 4 -5 -6
-19 -20 -30 -15 -12 -23 -21 -19 -21 5 0 -2 -11 -15 -25 -13 -14 -29 -25 -35
-25 -7 0 -12 -12 -12 -26 l0 -25 22 21 c17 16 30 20 46 15 18 -6 21 -4 16 9
-4 9 -3 16 2 16 19 0 22 -51 5 -68 -16 -16 -16 -17 -1 -20 20 -4 23 -22 4 -22
-14 0 -42 -83 -34 -102 2 -7 -9 -35 -24 -63 -42 -74 -52 -99 -40 -103 6 -2 7
-10 2 -20 -19 -38 -29 -82 -20 -88 5 -3 7 -15 4 -27 -3 -12 1 -42 10 -67 14
-40 14 -46 0 -56 -11 -8 -13 -20 -9 -43 4 -17 10 -31 14 -31 4 0 10 -11 12
-24 4 -19 0 -26 -16 -29 -21 -4 -21 -5 2 -12 25 -8 29 -33 7 -41 -14 -6 -13
-8 1 -19 13 -9 14 -14 5 -19 -9 -6 -9 -13 3 -31 12 -19 13 -26 1 -47 -7 -14
-9 -31 -5 -37 4 -7 0 -27 -8 -46 -12 -26 -23 -34 -53 -39 -21 -3 -44 -12 -51
-19 -7 -6 -24 -18 -38 -25 -53 -28 -61 -39 -67 -96 -6 -61 10 -116 34 -116 9
0 12 -6 8 -19 -5 -15 -1 -18 22 -15 16 2 20 1 11 -2 -20 -6 -23 -15 -8 -30 16
-16 18 -413 3 -419 -7 -2 -13 -11 -13 -19 0 -8 -8 -17 -17 -19 -14 -4 -12 -5
5 -6 27 -1 30 -21 2 -21 -15 0 -20 -7 -20 -25 0 -16 -6 -25 -16 -25 -8 0 -12
-4 -9 -10 3 -5 -1 -22 -9 -38 -8 -16 -13 -32 -11 -36 3 -3 0 -2 -6 3 -8 6 -6
17 7 37 15 25 15 27 1 14 -27 -25 -116 -165 -107 -168 5 -2 0 -24 -11 -49 -16
-37 -17 -48 -7 -61 11 -13 10 -15 -5 -9 -10 4 -16 3 -13 -2 3 -5 -3 -20 -14
-34 -11 -14 -20 -30 -20 -36 0 -6 -5 -11 -11 -11 -6 0 -9 -7 -5 -15 3 -9 0
-15 -10 -15 -8 0 -13 -4 -10 -9 3 -4 -1 -17 -8 -27 -10 -13 -11 -23 -4 -31 8
-10 5 -13 -9 -13 -28 0 -50 -28 -61 -78 -13 -58 -11 -67 24 -94 16 -12 35 -28
42 -35 7 -7 19 -13 27 -13 7 0 15 -7 18 -15 4 -8 24 -23 46 -34 36 -19 41 -19
70 -5 17 9 39 14 48 12 15 -3 15 -4 -1 -21 -23 -23 -13 -77 14 -77 10 0 22 -5
25 -10 4 -6 1 -9 -6 -8 -6 2 -14 -3 -16 -9 -7 -18 14 -16 29 3 7 9 39 41 70
71 63 61 90 115 90 181 0 24 7 63 15 86 20 55 26 125 12 142 -9 11 -8 14 2 14
10 1 9 4 -3 14 -19 14 -24 46 -8 46 6 0 10 5 10 10 0 6 -7 10 -16 10 -12 0
-14 3 -6 13 5 6 13 26 17 44 4 22 11 30 21 26 9 -3 14 2 14 15 0 11 6 22 13
25 10 3 10 9 0 26 -19 31 -16 36 6 10 11 -13 23 -20 27 -16 7 7 8 186 1 241
-1 12 18 34 58 66 44 35 59 53 58 69 -2 11 2 21 7 21 6 0 9 30 7 76 l-4 75 26
-6 c62 -15 81 -29 81 -61 0 -34 -41 -87 -78 -98 -12 -4 -20 -12 -17 -17 4 -5
2 -16 -3 -26 -10 -17 -7 -22 30 -64 14 -15 27 -18 64 -14 26 2 55 0 64 -5 11
-6 21 -5 28 2 9 9 12 9 12 1 0 -6 9 -9 21 -6 18 5 20 3 15 -14 -10 -30 22 -39
34 -10 5 12 9 17 9 11 1 -7 12 -15 26 -18 14 -4 25 -11 25 -17 0 -6 -7 -6 -20
1 -27 15 -41 4 -34 -26 4 -16 2 -24 -7 -24 -7 0 -10 3 -6 6 9 9 -16 32 -30 27
-9 -4 -9 -11 -1 -29 8 -18 17 -23 32 -19 17 5 16 3 -4 -9 -14 -8 -27 -10 -28
-5 -6 15 -22 -1 -22 -22 0 -10 -4 -19 -10 -19 -5 0 -7 7 -4 15 4 8 1 15 -6 15
-8 0 -11 -10 -7 -29 5 -23 2 -30 -15 -34 -17 -5 -20 -12 -16 -51 2 -25 0 -46
-4 -46 -5 0 -8 -5 -8 -11 0 -5 6 -7 13 -3 7 5 6 0 -3 -11 -8 -10 -16 -40 -17
-67 -1 -27 -5 -57 -9 -66 -4 -9 -8 -19 -9 -22 -2 -3 -6 -15 -10 -27 -4 -13
-11 -23 -15 -23 -4 0 -11 -7 -14 -16 -3 -8 -2 -12 4 -9 10 6 -12 -54 -36 -98
-8 -15 -18 -51 -20 -79 -3 -29 -9 -57 -13 -62 -5 -6 -11 -40 -14 -75 -3 -37
-1 -58 4 -50 5 8 9 9 9 3 0 -6 -7 -17 -15 -24 -13 -11 -18 -10 -30 6 -14 18
-14 18 -15 -3 0 -13 5 -23 10 -23 14 0 12 -27 -2 -33 -7 -3 -3 -6 10 -6 12 -1
22 -6 22 -12 0 -6 -7 -9 -15 -5 -8 3 -15 1 -15 -4 0 -5 8 -11 18 -14 9 -3 5
-4 -9 -2 -22 2 -26 -1 -25 -20 1 -18 5 -22 19 -18 24 8 21 -1 -11 -32 -15 -15
-21 -23 -14 -19 11 6 11 3 0 -14 -11 -18 -11 -23 1 -30 9 -6 10 -11 3 -15 -6
-4 -9 -13 -6 -21 4 -8 10 -12 15 -9 5 3 9 1 9 -4 0 -6 -7 -13 -16 -16 -23 -9
-27 -8 -21 7 3 8 1 20 -5 28 -8 11 -9 11 -4 -3 3 -10 1 -20 -3 -23 -5 -3 -7
-14 -4 -25 3 -11 10 -17 16 -13 6 4 8 0 4 -10 -4 -11 0 -21 12 -28 12 -8 16
-20 13 -35 -3 -15 0 -24 8 -24 8 0 10 -8 6 -24 -4 -15 -1 -26 7 -29 13 -5 87
-144 87 -164 0 -6 6 -13 14 -16 8 -3 12 -14 9 -25 -3 -13 -13 -18 -32 -17 -54
3 -126 76 -196 200 -15 28 -41 66 -57 86 -15 20 -28 43 -28 50 -1 22 -81 103
-123 125 -30 15 -39 16 -46 6 -4 -7 -22 -14 -39 -15 -39 -2 -40 -10 -6 -25 14
-7 22 -17 19 -22 -4 -6 -1 -18 6 -26 11 -13 9 -15 -12 -10 -84 17 -108 16
-119 -4 -12 -22 -3 -47 24 -70 11 -8 16 -9 16 -1 0 18 20 12 21 -6 0 -11 3
-13 6 -5 2 6 9 12 14 12 14 0 11 -28 -3 -34 -7 -3 -4 -4 7 -3 12 1 19 -3 18
-10 -2 -7 4 -13 12 -13 8 0 15 -4 15 -10 0 -5 -5 -10 -11 -10 -21 0 2 -19 31
-25 17 -4 30 -11 30 -17 0 -6 12 -8 29 -5 36 7 56 -13 47 -47 -3 -14 -1 -26 5
-28 6 -2 3 -13 -9 -28 -10 -14 -18 -29 -16 -35 1 -5 5 -22 8 -37 4 -16 20 -35
43 -49 21 -13 49 -33 62 -46 13 -13 30 -23 38 -23 8 0 27 -9 43 -20 15 -11 30
-17 34 -13 3 3 6 -1 6 -10 0 -9 4 -17 9 -17 5 0 11 -12 14 -27 3 -16 13 -59
22 -98 23 -98 23 -100 24 -100 1 0 17 -45 35 -99 19 -54 39 -102 46 -106 6 -4
25 -29 43 -56 32 -48 34 -49 97 -58 42 -6 147 -4 300 5 129 8 285 14 345 14
l110 0 60 -42 c33 -22 68 -51 78 -63 21 -25 26 -16 -61 -109 -46 -49 -61 -80
-63 -132 -1 -24 -6 -51 -10 -60 -9 -19 -11 -257 -3 -375 4 -48 2 -89 -4 -100
-11 -20 8 -61 21 -47 4 3 7 -1 7 -10 0 -8 -6 -18 -12 -21 -10 -5 -10 -7 0 -12
6 -3 12 -10 12 -15 0 -6 -4 -7 -10 -4 -5 3 -11 -1 -11 -9 -1 -9 -3 -20 -4 -26
-1 -5 -3 -15 -4 -21 0 -6 -8 -9 -16 -5 -8 3 -15 1 -15 -4 0 -6 7 -10 15 -10 8
0 15 -4 15 -10 0 -5 -9 -10 -20 -10 -11 0 -20 -7 -20 -15 0 -8 6 -15 14 -15 8
0 17 -4 21 -9 3 -6 -6 -8 -21 -5 -22 4 -25 2 -20 -12 4 -11 -3 -25 -21 -41
-21 -18 -23 -22 -8 -17 18 7 18 6 6 -9 -12 -15 -11 -17 8 -17 11 0 21 -4 21
-10 0 -5 7 -10 15 -10 8 0 15 -4 15 -8 0 -5 -13 -8 -29 -8 -18 0 -27 4 -24 12
2 6 -4 14 -13 18 -22 8 -33 -2 -14 -14 13 -8 12 -10 -2 -10 -10 0 -18 -6 -18
-14 0 -8 8 -13 17 -12 21 3 43 -16 43 -38 0 -8 8 -21 17 -28 10 -7 25 -22 33
-33 9 -13 10 -16 1 -8 -16 14 -41 6 -41 -13 0 -8 -8 -14 -17 -14 -13 0 -14 -3
-5 -12 17 -17 15 -48 -3 -48 -8 0 -12 6 -10 13 4 8 -5 12 -25 12 -16 0 -30 -3
-30 -7 0 -31 1 -32 10 -18 9 13 11 13 20 0 5 -8 10 -20 10 -27 0 -7 7 -10 15
-7 10 4 15 0 15 -11 0 -9 -4 -13 -10 -10 -5 3 -10 -3 -10 -14 0 -11 -4 -22 -9
-25 -5 -3 -8 -17 -8 -31 0 -23 1 -24 13 -8 12 16 13 15 10 -10 -1 -15 -6 -30
-11 -35 -4 -4 -5 -1 0 7 6 10 4 12 -5 6 -11 -7 -10 -10 1 -19 8 -6 15 -18 17
-26 2 -8 9 -18 15 -22 6 -4 8 -10 4 -15 -5 -4 -12 -1 -17 7 -16 25 -22 4 -25
-87 -9 -211 -16 -264 -38 -272 -14 -5 -17 -10 -8 -15 9 -6 9 -11 0 -23 -10
-11 -10 -16 0 -22 7 -5 13 -12 14 -16 1 -4 18 -8 37 -9 28 -1 36 3 36 17 0 14
-6 17 -22 14 -13 -2 -28 -1 -34 3 -7 4 2 10 20 13 l31 7 -3 182 c-3 173 -2
183 16 180 11 -2 15 1 11 7 -3 6 0 11 7 11 10 0 10 2 0 8 -16 11 -32 67 -32
112 1 31 2 33 14 18 7 -10 18 -18 24 -18 6 0 9 -6 6 -14 -3 -8 -12 -12 -20 -9
-8 3 -14 -1 -14 -11 0 -9 5 -16 11 -16 5 0 7 -4 4 -10 -3 -6 1 -7 9 -4 9 3 16
2 16 -4 0 -6 -6 -12 -13 -15 -9 -4 -9 -7 1 -18 11 -12 14 -12 21 0 13 21 24
-5 11 -28 -14 -28 -13 -31 13 -31 19 -1 20 -2 5 -10 -9 -6 -15 -18 -13 -28 2
-9 4 -20 4 -23 1 -3 14 -6 30 -6 20 0 33 7 40 21 5 12 10 15 10 9 1 -7 10 -13
21 -13 19 0 24 -19 8 -30 -4 -3 -4 -17 -1 -30 6 -22 7 -23 14 -4 12 31 11 -18
-5 -168 -8 -73 -18 -186 -22 -251 -4 -65 -10 -120 -14 -122 -4 -2 -6 19 -4 48
2 31 0 44 -4 32 -20 -53 -36 -73 -61 -78 -16 -4 -31 -16 -39 -35 l-13 -30 -39
15 c-21 9 -38 18 -37 22 1 3 -6 17 -15 30 -20 29 -35 22 -19 -7 18 -34 12 -42
-19 -24 -16 9 -30 25 -30 35 0 9 -6 17 -14 17 -19 0 -29 -42 -13 -55 7 -5 14
-22 15 -36 2 -39 -56 -61 -144 -55 -48 3 -71 0 -81 -9 -14 -15 -18 -51 -5 -58
4 -2 2 -2 -5 -1 -6 2 -13 -1 -15 -6 -2 -5 -15 -12 -30 -15 l-28 -7 16 37 c8
20 20 61 25 92 9 46 7 65 -12 126 -12 40 -25 77 -30 83 -5 6 -6 14 -3 17 8 7
-80 132 -116 165 -13 13 -46 37 -72 54 -29 19 -48 39 -48 50 0 10 -4 18 -10
18 -5 0 -10 -6 -10 -14 0 -11 -14 -10 -76 5 -86 20 -96 26 -71 40 28 16 12 25
-43 23 -60 -2 -71 -9 -44 -29 19 -14 19 -14 -1 -16 -11 -1 -26 -1 -32 0 -25 3
-12 -17 16 -27 16 -6 38 -23 48 -39 9 -15 23 -32 30 -36 15 -9 17 -47 3 -47
-5 0 -10 5 -10 10 0 15 -57 12 -63 -2 -4 -10 -6 -10 -6 0 -1 6 -9 12 -19 12
-19 0 -54 35 -45 44 4 3 -4 6 -17 6 l-22 0 26 -34 c14 -19 26 -44 26 -55 0
-11 5 -23 10 -26 16 -10 12 -22 -10 -28 -12 -3 -24 1 -30 11 -9 16 -9 16 -10
0 0 -9 5 -18 12 -20 26 -9 -5 -26 -47 -26 -41 0 -44 1 -35 19 8 15 7 19 -5 19
-8 0 -14 -3 -14 -7 1 -5 1 -10 0 -13 -2 -3 -4 -21 -7 -40 -3 -25 -1 -31 6 -20
8 13 10 12 10 -2 0 -25 17 -22 23 4 4 12 9 19 12 16 10 -10 -14 -48 -30 -48
-8 0 -15 -4 -15 -9 0 -5 -15 -12 -34 -15 -19 -4 -45 -15 -59 -26 -14 -11 -35
-20 -46 -20 -12 0 -21 -5 -21 -12 0 -6 -3 -8 -6 -5 -4 4 -1 13 5 21 11 13 7
16 -21 24 -18 4 -34 16 -36 24 -2 12 2 15 17 11 12 -3 21 -1 21 6 0 6 -7 12
-15 12 -28 3 -33 4 -41 11 -4 4 -19 5 -33 2 -21 -5 -24 -4 -14 7 25 26 15 41
-22 37 -34 -4 -46 4 -25 17 6 4 8 15 5 26 -4 11 -2 19 4 19 6 0 11 -8 11 -17
0 -15 2 -16 10 -3 7 11 4 17 -10 24 -13 6 -18 16 -15 30 3 12 -3 31 -15 45
-21 25 -28 23 -73 -21 -17 -17 -24 -44 -9 -34 4 2 13 -4 20 -14 9 -15 8 -22
-4 -35 -9 -9 -15 -17 -13 -18 2 -2 16 -9 31 -16 31 -16 43 -50 24 -70 -12 -11
-16 -10 -25 8 -13 23 -2 28 17 9 7 -7 12 -8 12 -2 0 17 -23 34 -46 34 -13 0
-26 5 -29 10 -4 6 -11 7 -17 4 -6 -4 -8 -1 -6 7 3 8 11 13 17 11 7 -1 10 2 6
8 -3 6 -10 8 -14 6 -4 -3 -18 4 -30 16 -24 22 -32 19 -54 -24 l-14 -28 -23 20
c-17 15 -26 17 -31 8 -8 -13 -33 2 -57 35 -8 10 -19 16 -25 14 -7 -2 -17 6
-22 17 -7 14 -21 21 -40 21 -27 1 -73 17 -127 46 -10 5 -25 9 -33 9 -9 0 -21
11 -27 25 -13 29 -23 32 -33 8 -11 -30 -38 43 -44 122 -5 53 -10 70 -21 70
-13 0 -15 -163 -18 -1397 l-2 -1397 92 0 c71 1 97 5 111 17 16 15 17 15 11 -2
-6 -16 3 -17 107 -15 64 1 117 7 121 12 4 7 11 7 20 -1 11 -9 17 -9 26 0 8 8
12 8 12 2 0 -13 218 -13 237 -1 6 4 14 3 17 -2 3 -4 61 -8 128 -6 108 1 123 4
122 18 -1 9 2 17 7 17 5 0 9 -7 9 -15 0 -16 9 -18 153 -21 85 -1 89 -1 98 23
5 13 13 21 19 18 10 -6 14 6 11 36 -1 9 5 22 13 28 20 16 46 -7 46 -39 0 -16
4 -20 16 -16 8 3 12 2 9 -3 -3 -5 -1 -12 5 -16 5 -3 10 -1 10 4 0 16 17 13 23
-3 7 -16 -30 -19 -50 -4 -8 6 -11 4 -9 -7 2 -13 15 -18 49 -20 39 -2 49 1 58
17 8 14 18 19 35 15 13 -2 24 0 24 5 0 5 5 6 12 2 7 -5 5 -11 -7 -21 -17 -12
-14 -13 29 -13 26 0 115 -2 197 -5 145 -5 149 -5 149 15 0 11 5 20 11 20 6 0
8 -8 5 -18 -4 -13 0 -18 14 -19 13 -1 20 4 20 15 0 13 2 14 9 4 6 -10 32 -13
92 -13 46 1 93 1 104 1 27 -2 32 -2 97 0 31 1 62 -1 69 -6 8 -5 10 -3 4 6 -6
10 -3 11 16 5 13 -5 655 -10 1427 -12 1244 -3 1402 -1 1402 12 0 8 5 15 10 15
6 0 10 -4 10 -10 0 -5 11 -10 24 -10 16 0 23 5 22 16 0 9 5 19 13 22 8 2 11 0
8 -5 -7 -11 40 -36 53 -28 5 3 20 0 35 -7 18 -8 29 -9 33 -1 5 6 29 7 67 3 33
-4 168 -8 301 -9 l241 -2 2 132 2 132 -23 -15 c-13 -9 -22 -23 -22 -32 2 -14
-13 -21 -37 -18 -4 1 -14 -7 -23 -17 -13 -14 -14 -24 -7 -44 8 -20 7 -25 -3
-21 -8 3 -26 -6 -41 -19 l-28 -23 -23 23 c-31 31 -30 41 4 46 26 4 25 4 -5 6
-51 2 -50 21 1 21 44 0 46 1 46 29 0 27 3 29 30 26 20 -3 34 2 42 14 7 9 29
22 48 27 l35 10 3 129 c2 96 -1 130 -10 137 -10 6 -10 8 -1 8 10 0 12 217 10
998 -2 925 -3 997 -19 996 -14 -1 -15 2 -6 22 13 27 6 39 -17 31 -21 -9 -19
-28 3 -20 13 4 12 1 -6 -18 -18 -19 -24 -21 -31 -10 -7 11 -11 9 -20 -7 -10
-18 -9 -21 4 -16 8 4 15 1 15 -4 0 -18 -17 -23 -29 -8 -9 11 -8 21 7 45 10 17
22 28 27 23 4 -4 5 0 3 8 -3 8 -11 14 -18 12 -8 -2 -10 3 -6 14 4 11 2 15 -8
11 -11 -4 -13 -1 -9 10 4 11 2 14 -5 9 -7 -4 -12 -3 -12 3 0 5 6 12 13 15 9 3
7 9 -6 19 -12 10 -14 17 -7 22 5 3 8 11 4 16 -4 6 -10 6 -19 -1 -9 -8 -14 -6
-19 6 -10 27 -8 40 6 26 18 -18 67 45 63 81 -8 66 -78 117 -158 117 -36 0 -48
5 -61 25 -19 29 -20 45 -3 45 6 1 26 7 42 15 l30 14 -30 -5 -30 -5 35 20 c19
11 28 21 20 21 -8 1 3 8 25 16 l40 14 -36 -4 c-33 -4 -36 -2 -32 17 4 20 3 20
-11 -3 -18 -29 -21 -14 -6 25 9 23 8 26 -5 21 -27 -10 -16 10 13 22 23 10 24
11 4 8 -13 -3 -30 -2 -38 1 -21 8 -5 25 17 18 29 -9 59 4 59 26 0 13 -7 19
-24 19 -13 0 -27 7 -30 16 -4 11 -12 13 -28 8 -13 -4 -29 -7 -35 -7 -7 0 -13
-4 -13 -9 0 -4 -4 -8 -10 -8 -14 0 -13 37 1 46 6 3 15 1 19 -6 5 -8 9 -7 13 4
4 10 1 16 -7 16 -8 0 -22 3 -31 6 -11 5 -18 0 -22 -14 -3 -11 -11 -18 -18 -16
-7 3 -15 -4 -18 -16 -3 -14 -10 -19 -17 -15 -9 6 -9 10 1 16 10 6 8 9 -8 9
-12 0 -25 -5 -28 -10 -3 -6 -18 -10 -33 -10 -29 0 -20 15 13 23 11 3 3 5 -18
6 -35 1 -38 -1 -32 -20 4 -12 2 -24 -4 -28 -14 -9 8 -61 27 -61 6 0 12 -4 12
-9 0 -17 -20 -23 -35 -11 -10 8 -15 8 -20 0 -11 -18 1 -23 40 -16 21 4 35 13
35 22 0 12 4 12 20 4 11 -6 20 -18 20 -26 0 -10 6 -13 19 -9 11 3 23 -1 32
-12 11 -15 11 -16 -1 -6 -14 13 -39 19 -27 6 4 -3 2 -12 -4 -19 -16 -19 45
-84 63 -66 9 9 9 15 0 24 -9 9 -12 9 -12 -2 0 -10 -3 -11 -11 -3 -9 9 -8 16 5
28 14 15 16 15 16 1 0 -9 5 -16 10 -16 15 0 12 -37 -5 -53 -13 -13 -9 -24 35
-91 44 -67 53 -76 74 -70 17 4 30 -1 45 -17 11 -13 21 -28 22 -33 0 -6 4 -2 9
9 7 15 9 11 7 -20 -2 -37 -4 -40 -40 -48 -20 -5 -43 -7 -51 -4 -12 5 -151 227
-169 270 -4 11 -16 21 -26 24 -12 3 -17 11 -14 20 5 12 -1 14 -28 12 -38 -4
-139 29 -139 45 0 16 20 44 20 29 0 -7 9 -13 20 -13 11 0 20 7 20 15 0 14 -5
17 -39 19 -8 1 -16 7 -19 14 -3 9 4 11 21 8 18 -3 24 -1 21 8 -5 13 -44 17
-44 4 0 -4 -7 -8 -15 -8 -10 0 -4 14 20 46 40 52 42 59 18 73 -15 9 -13 11 12
11 17 1 44 7 60 15 28 12 24 13 -65 14 -56 1 -90 5 -82 10 18 11 -34 21 -97
20 -46 -2 -46 -2 -11 -9 43 -9 9 -12 -42 -4 -21 4 -35 10 -32 15 3 5 -2 9 -11
9 -13 0 -14 -4 -5 -20 6 -11 8 -25 5 -30 -3 -6 1 -7 10 -3 23 8 37 -17 19 -34
-8 -8 -11 -19 -8 -24 3 -6 -2 -19 -11 -29 -19 -21 -3 -39 20 -20 7 6 16 7 19
2 3 -4 -11 -14 -30 -21 -18 -7 -34 -17 -34 -22 0 -5 -4 -9 -9 -9 -5 0 -8 11
-5 26 3 16 -3 35 -16 52 -13 15 -17 28 -11 30 17 6 13 22 -5 22 -8 0 -13 4 -9
9 3 5 1 12 -5 16 -5 3 -10 -1 -10 -9 0 -8 -4 -17 -9 -20 -13 -9 -8 47 6 62 10
10 8 17 -7 32 -11 11 -20 28 -20 39 0 10 -7 24 -16 31 -9 8 -14 25 -12 43 2
23 -1 31 -15 33 -15 2 -16 0 -5 -13 10 -13 9 -15 -7 -11 -12 2 -20 11 -20 23
0 15 -6 19 -22 17 -12 -2 -24 2 -28 7 -4 7 1 8 11 4 13 -5 16 -3 11 10 -4 12
-2 14 11 10 15 -6 15 -4 -2 15 -10 12 -23 19 -27 16 -5 -3 -9 0 -9 6 0 6 -4 9
-9 6 -5 -4 -11 0 -14 6 -2 7 -9 -12 -15 -42 -17 -81 -18 -313 -2 -398 15 -83
10 -94 -45 -90 -23 2 -31 9 -33 26 -3 19 -6 21 -18 11 -30 -24 -164 -2 -164
28 0 17 19 16 50 -2 35 -20 93 -19 112 3 14 15 14 25 2 82 -19 89 -18 150 1
150 10 0 15 11 16 33 l2 32 6 -35 c3 -20 13 -36 22 -38 13 -2 17 12 22 89 10
138 9 287 -3 269 -5 -8 -7 -25 -3 -37 3 -13 1 -23 -5 -23 -11 0 -22 56 -22
115 0 22 -4 47 -10 55 -7 12 -11 10 -18 -10 -5 -14 -17 -41 -26 -60 l-16 -35
5 38 c3 20 3 42 -1 49 -12 19 -14 82 -3 89 6 3 0 18 -15 36 -26 31 -34 63 -16
63 6 0 10 -5 10 -10 0 -6 8 -23 19 -38 51 -75 81 -127 81 -143 0 -10 5 -21 11
-25 8 -4 9 1 3 17 -4 13 -8 45 -9 72 -1 39 -7 53 -36 83 -39 41 -92 68 -119
59 -28 -9 -55 -107 -32 -117 35 -14 102 -171 128 -298 6 -31 5 -33 -10 -21 -9
7 -16 19 -16 26 0 7 -9 15 -20 18 -24 6 -26 -15 -5 -56 16 -30 22 -161 11
-217 -19 -91 -42 -108 -67 -48 -11 26 -10 32 4 43 9 6 21 23 26 36 l10 24 1
-25 2 -25 8 25 c11 36 12 109 1 91 -7 -11 -10 -9 -13 10 -4 20 -6 17 -13 -16
-4 -22 -16 -47 -27 -56 -10 -9 -18 -21 -18 -28 0 -6 -4 -11 -10 -11 -5 0 -7 6
-4 14 3 7 -2 16 -10 19 -10 4 -13 1 -9 -9 7 -19 -12 -18 -42 2 -29 19 -33 54
-11 96 9 16 11 30 5 33 -5 4 -9 -1 -9 -10 0 -11 -5 -15 -15 -11 -8 3 -15 1
-15 -5 0 -5 -12 -22 -26 -37 l-25 -27 3 25 c2 19 -1 25 -15 24 -12 -1 -17 5
-17 22 0 13 -5 24 -12 24 -9 0 -9 3 -1 11 6 6 9 18 6 25 -3 8 1 14 11 14 15 0
15 3 1 30 -19 36 -11 75 12 66 11 -4 13 -2 10 9 -6 14 31 97 46 103 16 8 6 24
-13 19 -11 -3 -20 -1 -20 4 0 5 5 9 12 9 6 0 9 3 6 6 -3 3 5 17 18 31 25 27
26 42 2 27 -7 -5 -17 -9 -23 -10 -5 -1 -19 -5 -30 -9 -11 -4 1 12 27 38 26 24
44 47 41 51 -3 3 -1 12 6 19 8 11 8 23 -4 51 -18 42 -20 44 -22 14 -2 -28 -23
-68 -35 -68 -5 0 -6 9 -3 20 8 27 -16 27 -40 0 -19 -21 -62 -29 -49 -9 3 6 -3
24 -15 40 -29 39 -26 47 5 18 l27 -24 -13 24 c-12 23 -11 23 19 19 17 -2 31
-1 31 4 0 4 6 8 14 8 7 0 21 10 30 23 l17 22 -7 -24 c-4 -16 -3 -21 5 -17 16
10 14 36 -4 42 -8 4 -15 13 -15 21 0 8 4 11 10 8 21 -13 -10 46 -54 102 -25
31 -43 60 -40 64 2 4 -1 11 -7 15 -8 4 -9 3 -5 -4 4 -7 4 -12 -1 -12 -12 1
-65 80 -61 92 2 5 16 -2 31 -17 15 -15 24 -31 21 -36 -3 -5 -2 -8 3 -7 16 4
153 -77 153 -91 0 -8 12 -38 27 -67 24 -47 25 -56 14 -77 -14 -26 -7 -87 10
-87 6 0 19 5 30 10 13 7 19 7 19 0 0 -5 7 -10 15 -10 17 0 20 21 5 36 -5 5
-12 45 -15 89 -7 84 -13 94 -75 121 l-25 11 33 7 c40 9 92 -18 136 -72 16 -21
67 -74 113 -118 46 -45 83 -85 83 -89 0 -4 -13 -24 -30 -45 -34 -43 -41 -71
-12 -49 15 13 16 12 4 -3 -9 -11 -10 -23 -5 -33 9 -15 11 -15 22 -1 11 13 11
16 0 17 -8 0 -4 4 9 10 13 5 21 12 18 17 -2 4 10 9 27 10 l32 2 -25 -15 c-28
-16 -9 -21 20 -5 11 6 21 6 24 1 6 -9 82 -5 97 5 4 2 10 0 13 -5 4 -5 -3 -12
-14 -16 -11 -3 -20 -11 -20 -16 0 -12 13 -12 26 0 5 5 19 5 34 -1 24 -10 24
-10 5 -18 -22 -9 -21 -9 13 -16 20 -4 22 -1 17 18 -7 23 -7 23 8 3 9 -11 21
-20 29 -20 7 0 14 -6 14 -12 1 -7 2 -18 3 -24 1 -8 5 -8 14 -1 8 7 18 7 27 2
9 -6 18 -3 26 8 10 14 11 13 7 -9 -4 -22 -9 -25 -36 -21 -29 5 -30 4 -15 -12
9 -9 23 -13 31 -10 8 3 18 0 22 -6 5 -8 12 -5 21 7 14 17 15 16 10 -7 -3 -14
-3 -19 0 -12 3 6 10 12 15 12 6 0 8 -3 6 -7 -3 -5 6 -9 19 -9 15 -1 24 4 24
13 0 10 -6 12 -20 8 -16 -5 -20 -2 -20 16 0 17 3 20 11 12 6 -6 18 -9 25 -6 8
3 14 -1 14 -10 0 -29 18 -27 22 3 2 16 1 27 -4 24 -4 -3 -8 2 -8 11 0 8 7 18
15 21 8 4 15 15 15 25 0 10 5 19 11 19 5 0 7 5 4 10 -9 14 -35 -7 -35 -27 0
-8 -6 -13 -12 -11 -17 6 -19 48 -2 48 21 0 21 34 -1 51 -28 22 -53 30 -60 19
-11 -17 -24 -11 -20 10 2 11 0 20 -6 20 -5 0 -9 -7 -9 -15 0 -8 -4 -15 -9 -15
-11 0 -6 79 6 91 5 5 37 -19 82 -61 40 -39 76 -70 81 -70 4 0 10 11 12 24 4
19 1 23 -10 18 -10 -3 -7 3 6 16 11 11 26 39 32 62 11 39 59 100 80 100 11 0
14 -20 3 -20 -5 0 -21 -12 -37 -26 -28 -25 -31 -33 -61 -177 -2 -9 -6 -21 -10
-26 -3 -6 8 -8 25 -6 16 2 30 0 30 -5 0 -6 7 -10 15 -10 8 0 12 6 9 13 -3 8 2
20 11 27 8 7 15 22 15 34 0 11 5 28 11 36 8 11 9 4 6 -29 -3 -24 -11 -48 -19
-52 -10 -7 -10 -9 0 -9 6 0 12 -12 12 -26 0 -18 5 -25 18 -23 45 4 54 -8 26
-35 -13 -14 -13 -16 -1 -16 23 0 47 11 47 22 0 5 -4 6 -10 3 -15 -10 -12 3 7
25 22 26 36 26 28 0 -4 -14 -2 -20 9 -20 10 0 13 -6 9 -17 -4 -11 -3 -14 5 -9
8 4 10 2 6 -8 -3 -8 -13 -13 -22 -10 -9 3 -6 -1 8 -10 24 -14 25 -13 28 9 2
16 11 25 25 27 18 2 21 9 19 31 -2 15 -12 37 -23 48 -11 11 -17 24 -14 29 4 6
1 10 -5 10 -6 0 -8 5 -5 10 4 6 16 8 27 4 15 -5 19 -3 13 7 -6 11 -5 12 6 1
19 -18 28 -15 22 8 -3 11 -9 18 -13 15 -5 -3 -6 4 -3 15 4 16 2 19 -12 13 -13
-4 -16 -3 -11 5 4 7 17 12 29 12 35 0 67 11 61 21 -3 5 -9 7 -13 5 -4 -3 -27
-7 -52 -10 -40 -5 -42 -4 -24 10 11 8 37 17 58 21 39 6 39 6 16 19 -17 9 -19
13 -8 14 13 0 17 10 17 42 1 23 -4 48 -10 55 -6 7 -7 13 -2 14 5 0 -4 7 -21
14 l-30 13 29 8 29 7 -27 11 -27 11 22 24 22 24 -31 -5 c-40 -6 -40 -3 -2 17
32 16 70 12 70 -7 0 -6 3 -8 6 -5 13 12 -19 37 -47 37 -29 0 -62 -24 -144
-108 -35 -35 -45 -53 -46 -81 -1 -31 -3 -29 -9 14 -6 41 -3 55 12 77 28 40
149 128 178 129 22 0 -17 18 -102 46 -10 3 -15 9 -12 14 8 14 -2 11 -41 -12
-32 -19 -43 -21 -80 -12 -39 9 -47 7 -99 -24 -31 -18 -60 -33 -63 -33 -3 0 22
27 56 60 33 32 61 64 61 70 0 6 11 14 23 19 13 5 24 16 24 25 0 15 -3 15 -23
1 -27 -18 -34 -19 -34 -5 0 6 7 10 15 10 8 0 15 5 15 10 0 6 -7 10 -15 10 -9
0 -15 6 -14 13 4 36 -2 41 -22 18 -11 -13 -22 -21 -26 -17 -3 3 2 15 12 26 16
18 16 20 2 20 -18 0 -37 -29 -37 -58 0 -28 -66 -124 -104 -150 -61 -42 -118
-49 -130 -16 -3 9 -1 12 4 9 6 -4 9 4 7 17 -1 18 4 23 28 28 30 6 30 6 5 12
-29 9 -24 16 26 33 l38 13 -42 7 c-30 5 -42 12 -42 23 0 10 -7 37 -16 62 -10
29 -14 61 -10 88 7 50 -6 82 -34 82 -10 0 -22 5 -26 12 -5 8 0 9 14 6 26 -7
30 13 6 36 -18 19 -16 92 4 89 6 -2 12 6 12 16 0 13 6 18 18 17 9 -2 20 2 24
8 5 8 8 7 8 -1 0 -7 6 -13 14 -13 8 0 16 -6 19 -13 5 -15 57 -21 57 -7 0 5 7
7 15 4 22 -9 19 24 -5 64 -11 18 -20 37 -20 42 0 15 26 12 40 -5 7 -8 16 -12
21 -9 5 3 19 -1 31 -8 13 -7 34 -14 47 -15 23 -2 23 -1 -10 33 -18 19 -50 39
-71 44 -20 6 -40 15 -43 21 -5 7 -11 7 -20 -1 -9 -7 -16 -6 -24 3 -6 8 -8 17
-4 20 3 4 -14 7 -38 7 l-44 0 -34 65 c-18 36 -32 67 -30 69 14 12 51 26 68 26
24 0 25 4 10 31 -9 18 -18 20 -70 15 -52 -5 -59 -3 -59 13 0 10 -13 32 -30 49
l-30 32 0 -25 c0 -14 -7 -28 -15 -31 -17 -7 -88 43 -80 56 3 5 -3 11 -13 14
-10 4 -32 21 -48 39 -16 17 -22 26 -14 20 18 -16 34 -17 24 -1 -4 7 -3 8 4 4
6 -4 9 -13 6 -20 -5 -12 12 -25 27 -22 13 2 38 -27 32 -37 -4 -6 -1 -7 7 -2 9
5 11 4 6 -4 -4 -6 0 -14 9 -17 40 -16 20 13 -75 103 -98 95 -101 98 -74 103
15 3 29 11 32 18 2 7 -2 10 -12 6 -25 -9 -83 15 -136 57 -33 26 -50 34 -50 25
0 -13 -8 -12 -47 5 -50 21 -166 40 -214 34 -20 -3 -29 0 -29 10 0 19 -10 19
-39 -1 -30 -22 -97 -29 -81 -9 6 7 20 10 32 7 15 -3 19 -2 14 7 -4 6 -12 9
-17 6 -5 -4 -9 3 -9 13 0 12 -9 22 -22 26 -21 6 -22 7 -5 17 9 6 15 14 12 18
-4 8 53 21 85 20 12 0 11 -2 -2 -7 -9 -4 43 -7 117 -7 73 0 132 1 130 3 -2 2
-34 7 -72 12 l-68 9 75 -3 c41 -2 89 -9 105 -16 17 -7 39 -13 50 -12 11 1 14
-1 7 -4 -14 -7 -16 -44 -2 -44 6 0 10 -7 10 -15 0 -8 12 -21 28 -29 15 -8 38
-26 52 -41 17 -18 33 -25 52 -23 34 3 78 -35 71 -63 -3 -10 -1 -19 5 -19 6 0
13 -9 17 -19 3 -11 12 -18 18 -15 19 7 61 -42 53 -61 -3 -9 1 -18 10 -22 9 -3
20 -15 24 -27 7 -17 9 -18 9 -3 1 9 6 17 13 17 7 0 -5 17 -25 38 -20 21 -37
46 -37 55 0 9 -3 16 -7 16 -22 -4 -43 2 -43 11 0 7 6 7 20 0 14 -8 20 -8 20 0
0 6 4 9 9 6 5 -3 14 1 21 9 9 10 9 15 1 15 -6 0 -11 -5 -11 -12 0 -15 -13 -1
-16 17 -1 8 3 13 9 12 7 -1 11 4 9 12 -1 7 3 20 10 29 10 12 10 14 1 8 -8 -4
-13 -2 -13 8 0 8 -6 17 -12 20 -7 3 -3 3 8 1 14 -4 24 0 28 10 3 9 2 14 -3 11
-5 -3 -14 1 -21 9 -11 13 -10 14 4 9 9 -3 16 -2 16 4 0 14 -34 25 -38 13 -2
-6 -8 -11 -13 -11 -6 0 -6 8 1 19 9 18 32 22 46 8 15 -15 121 19 141 45 15 20
23 48 14 48 -5 0 -12 -11 -15 -25 -4 -14 -11 -25 -17 -25 -6 0 -6 7 1 20 10
20 -5 60 -22 60 -5 0 -8 4 -8 10 0 5 8 6 18 3 15 -6 15 -5 3 10 -7 9 -17 14
-23 11 -9 -6 -58 40 -58 54 0 4 7 -2 15 -12 13 -17 15 -17 15 -4 0 9 -5 20
-12 24 -7 5 -5 11 7 21 11 7 14 13 6 13 -8 0 -6 9 7 28 17 22 28 27 65 27 25
0 42 -4 39 -9 -3 -5 2 -7 10 -3 9 3 22 0 29 -6 11 -10 11 -9 1 4 -9 12 -8 20
2 35 7 10 12 37 11 60 -2 37 1 43 32 59 18 10 33 22 33 26 0 12 -66 28 -90 22
-15 -4 -20 0 -20 16 0 12 6 21 15 21 8 0 15 7 15 16 0 11 -5 14 -16 10 -9 -3
-18 -6 -20 -6 -2 0 -4 -9 -4 -20 0 -11 -5 -20 -11 -20 -5 0 -8 4 -5 8 6 11
-11 38 -19 30 -13 -13 -22 -76 -13 -92 5 -9 18 -16 28 -16 11 0 20 -4 20 -10
0 -5 7 -10 15 -10 8 0 15 -4 15 -10 0 -5 -4 -10 -9 -10 -5 0 -16 -3 -24 -6
-10 -3 -17 2 -20 13 -3 11 -5 6 -6 -12 -1 -21 -4 -26 -10 -16 -7 10 -12 8 -25
-10 -15 -22 -20 -19 -17 6 1 6 -6 1 -14 -9 -8 -11 -15 -32 -15 -46 0 -32 -17
-50 -45 -49 -19 0 -19 1 -1 8 13 5 16 10 9 14 -6 4 -19 0 -27 -9 -15 -14 -21
-11 -17 10 1 5 -5 6 -13 3 -8 -3 -26 5 -41 19 -14 13 -31 24 -37 24 -5 0 -7 7
-4 16 3 9 6 22 6 30 0 8 5 14 10 14 6 0 10 -8 10 -17 1 -16 2 -16 12 1 7 13 8
25 1 35 -5 9 -10 41 -11 71 l-2 55 25 -28 c14 -15 25 -25 25 -22 0 4 12 -3 27
-14 14 -12 27 -20 29 -18 2 1 5 21 7 42 4 35 0 45 -29 78 -19 20 -34 34 -34
30 -1 -24 -40 47 -40 72 0 17 -4 44 -9 61 -8 28 -7 31 10 27 10 -3 24 -11 30
-19 9 -11 8 -14 -7 -14 -11 0 0 -9 24 -20 23 -10 49 -17 58 -13 8 3 22 -1 32
-9 26 -23 82 -31 82 -13 0 22 18 18 25 -5 10 -33 24 -23 19 15 -3 25 0 35 9
35 8 0 19 10 25 23 10 19 11 16 5 -18 -8 -51 -7 -75 6 -88 8 -8 11 -5 11 10 0
11 7 24 16 27 11 4 14 13 10 31 -4 16 -1 27 10 33 12 6 14 16 9 32 -4 14 -10
18 -14 12 -8 -14 -51 -7 -105 17 -66 30 -86 34 -102 20 -13 -10 -17 -10 -26 2
-7 11 -11 11 -15 2 -2 -7 -12 -13 -21 -13 -15 0 -15 2 -2 10 16 10 8 14 -22
11 -10 -1 -18 3 -18 8 0 6 -4 11 -10 11 -5 0 -10 -9 -10 -20 0 -13 5 -18 15
-14 10 4 18 -3 25 -21 13 -34 13 -45 -1 -45 -5 0 -7 5 -4 10 3 6 2 10 -4 10
-6 0 -22 12 -37 28 -22 23 -24 24 -15 5 23 -45 -14 -25 -54 30 -37 50 -41 57
-30 57 3 0 19 7 35 15 18 9 40 13 55 9 14 -3 32 -4 40 0 13 5 13 9 3 28 -15
27 -39 48 -53 47 -5 0 -4 -3 3 -6 6 -2 12 -11 12 -19 0 -8 5 -14 10 -14 6 0
10 -4 10 -9 0 -15 -79 -4 -106 14 -27 17 -32 45 -9 45 8 0 15 8 14 18 0 10 -3
12 -6 5 -2 -7 -8 -13 -11 -13 -10 0 -35 60 -29 67 4 3 -1 12 -9 20 -8 9 -18
12 -22 9 -3 -4 -2 -10 4 -14 13 -9 16 -52 3 -52 -5 0 -9 5 -9 11 0 5 -4 7 -10
4 -5 -3 -10 0 -10 7 0 7 -7 22 -16 33 -13 18 -14 17 -9 -15 3 -19 3 -29 -1
-22 -3 6 -12 12 -20 12 -10 0 -12 8 -7 30 3 20 1 30 -6 30 -7 0 -10 -4 -7 -9
7 -11 -3 -41 -14 -41 -5 0 -6 9 -3 20 3 12 0 20 -6 20 -7 0 -10 4 -7 9 4 5 0
12 -6 14 -8 3 -6 6 5 6 9 1 17 6 17 11 0 6 7 10 15 10 8 0 15 6 15 14 0 7 10
16 23 20 35 9 49 7 41 -6 -5 -9 -2 -8 10 1 13 11 14 16 4 22 -10 7 -10 9 2 9
8 1 31 3 50 5 42 4 109 -14 178 -49 28 -14 54 -26 57 -26 3 0 5 22 5 49 0 43
-4 52 -35 79 l-34 31 52 6 c48 6 54 10 71 46 10 21 25 60 32 86 l14 48 -3 -47
c-1 -27 -1 -48 0 -48 7 0 81 88 109 129 17 25 50 61 73 79 l42 34 -2 74 c-1
41 -8 109 -16 152 -7 42 -16 121 -19 176 -2 54 -9 107 -14 116 -5 10 -7 20 -4
23 3 3 -7 72 -21 153 -15 82 -28 158 -29 170 -2 11 -6 26 -10 32 -6 10 -24 90
-31 147 -3 16 -13 41 -23 55 -14 19 -18 41 -17 89 1 45 -4 76 -18 104 -10 22
-26 63 -34 91 -8 28 -24 63 -35 79 l-19 27 -1912 0 -1912 -1 -20 -25z m3115
-483 c0 -7 -145 -217 -166 -240 -2 -2 -7 -1 -11 4 -5 4 -2 10 5 12 6 3 12 13
12 23 0 9 25 52 56 94 31 42 53 83 50 91 -3 8 2 16 12 18 29 8 42 7 42 -2z
m-120 -103 c-53 -64 -83 -97 -64 -68 41 59 107 140 111 136 3 -2 -19 -33 -47
-68z m-164 -202 c10 -8 16 -17 12 -21 -8 -8 -48 13 -48 25 0 14 13 12 36 -4z
m-2976 -16 c0 -5 -4 -10 -10 -10 -5 0 -10 5 -10 10 0 6 5 10 10 10 6 0 10 -4
10 -10z m3000 -46 c-22 -34 -24 -90 -8 -144 3 -8 3 -12 1 -7 -3 4 -13 7 -24 7
-10 0 -19 5 -19 10 0 6 5 10 10 10 6 0 10 10 10 22 l0 22 -20 -22 c-11 -12
-20 -25 -20 -31 0 -11 -27 -22 -33 -13 -2 4 -2 2 -1 -5 3 -13 -25 -47 -33 -39
-3 2 4 30 13 61 15 46 26 62 55 81 21 13 46 37 55 54 10 16 22 30 27 30 5 0
-1 -16 -13 -36z m-36 -7 c-6 -16 -98 -64 -112 -59 -17 5 9 42 30 42 10 0 18 4
18 9 0 9 17 15 52 18 9 1 15 -4 12 -10z m83 -89 c-3 -7 -5 -2 -5 12 0 14 2 19
5 13 2 -7 2 -19 0 -25z m-127 -78 c0 -5 -4 -10 -10 -10 -5 0 -10 5 -10 10 0 6
5 10 10 10 6 0 10 -4 10 -10z m-133 -75 c20 -8 34 -18 31 -21 -7 -6 -78 22
-78 30 0 9 7 7 47 -9z m-67 -82 c30 -11 31 -12 6 -8 -16 4 -43 13 -60 20 -23
11 -25 13 -6 8 14 -3 41 -12 60 -20z m-73 -9 c71 -16 112 -33 82 -34 -18 0
-179 48 -162 49 6 1 42 -6 80 -15z m11 -35 c26 -7 51 -16 57 -20 14 -14 -3
-11 -70 11 -67 21 -59 26 13 9z m-32 -40 c78 -24 168 -67 234 -112 62 -42 167
-144 196 -189 29 -45 31 -59 5 -29 -12 14 -25 20 -32 15 -9 -5 -10 -2 -6 9 4
11 2 14 -8 10 -12 -4 -12 -9 -3 -26 20 -39 45 -67 53 -59 5 4 5 1 0 -7 -6 -11
-13 -8 -28 15 -11 16 -59 67 -106 114 -92 91 -178 144 -317 193 -41 15 -84 38
-102 56 l-30 31 38 0 c21 0 69 -10 106 -21z m214 -5 c55 -36 50 -41 -7 -8 -59
34 -59 34 -44 34 6 0 29 -12 51 -26z m-2729 -30 c30 -5 107 -54 85 -54 -3 0 0
-10 9 -23 8 -13 12 -27 8 -31 -5 -4 -8 -11 -9 -14 -2 -18 -24 -61 -34 -67 -6
-4 -8 -15 -5 -25 5 -16 -2 -21 -37 -31 -36 -10 -40 -13 -23 -19 19 -7 18 -8
-6 -14 -14 -4 -29 -6 -35 -5 -5 2 -20 -1 -32 -5 -19 -6 -30 -2 -54 21 -16 15
-36 39 -43 53 -13 26 -6 64 10 58 6 -2 19 26 30 61 20 63 52 101 84 101 9 0
32 -3 52 -6z m2569 -70 c30 -12 77 -35 103 -50 59 -32 169 -133 164 -148 -2
-6 0 -22 5 -36 9 -23 8 -23 -10 -7 -19 17 -20 17 -26 -8 -4 -14 -4 -31 0 -37
5 -7 0 -9 -14 -6 -16 4 -19 2 -15 -10 4 -8 -13 4 -38 28 -24 23 -67 59 -96 78
-46 30 -51 37 -42 54 6 11 8 26 5 33 -6 16 -90 55 -117 55 -34 0 -20 -17 29
-35 26 -10 51 -21 55 -25 8 -7 -18 -70 -28 -70 -3 0 -26 10 -50 21 -36 17 -44
25 -40 40 4 13 1 19 -9 19 -10 0 -13 6 -10 15 4 8 1 15 -6 15 -14 0 -4 77 14
96 14 15 53 9 126 -22z m-180 -24 c0 -15 -7 -20 -25 -20 -14 0 -25 5 -25 10 0
6 7 10 15 10 8 0 15 5 15 10 0 6 5 10 10 10 6 0 10 -9 10 -20z m-1680 -63 c0
-18 -2 -19 -10 -7 -13 20 -13 43 0 35 6 -3 10 -16 10 -28z m-22 -24 c14 -13
29 -23 34 -23 5 0 6 -9 3 -20 -5 -14 -2 -20 10 -20 12 0 15 6 10 21 -5 15 -3
20 6 17 8 -3 23 -30 33 -61 11 -31 25 -57 31 -57 6 0 22 -14 35 -30 14 -17 40
-37 58 -45 17 -8 32 -19 32 -25 0 -6 5 -8 10 -5 15 9 12 25 -4 25 -20 0 -67
40 -60 52 4 6 9 6 13 2 3 -5 16 -15 29 -22 18 -10 22 -10 22 3 0 8 4 15 10 15
5 0 7 -7 4 -15 -7 -17 11 -21 21 -5 3 6 12 10 18 10 7 0 5 -5 -5 -10 -19 -12
-13 -50 9 -50 10 0 13 -6 9 -16 -4 -12 -2 -15 9 -11 8 4 17 2 20 -3 3 -4 -12
-11 -33 -15 -62 -10 -75 -26 -14 -19 54 7 56 5 55 -43 0 -6 6 -9 13 -6 8 3 14
12 14 21 0 12 3 13 11 5 9 -9 6 -19 -10 -39 -11 -15 -21 -36 -21 -47 0 -20 0
-21 15 -1 13 17 14 17 15 2 0 -10 -11 -25 -25 -34 -29 -19 -32 -34 -7 -34 16
-1 16 -1 0 -11 -22 -12 -24 -39 -3 -39 19 0 20 -29 0 -36 -11 -5 -12 -10 -4
-26 8 -14 8 -23 0 -31 -5 -5 -8 -24 -5 -41 l4 -31 -15 30 -16 30 6 -27 c5 -25
2 -28 -20 -28 -14 0 -28 -7 -31 -15 -4 -8 -13 -15 -21 -15 -12 0 -13 -3 -5
-13 8 -10 6 -13 -9 -14 -10 -1 -19 2 -19 8 0 23 -20 6 -30 -26 -6 -19 -15 -33
-20 -30 -5 3 -11 1 -15 -5 -3 -5 0 -10 7 -10 7 0 3 -7 -9 -15 -12 -8 -27 -31
-33 -50 -6 -19 -15 -35 -20 -35 -13 0 -18 -38 -7 -49 8 -8 8 -11 -1 -11 -6 0
-9 -7 -6 -15 4 -9 0 -15 -10 -15 -10 0 -16 -9 -16 -25 0 -20 -5 -25 -23 -25
-29 0 -67 -31 -67 -55 0 -11 -5 -15 -15 -11 -8 3 -15 1 -15 -5 0 -6 -7 -6 -19
1 -13 7 -22 7 -26 0 -6 -10 18 -14 62 -11 14 2 24 -5 28 -18 7 -23 21 -27 28
-8 2 7 8 8 13 3 5 -5 4 -11 -3 -13 -7 -3 -13 -12 -13 -21 -1 -14 -5 -12 -20 7
-16 18 -27 22 -50 18 -16 -4 -32 -2 -35 3 -11 18 -25 10 -39 -22 -12 -28 -14
-30 -15 -10 -1 12 -5 22 -10 22 -5 0 -8 -8 -7 -17 1 -13 -7 -18 -29 -20 -16
-1 -23 1 -13 3 9 3 19 11 22 19 4 11 -2 13 -22 11 -15 -2 -19 -1 -9 1 9 2 17
13 17 24 0 22 11 24 28 7 9 -9 15 -9 23 -1 8 8 0 13 -30 18 -24 4 -41 12 -41
20 0 8 -4 17 -10 20 -6 3 -7 -1 -4 -9 3 -9 2 -16 -4 -16 -12 0 -24 29 -16 41
3 5 10 6 16 3 12 -8 29 16 21 29 -2 4 -12 2 -21 -5 -14 -12 -15 -9 -9 22 3 19
3 29 0 23 -7 -19 -40 -16 -47 4 -4 9 0 23 9 32 9 9 15 11 15 4 0 -6 -3 -13 -7
-16 -5 -2 -1 -1 7 1 8 3 25 5 37 5 17 -1 19 2 10 12 -7 7 -18 10 -26 7 -11 -4
-13 -1 -7 13 4 11 2 22 -6 27 -9 5 -6 8 10 8 13 0 22 6 22 15 0 8 6 12 14 9 8
-3 23 -1 33 5 19 11 19 11 -29 15 -17 1 -32 38 -19 45 19 12 -7 34 -38 34 -17
0 -31 5 -31 10 0 5 16 7 35 5 36 -4 42 5 36 50 -2 10 4 12 18 7 15 -5 21 -2
21 10 0 12 -6 15 -21 10 -15 -5 -20 -3 -17 5 6 18 58 22 58 5 0 -16 27 -28 35
-14 4 5 -1 12 -10 15 -10 4 -13 13 -10 25 5 15 1 19 -17 19 -13 0 -30 -6 -37
-12 -10 -11 -12 -8 -9 11 2 19 9 25 31 26 16 0 32 7 36 14 5 7 12 13 17 12 5
0 8 14 7 32 0 18 1 24 4 15 7 -27 23 -22 23 7 0 14 -5 25 -11 25 -6 0 -3 7 5
16 10 9 24 13 36 9 11 -4 20 -2 20 4 0 6 -4 11 -10 11 -5 0 -10 5 -10 11 0 8
4 8 13 1 7 -6 29 -10 49 -9 35 2 36 3 20 20 -15 17 -15 19 2 29 15 8 16 12 5
19 -20 13 -29 11 -29 -6 0 -8 -4 -15 -10 -15 -5 0 -10 11 -10 24 0 25 -22 51
-33 39 -10 -10 -8 -55 2 -49 5 3 11 -1 15 -9 3 -10 -1 -15 -13 -15 -10 0 -21
-9 -24 -20 -3 -11 -12 -20 -21 -20 -19 0 -21 11 -4 28 7 7 9 12 5 12 -4 0 -3
10 4 21 11 21 10 22 -20 16 -24 -5 -31 -3 -31 9 0 10 8 15 23 14 12 -1 28 -2
35 -1 16 1 16 31 -1 31 -7 0 -18 10 -26 21 -11 18 -11 23 1 30 7 5 19 9 26 9
6 0 12 3 12 8 0 4 4 14 10 22 7 12 12 10 30 -9 11 -14 23 -21 28 -16 4 4 1 10
-5 12 -7 3 -13 10 -13 16 0 7 -14 20 -31 30 -38 21 -33 32 6 17 22 -8 32 -8
43 3 12 13 10 14 -13 10 -18 -4 -32 1 -46 16 -21 22 -44 19 -35 -4 7 -19 -20
-40 -28 -23 -5 10 -7 10 -12 1 -7 -15 -24 -17 -24 -4 0 5 9 13 20 16 11 3 20
11 20 17 0 6 7 16 16 22 20 15 8 46 -17 46 -10 0 -19 5 -19 11 0 5 4 8 9 5 16
-10 41 5 41 24 0 11 5 22 11 26 8 5 8 9 -1 14 -8 5 -4 9 10 13 16 4 20 2 16
-9 -3 -8 -1 -14 5 -14 15 0 22 29 10 44 -6 7 -8 16 -4 20 4 4 9 2 12 -5 2 -7
15 -23 29 -36z m3219 41 c26 -7 30 -20 23 -93 -5 -54 -6 -56 -32 -53 -14 1
-29 -2 -33 -8 -7 -11 -47 -13 -80 -4 -18 5 -21 14 -22 85 l-2 79 62 0 c34 0
72 -3 84 -6z m-3277 -14 c0 -5 -2 -10 -4 -10 -3 0 -8 5 -11 10 -3 6 -1 10 4
10 6 0 11 -4 11 -10z m3448 -15 c-3 -3 -9 2 -12 12 -6 14 -5 15 5 6 7 -7 10
-15 7 -18z m-3278 -14 c0 -6 -4 -13 -10 -16 -5 -3 -10 1 -10 9 0 9 5 16 10 16
6 0 10 -4 10 -9z m-240 -5 c0 -11 -19 -15 -25 -6 -3 5 1 10 9 10 9 0 16 -2 16
-4z m300 -28 c0 -19 -2 -20 -10 -8 -13 19 -13 30 0 30 6 0 10 -10 10 -22z
m2356 13 c-10 -15 -108 -83 -105 -72 4 9 98 81 107 81 2 0 1 -4 -2 -9z m-2276
-76 c-15 -18 -30 -10 -29 13 0 11 3 12 6 5 7 -19 23 -16 24 5 0 11 2 12 6 4 3
-7 -1 -19 -7 -27z m1668 -24 c126 -82 202 -174 258 -315 26 -65 33 -75 38 -58
6 17 15 22 44 22 54 0 192 -22 192 -31 0 -16 -20 -18 -99 -11 l-81 8 -2 -115
c-1 -64 -3 -99 -5 -78 -4 33 -6 36 -24 27 -12 -7 -19 -21 -19 -43 -1 -68 -17
0 -23 93 -12 203 -109 364 -292 486 -44 30 -73 54 -64 54 9 0 43 -18 77 -39z
m626 -3 c-32 -23 -77 -56 -99 -73 -45 -36 -65 -48 -65 -42 0 7 127 108 169
134 61 39 57 25 -5 -19z m-2386 21 c-2 -6 -8 -10 -13 -10 -5 0 -11 4 -13 10
-2 6 4 11 13 11 9 0 15 -5 13 -11z m23 -30 c-9 -22 -10 -22 -10 -3 -1 11 2 24
6 27 12 12 14 0 4 -24z m1429 19 c0 -9 4 -8 10 2 9 13 12 13 25 -4 7 -10 18
-15 24 -12 5 4 13 1 17 -5 5 -8 8 -8 14 0 5 9 21 7 58 -7 150 -57 302 -238
347 -412 15 -60 18 -243 4 -234 -4 2 -9 -12 -12 -31 -7 -42 -68 -169 -97 -204
-17 -20 -23 -22 -33 -11 -9 9 -9 11 0 6 14 -7 27 11 29 39 1 11 5 29 9 40 5
15 3 13 -11 -5 -49 -68 -132 -154 -171 -177 -24 -13 -43 -29 -43 -33 0 -22 24
-18 65 10 25 17 50 30 56 28 5 -2 -8 -15 -31 -28 -77 -47 -74 -41 -41 -80 18
-21 30 -47 31 -63 0 -16 7 -54 16 -85 19 -65 15 -159 -10 -212 -11 -23 -14
-26 -10 -10 28 122 28 215 -1 204 -7 -3 -16 -1 -20 5 -3 6 1 11 9 11 9 0 16 4
16 10 0 5 -7 7 -17 3 -13 -5 -15 -2 -10 16 6 25 0 51 -13 51 -4 0 -11 -16 -14
-35 -4 -19 -11 -35 -16 -35 -5 0 -7 7 -4 15 4 8 1 15 -4 15 -7 0 -8 11 -2 31
5 18 7 36 3 42 -3 6 -1 7 5 3 7 -4 12 -3 12 3 0 5 -4 12 -9 16 -6 3 -8 14 -6
25 2 11 -1 23 -7 26 -6 4 -8 3 -5 -3 4 -6 0 -17 -9 -24 -14 -11 -20 -9 -41 15
-18 21 -21 31 -12 36 7 5 0 10 -19 15 -31 6 -53 35 -27 35 8 0 15 5 15 11 0 6
-6 9 -13 6 -13 -5 -43 31 -39 46 1 5 -2 6 -8 2 -5 -3 -10 -2 -10 3 0 6 -11 13
-24 16 -13 3 -31 9 -39 12 -13 5 -12 -5 5 -58 18 -53 22 -90 23 -239 l2 -176
36 -48 c35 -46 37 -51 37 -127 0 -44 7 -107 16 -140 14 -55 12 -118 -4 -118
-4 0 -18 -21 -32 -47 -13 -27 -27 -50 -30 -53 -14 -12 -45 -87 -45 -109 0 -13
-6 -26 -12 -28 -10 -4 -11 15 -6 76 4 58 3 81 -6 81 -6 0 -11 -9 -11 -19 0
-10 -7 -21 -15 -25 -8 -3 -15 -1 -15 4 0 16 33 51 57 61 21 8 23 14 19 71 -5
104 -85 283 -129 291 -18 3 -17 5 11 12 l33 8 -22 23 c-18 20 -19 24 -6 24 8
0 28 -5 44 -11 l28 -10 -29 30 c-20 21 -25 31 -15 32 27 2 44 -3 62 -19 26
-23 28 -11 3 19 -12 14 -37 29 -54 32 -29 6 -35 3 -60 -33 -26 -38 -54 -51
-67 -30 -3 6 -33 10 -66 10 -57 0 -59 1 -59 26 0 14 4 23 9 19 5 -3 13 0 17 6
5 9 -3 11 -29 6 -23 -3 -37 -1 -40 7 -5 12 11 127 19 135 2 2 18 -10 35 -27
17 -18 35 -32 40 -32 5 0 4 -11 -3 -24 -14 -33 -6 -52 33 -71 44 -23 51 -6 26
62 l-19 56 33 31 c31 29 32 31 12 34 -12 2 -24 10 -27 18 -8 20 47 19 96 -3
l38 -17 0 -83 c0 -46 3 -83 8 -83 34 1 44 45 43 190 -1 170 -39 293 -101 325
-33 17 -54 20 -45 5 3 -5 -1 -10 -9 -10 -8 0 -18 5 -21 10 -8 13 -52 13 -60
-1 -4 -6 -13 -8 -20 -5 -8 3 -19 -2 -25 -10 -7 -8 -17 -14 -23 -14 -6 0 -8 3
-5 6 3 3 -9 30 -27 60 -54 89 -66 207 -33 313 24 76 214 114 318 63 66 -32
155 -126 193 -202 41 -83 48 -176 19 -267 l-19 -61 45 -32 46 -32 44 23 c63
34 149 132 188 213 19 39 34 76 34 83 0 7 4 13 9 13 5 0 13 30 16 66 5 41 13
68 21 71 21 8 17 23 -5 23 -14 0 -18 5 -14 19 11 41 -62 225 -86 218 -4 -1
-29 23 -56 53 l-47 55 51 -53 c62 -65 68 -54 9 14 -73 84 -148 137 -225 160
-32 9 -53 21 -53 30 0 16 -16 19 -25 4 -3 -5 -27 -10 -53 -11 -46 -1 -45 -2
23 -14 89 -17 147 -37 190 -66 50 -35 35 -34 -34 0 -126 64 -269 64 -397 1
-123 -60 -198 -149 -241 -288 -22 -72 -25 -95 -20 -175 5 -95 31 -177 78 -254
22 -35 22 -36 4 -49 -25 -18 -46 1 -81 71 -44 90 -70 225 -44 225 6 0 10 16
10 35 0 79 62 256 108 308 8 9 12 20 9 24 -4 3 -2 13 4 22 6 9 -5 -2 -26 -24
-20 -22 -47 -60 -60 -85 -13 -25 -24 -42 -25 -37 0 4 15 38 34 75 83 166 278
292 429 279 31 -3 57 -1 57 4 0 5 5 9 10 9 6 0 10 -6 10 -12z m-1750 -18 c0
-21 -15 -27 -25 -10 -7 12 2 30 16 30 5 0 9 -9 9 -20z m370 0 c0 -5 -4 -10
-10 -10 -5 0 -10 5 -10 10 0 6 5 10 10 10 6 0 10 -4 10 -10z m97 -7 c-4 -3 -2
-12 4 -20 9 -10 8 -13 -4 -13 -22 0 -32 20 -16 31 17 10 25 12 16 2z m-75 -25
c-7 -7 -12 -8 -12 -2 0 14 12 26 19 19 2 -3 -1 -11 -7 -17z m2108 -29 c0 -18
-18 -9 -23 12 -4 16 -3 18 9 8 8 -6 14 -15 14 -20z m-223 -11 c-3 -8 -6 -5 -6
6 -1 11 2 17 5 13 3 -3 4 -12 1 -19z m433 12 c0 -5 -7 -10 -16 -10 -8 0 -12 5
-9 10 3 6 10 10 16 10 5 0 9 -4 9 -10z m-2640 -28 c0 -13 -12 -22 -22 -16 -10
6 -1 24 13 24 5 0 9 -4 9 -8z m410 -2 c0 -5 -7 -10 -16 -10 -8 0 -12 5 -9 10
3 6 10 10 16 10 5 0 9 -4 9 -10z m1253 3 c-24 -2 -62 -2 -85 0 -24 2 -5 4 42
4 47 0 66 -2 43 -4z m-188 -28 c-33 -14 -72 -34 -88 -46 -16 -11 -31 -18 -34
-16 -7 7 71 56 116 72 63 24 68 15 6 -10z m342 -9 c74 -36 139 -87 175 -140
15 -21 7 -16 -26 17 -62 62 -137 112 -206 137 -30 10 -46 19 -35 20 11 0 53
-15 92 -34z m803 14 c0 -5 -4 -10 -10 -10 -5 0 -10 5 -10 10 0 6 5 10 10 10 6
0 10 -4 10 -10z m-3274 -65 c-5 -18 -12 -25 -24 -23 -21 4 -28 44 -11 64 19
23 44 -6 35 -41z m574 40 c-7 -9 -15 -13 -17 -11 -7 7 7 26 19 26 6 0 6 -6 -2
-15z m1713 8 c-7 -2 -21 -2 -30 0 -10 3 -4 5 12 5 17 0 24 -2 18 -5z m-2223
-13 c0 -5 -5 -10 -11 -10 -5 0 -7 5 -4 10 3 6 8 10 11 10 2 0 4 -4 4 -10z
m2395 -22 c5 -5 -6 -3 -25 3 -19 6 -39 16 -45 21 -5 5 6 3 25 -3 19 -6 39 -16
45 -21z m458 -21 c-7 -11 -23 12 -23 33 1 12 4 11 15 -4 8 -10 12 -23 8 -29z
m-2314 -16 c14 -12 14 -12 -6 -6 -19 5 -23 2 -23 -15 0 -12 -4 -19 -9 -16 -4
3 -3 21 3 41 6 19 13 30 15 23 2 -7 11 -19 20 -27z m1598 17 c-3 -8 -6 -5 -6
6 -1 11 2 17 5 13 3 -3 4 -12 1 -19z m803 18 c0 -2 -7 -7 -16 -10 -8 -3 -12
-2 -9 4 6 10 25 14 25 6z m318 -25 c3 -8 -1 -12 -9 -9 -7 2 -15 10 -17 17 -3
8 1 12 9 9 7 -2 15 -10 17 -17z m-794 -6 c11 -8 16 -15 10 -15 -5 0 -18 7 -28
15 -11 8 -16 15 -10 15 5 0 18 -7 28 -15z m436 10 c0 -2 -10 -9 -22 -15 -22
-11 -22 -10 -4 4 21 17 26 19 26 11z m-2390 -85 c0 -5 -5 -10 -11 -10 -5 0 -7
5 -4 10 3 6 8 10 11 10 2 0 4 -4 4 -10z m-20 -30 c0 -5 -4 -10 -10 -10 -5 0
-10 5 -10 10 0 6 5 10 10 10 6 0 10 -4 10 -10z m586 -42 c-16 -22 -16 -22 -16
-1 0 12 6 23 13 26 19 7 20 0 3 -25z m-726 18 c0 -3 -4 -8 -10 -11 -5 -3 -10
-1 -10 4 0 6 5 11 10 11 6 0 10 -2 10 -4z m-80 -16 c0 -5 -2 -10 -4 -10 -3 0
-8 5 -11 10 -3 6 -1 10 4 10 6 0 11 -4 11 -10z m150 1 c0 -5 -7 -14 -15 -21
-13 -10 -15 -9 -15 9 0 12 6 21 15 21 8 0 15 -4 15 -9z m120 -22 c0 -6 -7 -17
-15 -25 -13 -14 -15 -13 -11 8 3 13 5 27 5 31 1 12 21 -2 21 -14z m-160 -21
c0 -5 -7 -3 -15 6 -8 8 -15 18 -15 22 0 3 7 1 15 -6 8 -7 15 -17 15 -22z
m2300 -3 c0 -5 -5 -3 -10 5 -5 8 -10 20 -10 25 0 6 5 3 10 -5 5 -8 10 -19 10
-25z m-2250 11 c0 -3 -4 -8 -10 -11 -5 -3 -10 -1 -10 4 0 6 5 11 10 11 6 0 10
-2 10 -4z m20 -31 c4 3 10 -4 13 -14 3 -11 -1 -22 -9 -25 -9 -3 -11 0 -7 11 5
12 1 14 -16 8 -21 -6 -21 -5 -9 14 7 12 14 17 16 11 2 -6 7 -8 12 -5z m2501
-62 c-9 -38 -9 -38 -10 17 0 40 2 50 9 38 6 -10 7 -31 1 -55z m-2551 7 c0 -5
-5 -10 -11 -10 -5 0 -7 5 -4 10 3 6 8 10 11 10 2 0 4 -4 4 -10z m664 -7 c4 -9
1 -23 -7 -30 -12 -12 -14 -9 -14 17 0 33 11 40 21 13z m-694 -23 c0 -5 -2 -10
-4 -10 -3 0 -8 5 -11 10 -3 6 -1 10 4 10 6 0 11 -4 11 -10z m61 -66 c-3 -40
-5 -44 -17 -32 -12 12 -12 19 2 46 8 18 16 32 17 32 1 0 0 -21 -2 -46z m659
25 c0 -6 -4 -7 -10 -4 -5 3 -10 11 -10 16 0 6 5 7 10 4 6 -3 10 -11 10 -16z
m-1250 -34 c0 -8 -4 -15 -10 -15 -5 0 -10 7 -10 15 0 8 5 15 10 15 6 0 10 -7
10 -15z m1207 -7 c-3 -8 -6 -5 -6 6 -1 11 2 17 5 13 3 -3 4 -12 1 -19z m-1467
2 c0 -5 -2 -10 -4 -10 -3 0 -8 5 -11 10 -3 6 -1 10 4 10 6 0 11 -4 11 -10z
m1440 -24 c14 -18 13 -19 -2 -13 -9 3 -19 1 -21 -6 -3 -8 -11 -6 -27 8 l-22
20 28 6 c16 3 29 5 29 5 1 -1 7 -10 15 -20z m2540 12 c0 -4 -7 -8 -15 -8 -8 0
-15 4 -15 8 0 5 7 9 15 9 8 0 15 -4 15 -9z m-4010 -19 c-7 -11 -14 -18 -17
-15 -3 3 0 12 7 21 18 21 23 19 10 -6z m85 11 c3 -5 1 -10 -4 -10 -6 0 -11 5
-11 10 0 6 2 10 4 10 3 0 8 -4 11 -10z m161 -36 c-3 -9 -6 -18 -6 -20 0 -2 -4
-4 -9 -4 -5 0 -7 9 -4 20 3 11 10 20 15 20 6 0 7 -7 4 -16z m3704 1 c7 -8 25
-15 40 -15 32 0 67 -40 93 -108 19 -46 23 -132 7 -132 -5 0 -10 6 -10 14 0 21
-70 156 -81 156 -5 0 -12 -7 -15 -15 -4 -8 -10 -15 -16 -15 -5 0 -7 4 -3 9 3
5 -5 11 -17 13 -13 2 -22 9 -20 17 2 9 -4 12 -18 8 -11 -3 -18 -1 -14 4 4 8
-26 14 -49 10 -5 -1 -6 3 -3 7 3 5 20 12 37 16 19 4 33 13 36 26 6 24 16 25
33 5z m388 -119 c3 -12 -4 -16 -26 -16 -32 0 -48 20 -30 38 14 14 52 -1 56
-22z m-3038 -31 c0 -5 -5 -3 -10 5 -5 8 -10 20 -10 25 0 6 5 3 10 -5 5 -8 10
-19 10 -25z m2709 -2 c8 -16 18 -36 23 -47 7 -14 6 -17 -4 -14 -7 3 -14 14
-16 26 -2 11 -10 26 -18 32 -15 14 -19 30 -6 30 5 0 14 -12 21 -27z m-2729 -4
c0 -5 -4 -9 -10 -9 -5 0 -10 7 -10 16 0 8 5 12 10 9 6 -3 10 -10 10 -16z
m2031 -42 c-11 -30 -33 -38 -25 -9 2 9 -4 -2 -15 -26 -32 -67 -80 -132 -143
-193 -56 -54 -112 -88 -125 -76 -6 7 45 53 93 82 55 34 149 156 175 227 8 24
16 33 20 26 6 -9 10 -7 16 7 6 16 8 17 11 4 1 -8 -2 -28 -7 -42z m-2015 -5 c0
-19 -40 -29 -51 -13 -3 5 4 7 15 4 14 -4 20 0 20 11 0 9 4 16 8 16 4 0 8 -8 8
-18z m-486 -2 c0 -5 -2 -10 -4 -10 -3 0 -8 5 -11 10 -3 6 -1 10 4 10 6 0 11
-4 11 -10z m2905 -158 c16 -27 16 -27 -10 2 -14 15 -29 42 -32 58 -4 19 -9 25
-13 17 -14 -21 -22 29 -9 53 11 21 13 19 30 -41 10 -34 25 -75 34 -89z m225
123 c16 -20 6 -75 -21 -109 -25 -32 -73 -36 -89 -7 -12 23 -14 74 -2 67 4 -2
16 3 27 11 20 15 20 15 -2 10 -16 -3 -20 -1 -16 10 12 31 82 43 103 18z m127
-7 c-3 -8 -6 -5 -6 6 -1 11 2 17 5 13 3 -3 4 -12 1 -19z m-480 -30 c-3 -8 -6
-5 -6 6 -1 11 2 17 5 13 3 -3 4 -12 1 -19z m441 -21 c-1 -2 3 -11 11 -20 12
-15 11 -17 -3 -17 -11 0 -16 9 -16 27 0 14 3 24 6 21 3 -4 4 -8 2 -11z m-4092
-22 c9 12 21 16 39 13 14 -3 25 -1 25 4 0 5 13 -1 30 -13 16 -12 27 -26 23
-32 -3 -5 3 -6 15 -3 26 9 35 -6 35 -55 0 -26 4 -39 13 -39 8 0 14 -4 14 -10
0 -5 -9 -10 -20 -10 -11 0 -20 -6 -20 -12 0 -10 -3 -9 -9 1 -6 9 -11 10 -15 3
-4 -6 -13 -9 -21 -5 -8 3 -15 0 -15 -6 0 -16 -16 -14 -34 4 -8 8 -19 15 -24
15 -5 0 -15 7 -22 15 -7 8 -21 15 -31 15 -27 0 -59 57 -59 103 l0 38 31 -22
c30 -21 32 -22 45 -4z m1265 7 c-5 -10 -17 -24 -25 -31 -9 -8 -13 -17 -10 -22
3 -5 0 -10 -5 -10 -36 -4 -45 -3 -49 10 -3 10 0 12 14 7 15 -6 17 -5 7 5 -18
18 -16 29 5 22 15 -6 15 -4 4 9 -12 14 -10 17 15 21 55 8 54 8 44 -11z m971 1
c10 -9 18 -23 18 -32 0 -12 -5 -10 -18 7 -13 17 -23 21 -37 16 -18 -7 -18 -6
-6 9 17 21 20 21 43 0z m1448 -3 c0 -5 -9 -10 -20 -10 -11 0 -20 5 -20 10 0 6
9 10 20 10 11 0 20 -4 20 -10z m40 -11 c0 -5 -4 -9 -10 -9 -5 0 -10 7 -10 16
0 8 5 12 10 9 6 -3 10 -10 10 -16z m320 -39 c-6 -11 -12 -20 -14 -20 -2 0 -2
9 1 20 3 11 9 20 15 20 5 0 4 -9 -2 -20z m-3210 -60 c0 -5 -4 -10 -10 -10 -5
0 -10 5 -10 10 0 6 5 10 10 10 6 0 10 -4 10 -10z m300 -5 c10 -12 10 -15 -4
-15 -9 0 -16 7 -16 15 0 8 2 15 4 15 2 0 9 -7 16 -15z m-45 -6 c11 -17 -1 -21
-15 -4 -8 9 -8 15 -2 15 6 0 14 -5 17 -11z m-180 -19 c-3 -5 -11 -10 -16 -10
-6 0 -7 5 -4 10 3 6 11 10 16 10 6 0 7 -4 4 -10z m41 -18 c3 -55 5 -58 15 -33
7 18 13 21 21 13 8 -8 6 -15 -6 -28 -11 -11 -21 -13 -27 -7 -12 12 -25 91 -13
80 5 -5 9 -16 10 -25z m254 8 c0 -5 -7 -7 -15 -4 -8 4 -15 8 -15 10 0 2 7 4
15 4 8 0 15 -4 15 -10z m-150 -9 c0 -5 -7 -11 -15 -15 -15 -5 -20 5 -8 17 9
10 23 9 23 -2z m2566 -4 c8 3 14 0 14 -6 0 -6 -7 -11 -15 -11 -8 0 -15 -7 -15
-16 0 -14 -2 -14 -15 0 -8 8 -15 19 -15 24 0 13 24 22 28 11 2 -4 10 -5 18 -2z
m-2721 -37 c-7 -21 10 -28 18 -7 3 6 4 -1 2 -18 -1 -16 -7 -31 -13 -33 -5 -1
-9 5 -8 14 0 9 -5 19 -13 22 -9 3 -11 0 -6 -8 5 -8 4 -11 -3 -7 -7 5 -7 15 1
32 14 30 31 34 22 5z m2045 -6 c0 -8 -5 -12 -10 -9 -6 4 -8 11 -5 16 9 14 15
11 15 -7z m647 -21 c-7 -1 -28 -4 -48 -8 -20 -3 -67 -26 -105 -50 -37 -25 -77
-45 -88 -45 -14 0 -4 10 30 31 27 17 51 35 52 40 2 5 8 7 13 3 5 -3 9 0 9 6 0
6 4 8 10 5 5 -3 20 1 32 9 12 9 30 16 40 16 10 0 17 3 17 8 -3 20 3 21 25 5
13 -10 19 -19 13 -20z m193 17 c-9 -6 -9 -9 1 -13 11 -4 11 -6 -1 -6 -8 0 -22
4 -30 9 -13 8 -12 10 3 10 9 0 17 5 17 11 0 5 5 7 11 3 8 -5 8 -9 -1 -14z
m690 -5 c0 -8 -7 -11 -20 -8 -23 6 -26 19 -7 26 16 6 27 -1 27 -18z m-3430
-17 c0 -6 -6 -5 -15 2 -8 7 -15 14 -15 16 0 2 7 1 15 -2 8 -4 15 -11 15 -16z
m440 -33 c-7 -8 -17 -15 -23 -15 -6 0 -2 7 9 15 25 19 30 19 14 0z m2042 -2
c-5 -10 -13 -36 -17 -58 -3 -22 -16 -46 -27 -53 -11 -8 -17 -20 -14 -29 4 -11
2 -13 -9 -10 -8 4 -17 1 -21 -5 -4 -7 -3 -8 4 -4 14 8 11 -29 -3 -41 -4 -5 -4
-2 0 6 6 11 4 13 -8 8 -9 -3 -29 0 -44 8 -25 13 -29 13 -40 -2 -7 -9 -16 -14
-19 -10 -4 4 -1 13 6 22 11 13 8 15 -24 15 -21 0 -36 -5 -36 -12 0 -6 -3 -8
-7 -4 -9 9 36 45 57 46 8 0 31 16 51 36 34 33 134 101 152 103 4 1 4 -7 -1
-16z m-1972 -18 c0 -8 -7 -15 -15 -15 -17 0 -58 -24 -89 -52 -10 -10 -23 -15
-28 -12 -4 3 -8 0 -8 -5 0 -6 -4 -11 -9 -11 -15 0 -99 -59 -104 -73 -2 -7 -8
-8 -13 -4 -14 14 60 72 166 133 52 29 96 54 98 54 1 0 2 -7 2 -15z m2413 0
c-3 -9 -8 -14 -10 -11 -3 3 -2 9 2 15 9 16 15 13 8 -4z m-3378 -23 c-3 -3 -11
0 -18 7 -9 10 -8 11 6 5 10 -3 15 -9 12 -12z m835 4 c0 -2 -7 -7 -16 -10 -8
-3 -12 -2 -9 4 6 10 25 14 25 6z m-840 -147 c0 -5 -4 -9 -10 -9 -5 0 -10 7
-10 16 0 8 5 12 10 9 6 -3 10 -10 10 -16z m760 17 c0 -2 -8 -10 -17 -17 -16
-13 -17 -12 -4 4 13 16 21 21 21 13z m-103 -78 c-3 -8 -6 -5 -6 6 -1 11 2 17
5 13 3 -3 4 -12 1 -19z m45 -15 c-5 -59 -10 -63 -11 -10 -1 26 3 47 7 47 4 0
6 -17 4 -37z m1043 -3 c7 -22 6 -23 -9 -11 -9 7 -16 23 -16 34 0 26 15 12 25
-23z m199 25 c12 -32 -13 -65 -51 -65 -28 0 -21 25 10 35 21 6 20 7 -8 17 -27
10 -28 12 -10 19 32 12 52 10 59 -6z m1139 8 c-7 -2 -21 -2 -30 0 -10 3 -4 5
12 5 17 0 24 -2 18 -5z m-733 -17 c0 -2 -7 -9 -15 -16 -13 -11 -14 -10 -9 4 5
14 24 23 24 12z m50 0 c0 -3 -4 -8 -10 -11 -5 -3 -10 -1 -10 4 0 6 5 11 10 11
6 0 10 -2 10 -4z m1029 -41 c39 -24 59 -45 45 -45 -4 0 -17 9 -28 19 -12 11
-34 27 -51 35 -16 9 -24 16 -17 16 7 0 30 -11 51 -25z m-2772 -17 c-3 -7 -5
-2 -5 12 0 14 2 19 5 13 2 -7 2 -19 0 -25z m1196 -39 c7 -1 19 0 27 1 13 2 12
-1 -1 -16 -9 -11 -19 -26 -22 -34 -4 -10 -6 -8 -6 7 -1 12 -10 28 -22 37 -12
8 -27 27 -35 43 -15 28 -15 28 16 -4 17 -18 36 -34 43 -34z m1074 25 c2 -5 -6
-10 -17 -11 -20 -2 -26 8 -13 21 9 8 26 3 30 -10z m512 -25 c-16 -10 -23 -4
-14 10 3 6 11 8 17 5 6 -4 5 -9 -3 -15z m-1692 -11 c-3 -8 -6 -5 -6 6 -1 11 2
17 5 13 3 -3 4 -12 1 -19z m1754 -5 c13 -16 12 -17 -3 -4 -10 7 -18 15 -18 17
0 8 8 3 21 -13z m-2814 -15 c-3 -8 -6 -5 -6 6 -1 11 2 17 5 13 3 -3 4 -12 1
-19z m948 2 c-3 -5 -19 -10 -36 -10 -16 0 -29 5 -29 10 0 6 16 10 36 10 21 0
33 -4 29 -10z m57 -23 c11 -21 10 -21 -12 -6 -28 19 -39 42 -16 33 9 -4 22
-16 28 -27z m205 9 c-7 -14 -13 -23 -15 -21 -7 6 9 45 18 45 4 0 3 -11 -3 -24z
m-117 -75 c0 -3 -7 4 -15 15 -8 10 -14 30 -14 44 0 20 3 17 14 -15 8 -22 15
-42 15 -44z m1383 72 c-7 -2 -19 -2 -25 0 -7 3 -2 5 12 5 14 0 19 -2 13 -5z
m-1554 -95 c5 -21 7 -38 6 -38 -23 0 -35 17 -35 49 0 20 -4 43 -9 51 -6 8 -7
18 -4 23 7 11 32 -38 42 -85z m1661 82 c11 -7 3 -8 -25 -4 -22 3 -42 8 -44 10
-9 9 55 3 69 -6z m-2583 -112 c-2 -24 -4 -7 -4 37 0 44 2 63 4 43 2 -21 2 -57
0 -80z m1300 66 c-2 -2 -12 -1 -22 3 -18 6 -18 7 1 13 17 7 33 -5 21 -16z
m-57 -4 c-8 -5 -24 -9 -35 -9 l-20 0 20 9 c11 5 27 9 35 9 13 1 13 0 0 -9z
m-218 -39 c-8 -5 -13 -11 -13 -15 3 -24 -1 -27 -19 -11 -25 23 -25 28 3 41 25
12 50 -2 29 -15z m155 23 c-3 -3 -12 -4 -19 -1 -8 3 -5 6 6 6 11 1 17 -2 13
-5z m1728 -4 c3 -5 1 -10 -4 -10 -6 0 -11 5 -11 10 0 6 2 10 4 10 3 0 8 -4 11
-10z m-1787 -7 c-10 -2 -28 -2 -40 0 -13 2 -5 4 17 4 22 1 32 -1 23 -4z m49
-19 c-3 -3 -12 -4 -19 -1 -8 3 -5 6 6 6 11 1 17 -2 13 -5z m-2172 -26 c7 -7 2
-8 -15 -3 -14 4 -29 12 -35 17 -7 7 -2 8 15 3 14 -4 30 -12 35 -17z m2415 3
c0 -6 -5 -13 -10 -16 -6 -4 -8 -11 -5 -16 3 -5 -1 -6 -9 -3 -8 3 -23 1 -33 -5
-10 -6 -12 -11 -6 -11 9 0 10 -7 3 -26 -9 -23 -8 -25 7 -20 19 6 7 -5 -42 -39
-19 -13 -19 -14 -1 -14 10 -1 36 17 58 39 49 48 57 51 26 8 -13 -18 -23 -36
-23 -40 0 -18 -37 -48 -61 -48 -40 0 -62 17 -89 69 l-24 49 27 11 c15 6 46 15
69 20 23 5 55 18 70 30 31 22 43 26 43 12z m1388 -31 c20 -19 27 -30 19 -30
-2 0 -17 11 -33 25 -16 14 -24 25 -18 25 5 0 20 -9 32 -20z m-481 -26 c16 5
23 -3 41 -44 12 -28 22 -59 22 -71 0 -11 5 -17 10 -14 6 3 10 2 10 -4 0 -5 3
-17 7 -27 5 -13 3 -15 -8 -9 -11 7 -12 6 -3 -6 6 -8 14 -52 18 -99 3 -47 9
-96 12 -110 4 -19 2 -17 -10 7 -14 32 -17 33 -63 27 -148 -16 -145 -15 -148
-65 -1 -16 3 -26 8 -22 5 3 7 -7 3 -24 -6 -25 -1 -37 30 -74 38 -46 62 -65 71
-56 2 3 -5 10 -16 17 -32 16 -25 31 12 25 38 -6 52 2 62 35 6 20 5 23 -6 13
-15 -15 -49 -17 -49 -4 0 6 5 13 10 16 8 5 7 11 -1 21 -22 26 20 16 43 -11 16
-18 24 -22 29 -13 4 7 11 10 14 6 10 -9 19 -174 10 -166 -5 5 -14 -2 -21 -15
-31 -55 -47 -90 -47 -103 0 -12 -12 -19 -19 -12 -2 2 -17 -7 -34 -19 -28 -20
-33 -21 -52 -7 -28 20 -28 28 4 49 24 16 27 16 45 -1 20 -18 20 -17 15 10 -3
15 -10 33 -15 40 -6 7 -9 15 -7 17 2 2 -7 12 -20 22 -19 14 -24 15 -24 4 0 -8
7 -20 15 -27 21 -18 19 -27 -10 -32 -15 -3 -30 1 -39 11 -20 22 -52 247 -37
264 7 9 9 60 6 143 -5 150 -8 173 -22 198 -6 10 -8 26 -6 35 5 21 57 44 87 39
27 -5 43 10 38 37 -2 15 -1 17 6 6 6 -7 18 -11 29 -7z m-3411 -12 c-10 -2 -22
0 -28 6 -6 6 0 7 19 4 21 -5 23 -7 9 -10z m1843 -74 c-5 -32 14 -96 26 -92 8
3 12 -2 12 -13 -3 -29 63 -29 122 1 46 23 50 23 48 6 -1 -10 -4 -18 -7 -18
-18 2 -31 -3 -26 -10 2 -4 -4 -19 -14 -32 l-19 -25 6 24 c4 17 3 22 -5 17 -7
-4 -12 -16 -12 -26 0 -10 -4 -21 -10 -25 -5 -3 -7 -12 -4 -20 6 -14 -21 -110
-36 -130 -4 -5 -15 -34 -24 -62 -19 -57 -42 -84 -30 -36 4 15 12 39 19 53 7
14 22 54 34 89 26 75 19 89 -39 86 -22 -1 -40 1 -40 6 0 17 13 39 20 34 4 -3
13 2 20 10 8 9 8 15 2 15 -6 0 -12 -3 -15 -7 -2 -5 -2 -2 0 5 3 14 -27 50 -35
42 -3 -3 -27 -26 -54 -52 -44 -42 -68 -77 -33 -48 19 16 19 6 -1 -28 -11 -19
-5 -15 20 13 l37 40 -31 -61 c-22 -46 -31 -79 -34 -132 -2 -38 -8 -78 -13 -87
-8 -14 -12 -9 -21 26 -17 69 -25 156 -18 191 5 24 21 45 57 73 55 43 53 38 33
133 -6 31 -5 32 25 32 17 0 31 5 31 10 0 6 2 10 5 10 3 0 5 -6 4 -12z m-80
-48 c0 -9 -4 -8 -9 5 -5 11 -9 27 -9 35 0 9 4 8 9 -5 5 -11 9 -27 9 -35z m832
-57 c-9 -16 -10 -15 -11 9 0 14 3 35 8 45 6 15 8 14 10 -9 2 -15 -1 -35 -7
-45z m-496 0 c-4 -10 -9 -43 -12 -73 -3 -30 -10 -62 -15 -70 -6 -10 -7 -6 -4
15 3 17 8 56 12 88 3 31 11 57 16 57 6 0 7 -8 3 -17z m-245 -38 c0 -2 -5 -16
-12 -30 -16 -35 -29 -31 -15 5 10 25 27 42 27 25z m2305 -5 c3 -5 1 -10 -4
-10 -6 0 -11 5 -11 10 0 6 2 10 4 10 3 0 8 -4 11 -10z m9 -67 c19 -56 21 -116
4 -111 -11 4 -48 116 -48 146 0 31 30 8 44 -35z m-2360 -73 c-8 -41 -14 -103
-14 -138 -1 -66 -15 -76 -26 -17 -7 37 20 185 39 215 6 11 12 18 13 17 1 -1
-5 -36 -12 -77z m2407 22 c-5 -2 -6 -12 -3 -24 4 -15 2 -19 -7 -13 -7 4 -11
18 -8 31 2 14 0 27 -4 30 -5 3 -9 13 -9 22 0 12 6 7 20 -13 11 -16 16 -31 11
-33z m-225 22 c18 -14 18 -14 -6 -3 -31 14 -36 19 -24 19 6 0 19 -7 30 -16z
m38 -35 c-3 -5 -10 -7 -15 -3 -5 3 -7 10 -3 15 3 5 10 7 15 3 5 -3 7 -10 3
-15z m-1984 -53 c-7 -14 -20 -28 -29 -31 -10 -4 -8 2 7 18 12 13 22 29 22 37
0 7 3 10 7 7 3 -4 0 -18 -7 -31z m1420 -16 c8 -5 12 -11 9 -14 -7 -8 -49 5
-49 15 0 12 21 11 40 -1z m870 -16 c0 -8 -5 -12 -10 -9 -6 4 -8 11 -5 16 9 14
15 11 15 -7z m-1230 -30 c0 -9 -11 -14 -30 -14 -28 0 -29 1 -13 19 17 21 43
18 43 -5z m-1425 6 c-3 -5 -13 -10 -21 -10 -8 0 -12 5 -9 10 3 6 13 10 21 10
8 0 12 -4 9 -10z m2579 -21 c-10 -11 -24 -33 -31 -47 -6 -15 -12 -21 -12 -14
-2 26 46 98 57 87 3 -3 -3 -14 -14 -26z m115 -31 c6 -18 7 -28 2 -23 -10 12
-25 55 -18 55 3 0 10 -15 16 -32z m-218 -129 c-5 -13 -10 -19 -10 -12 -1 15
10 45 15 40 3 -2 0 -15 -5 -28z m-867 -180 c10 8 21 6 46 -12 19 -12 36 -29
38 -37 3 -9 -6 -6 -21 9 -16 15 -38 24 -56 23 -17 0 -35 7 -43 16 -12 15 -11
16 5 3 13 -10 20 -11 31 -2z m846 -47 c0 -15 9 -51 20 -80 24 -62 26 -89 4
-49 -16 30 -44 127 -44 153 0 8 5 12 10 9 6 -3 10 -18 10 -33z m-810 14 c0 -2
-9 -6 -20 -9 -11 -3 -20 -1 -20 4 0 5 9 9 20 9 11 0 20 -2 20 -4z m58 -86 c2
-20 1 -22 -7 -10 -7 10 -11 11 -11 3 0 -7 -7 -10 -15 -7 -8 3 -30 1 -49 -6
-26 -8 -41 -8 -56 0 -31 17 -24 32 15 29 19 -2 40 2 47 9 7 7 26 12 43 10 24
-2 31 -8 33 -28z m909 -27 c-3 -10 -5 -4 -5 12 0 17 2 24 5 18 2 -7 2 -21 0
-30z m-969 -98 c3 -16 1 -18 -9 -7 -7 6 -24 12 -37 12 -14 0 -21 4 -17 11 12
18 59 6 63 -16z m-514 -42 c14 -15 23 -29 21 -31 -4 -4 -55 47 -55 54 0 9 11
2 34 -23z m-1208 0 c-3 -3 2 -12 12 -19 9 -7 14 -15 10 -19 -4 -4 -18 4 -32
17 -25 23 -26 24 -5 25 12 1 19 -1 15 -4z m2825 -42 c-14 -25 -29 -27 -38 -6
-6 18 28 48 40 35 5 -4 4 -17 -2 -29z m-71 -13 c0 -6 -3 -8 -7 -5 -3 4 -12 2
-20 -4 -8 -8 -13 -8 -13 -1 0 10 15 19 33 21 4 1 7 -4 7 -11z m-148 -43 c21
-4 38 -11 38 -16 0 -8 -188 -2 -198 6 -2 2 14 11 35 21 31 16 42 17 62 7 13
-6 41 -15 63 -18z m-2037 -15 c3 -5 1 -10 -4 -10 -6 0 -11 5 -11 10 0 6 2 10
4 10 3 0 8 -4 11 -10z m2195 -6 c0 -14 3 -14 16 -4 13 11 16 10 21 -9 3 -13
11 -20 19 -17 23 9 104 -26 104 -45 0 -32 -23 -39 -91 -30 -86 12 -196 51
-178 62 8 5 22 6 32 3 12 -4 17 0 17 13 0 11 5 24 12 31 17 17 48 15 48 -4z
m-2172 -25 l27 12 -23 -18 c-19 -15 -20 -21 -10 -33 11 -12 11 -12 -4 -1 -9 7
-23 9 -29 5 -8 -4 -9 -3 -5 5 4 6 2 20 -6 29 -12 15 -11 16 5 3 14 -11 23 -12
45 -2z m1970 5 c12 -4 22 -14 22 -25 0 -14 -9 -18 -47 -21 -44 -3 -46 -4 -27
-15 12 -7 48 -15 80 -18 97 -10 108 -14 93 -31 -9 -11 -30 -14 -80 -12 -38 1
-63 6 -56 10 7 5 2 8 -16 8 -15 0 -36 6 -47 12 -16 10 -24 10 -40 0 -23 -14
-27 0 -5 18 8 7 22 10 30 6 9 -3 13 -2 10 4 -3 6 -21 10 -38 11 -27 0 -29 2
-12 9 17 7 17 9 3 9 -11 1 -18 9 -18 21 0 18 7 20 63 20 34 0 72 -3 85 -6z
m-1348 -29 c14 -19 14 -19 -2 -6 -10 7 -18 18 -18 24 0 6 1 8 3 6 1 -2 9 -13
17 -24z m-395 -26 c-8 -23 -15 -50 -15 -60 0 -19 -11 -25 -23 -12 -4 3 -3 11
2 17 5 6 14 30 20 54 7 23 16 42 21 42 5 0 3 -19 -5 -41z m430 -19 c3 -5 -3
-10 -14 -10 -12 0 -21 5 -21 10 0 6 6 10 14 10 8 0 18 -4 21 -10z m2034 7
c-16 -13 -119 -64 -119 -59 0 12 84 62 104 62 11 0 17 -2 15 -3z m-1809 -90
c14 -10 5 -7 -20 6 -25 13 -46 31 -48 41 -3 13 1 12 20 -6 13 -13 34 -31 48
-41z m35 -85 c22 -11 60 -25 85 -31 70 -18 74 -21 64 -31 -26 -26 -194 55
-277 132 l-42 40 65 -45 c36 -24 83 -53 105 -65z m39 96 c5 -10 7 -10 12 -1 5
11 32 7 44 -6 3 -3 14 -11 25 -17 24 -14 23 -28 -4 -32 -18 -3 -141 52 -141
63 0 11 59 4 64 -7z m1526 -52 c0 -3 -4 -8 -10 -11 -5 -3 -10 -1 -10 4 0 6 5
11 10 11 6 0 10 -2 10 -4z m-1520 -16 c0 -6 12 -15 26 -21 15 -5 24 -12 21
-15 -9 -9 -79 25 -72 36 8 13 25 13 25 0z m186 -27 c-7 22 10 13 23 -11 6 -12
4 -24 -6 -37 -15 -20 -15 -19 -8 3 3 12 2 22 -4 22 -5 0 -17 3 -25 6 -12 4
-15 2 -10 -9 3 -8 1 -18 -5 -22 -6 -3 -11 -1 -11 4 0 6 -3 10 -7 10 -21 -3
-33 2 -27 13 4 7 3 8 -4 4 -21 -13 -35 5 -15 19 12 9 25 10 41 4 31 -12 32
-12 25 9 -4 11 1 9 16 -8 17 -18 21 -20 17 -7z m-621 -13 c3 -5 1 -10 -4 -10
-6 0 -11 5 -11 10 0 6 2 10 4 10 3 0 8 -4 11 -10z m146 -37 c32 -5 37 -13 8
-13 -27 1 -62 23 -52 34 4 3 10 1 14 -6 4 -6 18 -13 30 -15z m1439 -13 c0 -12
-28 -25 -36 -17 -9 9 6 27 22 27 8 0 14 -5 14 -10z m-776 -15 c-4 -8 -13 -15
-20 -15 -12 0 -12 3 -2 15 17 19 29 19 22 0z m211 -61 c5 -22 1 -18 -14 15
-24 51 -27 64 -7 35 8 -11 18 -34 21 -50z m-924 39 c13 -16 12 -17 -3 -4 -17
13 -22 21 -14 21 2 0 10 -8 17 -17z m1597 -3 c-13 -20 -28 -18 -28 3 0 7 9 13
20 14 16 1 18 -1 8 -17z m-333 0 c3 -6 -1 -7 -9 -4 -18 7 -21 14 -7 14 6 0 13
-4 16 -10z m295 -26 c0 -8 -7 -14 -17 -14 -9 0 -13 3 -10 7 4 3 2 12 -4 19 -8
9 -5 11 10 7 12 -3 21 -12 21 -19z m-1452 -13 c3 -8 -1 -12 -9 -9 -7 2 -15 10
-17 17 -3 8 1 12 9 9 7 -2 15 -10 17 -17z m1499 -3 c-3 -8 -6 -5 -6 6 -1 11 2
17 5 13 3 -3 4 -12 1 -19z m403 -3 c17 -21 5 -31 -15 -12 -8 9 -15 18 -15 21
0 11 18 6 30 -9z m7 -35 c7 0 13 -4 13 -9 0 -5 -11 -8 -25 -8 -13 0 -23 3 -20
7 3 4 -2 13 -10 20 -8 7 -15 17 -15 22 0 5 10 0 22 -12 12 -11 28 -20 35 -20z
m-523 8 c8 25 26 30 26 7 0 -16 -34 -38 -44 -28 -3 3 -6 16 -5 27 1 18 2 18 8
-4 l7 -25 8 23z m120 0 c14 -13 10 -51 -5 -43 -4 3 -5 13 -2 22 5 12 2 15 -9
10 -10 -3 -19 0 -22 9 -7 17 20 19 38 2z m-1754 -52 c0 -16 2 -18 9 -7 7 11
13 7 27 -15 10 -16 21 -31 24 -34 4 -3 9 -13 13 -23 4 -10 11 -15 17 -12 5 3
10 -1 10 -11 0 -9 10 -33 21 -54 16 -28 34 -43 68 -56 25 -10 40 -19 34 -21
-6 -2 -35 6 -63 18 -54 23 -71 20 -49 -8 13 -16 12 -17 -4 -4 -10 8 -16 20
-13 27 3 7 -8 26 -24 41 -17 15 -30 36 -30 45 0 23 -21 68 -30 63 -3 -2 -13
18 -21 45 -12 39 -13 47 -2 39 7 -7 13 -21 13 -33z m597 38 c-3 -3 -12 -4 -19
-1 -8 3 -5 6 6 6 11 1 17 -2 13 -5z m-651 -17 c8 3 14 0 14 -7 0 -6 -4 -8 -10
-5 -12 7 -12 3 -4 -19 3 -9 10 -14 15 -11 4 3 13 -4 19 -15 10 -19 8 -19 -29
5 -25 17 -39 34 -38 46 1 11 5 15 10 10 5 -5 16 -7 23 -4z m1754 -17 c0 -5 -4
-10 -10 -10 -5 0 -10 5 -10 10 0 6 5 10 10 10 6 0 10 -4 10 -10z m-506 -292
c-9 -32 -21 -58 -25 -58 -4 0 2 23 13 52 12 33 17 64 14 83 -4 17 -3 35 1 39
16 16 14 -61 -3 -116z m-1024 11 c8 -1 5 -4 -7 -7 -21 -6 -22 -9 -10 -32 13
-25 12 -50 -2 -50 -9 0 -35 49 -36 66 0 6 -8 19 -18 28 -28 29 -19 35 20 15
21 -10 44 -19 53 -20z m211 4 c13 -16 12 -17 -3 -4 -10 7 -18 15 -18 17 0 8 8
3 21 -13z m-301 -38 c0 -13 -4 -14 -20 -5 -11 6 -20 13 -20 15 0 3 9 5 20 5
11 0 20 -7 20 -15z m17 -7 c-3 -8 -6 -5 -6 6 -1 11 2 17 5 13 3 -3 4 -12 1
-19z m343 -62 l19 -46 -64 0 c-36 0 -65 3 -65 8 0 4 23 5 50 4 50 -4 51 -4 46
23 -3 15 -12 35 -21 45 -8 9 -15 25 -15 36 0 17 1 17 15 -3 8 -12 24 -42 35
-67z m-416 36 c3 -5 -8 -6 -25 -4 -16 2 -29 6 -29 8 0 8 49 4 54 -4z m85 -6
c8 -10 8 -16 -1 -24 -10 -8 -13 -4 -14 14 -2 28 -1 29 15 10z m968 -28 c-3 -7
-5 -2 -5 12 0 14 2 19 5 13 2 -7 2 -19 0 -25z m-669 4 c6 -18 -15 -14 -22 4
-4 10 -1 14 6 12 6 -2 14 -10 16 -16z m-200 0 c-12 -5 -15 -11 -8 -22 8 -12
14 -12 45 -2 30 12 37 11 51 -2 14 -15 10 -16 -43 -15 -32 0 -78 4 -103 8 -44
8 -44 9 -10 11 24 2 29 4 15 8 l-20 5 20 8 c11 4 31 8 45 8 19 0 21 -2 8 -7z
m942 -17 c0 -8 -4 -15 -10 -15 -5 0 -7 7 -4 15 4 8 8 15 10 15 2 0 4 -7 4 -15z
m258 -10 c-1 -14 -5 -25 -9 -25 -10 0 -20 30 -13 41 11 18 24 9 22 -16z m-901
-77 c-2 -18 -4 -6 -4 27 0 33 2 48 4 33 2 -15 2 -42 0 -60z m203 48 c0 -9 -41
8 -52 22 -11 13 -8 12 20 -2 17 -9 32 -18 32 -20z m201 10 c5 3 9 -5 9 -17 0
-18 -2 -19 -15 -9 -8 7 -15 20 -14 29 0 10 2 12 6 3 2 -6 9 -10 14 -6z m136
-8 c-3 -8 -6 -5 -6 6 -1 11 2 17 5 13 3 -3 4 -12 1 -19z m378 -18 c3 -5 1 -10
-4 -10 -6 0 -11 5 -11 10 0 6 2 10 4 10 3 0 8 -4 11 -10z m-2758 -46 c-9 -9
-28 6 -21 18 4 6 10 6 17 -1 6 -6 8 -13 4 -17z m2188 16 c7 -12 -2 -12 -30 0
-19 8 -19 9 2 9 12 1 25 -3 28 -9z m55 2 c0 -4 -9 -8 -20 -9 -11 -1 -18 2 -15
8 7 11 35 12 35 1z m-164 -39 c-3 -8 -6 -21 -6 -29 0 -9 -4 -12 -10 -9 -5 3
-10 19 -10 35 0 23 4 28 16 23 8 -3 13 -12 10 -20z m-2099 -15 c-3 -8 -6 -5
-6 6 -1 11 2 17 5 13 3 -3 4 -12 1 -19z m153 -17 c-6 -12 -16 -21 -23 -21 -8
0 -9 3 -1 8 6 4 14 16 17 26 4 10 10 16 13 13 3 -3 1 -15 -6 -26z m1697 -18
c-3 -10 -5 -2 -5 17 0 19 2 27 5 18 2 -10 2 -26 0 -35z m1158 29 c-10 -7 -18
-32 -11 -32 3 0 12 8 22 18 17 16 17 16 12 -5 -4 -16 -2 -20 8 -16 8 3 14 1
14 -5 0 -11 -24 -22 -48 -22 -18 0 -55 54 -44 64 3 3 17 6 31 6 14 0 22 -4 16
-8z m141 -18 c-3 -9 -6 -18 -6 -20 0 -2 -7 -4 -15 -4 -8 0 -20 -9 -27 -20 -7
-11 -17 -20 -22 -20 -5 0 -2 8 7 18 10 10 17 24 17 30 0 7 7 12 15 12 8 0 15
5 15 10 0 6 5 10 11 10 6 0 8 -7 5 -16z m-839 -9 c20 -8 34 -18 30 -21 -3 -3
-25 3 -49 14 -50 24 -35 29 19 7z m-2202 -35 c10 -11 14 -20 9 -20 -5 0 -15 9
-22 20 -7 11 -11 20 -9 20 2 0 12 -9 22 -20z m2945 -10 c0 -5 -5 -10 -11 -10
-5 0 -7 5 -4 10 3 6 8 10 11 10 2 0 4 -4 4 -10z m330 6 c0 -17 -15 -36 -29
-36 -14 1 -14 2 2 14 14 11 15 15 5 19 -8 4 -7 6 5 6 9 1 17 -1 17 -3z m-3381
-60 c1 -5 -5 -3 -13 4 -8 6 -12 19 -9 27 6 14 8 14 14 -3 4 -10 8 -23 8 -28z
m3028 18 c-3 -3 -12 -4 -19 -1 -8 3 -5 6 6 6 11 1 17 -2 13 -5z m-2972 -15
c11 -17 -1 -21 -15 -4 -8 9 -8 15 -2 15 6 0 14 -5 17 -11z m2782 -4 c8 -9 12
-19 9 -23 -4 -3 -11 0 -15 7 -7 11 -14 10 -34 -5 -14 -11 -28 -27 -30 -36 -3
-12 -15 -18 -32 -18 -23 0 -26 -2 -15 -15 10 -13 9 -15 -9 -15 -26 0 -26 1 -1
42 17 28 78 74 103 77 5 1 15 -6 24 -14z m533 4 c0 -6 8 -5 19 0 14 8 20 7 24
-2 3 -9 -4 -13 -22 -12 -14 1 -32 -3 -39 -9 -10 -7 -16 -5 -23 5 -13 21 -11
24 16 25 14 1 25 -2 25 -7z m-322 -5 c32 -9 27 -24 -8 -24 -33 0 -39 -14 -12
-29 16 -10 16 -10 0 -11 -10 0 -18 -6 -18 -14 0 -8 8 -17 18 -19 12 -3 7 -7
-15 -12 -31 -7 -48 -28 -37 -46 9 -14 -14 -10 -41 7 -14 9 -25 24 -25 33 -1
14 -2 14 -11 -2 -5 -9 -7 -23 -3 -30 6 -9 4 -9 -8 1 -14 11 -23 4 -66 -50 -73
-91 -155 -176 -148 -155 3 10 6 22 6 27 0 4 10 10 23 14 15 4 18 8 10 14 -15
9 73 116 88 107 5 -4 6 2 2 11 -5 14 -3 16 11 11 14 -6 17 -3 12 9 -4 11 2 26
14 39 12 13 20 31 18 41 -2 15 3 19 25 19 18 1 38 12 58 33 30 32 58 39 107
26z m72 -10 c0 -8 -5 -12 -10 -9 -6 4 -8 11 -5 16 9 14 15 11 15 -7z m-797
-32 c-4 -18 -12 -22 -32 -20 -23 3 -33 16 -13 19 4 1 16 7 26 15 24 17 27 14
19 -14z m775 -19 c16 -16 16 -16 -1 -10 -10 4 -25 7 -33 7 -8 0 -14 5 -14 10
0 16 30 12 48 -7z m-2867 -36 c-16 -16 -26 0 -10 19 9 11 15 12 17 4 2 -6 -1
-17 -7 -23z m2604 14 c3 -5 1 -12 -5 -16 -5 -3 -10 1 -10 9 0 18 6 21 15 7z
m-2841 -17 c3 -8 2 -12 -4 -9 -6 3 -10 10 -10 16 0 14 7 11 14 -7z m2573 -83
c-6 -94 6 -360 19 -446 3 -22 3 -37 -1 -33 -3 3 -11 39 -17 79 -5 40 -15 83
-21 94 -15 26 -19 92 -7 100 6 3 10 15 10 26 0 18 -10 23 -38 20 -9 -2 -12 4
-8 17 7 21 15 67 21 118 2 18 8 41 14 52 6 12 11 32 11 46 0 14 5 26 12 26 8
0 9 -27 5 -99z m553 87 c0 -5 -3 -8 -8 -8 -4 0 -12 -10 -17 -22 -8 -18 -19
-23 -50 -25 l-40 -2 39 13 c40 12 64 40 31 34 -10 -2 -20 2 -21 7 -2 6 12 10
31 10 19 0 35 -3 35 -7z m-590 -22 c0 -27 -19 -86 -31 -100 -5 -6 -9 8 -9 33
0 25 4 40 10 36 6 -4 10 7 10 24 0 17 5 31 10 31 6 0 10 -11 10 -24z m180 -7
c0 -4 -9 -11 -20 -14 -11 -3 -20 -13 -20 -22 0 -10 -6 -13 -16 -9 -13 5 -14 4
-6 -7 12 -14 7 -27 -10 -27 -5 0 -6 6 -2 13 4 6 -4 0 -19 -15 -24 -26 -37 -34
-37 -24 0 3 6 11 13 18 50 53 78 92 73 104 -4 10 0 11 19 2 14 -6 25 -15 25
-19z m-2646 -32 c7 -6 6 -7 -4 -4 -8 2 -16 12 -17 23 -2 13 -1 15 4 4 3 -8 11
-19 17 -23z m81 13 c3 -5 1 -10 -4 -10 -6 0 -11 5 -11 10 0 6 2 10 4 10 3 0 8
-4 11 -10z m-109 -24 c18 -19 18 -27 -1 -20 -10 4 -15 0 -15 -12 -1 -18 -1
-18 -11 -1 -10 17 -6 47 6 47 4 0 13 -6 21 -14z m2889 -14 c-6 -4 -32 -33 -58
-65 -27 -31 -53 -55 -58 -52 -5 4 -6 0 -3 -8 3 -8 1 -18 -5 -21 -6 -4 -7 -14
-4 -23 4 -11 2 -14 -8 -11 -8 3 -19 -1 -26 -8 -16 -15 -17 -28 -2 -19 6 4 5
-2 -3 -14 -13 -22 -34 -26 -56 -12 -14 8 -2 25 73 106 11 12 38 45 60 73 22
28 48 51 58 52 9 0 17 8 17 17 0 14 3 14 12 5 8 -8 9 -15 3 -20z m457 -121
c43 -74 77 -135 75 -137 -1 -2 -13 -1 -25 3 -15 3 -34 30 -60 82 -20 42 -53
102 -71 134 -29 50 -31 58 -15 55 12 -2 48 -53 96 -137z m-679 117 c4 -10 8
-9 17 2 10 13 11 13 7 0 -5 -21 -47 -26 -47 -6 0 19 16 21 23 4z m45 -18 c-7
-11 -14 -17 -17 -15 -2 3 1 11 7 18 7 8 8 18 4 22 -4 5 -1 5 5 1 10 -5 10 -11
1 -26z m312 -20 c0 -5 -7 -7 -15 -4 -8 4 -15 8 -15 10 0 2 7 4 15 4 8 0 15 -4
15 -10z m-2983 -22 c-3 -8 -6 -5 -6 6 -1 11 2 17 5 13 3 -3 4 -12 1 -19z
m3096 15 c-7 -2 -13 -11 -13 -18 0 -7 6 -16 13 -18 7 -3 5 -6 -5 -6 -13 -1
-18 7 -18 24 0 17 5 25 18 24 10 0 12 -3 5 -6z m-2998 -31 c-3 -3 -11 0 -18 7
-9 10 -8 11 6 5 10 -3 15 -9 12 -12z m-115 4 c0 -2 -7 -7 -16 -10 -8 -3 -12
-2 -9 4 6 10 25 14 25 6z m3449 -41 c0 -5 -6 -1 -14 9 -8 11 -15 24 -15 30 0
5 7 1 15 -10 8 -10 14 -23 14 -29z m-3399 5 c0 -11 -4 -20 -10 -20 -5 0 -10 9
-10 20 0 11 5 20 10 20 6 0 10 -9 10 -20z m3507 -6 c2 -13 1 -15 -4 -4 -3 8
-11 19 -17 23 -7 6 -6 7 4 4 8 -2 16 -12 17 -23z m-3531 -31 c-11 -11 -46 -14
-46 -3 0 6 12 10 27 10 14 0 23 -3 19 -7z m2568 -39 c3 -8 2 -12 -4 -9 -6 3
-10 10 -10 16 0 14 7 11 14 -7z m-323 -96 c15 -28 5 -21 -21 15 -15 20 -17 27
-6 18 9 -8 22 -23 27 -33z m1259 5 c0 -13 -3 -13 -15 -3 -8 7 -12 16 -9 21 8
13 24 1 24 -18z m-1352 -53 c0 -9 -3 -7 -8 5 -5 11 -8 29 -8 40 0 16 2 15 8
-5 4 -14 8 -32 8 -40z m1376 31 c6 -9 -16 -21 -40 -21 -20 0 -17 18 4 23 28 8
31 7 36 -2z m-24 -55 c0 -8 8 -17 18 -19 16 -4 16 -5 0 -6 -10 0 -22 8 -28 19
-7 14 -7 20 0 20 5 0 10 -6 10 -14z m29 -63 c-7 -20 -5 -23 14 -24 17 -1 18
-2 4 -6 -24 -6 -50 16 -37 32 5 6 8 14 5 17 -3 2 1 5 9 5 11 0 12 -6 5 -24z
m-5149 -36 c0 -2 -7 -19 -17 -37 -16 -33 -16 -33 -25 -11 -9 25 -2 45 13 36 5
-4 9 -1 9 4 0 6 5 11 10 11 6 0 10 -2 10 -3z m1706 -42 c-3 -9 -11 -13 -16
-10 -8 5 -7 11 1 21 14 18 24 11 15 -11z m3554 10 c-7 -8 -18 -15 -24 -15 -6
0 -2 7 8 15 25 19 32 19 16 0z m-1132 -105 c0 -45 -2 -50 -8 -25 -11 42 -11
139 0 105 4 -14 8 -50 8 -80z m-3598 79 c0 -15 -18 -19 -23 -6 -3 8 1 14 9 14
8 0 14 -4 14 -8z m4591 -12 c-10 -9 -11 -8 -5 6 3 10 9 15 12 12 3 -3 0 -11
-7 -18z m72 6 c-7 -2 -19 -2 -25 0 -7 3 -2 5 12 5 14 0 19 -2 13 -5z m-4642
-72 c17 -16 18 -19 5 -24 -9 -4 -16 -1 -16 6 0 8 -3 8 -9 -2 -6 -9 -11 -10
-15 -2 -4 6 -2 11 4 11 7 0 10 7 6 15 -7 20 1 19 25 -4z m4713 -37 c3 -8 2
-12 -4 -9 -6 3 -10 10 -10 16 0 14 7 11 14 -7z m-5374 -14 c0 -5 -4 -10 -10
-10 -5 0 -10 5 -10 10 0 6 5 10 10 10 6 0 10 -4 10 -10z m50 -21 c0 -5 -7 -6
-15 -3 -8 4 -15 13 -15 21 0 13 3 13 15 3 8 -7 15 -16 15 -21z m-170 1 c0 -5
-2 -10 -4 -10 -3 0 -8 5 -11 10 -3 6 -1 10 4 10 6 0 11 -4 11 -10z m5375 1 c3
-5 1 -12 -5 -16 -5 -3 -10 1 -10 9 0 18 6 21 15 7z m-5255 -26 c11 -13 10 -14
-4 -9 -9 3 -16 10 -16 15 0 13 6 11 20 -6z m70 -25 c0 -5 -4 -10 -10 -10 -5 0
-10 5 -10 10 0 6 5 10 10 10 6 0 10 -4 10 -10z m431 -30 c-4 -20 -10 -30 -14
-23 -4 6 -2 23 4 37 16 34 19 29 10 -14z m-771 10 c0 -5 -2 -10 -4 -10 -3 0
-8 5 -11 10 -3 6 -1 10 4 10 6 0 11 -4 11 -10z m617 -109 c21 -21 45 -41 53
-44 13 -5 13 -6 0 -6 -8 -1 -28 6 -44 14 -15 8 -35 15 -42 15 -8 0 -14 4 -14
9 0 5 -10 12 -22 15 l-23 6 25 15 c14 8 26 14 27 15 1 0 19 -17 40 -39z m271
22 c-4 -19 -38 -31 -38 -14 0 6 7 11 16 11 8 0 12 5 9 10 -3 6 -1 10 5 10 6 0
10 -8 8 -17z m880 -23 c-7 -10 -14 -18 -15 -16 -6 6 9 36 18 36 5 0 4 -9 -3
-20z m98 -15 c9 -14 14 -29 10 -32 -8 -9 -57 38 -50 48 9 15 23 10 40 -16z
m-1236 -165 c0 -5 -4 -10 -10 -10 -5 0 -10 5 -10 10 0 6 5 10 10 10 6 0 10 -4
10 -10z m670 -105 c-16 -19 -36 -19 -44 0 -3 10 1 15 14 15 10 0 22 5 26 12 6
9 9 9 12 0 2 -7 -2 -19 -8 -27z m3887 -47 c-3 -8 -6 -5 -6 6 -1 11 2 17 5 13
3 -3 4 -12 1 -19z m-4527 -99 c0 -5 -4 -9 -10 -9 -5 0 -10 7 -10 16 0 8 5 12
10 9 6 -3 10 -10 10 -16z m30 -15 c0 -8 -4 -12 -10 -9 -5 3 -10 10 -10 16 0 5
5 9 10 9 6 0 10 -7 10 -16z m4161 -154 c20 -58 51 -141 67 -185 16 -44 48
-132 71 -195 47 -127 58 -145 102 -154 17 -3 29 -12 29 -21 0 -13 -20 -15
-125 -15 -105 0 -125 2 -125 15 0 9 12 18 30 22 37 7 37 15 3 120 l-28 83
-110 0 -110 0 -27 -78 c-16 -43 -28 -85 -28 -94 0 -10 16 -22 42 -30 23 -8 44
-20 46 -26 3 -9 -51 -12 -217 -12 -213 0 -266 8 -189 28 43 11 46 25 47 218 1
202 -2 223 -40 231 -16 3 -29 12 -29 19 0 11 23 14 106 14 80 0 105 -3 102
-12 -3 -7 -14 -14 -26 -16 -40 -6 -43 -21 -40 -238 l3 -209 29 -3 c30 -4 86
15 86 28 0 5 6 15 13 22 7 7 59 130 115 273 57 143 109 275 117 293 25 56 44
39 86 -78z m-4231 73 c67 -30 93 -63 101 -131 6 -49 3 -63 -18 -100 -13 -23
-42 -54 -64 -69 -26 -17 -38 -31 -34 -41 14 -36 141 -215 172 -242 40 -35 87
-40 103 -11 6 12 10 97 10 206 0 109 -4 194 -10 206 -6 11 -21 19 -35 19 -16
0 -25 6 -25 15 0 13 27 15 180 15 l180 0 0 -59 c0 -33 -4 -63 -10 -66 -5 -3
-19 15 -31 40 l-21 45 -79 0 -79 0 0 -95 0 -95 66 0 65 0 15 35 c22 53 34 33
34 -56 0 -82 -10 -98 -32 -52 -14 30 -41 40 -105 42 l-43 1 0 -100 c0 -117 3
-120 100 -120 65 0 89 14 132 80 25 39 33 15 17 -48 l-14 -57 -205 -6 c-118
-4 -222 -2 -245 3 -54 13 -94 54 -171 174 -65 103 -78 114 -136 114 l-28 0 0
-106 c0 -58 5 -114 10 -124 6 -11 26 -22 45 -26 20 -3 35 -12 35 -20 0 -11
-26 -14 -135 -14 -109 0 -135 3 -135 14 0 8 15 17 35 20 19 4 39 15 45 26 6
11 10 121 10 274 0 243 -1 257 -20 276 -11 11 -31 20 -45 20 -18 0 -25 5 -25
19 0 19 8 20 173 17 148 -2 178 -5 217 -23z m2359 -23 c74 -57 66 -75 -18 -39
l-51 21 -49 -21 c-91 -39 -96 -22 -13 43 31 25 59 46 62 46 3 0 34 -23 69 -50z
m-3002 -72 c-3 -8 -6 -5 -6 6 -1 11 2 17 5 13 3 -3 4 -12 1 -19z m2468 -38
c126 0 185 4 193 12 18 18 24 4 30 -72 6 -83 -8 -92 -39 -25 l-21 45 -64 0
-64 0 0 -209 c0 -223 0 -222 53 -235 61 -15 23 -26 -88 -26 -112 0 -148 11
-82 25 17 4 35 13 39 19 4 6 8 105 8 219 l0 208 -62 -3 -63 -3 -20 -43 c-27
-59 -41 -48 -36 29 4 72 8 86 24 70 7 -7 75 -11 192 -11z m-905 -6 c4 -5 11
-33 15 -61 6 -43 4 -53 -8 -53 -8 0 -20 14 -27 30 -27 66 -94 89 -144 49 -21
-16 -26 -29 -26 -63 0 -48 26 -79 96 -114 125 -63 165 -156 105 -240 -38 -54
-142 -77 -233 -52 -35 10 -37 13 -43 63 -9 67 -8 71 3 75 5 1 15 -11 22 -28
18 -43 75 -90 110 -90 62 0 100 37 100 97 0 32 -53 84 -139 136 -90 54 -116
127 -68 198 35 53 79 71 160 66 38 -2 72 -8 77 -13z m610 0 c5 -5 12 -33 16
-61 5 -43 4 -53 -8 -53 -8 0 -22 17 -31 38 -40 92 -167 75 -167 -21 0 -47 21
-69 114 -126 87 -52 116 -90 116 -151 0 -105 -128 -168 -260 -129 -33 10 -39
16 -44 48 -15 89 2 122 29 57 34 -81 129 -113 180 -61 43 42 29 121 -27 154
-116 69 -141 88 -160 125 -34 67 -10 138 60 176 30 16 50 20 105 16 38 -2 72
-7 77 -12z m1978 7 c23 -5 45 -11 48 -14 3 -3 8 -33 11 -66 7 -69 -8 -82 -31
-28 -39 95 -182 114 -270 36 -98 -86 -83 -315 26 -387 58 -38 140 -42 188 -10
19 13 44 38 55 55 20 33 45 44 45 21 0 -7 -9 -35 -19 -63 -17 -45 -23 -51 -57
-58 -67 -15 -204 -3 -249 20 -51 27 -100 78 -119 125 -20 48 -21 164 -1 211
31 74 108 138 190 158 41 10 131 10 183 0z m-2298 -15 c0 -7 -13 -16 -29 -19
-18 -4 -31 -14 -35 -29 -10 -39 -7 -378 4 -399 6 -10 19 -19 29 -19 10 0 24
-7 31 -15 11 -13 -1 -15 -100 -15 -85 0 -111 3 -108 13 3 6 17 13 31 15 18 2
29 11 32 25 3 12 4 110 3 217 l-3 195 -32 10 c-18 5 -33 15 -33 22 0 10 26 13
105 13 82 0 105 -3 105 -14z m1244 -43 c9 -74 -5 -86 -36 -31 l-23 43 -80 0
-80 0 0 -90 0 -90 63 -3 c60 -3 63 -2 80 27 30 54 42 39 42 -49 0 -58 -3 -80
-13 -80 -7 0 -18 13 -24 29 -12 32 -50 45 -114 39 l-34 -3 0 -91 c0 -114 7
-124 86 -124 78 0 104 12 131 59 13 23 29 41 37 41 14 0 13 -5 -10 -92 l-10
-38 -188 0 c-103 0 -191 3 -195 8 -4 4 9 12 31 18 l38 11 3 208 c3 216 -1 235
-39 235 -11 0 -19 7 -19 15 0 13 26 15 174 15 l173 0 7 -57z m341 -133 c88
-104 163 -190 168 -190 4 0 5 73 2 163 -6 174 -10 187 -62 187 -14 0 -23 6
-23 15 0 12 17 15 95 15 78 0 95 -3 95 -15 0 -8 -8 -15 -19 -15 -10 0 -25 -7
-32 -17 -15 -17 -17 -49 -18 -305 -1 -138 -4 -168 -15 -168 -8 0 -88 90 -178
200 l-163 199 -3 -160 c-1 -92 2 -167 7 -178 6 -10 24 -21 41 -24 16 -4 30
-11 30 -17 0 -6 -37 -10 -96 -10 -72 0 -95 3 -92 13 3 6 13 14 24 15 40 7 44
28 44 224 0 175 -1 189 -20 208 -11 11 -29 20 -40 20 -11 0 -20 7 -20 15 0 12
13 15 58 15 l57 0 160 -190z m-3415 149 c-12 -16 -24 -28 -27 -25 -6 6 29 55
40 56 5 0 -1 -14 -13 -31z m60 -49 c0 -5 -2 -10 -4 -10 -3 0 -8 5 -11 10 -3 6
-1 10 4 10 6 0 11 -4 11 -10z m5480 -240 c0 -5 -5 -10 -11 -10 -5 0 -7 5 -4
10 3 6 8 10 11 10 2 0 4 -4 4 -10z m50 -114 c0 -8 -4 -17 -10 -21 -5 -3 -7
-12 -3 -20 3 -8 0 -15 -5 -15 -15 0 -20 32 -8 53 13 21 26 22 26 3z m77 -43
c-8 -7 -47 11 -47 23 0 8 6 11 15 8 10 -4 15 0 16 12 0 12 4 7 10 -10 4 -17 7
-31 6 -33z m-32 -13 c-3 -5 -12 -7 -20 -3 -21 7 -19 13 6 13 11 0 18 -4 14
-10z m-3855 -71 c0 -6 -4 -7 -10 -4 -5 3 -10 11 -10 16 0 6 5 7 10 4 6 -3 10
-11 10 -16z m3795 0 c-4 -5 -13 -9 -21 -9 -12 0 -12 2 -2 14 14 15 32 11 23
-5z m-2895 -129 c0 -5 -4 -10 -10 -10 -5 0 -10 5 -10 10 0 6 5 10 10 10 6 0
10 -4 10 -10z m-990 -4 c0 -3 -4 -8 -10 -11 -5 -3 -10 -1 -10 4 0 6 5 11 10
11 6 0 10 -2 10 -4z m3930 -66 c0 -22 -41 -90 -50 -85 -14 9 -12 32 5 65 15
29 45 42 45 20z m50 -40 c0 -5 -5 -10 -11 -10 -5 0 -7 5 -4 10 3 6 8 10 11 10
2 0 4 -4 4 -10z m-5650 -10 c0 -5 -4 -10 -10 -10 -5 0 -10 5 -10 10 0 6 5 10
10 10 6 0 10 -4 10 -10z m3840 -30 c0 -5 -4 -10 -10 -10 -5 0 -10 5 -10 10 0
6 5 10 10 10 6 0 10 -4 10 -10z m-2310 -54 c0 -3 -4 -8 -10 -11 -5 -3 -10 -1
-10 4 0 6 5 11 10 11 6 0 10 -2 10 -4z m434 -30 c-3 -9 -10 -16 -15 -16 -5 0
-4 9 3 20 14 22 21 20 12 -4z m3581 -6 c3 -5 1 -10 -4 -10 -6 0 -11 5 -11 10
0 6 2 10 4 10 3 0 8 -4 11 -10z m-4015 -60 c0 -5 -4 -10 -9 -10 -6 0 -13 5
-16 10 -3 6 1 10 9 10 9 0 16 -4 16 -10z m50 -20 c0 -5 -2 -10 -4 -10 -3 0 -8
5 -11 10 -3 6 -1 10 4 10 6 0 11 -4 11 -10z m-1063 -119 c-3 -11 -10 -3 -21
22 -9 21 -13 43 -9 50 9 14 36 -49 30 -72z m958 49 c3 -5 2 -10 -4 -10 -5 0
-13 5 -16 10 -3 6 -2 10 4 10 5 0 13 -4 16 -10z m-1305 -40 c0 -5 -5 -10 -11
-10 -5 0 -7 5 -4 10 3 6 8 10 11 10 2 0 4 -4 4 -10z m-30 -12 c0 -19 -18 -43
-25 -36 -9 9 4 48 16 48 5 0 9 -6 9 -12z m254 -67 c-7 -7 -44 31 -38 41 3 4
14 -2 24 -14 10 -13 16 -25 14 -27z m1120 34 c-4 -8 -8 -15 -10 -15 -2 0 -4 7
-4 15 0 8 4 15 10 15 5 0 7 -7 4 -15z m-1664 -4 c0 -6 -4 -13 -10 -16 -5 -3
-10 1 -10 9 0 9 5 16 10 16 6 0 10 -4 10 -9z m992 -49 c-8 -22 -21 6 -14 31 5
20 6 20 12 1 4 -10 5 -25 2 -32z m-488 3 c-6 -16 -24 -21 -24 -7 0 11 11 22
21 22 5 0 6 -7 3 -15z m4986 5 c0 -5 -7 -10 -15 -10 -8 0 -15 5 -15 10 0 6 7
10 15 10 8 0 15 -4 15 -10z m-4270 -4 c0 -3 -4 -8 -10 -11 -5 -3 -10 -1 -10 4
0 6 5 11 10 11 6 0 10 -2 10 -4z m4380 -6 c0 -5 -2 -10 -4 -10 -3 0 -8 5 -11
10 -3 6 -1 10 4 10 6 0 11 -4 11 -10z m-5070 -10 c0 -5 -2 -10 -4 -10 -3 0 -8
5 -11 10 -3 6 -1 10 4 10 6 0 11 -4 11 -10z m77 4 c-3 -3 -12 -4 -19 -1 -8 3
-5 6 6 6 11 1 17 -2 13 -5z m868 -33 c-3 -6 -11 -11 -16 -11 -5 0 -4 6 3 14
14 16 24 13 13 -3z m-503 -13 c-7 -7 -12 -8 -12 -2 0 14 12 26 19 19 2 -3 -1
-11 -7 -17z m78 15 c-1 -18 -19 -35 -29 -28 -9 5 -7 11 6 21 21 16 23 16 23 7z
m1450 -2 c0 -6 -4 -13 -10 -16 -5 -3 -10 1 -10 9 0 9 5 16 10 16 6 0 10 -4 10
-9z m2780 5 c0 -3 -4 -8 -10 -11 -5 -3 -10 -1 -10 4 0 6 5 11 10 11 6 0 10 -2
10 -4z m-4989 -59 c-13 -13 -15 11 -4 40 7 16 8 15 11 -6 2 -13 -1 -28 -7 -34z
m5226 39 c2 -2 5 -10 7 -18 1 -7 12 -24 24 -36 12 -12 22 -33 22 -47 0 -23 -2
-24 -27 -13 -33 14 -56 36 -66 62 -6 15 -10 16 -23 5 -13 -10 -17 -10 -25 2
-8 12 -10 12 -19 -1 -5 -8 -10 -21 -10 -29 0 -11 -3 -11 -15 -1 -26 22 -40 5
-15 -18 23 -21 23 -22 3 -22 -24 0 -46 48 -33 71 5 8 4 19 -3 28 -10 12 -8 13
15 8 15 -4 30 -3 33 3 4 7 13 7 26 0 15 -9 21 -7 26 6 4 12 14 15 41 10 19 -3
37 -7 39 -10z m-4887 -6 c0 -5 -2 -10 -4 -10 -3 0 -8 5 -11 10 -3 6 -1 10 4
10 6 0 11 -4 11 -10z m690 0 c0 -5 -2 -10 -4 -10 -3 0 -8 5 -11 10 -3 6 -1 10
4 10 6 0 11 -4 11 -10z m2670 0 c0 -5 -2 -10 -4 -10 -3 0 -8 5 -11 10 -3 6 -1
10 4 10 6 0 11 -4 11 -10z m1630 0 c12 -8 11 -10 -7 -10 -13 0 -23 5 -23 10 0
13 11 13 30 0z m-5510 -21 c0 -5 -4 -9 -10 -9 -5 0 -10 7 -10 16 0 8 5 12 10
9 6 -3 10 -10 10 -16z m780 -8 c0 -6 -4 -13 -10 -16 -5 -3 -10 1 -10 9 0 9 5
16 10 16 6 0 10 -4 10 -9z m115 -19 c-8 -8 -25 10 -19 20 4 6 9 5 15 -3 4 -7
6 -15 4 -17z m200 18 c-3 -5 -1 -10 4 -10 6 0 11 -5 11 -10 0 -6 -8 -5 -20 2
-14 9 -16 14 -7 20 16 10 19 10 12 -2z m179 -5 c-4 -8 -10 -15 -15 -15 -4 0
-6 7 -3 15 4 8 10 15 15 15 4 0 6 -7 3 -15z m-428 -22 c-7 -7 -26 7 -26 19 0
6 6 6 15 -2 9 -7 13 -15 11 -17z m168 -7 c-7 -17 -34 -22 -34 -6 0 6 7 10 15
10 8 0 15 5 15 12 0 6 2 9 5 6 3 -3 3 -13 -1 -22z m2211 14 c3 -5 1 -10 -4
-10 -6 0 -11 5 -11 10 0 6 2 10 4 10 3 0 8 -4 11 -10z m385 0 c0 -5 -5 -10
-11 -10 -5 0 -7 5 -4 10 3 6 8 10 11 10 2 0 4 -4 4 -10z m-1870 -14 c0 -8 -4
-18 -10 -21 -5 -3 -10 3 -10 14 0 12 5 21 10 21 6 0 10 -6 10 -14z m3410 4 c0
-5 -9 -10 -19 -10 -11 0 -23 5 -26 10 -4 6 5 10 19 10 14 0 26 -4 26 -10z
m-5006 -15 c-4 -8 -8 -15 -10 -15 -2 0 -4 7 -4 15 0 8 4 15 10 15 5 0 7 -7 4
-15z m133 -7 c-3 -8 -6 -5 -6 6 -1 11 2 17 5 13 3 -3 4 -12 1 -19z m893 12 c0
-5 -4 -10 -10 -10 -5 0 -10 5 -10 10 0 6 5 10 10 10 6 0 10 -4 10 -10z m-440
-16 c0 -8 -5 -12 -10 -9 -6 4 -8 11 -5 16 9 14 15 11 15 -7z m83 -14 c-3 -11
-12 -20 -21 -20 -13 0 -12 3 3 20 10 11 19 20 21 20 1 0 0 -9 -3 -20z m104 9
c-12 -7 -16 -17 -12 -30 4 -11 2 -19 -4 -19 -6 0 -10 14 -9 30 2 23 7 30 23
30 19 -1 19 -1 2 -11z m183 1 c0 -5 -5 -10 -11 -10 -5 0 -7 5 -4 10 3 6 8 10
11 10 2 0 4 -4 4 -10z m17 -22 c-3 -8 -6 -5 -6 6 -1 11 2 17 5 13 3 -3 4 -12
1 -19z m-967 2 c0 -5 -4 -10 -10 -10 -5 0 -10 5 -10 10 0 6 5 10 10 10 6 0 10
-4 10 -10z m1100 0 c0 -5 -4 -10 -10 -10 -5 0 -10 -8 -10 -17 0 -13 -3 -14
-12 -5 -8 8 -8 15 2 27 14 17 30 20 30 5z m120 6 c0 -11 -19 -15 -25 -6 -3 5
1 10 9 10 9 0 16 -2 16 -4z m1038 -18 c-3 -7 -13 -15 -24 -17 -16 -3 -17 -1
-5 13 16 19 34 21 29 4z m-1112 -10 c4 -7 3 -8 -4 -4 -15 9 -15 1 -1 -27 10
-21 10 -21 -5 -3 -18 22 -21 46 -7 46 6 0 13 -5 17 -12z m167 -12 c7 -18 -8
-42 -17 -27 -4 6 -2 11 4 11 6 0 8 5 5 11 -4 6 -13 8 -21 5 -14 -5 -19 5 -8
17 8 8 32 -2 37 -17z m226 2 c13 -21 13 -22 -3 -9 -13 11 -22 12 -34 4 -13 -8
-21 -6 -31 5 -12 12 -11 13 7 8 11 -4 23 -2 27 4 10 15 19 12 34 -12z m3131
12 c0 -7 6 -7 20 0 23 12 25 3 5 -24 -7 -10 -19 -16 -26 -14 -15 5 -23 48 -9
48 6 0 10 -5 10 -10z m-3318 -22 c-7 -7 -12 -8 -12 -2 0 14 12 26 19 19 2 -3
-1 -11 -7 -17z m64 -5 c-10 -10 -19 5 -10 18 6 11 8 11 12 0 2 -7 1 -15 -2
-18z m-986 3 c0 -22 -27 -27 -33 -5 -4 14 0 19 14 19 10 0 19 -6 19 -14z m580
4 c0 -5 -4 -10 -10 -10 -5 0 -10 5 -10 10 0 6 5 10 10 10 6 0 10 -4 10 -10z
m-200 -10 c0 -5 -5 -10 -11 -10 -5 0 -7 5 -4 10 3 6 8 10 11 10 2 0 4 -4 4
-10z m-305 -16 c-9 -9 -19 -13 -23 -10 -3 4 0 11 8 16 24 15 33 11 15 -6z
m1099 10 c20 -8 21 -24 1 -24 -8 0 -15 6 -15 13 0 8 -4 7 -10 -3 -5 -8 -10
-10 -10 -4 0 10 9 24 16 24 1 0 9 -3 18 -6z m-1439 -14 c-3 -5 -10 -10 -16
-10 -5 0 -9 5 -9 10 0 6 7 10 16 10 8 0 12 -4 9 -10z m545 -11 c0 -14 -27 -10
-33 5 -4 10 0 12 14 9 10 -3 19 -9 19 -14z"/>
<path d="M1890 7450 c0 -5 7 -10 16 -10 8 0 12 5 9 10 -3 6 -10 10 -16 10 -5
0 -9 -4 -9 -10z"/>
<path d="M1848 7403 c7 -3 16 -2 19 1 4 3 -2 6 -13 5 -11 0 -14 -3 -6 -6z"/>
<path d="M1916 7395 c4 -8 8 -15 10 -15 2 0 4 7 4 15 0 8 -4 15 -10 15 -5 0
-7 -7 -4 -15z"/>
<path d="M1972 7368 c4 -10 1 -19 -10 -23 -13 -5 -14 -8 -3 -14 9 -6 10 -11 2
-15 -22 -14 -12 -41 15 -43 19 -1 23 2 15 10 -15 15 -14 54 1 59 9 3 7 10 -7
24 -15 16 -18 16 -13 2z"/>
<path d="M1920 7320 c0 -5 5 -10 10 -10 6 0 10 5 10 10 0 6 -4 10 -10 10 -5 0
-10 -4 -10 -10z"/>
<path d="M2018 7313 c-26 -6 -22 -18 7 -19 14 -1 25 2 25 6 0 12 -12 17 -32
13z"/>
<path d="M2025 7270 c-3 -5 -1 -10 4 -10 6 0 11 5 11 10 0 6 -2 10 -4 10 -3 0
-8 -4 -11 -10z"/>
<path d="M2056 7254 c-5 -14 -4 -15 9 -4 17 14 19 20 6 20 -5 0 -12 -7 -15
-16z"/>
<path d="M2005 7240 c3 -5 12 -7 20 -3 21 7 19 13 -6 13 -11 0 -18 -4 -14 -10z"/>
<path d="M2190 7230 c0 -5 5 -10 11 -10 5 0 7 5 4 10 -3 6 -8 10 -11 10 -2 0
-4 -4 -4 -10z"/>
<path d="M1842 7202 c1 -21 5 -29 14 -25 8 3 18 -5 23 -18 11 -26 11 -26 16
14 3 21 0 27 -16 27 -10 0 -18 5 -16 11 1 6 -3 13 -10 16 -7 3 -11 -7 -11 -25z"/>
<path d="M1910 7194 c0 -8 5 -12 10 -9 6 4 8 11 5 16 -9 14 -15 11 -15 -7z"/>
<path d="M1800 7190 c0 -5 7 -7 15 -4 8 4 15 8 15 10 0 2 -7 4 -15 4 -8 0 -15
-4 -15 -10z"/>
<path d="M2215 7171 c-3 -6 -1 -11 4 -11 6 0 11 -10 11 -22 0 -17 3 -19 9 -9
11 17 8 44 -6 48 -6 2 -14 -1 -18 -6z"/>
<path d="M1975 7160 c-3 -5 -2 -10 4 -10 5 0 13 5 16 10 3 6 2 10 -4 10 -5 0
-13 -4 -16 -10z"/>
<path d="M2055 7160 c4 -6 11 -8 16 -5 14 9 11 15 -7 15 -8 0 -12 -5 -9 -10z"/>
<path d="M1920 7130 c0 -5 7 -10 16 -10 8 0 12 5 9 10 -3 6 -10 10 -16 10 -5
0 -9 -4 -9 -10z"/>
<path d="M1960 7090 c0 -5 5 -10 10 -10 6 0 10 5 10 10 0 6 -4 10 -10 10 -5 0
-10 -4 -10 -10z"/>
<path d="M1878 7003 c7 -3 16 -2 19 1 4 3 -2 6 -13 5 -11 0 -14 -3 -6 -6z"/>
<path d="M1840 6969 c0 -11 4 -18 10 -14 5 3 7 12 3 20 -7 21 -13 19 -13 -6z"/>
<path d="M1826 6931 c-3 -5 1 -11 9 -14 9 -4 12 -1 8 9 -6 16 -10 17 -17 5z"/>
<path d="M1840 6879 c0 -5 5 -7 10 -4 6 3 10 8 10 11 0 2 -4 4 -10 4 -5 0 -10
-5 -10 -11z"/>
<path d="M1690 6749 c0 -11 47 -12 54 -1 3 5 -8 9 -24 10 -17 0 -30 -4 -30 -9z"/>
<path d="M1720 6700 c0 -5 5 -10 10 -10 6 0 10 5 10 10 0 6 -4 10 -10 10 -5 0
-10 -4 -10 -10z"/>
<path d="M1726 6671 c-4 -7 -5 -15 -2 -18 9 -9 19 4 14 18 -4 11 -6 11 -12 0z"/>
<path d="M1690 6580 c0 -5 5 -10 10 -10 6 0 10 5 10 10 0 6 -4 10 -10 10 -5 0
-10 -4 -10 -10z"/>
<path d="M1745 6519 c-11 -17 1 -21 15 -4 8 9 8 15 2 15 -6 0 -14 -5 -17 -11z"/>
<path d="M1836 6474 c-9 -24 -7 -27 9 -10 17 17 19 26 6 26 -5 0 -12 -7 -15
-16z"/>
<path d="M1715 6431 c-3 -5 -1 -12 5 -16 5 -3 10 1 10 9 0 18 -6 21 -15 7z"/>
<path d="M1832 6420 c0 -14 2 -19 5 -12 2 6 2 18 0 25 -3 6 -5 1 -5 -13z"/>
<path d="M5090 7468 c0 -4 9 -22 20 -40 12 -20 20 -26 20 -17 0 16 -39 72 -40
57z"/>
<path d="M5080 7410 c0 -5 5 -10 10 -10 6 0 10 5 10 10 0 6 -4 10 -10 10 -5 0
-10 -4 -10 -10z"/>
<path d="M3345 7350 c-13 -5 -14 -9 -5 -9 8 0 24 4 35 9 13 5 14 9 5 9 -8 0
-24 -4 -35 -9z"/>
<path d="M3916 6583 c-6 -14 -5 -15 5 -6 7 7 10 15 7 18 -3 3 -9 -2 -12 -12z"/>
<path d="M3409 6496 c10 -12 71 -29 71 -19 0 3 -69 33 -77 33 -3 0 0 -6 6 -14z"/>
<path d="M3630 6305 c0 -15 18 -40 24 -34 3 3 -1 14 -9 25 -8 10 -14 15 -15 9z"/>
<path d="M3717 6225 c-4 -8 -2 -17 3 -20 6 -4 10 3 10 14 0 25 -6 27 -13 6z"/>
<path d="M4730 6675 c0 -8 7 -15 15 -15 8 0 15 4 15 9 0 5 -7 11 -15 15 -9 3
-15 0 -15 -9z"/>
<path d="M4670 6448 c0 -19 2 -20 10 -8 13 19 13 30 0 30 -5 0 -10 -10 -10
-22z"/>
<path d="M4620 6411 c0 -11 4 -22 9 -25 4 -3 6 6 3 19 -5 30 -12 33 -12 6z"/>
<path d="M860 6371 c0 -6 5 -13 10 -16 6 -3 10 1 10 9 0 9 -4 16 -10 16 -5 0
-10 -4 -10 -9z"/>
<path d="M2805 5322 c-11 -11 -4 -32 10 -32 8 0 15 4 15 9 0 5 8 11 18 13 12
3 9 6 -10 10 -15 3 -30 3 -33 0z"/>
<path d="M4968 3123 c7 -3 16 -2 19 1 4 3 -2 6 -13 5 -11 0 -14 -3 -6 -6z"/>
<path d="M4959 2903 c-13 -16 -12 -17 4 -4 16 13 21 21 13 21 -2 0 -10 -8 -17
-17z"/>
<path d="M5640 2780 c6 -11 13 -20 16 -20 2 0 0 9 -6 20 -6 11 -13 20 -16 20
-2 0 0 -9 6 -20z"/>
<path d="M5042 1408 c-23 -62 -42 -119 -42 -125 0 -10 24 -13 85 -13 67 0 85
3 85 14 0 17 -70 218 -80 229 -4 4 -25 -43 -48 -105z"/>
<path d="M763 1608 l-33 -9 0 -139 c0 -83 4 -141 10 -145 6 -4 36 -3 68 1 48
6 63 13 95 44 35 35 37 41 37 99 0 69 -18 114 -53 132 -34 19 -89 26 -124 17z"/>
<path d="M5555 180 c3 -5 8 -10 11 -10 2 0 4 5 4 10 0 6 -5 10 -11 10 -5 0 -7
-4 -4 -10z"/>
<path d="M1040 8766 c0 -2 7 -6 15 -10 8 -3 15 -1 15 4 0 6 -7 10 -15 10 -8 0
-15 -2 -15 -4z"/>
<path d="M1045 7810 c3 -5 11 -10 16 -10 6 0 7 5 4 10 -3 6 -11 10 -16 10 -6
0 -7 -4 -4 -10z"/>
<path d="M1481 6904 c0 -11 3 -14 6 -6 3 7 2 16 -1 19 -3 4 -6 -2 -5 -13z"/>
<path d="M4870 6860 c-13 -8 -12 -10 3 -10 9 0 17 5 17 10 0 12 -1 12 -20 0z"/>
<path d="M4850 6750 c-8 -5 -19 -6 -25 -3 -5 3 2 -7 17 -22 29 -31 73 -43 63
-18 -3 8 -5 19 -5 23 0 16 -35 29 -50 20z m15 -10 c-3 -5 -12 -10 -18 -10 -7
0 -6 4 3 10 19 12 23 12 15 0z m15 -30 c0 -5 -2 -10 -4 -10 -3 0 -8 5 -11 10
-3 6 -1 10 4 10 6 0 11 -4 11 -10z"/>
<path d="M1085 6650 c-3 -5 -1 -10 4 -10 6 0 11 5 11 10 0 6 -2 10 -4 10 -3 0
-8 -4 -11 -10z"/>
<path d="M5086 6488 c3 -4 -1 -8 -9 -8 -8 0 -17 -7 -21 -15 -8 -22 16 -19 42
5 27 25 27 26 3 26 -11 0 -17 -4 -15 -8z"/>
<path d="M5030 6339 c0 -5 5 -7 10 -4 6 3 10 8 10 11 0 2 -4 4 -10 4 -5 0 -10
-5 -10 -11z"/>
<path d="M4930 6241 c0 -12 5 -21 10 -21 6 0 10 6 10 14 0 8 -4 18 -10 21 -5
3 -10 -3 -10 -14z"/>
<path d="M5103 6102 c-18 -9 -33 -19 -33 -24 0 -16 33 -21 63 -10 23 9 33 9
38 0 4 -7 13 1 23 21 l17 31 -38 -1 c-21 -1 -53 -9 -70 -17z"/>
<path d="M5124 6000 c2 -17 7 -34 11 -38 4 -4 5 3 2 16 -4 19 -2 22 11 17 13
-5 13 -2 -3 15 -24 26 -25 26 -21 -10z"/>
<path d="M4240 5884 c-11 -12 -11 -15 1 -12 8 2 18 8 22 13 5 6 7 0 4 -12 -3
-13 -1 -26 4 -29 5 -3 9 9 9 25 0 34 -19 41 -40 15z"/>
<path d="M4588 5894 c-4 -3 -14 -7 -25 -8 -22 -3 -26 -57 -5 -64 11 -3 12 0 2
17 -6 12 -9 27 -6 34 2 7 5 5 5 -4 1 -15 63 -79 77 -79 3 0 -6 14 -20 31 -28
33 -34 64 -13 72 6 3 7 6 1 6 -6 1 -13 -2 -16 -5z"/>
<path d="M4300 5850 c0 -11 2 -20 4 -20 2 0 6 9 9 20 3 11 1 20 -4 20 -5 0 -9
-9 -9 -20z"/>
<path d="M850 5845 c-7 -8 -8 -15 -2 -15 5 0 15 7 22 15 7 8 8 15 2 15 -5 0
-15 -7 -22 -15z"/>
<path d="M5000 5665 c0 -8 0 -18 -1 -22 0 -4 4 -9 9 -11 5 -1 10 9 10 23 0 14
-4 25 -9 25 -5 0 -9 -7 -9 -15z"/>
<path d="M750 5636 c0 -2 7 -7 16 -10 8 -3 12 -2 9 4 -6 10 -25 14 -25 6z"/>
<path d="M5000 5592 c0 -17 21 -25 31 -13 5 6 6 9 3 6 -4 -3 -13 0 -21 6 -9 8
-13 8 -13 1z"/>
<path d="M4927 5559 c7 -7 15 -10 18 -7 3 3 -2 9 -12 12 -14 6 -15 5 -6 -5z"/>
<path d="M5035 5560 c-3 -5 -1 -10 4 -10 6 0 11 5 11 10 0 6 -2 10 -4 10 -3 0
-8 -4 -11 -10z"/>
<path d="M4956 5527 c3 -10 9 -15 12 -12 3 3 0 11 -7 18 -10 9 -11 8 -5 -6z"/>
<path d="M5043 5508 c-11 -19 -12 -37 -2 -44 5 -3 9 1 10 8 0 8 3 7 7 -4 6
-14 9 -13 25 8 10 13 13 24 7 24 -5 0 -10 -5 -10 -11 0 -5 -4 -8 -10 -4 -5 3
-7 12 -3 20 6 18 -13 20 -24 3z"/>
<path d="M5250 5276 c0 -9 5 -16 10 -16 6 0 10 4 10 9 0 6 -4 13 -10 16 -5 3
-10 -1 -10 -9z"/>
<path d="M5225 5220 c3 -5 8 -10 11 -10 2 0 4 5 4 10 0 6 -5 10 -11 10 -5 0
-7 -4 -4 -10z"/>
<path d="M5360 5199 c0 -5 5 -7 10 -4 6 3 10 8 10 11 0 2 -4 4 -10 4 -5 0 -10
-5 -10 -11z"/>
<path d="M5285 5180 c-8 -13 5 -13 25 0 13 8 13 10 -2 10 -9 0 -20 -4 -23 -10z"/>
<path d="M5407 5169 c7 -7 15 -10 18 -7 3 3 -2 9 -12 12 -14 6 -15 5 -6 -5z"/>
<path d="M5430 5040 c0 -4 9 -10 20 -13 11 -3 20 -2 20 3 0 4 -9 10 -20 13
-11 3 -20 2 -20 -3z"/>
<path d="M5363 4963 c1 -28 5 -49 10 -46 10 6 9 65 -3 83 -6 10 -9 -1 -7 -37z"/>
<path d="M5387 4918 c-5 -35 36 -124 53 -113 5 3 7 -17 5 -45 -3 -44 -2 -50
11 -39 8 6 14 19 14 28 0 9 9 22 20 29 20 12 28 42 10 42 -5 0 -7 -8 -4 -17 5
-16 4 -15 -10 1 -10 12 -12 23 -6 31 5 6 5 16 0 25 -7 10 -10 11 -10 3 0 -23
-20 -14 -31 15 -34 82 -44 90 -52 40z"/>
<path d="M5264 4876 c-27 -20 -10 -31 26 -16 16 7 40 10 52 7 22 -6 22 -6 4 8
-25 19 -57 19 -82 1z"/>
<path d="M5260 4821 c-6 -13 -7 -28 0 -45 9 -25 10 -25 40 -8 16 9 30 23 30
31 0 8 6 11 15 7 8 -3 15 -2 15 2 0 34 -83 45 -100 13z"/>
<path d="M5260 4697 c0 -4 7 -23 14 -42 15 -34 36 -48 36 -22 -1 13 -50 77
-50 64z"/>
<path d="M5225 4660 c3 -5 10 -10 16 -10 5 0 9 5 9 10 0 6 -7 10 -16 10 -8 0
-12 -4 -9 -10z"/>
<path d="M5880 4310 c0 -5 5 -10 11 -10 5 0 7 5 4 10 -3 6 -8 10 -11 10 -2 0
-4 -4 -4 -10z"/>
<path d="M676 4135 c-15 -14 -32 -23 -37 -19 -5 3 -21 -1 -34 -10 -27 -18 -49
-21 -40 -7 3 6 -15 9 -42 9 -27 -1 -86 3 -133 10 -47 6 -154 13 -238 15 l-152
5 0 -34 c0 -27 4 -34 20 -34 11 0 20 5 20 10 0 6 7 10 16 10 13 0 14 -3 5 -14
-9 -11 -7 -15 11 -19 12 -4 29 -1 37 6 11 9 15 9 18 0 4 -10 8 -9 19 1 8 8 14
19 14 24 0 13 -27 23 -45 16 -8 -4 -15 -1 -15 6 0 9 27 10 107 6 58 -3 109 -8
111 -11 3 -3 -4 -5 -15 -5 -32 0 -35 -12 -7 -27 16 -7 60 -13 108 -14 74 0
182 -14 146 -19 -11 -1 -9 -4 5 -10 13 -5 -1 -7 -40 -5 -33 1 -54 0 -47 -2 6
-3 12 -8 12 -12 0 -5 -18 -3 -39 2 -22 6 -38 13 -36 16 1 3 -22 7 -53 8 -31 1
-58 6 -60 12 -2 6 -15 6 -34 0 -40 -11 -51 -23 -16 -17 15 3 25 1 22 -3 -2 -4
12 -11 33 -14 21 -3 56 -10 78 -15 22 -5 94 -21 160 -35 66 -14 136 -34 156
-45 20 -11 39 -20 41 -20 2 0 5 14 6 30 3 35 38 80 62 80 9 0 21 5 27 11 6 6
30 7 61 3 38 -5 62 -15 92 -41 22 -19 40 -39 40 -44 0 -5 -28 -9 -63 -9 l-63
0 4 -35 4 -35 64 0 c52 0 66 -3 71 -17 4 -10 10 -20 13 -23 4 -3 12 -14 19
-25 10 -17 11 -9 6 45 -4 36 -7 77 -6 93 1 15 -3 27 -9 27 -5 0 -10 7 -10 15
0 8 -26 42 -58 76 l-58 62 -102 6 c-82 5 -104 9 -114 24 -13 17 -15 17 -42 -8z
m-586 -25 c0 -13 -50 -13 -70 0 -11 7 -4 10 28 10 23 0 42 -4 42 -10z m945
-138 c-6 -7 -35 18 -35 31 0 5 9 2 20 -8 11 -10 18 -20 15 -23z m12 -54 c-3
-8 -6 -5 -6 6 -1 11 2 17 5 13 3 -3 4 -12 1 -19z"/>
<path d="M1245 4120 c8 -12 -21 -80 -34 -80 -9 0 -41 -50 -41 -64 0 -3 7 -3
15 0 8 4 15 12 15 20 0 8 5 14 10 14 13 0 -2 -31 -24 -50 -9 -7 -16 -27 -16
-45 l0 -33 56 21 c37 14 51 23 42 28 -10 7 -9 9 5 9 13 0 17 8 17 33 0 24 3
28 10 17 5 -8 10 -27 10 -42 0 -33 -7 -33 235 -17 88 6 167 11 175 11 8 1 24
7 35 14 18 13 17 14 -12 14 -17 0 -39 3 -49 7 -11 4 -15 3 -11 -4 5 -7 -1 -9
-15 -5 -19 5 -20 7 -5 10 9 2 14 8 11 14 -4 6 27 9 90 6 62 -2 99 1 107 9 8 8
-2 14 -42 21 l-54 10 59 1 c33 0 57 4 53 7 -3 3 -32 5 -64 4 -32 -1 -80 -2
-108 -3 -35 0 -44 -2 -30 -8 18 -7 17 -8 -6 -8 -15 -1 -38 8 -52 19 -14 11
-31 20 -38 20 -7 0 -23 12 -35 27 -21 27 -23 27 -41 10 -28 -25 -215 -21 -246
5 -22 20 -31 23 -22 8z m5 -115 c-7 -9 -15 -13 -18 -10 -3 2 1 11 8 20 7 9 15
13 18 10 3 -2 -1 -11 -8 -20z"/>
<path d="M5776 4025 c4 -8 10 -15 15 -15 5 0 9 7 9 15 0 8 -7 15 -15 15 -9 0
-12 -6 -9 -15z"/>
<path d="M5735 3960 c-3 -5 -2 -10 4 -10 5 0 13 5 16 10 3 6 2 10 -4 10 -5 0
-13 -4 -16 -10z"/>
<path d="M5766 3941 c-4 -7 -5 -15 -2 -18 9 -9 19 4 14 18 -4 11 -6 11 -12 0z"/>
<path d="M854 3923 c1 -13 -5 -17 -18 -15 -23 4 -40 -19 -23 -30 7 -4 23 -8
37 -8 22 0 25 4 24 32 0 18 -6 34 -11 35 -6 2 -10 -4 -9 -14z"/>
<path d="M1090 3905 c0 -36 5 -41 29 -26 11 7 10 11 -5 20 -17 9 -17 10 -1 11
9 0 17 7 17 15 0 8 -9 15 -20 15 -16 0 -20 -7 -20 -35z"/>
<path d="M4866 3893 c-6 -14 -5 -15 5 -6 7 7 10 15 7 18 -3 3 -9 -2 -12 -12z"/>
<path d="M5810 3900 c0 -5 5 -10 10 -10 6 0 10 5 10 10 0 6 -4 10 -10 10 -5 0
-10 -4 -10 -10z"/>
<path d="M4810 3880 c0 -5 7 -10 15 -10 8 0 15 5 15 10 0 6 -7 10 -15 10 -8 0
-15 -4 -15 -10z"/>
<path d="M5460 3880 c0 -5 5 -10 11 -10 5 0 7 5 4 10 -3 6 -8 10 -11 10 -2 0
-4 -4 -4 -10z"/>
<path d="M5007 3869 c7 -7 15 -10 18 -7 3 3 -2 9 -12 12 -14 6 -15 5 -6 -5z"/>
<path d="M5126 3845 c-3 -9 0 -15 9 -15 8 0 15 7 15 15 0 8 -4 15 -9 15 -5 0
-11 -7 -15 -15z"/>
<path d="M5434 3845 c-5 -12 -9 -13 -20 -4 -12 10 -13 9 -8 -5 8 -21 16 -20
37 4 9 11 12 20 7 20 -6 0 -13 -7 -16 -15z"/>
<path d="M5726 3841 c-4 -5 -2 -12 3 -15 5 -4 12 -2 15 3 4 5 2 12 -3 15 -5 4
-12 2 -15 -3z"/>
<path d="M5790 3840 c0 -5 5 -10 11 -10 5 0 7 5 4 10 -3 6 -8 10 -11 10 -2 0
-4 -4 -4 -10z"/>
<path d="M4826 3825 c4 -8 8 -15 10 -15 2 0 4 7 4 15 0 8 -4 15 -10 15 -5 0
-7 -7 -4 -15z"/>
<path d="M5627 3834 c8 -4 9 -13 3 -29 -6 -16 -5 -27 4 -34 10 -8 11 -4 8 19
-4 26 -2 29 14 23 18 -6 18 -6 2 10 -9 9 -23 17 -30 16 -9 0 -10 -2 -1 -5z"/>
<path d="M4791 3804 c0 -11 3 -14 6 -6 3 7 2 16 -1 19 -3 4 -6 -2 -5 -13z"/>
<path d="M5723 3803 c-15 -5 -18 -43 -4 -43 5 0 11 11 13 25 3 14 5 25 4 24 0
0 -7 -3 -13 -6z"/>
<path d="M5214 3774 c8 -18 14 -19 28 -10 25 15 22 23 -10 28 -26 4 -27 2 -18
-18z"/>
<path d="M5655 3790 c3 -5 8 -10 11 -10 2 0 4 5 4 10 0 6 -5 10 -11 10 -5 0
-7 -4 -4 -10z"/>
<path d="M4945 3780 c-3 -6 1 -7 9 -4 18 7 21 14 7 14 -6 0 -13 -4 -16 -10z"/>
<path d="M5680 3770 c0 -5 5 -10 10 -10 6 0 10 5 10 10 0 6 -4 10 -10 10 -5 0
-10 -4 -10 -10z"/>
<path d="M4910 3760 c0 -5 5 -10 10 -10 6 0 10 5 10 10 0 6 -4 10 -10 10 -5 0
-10 -4 -10 -10z"/>
<path d="M5800 3746 c0 -9 5 -16 10 -16 6 0 10 4 10 9 0 6 -4 13 -10 16 -5 3
-10 -1 -10 -9z"/>
<path d="M5269 3733 c-7 -10 -9 -15 -5 -11 5 4 16 2 24 -5 13 -10 14 -9 7 2
-6 11 -4 13 8 8 10 -3 17 -2 17 2 0 7 -23 21 -35 21 -1 0 -9 -8 -16 -17z"/>
<path d="M5665 3739 c-4 -6 -5 -12 -2 -15 2 -3 7 2 10 11 7 17 1 20 -8 4z"/>
<path d="M4890 3730 c0 -5 -8 -7 -17 -4 -14 5 -15 4 -4 -4 7 -5 10 -16 7 -23
-4 -8 0 -5 8 5 16 20 21 36 11 36 -3 0 -5 -4 -5 -10z"/>
<path d="M5222 3733 c-6 -2 -10 -9 -6 -14 8 -14 21 -11 28 6 6 15 1 17 -22 8z"/>
<path d="M5775 3730 c3 -5 8 -10 11 -10 2 0 4 5 4 10 0 6 -5 10 -11 10 -5 0
-7 -4 -4 -10z"/>
<path d="M5958 3733 c7 -3 16 -2 19 1 4 3 -2 6 -13 5 -11 0 -14 -3 -6 -6z"/>
<path d="M5354 3719 c-3 -6 -2 -15 3 -20 5 -5 9 -1 10 11 2 22 -2 25 -13 9z"/>
<path d="M5730 3699 c0 -5 5 -7 10 -4 6 3 10 8 10 11 0 2 -4 4 -10 4 -5 0 -10
-5 -10 -11z"/>
<path d="M5556 3685 c-3 -8 -1 -15 4 -15 6 0 10 7 10 15 0 8 -2 15 -4 15 -2 0
-6 -7 -10 -15z"/>
<path d="M5800 3665 c7 -8 17 -12 22 -9 6 4 5 10 -3 15 -22 14 -33 10 -19 -6z"/>
<path d="M2226 3661 c-4 -7 -5 -15 -2 -18 9 -9 19 4 14 18 -4 11 -6 11 -12 0z"/>
<path d="M5070 3660 c0 -5 5 -10 10 -10 6 0 10 5 10 10 0 6 -4 10 -10 10 -5 0
-10 -4 -10 -10z"/>
<path d="M4903 3647 c0 -16 44 -21 53 -5 5 8 2 9 -9 5 -10 -3 -17 -2 -17 3 0
6 -6 10 -13 10 -8 0 -14 -6 -14 -13z"/>
<path d="M4995 3629 c-10 -15 0 -21 27 -17 l23 3 -22 13 c-15 8 -24 9 -28 1z"/>
<path d="M5074 3626 c-10 -8 -17 -16 -14 -19 3 -2 14 4 24 14 23 22 18 25 -10
5z"/>
<path d="M5260 3636 c0 -2 8 -10 18 -17 15 -13 16 -12 3 4 -13 16 -21 21 -21
13z"/>
<path d="M4435 3600 c3 -5 8 -10 11 -10 2 0 4 5 4 10 0 6 -5 10 -11 10 -5 0
-7 -4 -4 -10z"/>
<path d="M5855 3600 c3 -5 8 -10 11 -10 2 0 4 5 4 10 0 6 -5 10 -11 10 -5 0
-7 -4 -4 -10z"/>
<path d="M5047 3589 c7 -7 15 -10 18 -7 3 3 -2 9 -12 12 -14 6 -15 5 -6 -5z"/>
<path d="M5096 3564 c-4 -10 -1 -14 6 -12 15 5 23 28 10 28 -5 0 -13 -7 -16
-16z"/>
<path d="M5280 3555 c0 -12 -6 -27 -12 -34 -11 -12 -9 -13 7 -6 11 4 30 7 43
6 13 0 20 3 17 9 -3 6 -11 10 -17 10 -6 0 -17 8 -24 18 -13 16 -13 16 -14 -3z"/>
<path d="M5153 3538 c8 -13 13 -14 19 -5 12 18 10 23 -11 23 -15 0 -17 -3 -8
-18z"/>
<path d="M5220 3529 c0 -6 -9 -9 -20 -6 -11 3 -18 1 -14 -4 8 -14 30 -11 44 6
9 10 9 15 1 15 -6 0 -11 -5 -11 -11z"/>
<path d="M5320 3430 c0 -5 5 -10 11 -10 5 0 7 5 4 10 -3 6 -8 10 -11 10 -2 0
-4 -4 -4 -10z"/>
<path d="M2111 3414 c0 -11 3 -14 6 -6 3 7 2 16 -1 19 -3 4 -6 -2 -5 -13z"/>
<path d="M5526 3350 c6 -6 21 -6 39 -1 30 9 30 9 -9 10 -26 1 -37 -2 -30 -9z"/>
<path d="M2125 3340 c-3 -5 -1 -10 4 -10 6 0 11 5 11 10 0 6 -2 10 -4 10 -3 0
-8 -4 -11 -10z"/>
<path d="M5535 3310 c-3 -5 -1 -10 4 -10 6 0 11 5 11 10 0 6 -2 10 -4 10 -3 0
-8 -4 -11 -10z"/>
<path d="M5796 3271 c-3 -4 1 -17 8 -27 13 -17 14 -17 9 9 -6 29 -9 32 -17 18z"/>
<path d="M5410 3226 c0 -8 5 -18 10 -21 6 -3 10 3 10 14 0 12 -4 21 -10 21 -5
0 -10 -6 -10 -14z"/>
<path d="M1560 3179 c0 -5 5 -7 10 -4 6 3 10 8 10 11 0 2 -4 4 -10 4 -5 0 -10
-5 -10 -11z"/>
<path d="M1600 3169 c0 -11 5 -17 10 -14 6 3 10 13 10 21 0 8 -4 14 -10 14 -5
0 -10 -9 -10 -21z"/>
<path d="M2051 3174 c0 -11 3 -14 6 -6 3 7 2 16 -1 19 -3 4 -6 -2 -5 -13z"/>
<path d="M1806 3154 c-20 -19 -20 -25 -2 -18 8 3 17 12 20 20 7 18 1 18 -18
-2z"/>
<path d="M2101 3151 c-7 -5 -12 -14 -9 -21 2 -7 10 -4 22 9 19 21 12 28 -13
12z"/>
<path d="M5780 3150 c-13 -8 -12 -10 3 -10 9 0 17 5 17 10 0 12 -1 12 -20 0z"/>
<path d="M5818 3153 c7 -3 16 -2 19 1 4 3 -2 6 -13 5 -11 0 -14 -3 -6 -6z"/>
<path d="M2115 3122 c-10 -11 -4 -18 15 -18 11 0 20 5 20 11 0 12 -26 16 -35
7z"/>
<path d="M5788 3123 c6 -2 18 -2 25 0 6 3 1 5 -13 5 -14 0 -19 -2 -12 -5z"/>
<path d="M2060 3105 c-8 -9 -8 -15 -2 -15 12 0 26 19 19 26 -2 2 -10 -2 -17
-11z"/>
<path d="M2110 3081 c0 -17 18 -21 24 -6 3 9 0 15 -9 15 -8 0 -15 -4 -15 -9z"/>
<path d="M2094 3046 c0 -14 6 -22 13 -19 9 4 10 10 2 24 -13 25 -17 24 -15 -5z"/>
<path d="M5768 3043 c7 -3 16 -2 19 1 4 3 -2 6 -13 5 -11 0 -14 -3 -6 -6z"/>
<path d="M5867 3003 c17 -16 36 -37 42 -48 10 -19 10 -19 11 3 0 27 -41 72
-67 72 -13 0 -10 -6 14 -27z"/>
<path d="M1991 2953 c1 -32 1 -75 1 -96 -2 -37 -3 -38 -34 -36 -83 5 -120 -1
-125 -20 -3 -11 -10 -18 -17 -15 -8 3 -16 -16 -24 -54 -16 -76 -16 -90 0 -74
17 17 48 15 48 -2 0 -9 -12 -16 -32 -18 -25 -2 -32 -8 -34 -28 -1 -14 -5 -35
-9 -48 -6 -19 -3 -24 14 -29 11 -3 21 -9 21 -13 0 -4 11 -7 25 -7 14 0 25 3
25 8 0 5 4 9 9 9 5 0 7 -9 4 -20 -3 -12 1 -22 10 -26 22 -8 60 14 53 32 -3 7
0 13 6 11 6 -1 17 8 23 21 18 34 47 52 74 45 23 -6 24 -4 17 28 -5 19 -8 41
-8 49 0 8 -6 42 -13 75 -7 33 -13 69 -13 80 2 81 -6 185 -14 185 -6 0 -9 -26
-7 -57z m-23 -284 c59 -4 52 -19 -8 -19 -39 0 -50 4 -50 16 0 8 4 13 8 10 5
-3 27 -6 50 -7z"/>
<path d="M1809 2989 c-6 -62 -2 -188 5 -186 9 3 9 187 0 196 -2 2 -5 -2 -5
-10z"/>
<path d="M5960 2981 c0 -6 4 -13 10 -16 6 -3 7 1 4 9 -7 18 -14 21 -14 7z"/>
<path d="M2229 2923 c-13 -16 -12 -17 4 -4 9 7 17 15 17 17 0 8 -8 3 -21 -13z"/>
<path d="M5930 2930 c0 -5 5 -10 11 -10 5 0 7 5 4 10 -3 6 -8 10 -11 10 -2 0
-4 -4 -4 -10z"/>
<path d="M5918 2893 c6 -2 18 -2 25 0 6 3 1 5 -13 5 -14 0 -19 -2 -12 -5z"/>
<path d="M2205 2879 c-4 -6 -4 -13 -1 -16 8 -8 36 5 36 17 0 13 -27 13 -35 -1z"/>
<path d="M5920 2860 c0 -5 5 -10 11 -10 5 0 7 5 4 10 -3 6 -8 10 -11 10 -2 0
-4 -4 -4 -10z"/>
<path d="M2229 2831 c8 -5 10 -14 6 -22 -6 -11 -5 -11 5 -2 14 12 6 33 -13 33
-8 0 -7 -3 2 -9z"/>
<path d="M2335 2820 c4 -6 11 -8 16 -5 14 9 11 15 -7 15 -8 0 -12 -5 -9 -10z"/>
<path d="M5968 2813 c6 -2 18 -2 25 0 6 3 1 5 -13 5 -14 0 -19 -2 -12 -5z"/>
<path d="M2285 2800 c3 -5 10 -10 16 -10 5 0 9 5 9 10 0 6 -7 10 -16 10 -8 0
-12 -4 -9 -10z"/>
<path d="M5897 2773 c-16 -18 -19 -73 -4 -73 5 0 5 -4 2 -10 -3 -5 -2 -10 4
-10 6 0 8 -6 5 -14 -3 -7 6 -21 20 -30 23 -14 26 -14 26 -1 0 8 4 15 9 15 5 0
11 10 14 23 6 22 6 22 -14 -2 -24 -30 -35 -21 -54 44 -13 40 -13 46 0 42 9 -4
13 1 12 14 -2 23 0 23 -20 2z"/>
<path d="M2325 2770 c-3 -5 1 -10 9 -10 9 0 16 5 16 10 0 6 -4 10 -9 10 -6 0
-13 -4 -16 -10z"/>
<path d="M1015 2750 c3 -5 13 -10 21 -10 8 0 14 5 14 10 0 6 -9 10 -21 10 -11
0 -17 -4 -14 -10z"/>
<path d="M5940 2736 c0 -8 -6 -16 -12 -19 -7 -2 -10 -8 -5 -13 4 -4 14 2 23
14 8 12 20 19 26 16 7 -4 8 -2 4 4 -10 17 -36 15 -36 -2z"/>
<path d="M1090 2630 c-8 -5 -12 -11 -9 -14 2 -3 11 -1 19 4 8 5 12 11 9 14 -2
3 -11 1 -19 -4z"/>
<path d="M5970 2626 c0 -2 7 -9 15 -16 9 -7 15 -8 15 -2 0 5 -7 12 -15 16 -8
3 -15 4 -15 2z"/>
<path d="M970 2509 c0 -5 5 -7 10 -4 6 3 10 8 10 11 0 2 -4 4 -10 4 -5 0 -10
-5 -10 -11z"/>
<path d="M1137 2513 c-12 -12 -7 -22 8 -17 8 4 15 10 15 15 0 11 -14 12 -23 2z"/>
<path d="M574 2469 c-8 -14 22 -16 39 -4 16 12 15 13 -8 11 -15 0 -29 -4 -31
-7z"/>
<path d="M1831 2464 c0 -11 3 -14 6 -6 3 7 2 16 -1 19 -3 4 -6 -2 -5 -13z"/>
<path d="M2110 2463 c0 -11 3 -14 8 -7 4 6 14 14 22 17 10 4 8 6 -7 6 -16 1
-23 -5 -23 -16z"/>
<path d="M2165 2470 c-3 -5 -1 -10 4 -10 6 0 11 5 11 10 0 6 -2 10 -4 10 -3 0
-8 -4 -11 -10z"/>
<path d="M1820 2425 c0 -8 5 -15 10 -15 6 0 10 7 10 15 0 8 -4 15 -10 15 -5 0
-10 -7 -10 -15z"/>
<path d="M1327 83 c-7 -11 10 -40 18 -31 4 4 3 14 -3 24 -5 9 -12 12 -15 7z"/>
</g>
</svg>
